<svg width="683" height="458" viewBox="0 0 683 458" fill="none" xmlns="http://www.w3.org/2000/svg">
<path d="M2 193.062V29.6899C26.1272 36.8769 44.7705 40.4494 62.5355 40.4141C80.1778 40.379 96.8273 36.7864 117 29.8189V193.065C95.0366 200.912 77.7271 204.924 60.251 204.999C42.7616 205.074 24.9532 201.205 2 193.062Z" fill="#6B6B6B" stroke="black" stroke-width="4"/>
<path d="M117 25.5C117 28.3445 115.663 31.2216 112.901 34.0209C110.13 36.8288 106.02 39.4492 100.785 41.6929C90.3212 46.1774 75.7261 49 59.5 49C43.2739 49 28.6788 46.1774 18.215 41.6929C12.9795 39.4492 8.87044 36.8288 6.0993 34.0209C3.33664 31.2216 2 28.3445 2 25.5C2 22.6555 3.33664 19.7784 6.0993 16.9791C8.87044 14.1712 12.9795 11.5508 18.215 9.30707C28.6788 4.82257 43.2739 2 59.5 2C75.7261 2 90.3212 4.82257 100.785 9.30707C106.02 11.5508 110.13 14.1712 112.901 16.9791C115.663 19.7784 117 22.6555 117 25.5Z" fill="#3D3D3D" stroke="black" stroke-width="4"/>
<mask id="path-3-inside-1" fill="white">
<rect x="203" y="32" width="265" height="135" rx="3"/>
</mask>
<rect x="203" y="32" width="265" height="135" rx="3" fill="#7DE77B" stroke="black" stroke-width="8" mask="url(#path-3-inside-1)"/>
<rect x="600" y="13" width="81" height="188" rx="17" fill="#FF547D" stroke="black" stroke-width="4"/>
<path d="M640.235 109.772C640.235 110.505 640.136 111.149 639.937 111.706C639.743 112.257 639.462 112.717 639.093 113.086C638.729 113.455 638.284 113.733 637.757 113.921C637.229 114.108 636.638 114.202 635.981 114.202C635.243 114.202 634.61 114.108 634.083 113.921C633.556 113.733 633.128 113.464 632.8 113.112C632.472 112.761 632.234 112.333 632.088 111.829C631.941 111.325 631.868 110.76 631.868 110.133V102.513H634.03V110.001C634.03 110.388 634.062 110.73 634.127 111.029C634.197 111.328 634.314 111.583 634.479 111.794C634.648 111.999 634.859 112.154 635.111 112.26C635.363 112.365 635.68 112.418 636.061 112.418C636.418 112.418 636.72 112.374 636.966 112.286C637.212 112.192 637.417 112.046 637.581 111.847C637.745 111.642 637.868 111.381 637.95 111.064C638.032 110.748 638.073 110.364 638.073 109.913V102.513H640.235V109.772ZM642.318 104.279V102.513H649.578V104.279H647.047V112.216H649.578V114H642.318V112.216H644.85V104.279H642.318Z" fill="black"/>
<rect x="427" y="76" width="81" height="48" rx="17" fill="#FFFD54" stroke="black" stroke-width="4"/>
<mask id="path-7-inside-2" fill="white">
<rect x="234" y="56" width="162" height="87" rx="3"/>
</mask>
<rect x="234" y="56" width="162" height="87" rx="3" fill="#D1F562" stroke="black" stroke-width="8" mask="url(#path-7-inside-2)"/>
<mask id="path-8-inside-3" fill="white">
<rect x="255" y="102" width="51" height="27" rx="3"/>
</mask>
<rect x="255" y="102" width="51" height="27" rx="3" fill="#F262F5" stroke="black" stroke-width="8" mask="url(#path-8-inside-3)"/>
<mask id="path-9-inside-4" fill="white">
<rect x="313" y="102" width="27" height="27" rx="3"/>
</mask>
<rect x="313" y="102" width="27" height="27" rx="3" fill="#F262F5" stroke="black" stroke-width="8" mask="url(#path-9-inside-4)"/>
<mask id="path-10-inside-5" fill="white">
<rect x="347" y="102" width="27" height="27" rx="3"/>
</mask>
<rect x="347" y="102" width="27" height="27" rx="3" fill="#F262F5" stroke="black" stroke-width="8" mask="url(#path-10-inside-5)"/>
<path d="M264.086 89H261.546L260.412 85.458L259.999 84.0166L259.604 85.4932L258.487 89H256.053L255.411 77.5127H257.318L257.591 84.8779L257.661 86.8906L258.18 85.0977L259.445 81.0107H260.808L262.144 85.3438L262.574 86.873L262.609 85.0801L262.899 77.5127H264.736L264.086 89ZM271.987 83.542C271.999 83.208 271.981 82.9238 271.935 82.6895C271.894 82.4551 271.823 82.2617 271.724 82.1094C271.63 81.957 271.513 81.8457 271.372 81.7754C271.231 81.7051 271.07 81.6699 270.889 81.6699C270.572 81.6699 270.244 81.8018 269.904 82.0654C269.57 82.3232 269.201 82.751 268.797 83.3486V89H266.6V80.0703H268.542L268.621 81.3711C268.768 81.1426 268.932 80.9375 269.113 80.7559C269.301 80.5742 269.506 80.4189 269.729 80.29C269.957 80.1553 270.209 80.0527 270.484 79.9824C270.76 79.9121 271.062 79.877 271.39 79.877C271.841 79.877 272.239 79.9561 272.585 80.1143C272.937 80.2666 273.229 80.4951 273.464 80.7998C273.704 81.1045 273.88 81.4883 273.991 81.9512C274.108 82.4082 274.158 82.9385 274.141 83.542H271.987ZM281.392 77.627C281.392 77.8203 281.356 78.002 281.286 78.1719C281.216 78.3418 281.116 78.4912 280.987 78.6201C280.864 78.7432 280.718 78.8428 280.548 78.9189C280.378 78.9893 280.193 79.0244 279.994 79.0244C279.795 79.0244 279.607 78.9893 279.432 78.9189C279.262 78.8428 279.112 78.7432 278.983 78.6201C278.86 78.4912 278.764 78.3418 278.693 78.1719C278.623 78.002 278.588 77.8203 278.588 77.627C278.588 77.4336 278.623 77.252 278.693 77.082C278.764 76.9121 278.86 76.7627 278.983 76.6338C279.112 76.5049 279.262 76.4053 279.432 76.335C279.607 76.2588 279.795 76.2207 279.994 76.2207C280.193 76.2207 280.378 76.2588 280.548 76.335C280.718 76.4053 280.864 76.5049 280.987 76.6338C281.116 76.7627 281.216 76.9121 281.286 77.082C281.356 77.252 281.392 77.4336 281.392 77.627ZM279.019 81.7402H276.496V80.0703H281.216V87.3301H283.791V89H276.188V87.3301H279.019V81.7402ZM293.397 88.9121C293.011 89 292.621 89.0703 292.229 89.123C291.836 89.1758 291.464 89.2021 291.112 89.2021C290.526 89.2021 290.02 89.1406 289.592 89.0176C289.17 88.8945 288.818 88.707 288.537 88.4551C288.262 88.2031 288.057 87.8838 287.922 87.4971C287.793 87.1045 287.729 86.6387 287.729 86.0996V81.7402H285.329V80.0703H287.729V77.7852L289.926 77.2139V80.0703H293.397V81.7402H289.926V85.9414C289.926 86.4512 290.043 86.8379 290.277 87.1016C290.512 87.3594 290.904 87.4883 291.455 87.4883C291.807 87.4883 292.149 87.459 292.483 87.4004C292.817 87.3418 293.122 87.2744 293.397 87.1982V88.9121ZM303.707 83.8496C303.707 83.9961 303.701 84.1865 303.689 84.4209C303.684 84.6553 303.672 84.875 303.654 85.0801H297.783C297.783 85.4727 297.842 85.8184 297.959 86.1172C298.082 86.416 298.252 86.668 298.469 86.873C298.691 87.0723 298.955 87.2246 299.26 87.3301C299.57 87.4355 299.913 87.4883 300.288 87.4883C300.722 87.4883 301.185 87.4561 301.677 87.3916C302.175 87.3213 302.69 87.21 303.224 87.0576V88.7627C302.995 88.8271 302.746 88.8857 302.477 88.9385C302.207 88.9912 301.932 89.0381 301.65 89.0791C301.369 89.1201 301.085 89.1494 300.798 89.167C300.511 89.1904 300.232 89.2021 299.963 89.2021C299.283 89.2021 298.674 89.1055 298.135 88.9121C297.596 88.7188 297.139 88.4346 296.764 88.0596C296.389 87.6787 296.102 87.21 295.902 86.6533C295.703 86.0967 295.604 85.4521 295.604 84.7197C295.604 83.9932 295.703 83.334 295.902 82.7422C296.102 82.1445 296.383 81.6348 296.746 81.2129C297.109 80.7852 297.549 80.457 298.064 80.2285C298.586 79.9941 299.166 79.877 299.805 79.877C300.438 79.877 300.997 79.9766 301.483 80.1758C301.97 80.3691 302.377 80.6416 302.705 80.9932C303.033 81.3447 303.282 81.7637 303.452 82.25C303.622 82.7363 303.707 83.2695 303.707 83.8496ZM301.527 83.542C301.533 83.1904 301.489 82.8857 301.396 82.6279C301.302 82.3643 301.173 82.1475 301.009 81.9775C300.851 81.8076 300.663 81.6816 300.446 81.5996C300.235 81.5176 300.007 81.4766 299.761 81.4766C299.222 81.4766 298.779 81.6582 298.434 82.0215C298.088 82.3789 297.883 82.8857 297.818 83.542H301.527ZM322.094 89L321.883 82.5049L321.804 79.9121L321.25 81.6699L319.976 85.5811H318.622L317.471 81.6699L316.987 79.9121L316.926 82.4521L316.732 89H314.896L315.458 77.5127H317.901L318.912 80.7734L319.396 82.6104L319.879 80.8789L320.942 77.5127H323.43L324.001 89H322.094ZM333.66 84.4648C333.66 85.168 333.561 85.8125 333.361 86.3984C333.162 86.9785 332.875 87.4766 332.5 87.8926C332.125 88.3086 331.665 88.6309 331.12 88.8594C330.575 89.0879 329.954 89.2021 329.257 89.2021C328.595 89.2021 328.003 89.1055 327.481 88.9121C326.96 88.7188 326.518 88.4316 326.154 88.0508C325.791 87.6641 325.513 87.1836 325.319 86.6094C325.126 86.0293 325.029 85.3555 325.029 84.5879C325.029 83.8789 325.129 83.2344 325.328 82.6543C325.533 82.0742 325.823 81.5791 326.198 81.1689C326.579 80.7588 327.042 80.4424 327.587 80.2197C328.132 79.9912 328.747 79.877 329.433 79.877C330.101 79.877 330.695 79.9766 331.217 80.1758C331.738 80.3691 332.181 80.6592 332.544 81.0459C332.907 81.4326 333.183 81.9131 333.37 82.4873C333.563 83.0557 333.66 83.7148 333.66 84.4648ZM331.428 84.5176C331.428 83.5918 331.252 82.8975 330.9 82.4346C330.555 81.9658 330.042 81.7314 329.362 81.7314C328.987 81.7314 328.668 81.8047 328.404 81.9512C328.141 82.0977 327.924 82.2998 327.754 82.5576C327.584 82.8096 327.458 83.1055 327.376 83.4453C327.3 83.7852 327.262 84.1484 327.262 84.5352C327.262 85.4668 327.449 86.1699 327.824 86.6445C328.199 87.1133 328.712 87.3477 329.362 87.3477C329.72 87.3477 330.03 87.2773 330.294 87.1367C330.558 86.9902 330.771 86.791 330.936 86.5391C331.1 86.2812 331.223 85.9795 331.305 85.6338C331.387 85.2881 331.428 84.916 331.428 84.5176ZM341.131 89L341.078 87.6816C340.891 87.9102 340.697 88.1182 340.498 88.3057C340.299 88.4932 340.085 88.6543 339.856 88.7891C339.628 88.918 339.382 89.0176 339.118 89.0879C338.86 89.1641 338.573 89.2021 338.257 89.2021C337.729 89.2021 337.261 89.0967 336.851 88.8857C336.44 88.6748 336.095 88.376 335.813 87.9893C335.538 87.5967 335.327 87.1221 335.181 86.5654C335.034 86.0088 334.961 85.3877 334.961 84.7021C334.961 83.8818 335.075 83.1729 335.304 82.5752C335.538 81.9717 335.86 81.4736 336.271 81.0811C336.681 80.6826 337.167 80.3896 337.729 80.2021C338.292 80.0088 338.904 79.9121 339.566 79.9121C339.789 79.9121 340.012 79.9268 340.234 79.9561C340.463 79.9854 340.665 80.0234 340.841 80.0703V76.5811H342.985V89H341.131ZM337.211 84.6055C337.211 85.0977 337.243 85.5195 337.308 85.8711C337.378 86.2168 337.478 86.501 337.606 86.7236C337.741 86.9463 337.905 87.1104 338.099 87.2158C338.292 87.3154 338.512 87.3652 338.758 87.3652C339.121 87.3652 339.467 87.2188 339.795 86.9258C340.123 86.6328 340.472 86.2314 340.841 85.7217V81.8193C340.671 81.7549 340.46 81.7021 340.208 81.6611C339.962 81.6201 339.713 81.5996 339.461 81.5996C339.115 81.5996 338.805 81.6699 338.529 81.8105C338.254 81.9512 338.017 82.1504 337.817 82.4082C337.624 82.666 337.475 82.9824 337.369 83.3574C337.264 83.7266 337.211 84.1426 337.211 84.6055ZM353.189 83.8496C353.189 83.9961 353.184 84.1865 353.172 84.4209C353.166 84.6553 353.154 84.875 353.137 85.0801H347.266C347.266 85.4727 347.324 85.8184 347.441 86.1172C347.564 86.416 347.734 86.668 347.951 86.873C348.174 87.0723 348.438 87.2246 348.742 87.3301C349.053 87.4355 349.396 87.4883 349.771 87.4883C350.204 87.4883 350.667 87.4561 351.159 87.3916C351.657 87.3213 352.173 87.21 352.706 87.0576V88.7627C352.478 88.8271 352.229 88.8857 351.959 88.9385C351.689 88.9912 351.414 89.0381 351.133 89.0791C350.852 89.1201 350.567 89.1494 350.28 89.167C349.993 89.1904 349.715 89.2021 349.445 89.2021C348.766 89.2021 348.156 89.1055 347.617 88.9121C347.078 88.7188 346.621 88.4346 346.246 88.0596C345.871 87.6787 345.584 87.21 345.385 86.6533C345.186 86.0967 345.086 85.4521 345.086 84.7197C345.086 83.9932 345.186 83.334 345.385 82.7422C345.584 82.1445 345.865 81.6348 346.229 81.2129C346.592 80.7852 347.031 80.457 347.547 80.2285C348.068 79.9941 348.648 79.877 349.287 79.877C349.92 79.877 350.479 79.9766 350.966 80.1758C351.452 80.3691 351.859 80.6416 352.188 80.9932C352.516 81.3447 352.765 81.7637 352.935 82.25C353.104 82.7363 353.189 83.2695 353.189 83.8496ZM351.01 83.542C351.016 83.1904 350.972 82.8857 350.878 82.6279C350.784 82.3643 350.655 82.1475 350.491 81.9775C350.333 81.8076 350.146 81.6816 349.929 81.5996C349.718 81.5176 349.489 81.4766 349.243 81.4766C348.704 81.4766 348.262 81.6582 347.916 82.0215C347.57 82.3789 347.365 82.8857 347.301 83.542H351.01ZM358.19 78.251H355.668V76.5811H360.388V87.3301H362.963V89H355.36V87.3301H358.19V78.251ZM372.569 86.3721C372.569 86.8818 372.455 87.3184 372.227 87.6816C372.004 88.0391 371.705 88.332 371.33 88.5605C370.961 88.7832 370.539 88.9443 370.064 89.0439C369.596 89.1494 369.115 89.2021 368.623 89.2021C367.967 89.2021 367.375 89.1699 366.848 89.1055C366.32 89.0469 365.822 88.959 365.354 88.8418V86.9082C365.904 87.1367 366.452 87.3037 366.997 87.4092C367.548 87.5088 368.066 87.5586 368.553 87.5586C369.115 87.5586 369.534 87.4707 369.81 87.2949C370.091 87.1133 370.231 86.8789 370.231 86.5918C370.231 86.457 370.202 86.334 370.144 86.2227C370.085 86.1113 369.974 86.0059 369.81 85.9062C369.651 85.8008 369.426 85.6953 369.133 85.5898C368.84 85.4785 368.456 85.3555 367.981 85.2207C367.542 85.0977 367.155 84.96 366.821 84.8076C366.493 84.6494 366.221 84.4648 366.004 84.2539C365.787 84.043 365.623 83.7998 365.512 83.5244C365.406 83.2432 365.354 82.915 365.354 82.54C365.354 82.1768 365.436 81.834 365.6 81.5117C365.764 81.1895 366.007 80.9082 366.329 80.668C366.657 80.4219 367.064 80.2285 367.551 80.0879C368.037 79.9473 368.605 79.877 369.256 79.877C369.818 79.877 370.316 79.9062 370.75 79.9648C371.184 80.0234 371.567 80.0879 371.901 80.1582V81.9072C371.392 81.7432 370.911 81.6289 370.46 81.5645C370.015 81.4941 369.572 81.459 369.133 81.459C368.693 81.459 368.339 81.5381 368.069 81.6963C367.806 81.8545 367.674 82.0742 367.674 82.3555C367.674 82.4902 367.7 82.6104 367.753 82.7158C367.806 82.8213 367.908 82.9238 368.061 83.0234C368.219 83.123 368.436 83.2285 368.711 83.3398C368.992 83.4453 369.361 83.5625 369.818 83.6914C370.334 83.8379 370.768 83.9961 371.119 84.166C371.471 84.3301 371.752 84.5176 371.963 84.7285C372.18 84.9395 372.335 85.1797 372.429 85.4492C372.522 85.7188 372.569 86.0264 372.569 86.3721Z" fill="black"/>
<path d="M458.031 105.552C457.521 105.757 457.026 105.909 456.546 106.009C456.071 106.108 455.576 106.158 455.061 106.158C454.234 106.158 453.502 106.038 452.863 105.798C452.23 105.552 451.694 105.188 451.255 104.708C450.821 104.228 450.49 103.633 450.262 102.924C450.039 102.209 449.928 101.38 449.928 100.437C449.928 99.4697 450.051 98.6113 450.297 97.8613C450.543 97.1055 450.895 96.4697 451.352 95.9541C451.809 95.4326 452.362 95.0371 453.013 94.7676C453.669 94.4922 454.404 94.3545 455.219 94.3545C455.482 94.3545 455.729 94.3604 455.957 94.3721C456.191 94.3838 456.42 94.4072 456.643 94.4424C456.865 94.4717 457.091 94.5127 457.319 94.5654C457.548 94.6182 457.785 94.6855 458.031 94.7676V96.9121C457.533 96.6777 457.059 96.5107 456.607 96.4111C456.156 96.3115 455.746 96.2617 455.377 96.2617C454.832 96.2617 454.366 96.3613 453.979 96.5605C453.593 96.7539 453.273 97.0293 453.021 97.3867C452.775 97.7383 452.594 98.1602 452.477 98.6523C452.359 99.1387 452.301 99.6748 452.301 100.261C452.301 100.882 452.359 101.438 452.477 101.931C452.6 102.417 452.787 102.83 453.039 103.17C453.291 103.51 453.613 103.771 454.006 103.952C454.398 104.128 454.864 104.216 455.403 104.216C455.597 104.216 455.805 104.198 456.027 104.163C456.256 104.122 456.484 104.072 456.713 104.014C456.947 103.949 457.176 103.876 457.398 103.794C457.627 103.706 457.838 103.618 458.031 103.53V105.552ZM467.69 105.912C467.304 106 466.914 106.07 466.521 106.123C466.129 106.176 465.757 106.202 465.405 106.202C464.819 106.202 464.312 106.141 463.885 106.018C463.463 105.895 463.111 105.707 462.83 105.455C462.555 105.203 462.35 104.884 462.215 104.497C462.086 104.104 462.021 103.639 462.021 103.1V98.7402H459.622V97.0703H462.021V94.7852L464.219 94.2139V97.0703H467.69V98.7402H464.219V102.941C464.219 103.451 464.336 103.838 464.57 104.102C464.805 104.359 465.197 104.488 465.748 104.488C466.1 104.488 466.442 104.459 466.776 104.4C467.11 104.342 467.415 104.274 467.69 104.198V105.912ZM475.97 100.542C475.981 100.208 475.964 99.9238 475.917 99.6895C475.876 99.4551 475.806 99.2617 475.706 99.1094C475.612 98.957 475.495 98.8457 475.354 98.7754C475.214 98.7051 475.053 98.6699 474.871 98.6699C474.555 98.6699 474.227 98.8018 473.887 99.0654C473.553 99.3232 473.184 99.751 472.779 100.349V106H470.582V97.0703H472.524L472.604 98.3711C472.75 98.1426 472.914 97.9375 473.096 97.7559C473.283 97.5742 473.488 97.4189 473.711 97.29C473.939 97.1553 474.191 97.0527 474.467 96.9824C474.742 96.9121 475.044 96.877 475.372 96.877C475.823 96.877 476.222 96.9561 476.567 97.1143C476.919 97.2666 477.212 97.4951 477.446 97.7998C477.687 98.1045 477.862 98.4883 477.974 98.9512C478.091 99.4082 478.141 99.9385 478.123 100.542H475.97ZM483.001 95.251H480.479V93.5811H485.198V104.33H487.773V106H480.171V104.33H483.001V95.251Z" fill="black"/>
<path d="M362.522 121L361.89 118.732H357.882L357.231 121H355.087L358.488 109.513H361.512L364.913 121H362.522ZM359.912 111.622L358.4 116.966H361.406L359.912 111.622Z" fill="black"/>
<path d="M328.522 122L327.89 119.732H323.882L323.231 122H321.087L324.488 110.513H327.512L330.913 122H328.522ZM325.912 112.622L324.4 117.966H327.406L325.912 112.622Z" fill="black"/>
<path d="M281.522 121L280.89 118.732H276.882L276.231 121H274.087L277.488 109.513H280.512L283.913 121H281.522ZM278.912 111.622L277.4 116.966H280.406L278.912 111.622Z" fill="black"/>
<path d="M527.939 93.9393C527.354 94.5251 527.354 95.4749 527.939 96.0607L537.485 105.607C538.071 106.192 539.021 106.192 539.607 105.607C540.192 105.021 540.192 104.071 539.607 103.485L531.121 95L539.607 86.5147C540.192 85.9289 540.192 84.9792 539.607 84.3934C539.021 83.8076 538.071 83.8076 537.485 84.3934L527.939 93.9393ZM566 93.5L529 93.5L529 96.5L566 96.5L566 93.5Z" fill="black"/>
<path d="M397.939 100.939C397.354 101.525 397.354 102.475 397.939 103.061L407.485 112.607C408.071 113.192 409.021 113.192 409.607 112.607C410.192 112.021 410.192 111.071 409.607 110.485L401.121 102L409.607 93.5147C410.192 92.9289 410.192 91.9792 409.607 91.3934C409.021 90.8076 408.071 90.8076 407.485 91.3934L397.939 100.939ZM425 100.5H399V103.5H425V100.5Z" fill="black"/>
<path d="M135.939 112.939C135.354 113.525 135.354 114.475 135.939 115.061L145.485 124.607C146.071 125.192 147.021 125.192 147.607 124.607C148.192 124.021 148.192 123.071 147.607 122.485L139.121 114L147.607 105.515C148.192 104.929 148.192 103.979 147.607 103.393C147.021 102.808 146.071 102.808 145.485 103.393L135.939 112.939ZM256 112.5L137 112.5L137 115.5L256 115.5L256 112.5Z" fill="black"/>
<path d="M581.061 129.061C581.646 128.475 581.646 127.525 581.061 126.939L571.515 117.393C570.929 116.808 569.979 116.808 569.393 117.393C568.808 117.979 568.808 118.929 569.393 119.515L577.879 128L569.393 136.485C568.808 137.071 568.808 138.021 569.393 138.607C569.979 139.192 570.929 139.192 571.515 138.607L581.061 129.061ZM522 129.5L580 129.5L580 126.5L522 126.5L522 129.5Z" fill="black"/>
<path d="M515.444 195V193.418L518.16 190.702C518.67 190.192 519.077 189.753 519.382 189.384C519.692 189.015 519.93 188.687 520.094 188.399C520.264 188.106 520.375 187.837 520.428 187.591C520.48 187.345 520.507 187.09 520.507 186.826C520.507 186.609 520.472 186.404 520.401 186.211C520.331 186.012 520.229 185.842 520.094 185.701C519.959 185.555 519.789 185.44 519.584 185.358C519.379 185.271 519.145 185.227 518.881 185.227C518.43 185.227 518.011 185.326 517.624 185.525C517.237 185.719 516.871 185.979 516.525 186.308L515.392 184.849C515.89 184.386 516.449 184.017 517.07 183.741C517.697 183.46 518.374 183.319 519.101 183.319C519.663 183.319 520.173 183.393 520.63 183.539C521.087 183.68 521.477 183.891 521.799 184.172C522.127 184.453 522.379 184.805 522.555 185.227C522.736 185.648 522.827 186.135 522.827 186.686C522.827 187.143 522.766 187.57 522.643 187.969C522.52 188.361 522.341 188.745 522.106 189.12C521.872 189.495 521.582 189.87 521.236 190.245C520.896 190.62 520.507 191.016 520.067 191.432L518.397 193.022H523.24V195H515.444ZM533.638 189.208C533.638 190.151 533.535 190.995 533.33 191.739C533.125 192.483 532.823 193.113 532.425 193.629C532.032 194.139 531.552 194.528 530.983 194.798C530.415 195.067 529.765 195.202 529.032 195.202C528.399 195.202 527.816 195.091 527.283 194.868C526.75 194.646 526.29 194.297 525.903 193.822C525.517 193.342 525.215 192.729 524.998 191.985C524.781 191.241 524.673 190.351 524.673 189.313C524.673 188.37 524.775 187.526 524.98 186.782C525.191 186.038 525.493 185.411 525.886 184.901C526.278 184.386 526.762 183.993 527.336 183.724C527.91 183.454 528.561 183.319 529.287 183.319C529.92 183.319 530.503 183.431 531.036 183.653C531.569 183.876 532.026 184.225 532.407 184.699C532.794 185.174 533.096 185.783 533.312 186.527C533.529 187.271 533.638 188.165 533.638 189.208ZM526.835 189.243C526.835 189.36 526.835 189.472 526.835 189.577C526.835 189.677 526.841 189.779 526.853 189.885L531.159 186.773C530.954 186.193 530.682 185.766 530.342 185.49C530.008 185.209 529.612 185.068 529.155 185.068C528.827 185.068 528.522 185.153 528.241 185.323C527.96 185.487 527.714 185.742 527.503 186.088C527.298 186.434 527.134 186.867 527.011 187.389C526.894 187.91 526.835 188.528 526.835 189.243ZM531.476 189.278C531.476 189.179 531.473 189.079 531.467 188.979C531.461 188.874 531.458 188.774 531.458 188.681L527.178 191.774C527.365 192.343 527.629 192.765 527.969 193.04C528.309 193.315 528.704 193.453 529.155 193.453C529.483 193.453 529.788 193.368 530.069 193.198C530.356 193.028 530.603 192.773 530.808 192.434C531.019 192.088 531.183 191.654 531.3 191.133C531.417 190.605 531.476 189.987 531.476 189.278ZM543.534 189.208C543.534 190.151 543.432 190.995 543.227 191.739C543.021 192.483 542.72 193.113 542.321 193.629C541.929 194.139 541.448 194.528 540.88 194.798C540.312 195.067 539.661 195.202 538.929 195.202C538.296 195.202 537.713 195.091 537.18 194.868C536.646 194.646 536.187 194.297 535.8 193.822C535.413 193.342 535.111 192.729 534.895 191.985C534.678 191.241 534.569 190.351 534.569 189.313C534.569 188.37 534.672 187.526 534.877 186.782C535.088 186.038 535.39 185.411 535.782 184.901C536.175 184.386 536.658 183.993 537.232 183.724C537.807 183.454 538.457 183.319 539.184 183.319C539.816 183.319 540.399 183.431 540.933 183.653C541.466 183.876 541.923 184.225 542.304 184.699C542.69 185.174 542.992 185.783 543.209 186.527C543.426 187.271 543.534 188.165 543.534 189.208ZM536.731 189.243C536.731 189.36 536.731 189.472 536.731 189.577C536.731 189.677 536.737 189.779 536.749 189.885L541.056 186.773C540.851 186.193 540.578 185.766 540.238 185.49C539.904 185.209 539.509 185.068 539.052 185.068C538.724 185.068 538.419 185.153 538.138 185.323C537.856 185.487 537.61 185.742 537.399 186.088C537.194 186.434 537.03 186.867 536.907 187.389C536.79 187.91 536.731 188.528 536.731 189.243ZM541.372 189.278C541.372 189.179 541.369 189.079 541.363 188.979C541.357 188.874 541.354 188.774 541.354 188.681L537.074 191.774C537.262 192.343 537.525 192.765 537.865 193.04C538.205 193.315 538.601 193.453 539.052 193.453C539.38 193.453 539.685 193.368 539.966 193.198C540.253 193.028 540.499 192.773 540.704 192.434C540.915 192.088 541.079 191.654 541.196 191.133C541.313 190.605 541.372 189.987 541.372 189.278ZM563.468 189.208C563.468 190.251 563.345 191.15 563.099 191.906C562.858 192.662 562.524 193.283 562.097 193.77C561.675 194.256 561.177 194.616 560.603 194.851C560.034 195.085 559.425 195.202 558.774 195.202C557.263 195.202 556.126 194.701 555.364 193.699C554.603 192.691 554.222 191.229 554.222 189.313C554.222 188.271 554.342 187.371 554.582 186.615C554.828 185.859 555.162 185.238 555.584 184.752C556.012 184.266 556.51 183.905 557.078 183.671C557.652 183.437 558.265 183.319 558.915 183.319C560.427 183.319 561.563 183.82 562.325 184.822C563.087 185.824 563.468 187.286 563.468 189.208ZM561.183 189.313C561.183 187.954 561.001 186.94 560.638 186.272C560.274 185.604 559.677 185.271 558.845 185.271C558.429 185.271 558.074 185.358 557.781 185.534C557.488 185.704 557.245 185.956 557.052 186.29C556.864 186.624 556.727 187.037 556.639 187.529C556.551 188.016 556.507 188.575 556.507 189.208C556.507 190.567 556.688 191.581 557.052 192.249C557.421 192.917 558.019 193.251 558.845 193.251C559.261 193.251 559.615 193.166 559.908 192.996C560.207 192.82 560.45 192.565 560.638 192.231C560.825 191.897 560.963 191.487 561.051 191.001C561.139 190.509 561.183 189.946 561.183 189.313ZM570.578 195L567.124 189.445V195H564.927V183.513H567.124V188.742L570.561 183.513H573.171L569.269 188.988L573.373 195H570.578Z" fill="black"/>
<path d="M522.187 65.5518C521.677 65.7568 521.182 65.9092 520.701 66.0088C520.227 66.1084 519.731 66.1582 519.216 66.1582C518.39 66.1582 517.657 66.0381 517.019 65.7979C516.386 65.5518 515.85 65.1885 515.41 64.708C514.977 64.2275 514.646 63.6328 514.417 62.9238C514.194 62.209 514.083 61.3799 514.083 60.4365C514.083 59.4697 514.206 58.6113 514.452 57.8613C514.698 57.1055 515.05 56.4697 515.507 55.9541C515.964 55.4326 516.518 55.0371 517.168 54.7676C517.824 54.4922 518.56 54.3545 519.374 54.3545C519.638 54.3545 519.884 54.3604 520.112 54.3721C520.347 54.3838 520.575 54.4072 520.798 54.4424C521.021 54.4717 521.246 54.5127 521.475 54.5654C521.703 54.6182 521.94 54.6855 522.187 54.7676V56.9121C521.688 56.6777 521.214 56.5107 520.763 56.4111C520.312 56.3115 519.901 56.2617 519.532 56.2617C518.987 56.2617 518.521 56.3613 518.135 56.5605C517.748 56.7539 517.429 57.0293 517.177 57.3867C516.931 57.7383 516.749 58.1602 516.632 58.6523C516.515 59.1387 516.456 59.6748 516.456 60.2607C516.456 60.8818 516.515 61.4385 516.632 61.9307C516.755 62.417 516.942 62.8301 517.194 63.1699C517.446 63.5098 517.769 63.7705 518.161 63.9521C518.554 64.1279 519.02 64.2158 519.559 64.2158C519.752 64.2158 519.96 64.1982 520.183 64.1631C520.411 64.1221 520.64 64.0723 520.868 64.0137C521.103 63.9492 521.331 63.876 521.554 63.7939C521.782 63.7061 521.993 63.6182 522.187 63.5303V65.5518ZM532.83 60.208C532.83 61.251 532.707 62.1504 532.461 62.9062C532.221 63.6621 531.887 64.2832 531.459 64.7695C531.037 65.2559 530.539 65.6162 529.965 65.8506C529.396 66.085 528.787 66.2021 528.137 66.2021C526.625 66.2021 525.488 65.7012 524.727 64.6992C523.965 63.6914 523.584 62.2295 523.584 60.3135C523.584 59.2705 523.704 58.3711 523.944 57.6152C524.19 56.8594 524.524 56.2383 524.946 55.752C525.374 55.2656 525.872 54.9053 526.44 54.6709C527.015 54.4365 527.627 54.3193 528.277 54.3193C529.789 54.3193 530.926 54.8203 531.688 55.8223C532.449 56.8242 532.83 58.2861 532.83 60.208ZM530.545 60.3135C530.545 58.9541 530.363 57.9404 530 57.2725C529.637 56.6045 529.039 56.2705 528.207 56.2705C527.791 56.2705 527.437 56.3584 527.144 56.5342C526.851 56.7041 526.607 56.9561 526.414 57.29C526.227 57.624 526.089 58.0371 526.001 58.5293C525.913 59.0156 525.869 59.5752 525.869 60.208C525.869 61.5674 526.051 62.5811 526.414 63.249C526.783 63.917 527.381 64.251 528.207 64.251C528.623 64.251 528.978 64.166 529.271 63.9961C529.569 63.8203 529.812 63.5654 530 63.2314C530.188 62.8975 530.325 62.4873 530.413 62.001C530.501 61.5088 530.545 60.9463 530.545 60.3135ZM540.749 66L540.538 59.5049L540.459 56.9121L539.905 58.6699L538.631 62.5811H537.277L536.126 58.6699L535.643 56.9121L535.581 59.4521L535.388 66H533.551L534.113 54.5127H536.557L537.567 57.7734L538.051 59.6104L538.534 57.8789L539.598 54.5127H542.085L542.656 66H540.749ZM550.646 66L550.435 59.5049L550.355 56.9121L549.802 58.6699L548.527 62.5811H547.174L546.022 58.6699L545.539 56.9121L545.478 59.4521L545.284 66H543.447L544.01 54.5127H546.453L547.464 57.7734L547.947 59.6104L548.431 57.8789L549.494 54.5127H551.981L552.553 66H550.646ZM560.419 66L559.786 63.7324H555.778L555.128 66H552.983L556.385 54.5127H559.408L562.81 66H560.419ZM557.809 56.6221L556.297 61.9658H559.303L557.809 56.6221ZM569.349 66L566.272 59.1445L565.64 57.668V62.4316V66H563.671V54.5127H566.325L569.463 61.4121L570.017 62.7568V57.6855V54.5127H571.985V66H569.349ZM582.172 60.1113C582.172 61.002 582.061 61.8105 581.838 62.5371C581.621 63.2637 581.278 63.8848 580.81 64.4004C580.347 64.9102 579.752 65.3057 579.025 65.5869C578.299 65.8623 577.429 66 576.415 66H573.497V54.5127H576.898C577.777 54.5127 578.545 54.624 579.201 54.8467C579.863 55.0635 580.414 55.4004 580.854 55.8574C581.293 56.3145 581.621 56.8945 581.838 57.5977C582.061 58.3008 582.172 59.1387 582.172 60.1113ZM579.852 60.252C579.852 59.6309 579.802 59.0771 579.702 58.5908C579.603 58.1045 579.433 57.6943 579.192 57.3604C578.958 57.0205 578.642 56.7627 578.243 56.5869C577.845 56.4111 577.35 56.3232 576.758 56.3232H575.659V64.1895H576.608C577.669 64.1895 578.475 63.873 579.025 63.2402C579.576 62.6074 579.852 61.6113 579.852 60.252Z" fill="black"/>
<circle cx="547.5" cy="31.5" r="10" fill="#7F00CD" stroke="black" stroke-width="3"/>
<path d="M545.092 35V33.7285H547.043V28.8066L545.344 29.7441L544.875 28.5781L547.307 27.2949H548.508V33.7285H550.189V35H545.092Z" fill="white"/>
<circle cx="236.5" cy="60.5" r="10" fill="#7F00CD" stroke="black" stroke-width="3"/>
<path d="M239.178 61.6621C239.178 62.041 239.107 62.3828 238.967 62.6875C238.826 62.9883 238.609 63.2461 238.316 63.4609C238.027 63.6719 237.662 63.834 237.221 63.9473C236.779 64.0605 236.26 64.1172 235.662 64.1172C235.529 64.1172 235.389 64.1133 235.24 64.1055C235.096 64.1016 234.951 64.0938 234.807 64.082C234.662 64.0742 234.521 64.0625 234.385 64.0469C234.248 64.0352 234.125 64.0195 234.016 64V62.7578C234.262 62.8047 234.537 62.8438 234.842 62.875C235.15 62.9023 235.471 62.916 235.803 62.916C236.127 62.916 236.406 62.8887 236.641 62.834C236.875 62.7793 237.068 62.7012 237.221 62.5996C237.373 62.4941 237.484 62.3652 237.555 62.2129C237.629 62.0605 237.666 61.8887 237.666 61.6973C237.666 61.5293 237.629 61.377 237.555 61.2402C237.48 61.1035 237.367 60.9883 237.215 60.8945C237.062 60.7969 236.867 60.7227 236.629 60.6719C236.395 60.6172 236.115 60.5898 235.791 60.5898H234.941V59.5H235.721C236.025 59.5 236.277 59.4707 236.477 59.4121C236.68 59.3496 236.84 59.2676 236.957 59.166C237.078 59.0645 237.164 58.9453 237.215 58.8086C237.266 58.668 237.291 58.5215 237.291 58.3691C237.291 58.0566 237.189 57.8203 236.986 57.6602C236.783 57.4961 236.469 57.4141 236.043 57.4141C235.738 57.4141 235.438 57.4434 235.141 57.502C234.844 57.5605 234.537 57.6387 234.221 57.7363V56.5352C234.396 56.4766 234.564 56.4277 234.725 56.3887C234.885 56.3496 235.045 56.3164 235.205 56.2891C235.365 56.2617 235.527 56.2422 235.691 56.2305C235.855 56.2188 236.025 56.2129 236.201 56.2129C236.623 56.2129 236.992 56.2578 237.309 56.3477C237.629 56.4375 237.896 56.5664 238.111 56.7344C238.33 56.8984 238.494 57.0996 238.604 57.3379C238.713 57.5762 238.768 57.8418 238.768 58.1348C238.768 58.5996 238.66 58.9766 238.445 59.2656C238.234 59.5508 237.938 59.7695 237.555 59.9219C237.801 59.9609 238.023 60.0293 238.223 60.127C238.422 60.2207 238.592 60.3438 238.732 60.4961C238.877 60.6445 238.986 60.8164 239.061 61.0117C239.139 61.207 239.178 61.4238 239.178 61.6621Z" fill="white"/>
<circle cx="171.5" cy="90.5" r="10" fill="#7F00CD" stroke="black" stroke-width="3"/>
<path d="M173.387 92.4414V94H171.992V92.4414H168.43V91.2168L171.418 86.3418H173.387V91.1816H174.547V92.4414H173.387ZM172.01 87.7246L169.83 91.1816H172.01V87.7246Z" fill="white"/>
<circle cx="547.5" cy="154.5" r="10" fill="#7F00CD" stroke="black" stroke-width="3"/>
<path d="M550.096 155.551C550.096 155.961 550.01 156.326 549.838 156.646C549.666 156.963 549.428 157.23 549.123 157.449C548.818 157.668 548.459 157.834 548.045 157.947C547.631 158.061 547.182 158.117 546.697 158.117C546.576 158.117 546.447 158.113 546.311 158.105C546.174 158.098 546.035 158.088 545.895 158.076C545.754 158.064 545.617 158.049 545.484 158.029C545.352 158.014 545.229 157.996 545.115 157.977V156.729C545.338 156.783 545.594 156.828 545.883 156.863C546.172 156.895 546.467 156.91 546.768 156.91C547.354 156.91 547.799 156.799 548.104 156.576C548.412 156.35 548.566 156.037 548.566 155.639C548.566 155.225 548.424 154.918 548.139 154.719C547.854 154.516 547.393 154.414 546.756 154.414H545.256V150.342H549.674V151.689H546.592V153.248H547.143C547.533 153.248 547.906 153.283 548.262 153.354C548.617 153.424 548.93 153.547 549.199 153.723C549.473 153.895 549.689 154.129 549.85 154.426C550.014 154.723 550.096 155.098 550.096 155.551Z" fill="white"/>
<circle cx="443.5" cy="75.5" r="10" fill="#7F00CD" stroke="black" stroke-width="3"/>
<path d="M440.957 79V77.9453L442.768 76.1348C443.107 75.7949 443.379 75.502 443.582 75.2559C443.789 75.0098 443.947 74.791 444.057 74.5996C444.17 74.4043 444.244 74.2246 444.279 74.0605C444.314 73.8965 444.332 73.7266 444.332 73.5508C444.332 73.4062 444.309 73.2695 444.262 73.1406C444.215 73.0078 444.146 72.8945 444.057 72.8008C443.967 72.7031 443.854 72.627 443.717 72.5723C443.58 72.5137 443.424 72.4844 443.248 72.4844C442.947 72.4844 442.668 72.5508 442.41 72.6836C442.152 72.8125 441.908 72.9863 441.678 73.2051L440.922 72.2324C441.254 71.9238 441.627 71.6777 442.041 71.4941C442.459 71.3066 442.91 71.2129 443.395 71.2129C443.77 71.2129 444.109 71.2617 444.414 71.3594C444.719 71.4531 444.979 71.5938 445.193 71.7812C445.412 71.9688 445.58 72.2031 445.697 72.4844C445.818 72.7656 445.879 73.0898 445.879 73.457C445.879 73.7617 445.838 74.0469 445.756 74.3125C445.674 74.5742 445.555 74.8301 445.398 75.0801C445.242 75.3301 445.049 75.5801 444.818 75.8301C444.592 76.0801 444.332 76.3438 444.039 76.6211L442.926 77.6816H446.154V79H440.957Z" fill="white"/>
<path d="M2 431.062V267.69C26.1272 274.877 44.7705 278.449 62.5355 278.414C80.1778 278.379 96.8273 274.786 117 267.819V431.065C95.0366 438.912 77.7271 442.924 60.251 442.999C42.7616 443.074 24.9532 439.205 2 431.062Z" fill="#6B6B6B" stroke="black" stroke-width="4"/>
<path d="M117 263.5C117 266.344 115.663 269.222 112.901 272.021C110.13 274.829 106.02 277.449 100.785 279.693C90.3212 284.177 75.7261 287 59.5 287C43.2739 287 28.6788 284.177 18.215 279.693C12.9795 277.449 8.87044 274.829 6.0993 272.021C3.33664 269.222 2 266.344 2 263.5C2 260.656 3.33664 257.778 6.0993 254.979C8.87044 252.171 12.9795 249.551 18.215 247.307C28.6788 242.823 43.2739 240 59.5 240C75.7261 240 90.3212 242.823 100.785 247.307C106.02 249.551 110.13 252.171 112.901 254.979C115.663 257.778 117 260.656 117 263.5Z" fill="#3D3D3D" stroke="black" stroke-width="4"/>
<mask id="path-34-inside-6" fill="white">
<rect x="203" y="270" width="265" height="135" rx="3"/>
</mask>
<rect x="203" y="270" width="265" height="135" rx="3" fill="#7DE77B" stroke="black" stroke-width="8" mask="url(#path-34-inside-6)"/>
<rect x="600" y="251" width="81" height="188" rx="17" fill="#FF547D" stroke="black" stroke-width="4"/>
<path d="M640.235 347.772C640.235 348.505 640.136 349.149 639.937 349.706C639.743 350.257 639.462 350.717 639.093 351.086C638.729 351.455 638.284 351.733 637.757 351.921C637.229 352.108 636.638 352.202 635.981 352.202C635.243 352.202 634.61 352.108 634.083 351.921C633.556 351.733 633.128 351.464 632.8 351.112C632.472 350.761 632.234 350.333 632.088 349.829C631.941 349.325 631.868 348.76 631.868 348.133V340.513H634.03V348.001C634.03 348.388 634.062 348.73 634.127 349.029C634.197 349.328 634.314 349.583 634.479 349.794C634.648 349.999 634.859 350.154 635.111 350.26C635.363 350.365 635.68 350.418 636.061 350.418C636.418 350.418 636.72 350.374 636.966 350.286C637.212 350.192 637.417 350.046 637.581 349.847C637.745 349.642 637.868 349.381 637.95 349.064C638.032 348.748 638.073 348.364 638.073 347.913V340.513H640.235V347.772ZM642.318 342.279V340.513H649.578V342.279H647.047V350.216H649.578V352H642.318V350.216H644.85V342.279H642.318Z" fill="black"/>
<rect x="427" y="314" width="81" height="48" rx="17" fill="#FFFD54" stroke="black" stroke-width="4"/>
<path d="M458.031 343.552C457.521 343.757 457.026 343.909 456.546 344.009C456.071 344.108 455.576 344.158 455.061 344.158C454.234 344.158 453.502 344.038 452.863 343.798C452.23 343.552 451.694 343.188 451.255 342.708C450.821 342.228 450.49 341.633 450.262 340.924C450.039 340.209 449.928 339.38 449.928 338.437C449.928 337.47 450.051 336.611 450.297 335.861C450.543 335.105 450.895 334.47 451.352 333.954C451.809 333.433 452.362 333.037 453.013 332.768C453.669 332.492 454.404 332.354 455.219 332.354C455.482 332.354 455.729 332.36 455.957 332.372C456.191 332.384 456.42 332.407 456.643 332.442C456.865 332.472 457.091 332.513 457.319 332.565C457.548 332.618 457.785 332.686 458.031 332.768V334.912C457.533 334.678 457.059 334.511 456.607 334.411C456.156 334.312 455.746 334.262 455.377 334.262C454.832 334.262 454.366 334.361 453.979 334.561C453.593 334.754 453.273 335.029 453.021 335.387C452.775 335.738 452.594 336.16 452.477 336.652C452.359 337.139 452.301 337.675 452.301 338.261C452.301 338.882 452.359 339.438 452.477 339.931C452.6 340.417 452.787 340.83 453.039 341.17C453.291 341.51 453.613 341.771 454.006 341.952C454.398 342.128 454.864 342.216 455.403 342.216C455.597 342.216 455.805 342.198 456.027 342.163C456.256 342.122 456.484 342.072 456.713 342.014C456.947 341.949 457.176 341.876 457.398 341.794C457.627 341.706 457.838 341.618 458.031 341.53V343.552ZM467.69 343.912C467.304 344 466.914 344.07 466.521 344.123C466.129 344.176 465.757 344.202 465.405 344.202C464.819 344.202 464.312 344.141 463.885 344.018C463.463 343.895 463.111 343.707 462.83 343.455C462.555 343.203 462.35 342.884 462.215 342.497C462.086 342.104 462.021 341.639 462.021 341.1V336.74H459.622V335.07H462.021V332.785L464.219 332.214V335.07H467.69V336.74H464.219V340.941C464.219 341.451 464.336 341.838 464.57 342.102C464.805 342.359 465.197 342.488 465.748 342.488C466.1 342.488 466.442 342.459 466.776 342.4C467.11 342.342 467.415 342.274 467.69 342.198V343.912ZM475.97 338.542C475.981 338.208 475.964 337.924 475.917 337.689C475.876 337.455 475.806 337.262 475.706 337.109C475.612 336.957 475.495 336.846 475.354 336.775C475.214 336.705 475.053 336.67 474.871 336.67C474.555 336.67 474.227 336.802 473.887 337.065C473.553 337.323 473.184 337.751 472.779 338.349V344H470.582V335.07H472.524L472.604 336.371C472.75 336.143 472.914 335.938 473.096 335.756C473.283 335.574 473.488 335.419 473.711 335.29C473.939 335.155 474.191 335.053 474.467 334.982C474.742 334.912 475.044 334.877 475.372 334.877C475.823 334.877 476.222 334.956 476.567 335.114C476.919 335.267 477.212 335.495 477.446 335.8C477.687 336.104 477.862 336.488 477.974 336.951C478.091 337.408 478.141 337.938 478.123 338.542H475.97ZM483.001 333.251H480.479V331.581H485.198V342.33H487.773V344H480.171V342.33H483.001V333.251Z" fill="black"/>
<path d="M224.061 362.061C224.646 361.475 224.646 360.525 224.061 359.939L214.515 350.393C213.929 349.808 212.979 349.808 212.393 350.393C211.808 350.979 211.808 351.929 212.393 352.515L220.879 361L212.393 369.485C211.808 370.071 211.808 371.021 212.393 371.607C212.979 372.192 213.929 372.192 214.515 371.607L224.061 362.061ZM128 362.5L223 362.5L223 359.5L128 359.5L128 362.5Z" fill="black"/>
<path d="M125.939 327.939C125.354 328.525 125.354 329.475 125.939 330.061L135.485 339.607C136.071 340.192 137.021 340.192 137.607 339.607C138.192 339.021 138.192 338.071 137.607 337.485L129.121 329L137.607 320.515C138.192 319.929 138.192 318.979 137.607 318.393C137.021 317.808 136.071 317.808 135.485 318.393L125.939 327.939ZM222 327.5L127 327.5L127 330.5L222 330.5L222 327.5Z" fill="black"/>
<path d="M527.939 331.939C527.354 332.525 527.354 333.475 527.939 334.061L537.485 343.607C538.071 344.192 539.021 344.192 539.607 343.607C540.192 343.021 540.192 342.071 539.607 341.485L531.121 333L539.607 324.515C540.192 323.929 540.192 322.979 539.607 322.393C539.021 321.808 538.071 321.808 537.485 322.393L527.939 331.939ZM566 331.5L529 331.5L529 334.5L566 334.5L566 331.5Z" fill="black"/>
<mask id="path-42-inside-7" fill="white">
<rect x="231" y="297" width="162" height="85" rx="3"/>
</mask>
<rect x="231" y="297" width="162" height="85" rx="3" fill="#D1F562" stroke="black" stroke-width="8" mask="url(#path-42-inside-7)"/>
<mask id="path-43-inside-8" fill="white">
<rect x="258" y="340" width="46" height="26" rx="3"/>
</mask>
<rect x="258" y="340" width="46" height="26" rx="3" fill="#F262F5" stroke="black" stroke-width="8" mask="url(#path-43-inside-8)"/>
<path d="M263.995 327L262.378 323.309C262.226 322.957 262.012 322.693 261.736 322.518C261.467 322.336 261.147 322.245 260.778 322.245H260.365V327H258.203V315.513H261.552C262.185 315.513 262.759 315.568 263.274 315.68C263.79 315.785 264.229 315.964 264.593 316.216C264.956 316.468 265.234 316.796 265.428 317.2C265.627 317.604 265.727 318.1 265.727 318.686C265.727 319.107 265.665 319.482 265.542 319.811C265.419 320.139 265.246 320.423 265.023 320.663C264.801 320.897 264.534 321.088 264.224 321.234C263.919 321.381 263.585 321.483 263.222 321.542C263.503 321.601 263.761 321.762 263.995 322.025C264.229 322.283 264.464 322.658 264.698 323.15L266.535 327H263.995ZM263.459 318.896C263.459 318.334 263.28 317.93 262.923 317.684C262.565 317.438 262.029 317.314 261.314 317.314H260.365V320.558H261.244C261.578 320.558 261.88 320.522 262.149 320.452C262.425 320.382 262.659 320.276 262.853 320.136C263.046 319.995 263.195 319.822 263.301 319.617C263.406 319.406 263.459 319.166 263.459 318.896ZM275.966 321.85C275.966 321.996 275.96 322.187 275.948 322.421C275.942 322.655 275.931 322.875 275.913 323.08H270.042C270.042 323.473 270.101 323.818 270.218 324.117C270.341 324.416 270.511 324.668 270.728 324.873C270.95 325.072 271.214 325.225 271.519 325.33C271.829 325.436 272.172 325.488 272.547 325.488C272.98 325.488 273.443 325.456 273.936 325.392C274.434 325.321 274.949 325.21 275.482 325.058V326.763C275.254 326.827 275.005 326.886 274.735 326.938C274.466 326.991 274.19 327.038 273.909 327.079C273.628 327.12 273.344 327.149 273.057 327.167C272.77 327.19 272.491 327.202 272.222 327.202C271.542 327.202 270.933 327.105 270.394 326.912C269.854 326.719 269.397 326.435 269.022 326.06C268.647 325.679 268.36 325.21 268.161 324.653C267.962 324.097 267.862 323.452 267.862 322.72C267.862 321.993 267.962 321.334 268.161 320.742C268.36 320.145 268.642 319.635 269.005 319.213C269.368 318.785 269.808 318.457 270.323 318.229C270.845 317.994 271.425 317.877 272.063 317.877C272.696 317.877 273.256 317.977 273.742 318.176C274.229 318.369 274.636 318.642 274.964 318.993C275.292 319.345 275.541 319.764 275.711 320.25C275.881 320.736 275.966 321.27 275.966 321.85ZM273.786 321.542C273.792 321.19 273.748 320.886 273.654 320.628C273.561 320.364 273.432 320.147 273.268 319.978C273.109 319.808 272.922 319.682 272.705 319.6C272.494 319.518 272.266 319.477 272.02 319.477C271.48 319.477 271.038 319.658 270.692 320.021C270.347 320.379 270.142 320.886 270.077 321.542H273.786ZM283.683 327L283.63 325.831C283.442 326.03 283.246 326.215 283.041 326.385C282.836 326.549 282.61 326.692 282.364 326.815C282.118 326.938 281.849 327.032 281.556 327.097C281.269 327.167 280.952 327.202 280.606 327.202C280.149 327.202 279.748 327.135 279.402 327C279.057 326.865 278.767 326.678 278.532 326.438C278.298 326.197 278.119 325.907 277.996 325.567C277.879 325.228 277.82 324.853 277.82 324.442C277.82 324.021 277.908 323.631 278.084 323.273C278.266 322.916 278.538 322.608 278.901 322.351C279.271 322.093 279.728 321.891 280.272 321.744C280.823 321.598 281.468 321.524 282.206 321.524H283.375V320.988C283.375 320.76 283.343 320.555 283.278 320.373C283.214 320.186 283.108 320.027 282.962 319.898C282.821 319.77 282.637 319.67 282.408 319.6C282.18 319.529 281.898 319.494 281.564 319.494C281.037 319.494 280.516 319.556 280 319.679C279.49 319.796 278.995 319.963 278.515 320.18V318.466C278.942 318.296 279.435 318.155 279.991 318.044C280.554 317.933 281.137 317.877 281.74 317.877C282.402 317.877 282.971 317.941 283.445 318.07C283.92 318.193 284.31 318.381 284.614 318.633C284.925 318.885 285.153 319.201 285.3 319.582C285.446 319.957 285.52 320.396 285.52 320.9V327H283.683ZM283.375 323.054H282.065C281.702 323.054 281.395 323.089 281.143 323.159C280.891 323.229 280.686 323.326 280.527 323.449C280.369 323.572 280.252 323.716 280.176 323.88C280.105 324.038 280.07 324.208 280.07 324.39C280.07 324.753 280.188 325.031 280.422 325.225C280.656 325.412 280.976 325.506 281.38 325.506C281.679 325.506 281.989 325.397 282.312 325.181C282.634 324.964 282.988 324.653 283.375 324.249V323.054ZM293.597 327L293.544 325.682C293.356 325.91 293.163 326.118 292.964 326.306C292.765 326.493 292.551 326.654 292.322 326.789C292.094 326.918 291.848 327.018 291.584 327.088C291.326 327.164 291.039 327.202 290.723 327.202C290.195 327.202 289.727 327.097 289.316 326.886C288.906 326.675 288.561 326.376 288.279 325.989C288.004 325.597 287.793 325.122 287.646 324.565C287.5 324.009 287.427 323.388 287.427 322.702C287.427 321.882 287.541 321.173 287.77 320.575C288.004 319.972 288.326 319.474 288.736 319.081C289.146 318.683 289.633 318.39 290.195 318.202C290.758 318.009 291.37 317.912 292.032 317.912C292.255 317.912 292.478 317.927 292.7 317.956C292.929 317.985 293.131 318.023 293.307 318.07V314.581H295.451V327H293.597ZM289.677 322.605C289.677 323.098 289.709 323.52 289.773 323.871C289.844 324.217 289.943 324.501 290.072 324.724C290.207 324.946 290.371 325.11 290.564 325.216C290.758 325.315 290.978 325.365 291.224 325.365C291.587 325.365 291.933 325.219 292.261 324.926C292.589 324.633 292.938 324.231 293.307 323.722V319.819C293.137 319.755 292.926 319.702 292.674 319.661C292.428 319.62 292.179 319.6 291.927 319.6C291.581 319.6 291.271 319.67 290.995 319.811C290.72 319.951 290.482 320.15 290.283 320.408C290.09 320.666 289.94 320.982 289.835 321.357C289.729 321.727 289.677 322.143 289.677 322.605ZM314.146 327L313.935 320.505L313.855 317.912L313.302 319.67L312.027 323.581H310.674L309.522 319.67L309.039 317.912L308.978 320.452L308.784 327H306.947L307.51 315.513H309.953L310.964 318.773L311.447 320.61L311.931 318.879L312.994 315.513H315.481L316.053 327H314.146ZM325.712 322.465C325.712 323.168 325.612 323.812 325.413 324.398C325.214 324.979 324.927 325.477 324.552 325.893C324.177 326.309 323.717 326.631 323.172 326.859C322.627 327.088 322.006 327.202 321.309 327.202C320.646 327.202 320.055 327.105 319.533 326.912C319.012 326.719 318.569 326.432 318.206 326.051C317.843 325.664 317.564 325.184 317.371 324.609C317.178 324.029 317.081 323.355 317.081 322.588C317.081 321.879 317.181 321.234 317.38 320.654C317.585 320.074 317.875 319.579 318.25 319.169C318.631 318.759 319.094 318.442 319.639 318.22C320.184 317.991 320.799 317.877 321.484 317.877C322.152 317.877 322.747 317.977 323.269 318.176C323.79 318.369 324.232 318.659 324.596 319.046C324.959 319.433 325.234 319.913 325.422 320.487C325.615 321.056 325.712 321.715 325.712 322.465ZM323.479 322.518C323.479 321.592 323.304 320.897 322.952 320.435C322.606 319.966 322.094 319.731 321.414 319.731C321.039 319.731 320.72 319.805 320.456 319.951C320.192 320.098 319.976 320.3 319.806 320.558C319.636 320.81 319.51 321.105 319.428 321.445C319.352 321.785 319.313 322.148 319.313 322.535C319.313 323.467 319.501 324.17 319.876 324.645C320.251 325.113 320.764 325.348 321.414 325.348C321.771 325.348 322.082 325.277 322.346 325.137C322.609 324.99 322.823 324.791 322.987 324.539C323.151 324.281 323.274 323.979 323.356 323.634C323.438 323.288 323.479 322.916 323.479 322.518ZM333.183 327L333.13 325.682C332.942 325.91 332.749 326.118 332.55 326.306C332.351 326.493 332.137 326.654 331.908 326.789C331.68 326.918 331.434 327.018 331.17 327.088C330.912 327.164 330.625 327.202 330.309 327.202C329.781 327.202 329.312 327.097 328.902 326.886C328.492 326.675 328.146 326.376 327.865 325.989C327.59 325.597 327.379 325.122 327.232 324.565C327.086 324.009 327.013 323.388 327.013 322.702C327.013 321.882 327.127 321.173 327.355 320.575C327.59 319.972 327.912 319.474 328.322 319.081C328.732 318.683 329.219 318.39 329.781 318.202C330.344 318.009 330.956 317.912 331.618 317.912C331.841 317.912 332.063 317.927 332.286 317.956C332.515 317.985 332.717 318.023 332.893 318.07V314.581H335.037V327H333.183ZM329.263 322.605C329.263 323.098 329.295 323.52 329.359 323.871C329.43 324.217 329.529 324.501 329.658 324.724C329.793 324.946 329.957 325.11 330.15 325.216C330.344 325.315 330.563 325.365 330.81 325.365C331.173 325.365 331.519 325.219 331.847 324.926C332.175 324.633 332.523 324.231 332.893 323.722V319.819C332.723 319.755 332.512 319.702 332.26 319.661C332.014 319.62 331.765 319.6 331.513 319.6C331.167 319.6 330.856 319.67 330.581 319.811C330.306 319.951 330.068 320.15 329.869 320.408C329.676 320.666 329.526 320.982 329.421 321.357C329.315 321.727 329.263 322.143 329.263 322.605ZM345.241 321.85C345.241 321.996 345.235 322.187 345.224 322.421C345.218 322.655 345.206 322.875 345.188 323.08H339.317C339.317 323.473 339.376 323.818 339.493 324.117C339.616 324.416 339.786 324.668 340.003 324.873C340.226 325.072 340.489 325.225 340.794 325.33C341.104 325.436 341.447 325.488 341.822 325.488C342.256 325.488 342.719 325.456 343.211 325.392C343.709 325.321 344.225 325.21 344.758 325.058V326.763C344.529 326.827 344.28 326.886 344.011 326.938C343.741 326.991 343.466 327.038 343.185 327.079C342.903 327.12 342.619 327.149 342.332 327.167C342.045 327.19 341.767 327.202 341.497 327.202C340.817 327.202 340.208 327.105 339.669 326.912C339.13 326.719 338.673 326.435 338.298 326.06C337.923 325.679 337.636 325.21 337.437 324.653C337.237 324.097 337.138 323.452 337.138 322.72C337.138 321.993 337.237 321.334 337.437 320.742C337.636 320.145 337.917 319.635 338.28 319.213C338.644 318.785 339.083 318.457 339.599 318.229C340.12 317.994 340.7 317.877 341.339 317.877C341.972 317.877 342.531 317.977 343.018 318.176C343.504 318.369 343.911 318.642 344.239 318.993C344.567 319.345 344.816 319.764 344.986 320.25C345.156 320.736 345.241 321.27 345.241 321.85ZM343.062 321.542C343.067 321.19 343.023 320.886 342.93 320.628C342.836 320.364 342.707 320.147 342.543 319.978C342.385 319.808 342.197 319.682 341.98 319.6C341.77 319.518 341.541 319.477 341.295 319.477C340.756 319.477 340.313 319.658 339.968 320.021C339.622 320.379 339.417 320.886 339.353 321.542H343.062ZM350.242 316.251H347.72V314.581H352.439V325.33H355.015V327H347.412V325.33H350.242V316.251ZM364.621 324.372C364.621 324.882 364.507 325.318 364.278 325.682C364.056 326.039 363.757 326.332 363.382 326.561C363.013 326.783 362.591 326.944 362.116 327.044C361.647 327.149 361.167 327.202 360.675 327.202C360.019 327.202 359.427 327.17 358.899 327.105C358.372 327.047 357.874 326.959 357.405 326.842V324.908C357.956 325.137 358.504 325.304 359.049 325.409C359.6 325.509 360.118 325.559 360.604 325.559C361.167 325.559 361.586 325.471 361.861 325.295C362.143 325.113 362.283 324.879 362.283 324.592C362.283 324.457 362.254 324.334 362.195 324.223C362.137 324.111 362.025 324.006 361.861 323.906C361.703 323.801 361.478 323.695 361.185 323.59C360.892 323.479 360.508 323.355 360.033 323.221C359.594 323.098 359.207 322.96 358.873 322.808C358.545 322.649 358.272 322.465 358.056 322.254C357.839 322.043 357.675 321.8 357.563 321.524C357.458 321.243 357.405 320.915 357.405 320.54C357.405 320.177 357.487 319.834 357.651 319.512C357.815 319.189 358.059 318.908 358.381 318.668C358.709 318.422 359.116 318.229 359.603 318.088C360.089 317.947 360.657 317.877 361.308 317.877C361.87 317.877 362.368 317.906 362.802 317.965C363.235 318.023 363.619 318.088 363.953 318.158V319.907C363.443 319.743 362.963 319.629 362.512 319.564C362.066 319.494 361.624 319.459 361.185 319.459C360.745 319.459 360.391 319.538 360.121 319.696C359.857 319.854 359.726 320.074 359.726 320.355C359.726 320.49 359.752 320.61 359.805 320.716C359.857 320.821 359.96 320.924 360.112 321.023C360.271 321.123 360.487 321.229 360.763 321.34C361.044 321.445 361.413 321.562 361.87 321.691C362.386 321.838 362.819 321.996 363.171 322.166C363.522 322.33 363.804 322.518 364.015 322.729C364.231 322.939 364.387 323.18 364.48 323.449C364.574 323.719 364.621 324.026 364.621 324.372Z" fill="black"/>
<path d="M282.424 360H279.559L276.052 348.513H278.504L280.446 355.43L281.07 357.697L281.721 355.298L283.646 348.513H285.948L282.424 360Z" fill="black"/>
<mask id="path-46-inside-9" fill="white">
<rect x="313" y="341" width="46" height="26" rx="3"/>
</mask>
<rect x="313" y="341" width="46" height="26" rx="3" fill="#F262F5" stroke="black" stroke-width="8" mask="url(#path-46-inside-9)"/>
<path d="M337.424 361H334.559L331.052 349.513H333.504L335.446 356.43L336.07 358.697L336.721 356.298L338.646 349.513H340.948L337.424 361Z" fill="black"/>
<path d="M397.939 338.939C397.354 339.525 397.354 340.475 397.939 341.061L407.485 350.607C408.071 351.192 409.021 351.192 409.607 350.607C410.192 350.021 410.192 349.071 409.607 348.485L401.121 340L409.607 331.515C410.192 330.929 410.192 329.979 409.607 329.393C409.021 328.808 408.071 328.808 407.485 329.393L397.939 338.939ZM425 338.5H399V341.5H425V338.5Z" fill="black"/>
<path d="M581.061 367.061C581.646 366.475 581.646 365.525 581.061 364.939L571.515 355.393C570.929 354.808 569.979 354.808 569.393 355.393C568.808 355.979 568.808 356.929 569.393 357.515L577.879 366L569.393 374.485C568.808 375.071 568.808 376.021 569.393 376.607C569.979 377.192 570.929 377.192 571.515 376.607L581.061 367.061ZM522 367.5L580 367.5L580 364.5L522 364.5L522 367.5Z" fill="black"/>
<path d="M515.444 452V450.418L518.16 447.702C518.67 447.192 519.077 446.753 519.382 446.384C519.692 446.015 519.93 445.687 520.094 445.399C520.264 445.106 520.375 444.837 520.428 444.591C520.48 444.345 520.507 444.09 520.507 443.826C520.507 443.609 520.472 443.404 520.401 443.211C520.331 443.012 520.229 442.842 520.094 442.701C519.959 442.555 519.789 442.44 519.584 442.358C519.379 442.271 519.145 442.227 518.881 442.227C518.43 442.227 518.011 442.326 517.624 442.525C517.237 442.719 516.871 442.979 516.525 443.308L515.392 441.849C515.89 441.386 516.449 441.017 517.07 440.741C517.697 440.46 518.374 440.319 519.101 440.319C519.663 440.319 520.173 440.393 520.63 440.539C521.087 440.68 521.477 440.891 521.799 441.172C522.127 441.453 522.379 441.805 522.555 442.227C522.736 442.648 522.827 443.135 522.827 443.686C522.827 444.143 522.766 444.57 522.643 444.969C522.52 445.361 522.341 445.745 522.106 446.12C521.872 446.495 521.582 446.87 521.236 447.245C520.896 447.62 520.507 448.016 520.067 448.432L518.397 450.022H523.24V452H515.444ZM533.638 446.208C533.638 447.151 533.535 447.995 533.33 448.739C533.125 449.483 532.823 450.113 532.425 450.629C532.032 451.139 531.552 451.528 530.983 451.798C530.415 452.067 529.765 452.202 529.032 452.202C528.399 452.202 527.816 452.091 527.283 451.868C526.75 451.646 526.29 451.297 525.903 450.822C525.517 450.342 525.215 449.729 524.998 448.985C524.781 448.241 524.673 447.351 524.673 446.313C524.673 445.37 524.775 444.526 524.98 443.782C525.191 443.038 525.493 442.411 525.886 441.901C526.278 441.386 526.762 440.993 527.336 440.724C527.91 440.454 528.561 440.319 529.287 440.319C529.92 440.319 530.503 440.431 531.036 440.653C531.569 440.876 532.026 441.225 532.407 441.699C532.794 442.174 533.096 442.783 533.312 443.527C533.529 444.271 533.638 445.165 533.638 446.208ZM526.835 446.243C526.835 446.36 526.835 446.472 526.835 446.577C526.835 446.677 526.841 446.779 526.853 446.885L531.159 443.773C530.954 443.193 530.682 442.766 530.342 442.49C530.008 442.209 529.612 442.068 529.155 442.068C528.827 442.068 528.522 442.153 528.241 442.323C527.96 442.487 527.714 442.742 527.503 443.088C527.298 443.434 527.134 443.867 527.011 444.389C526.894 444.91 526.835 445.528 526.835 446.243ZM531.476 446.278C531.476 446.179 531.473 446.079 531.467 445.979C531.461 445.874 531.458 445.774 531.458 445.681L527.178 448.774C527.365 449.343 527.629 449.765 527.969 450.04C528.309 450.315 528.704 450.453 529.155 450.453C529.483 450.453 529.788 450.368 530.069 450.198C530.356 450.028 530.603 449.773 530.808 449.434C531.019 449.088 531.183 448.654 531.3 448.133C531.417 447.605 531.476 446.987 531.476 446.278ZM543.534 446.208C543.534 447.151 543.432 447.995 543.227 448.739C543.021 449.483 542.72 450.113 542.321 450.629C541.929 451.139 541.448 451.528 540.88 451.798C540.312 452.067 539.661 452.202 538.929 452.202C538.296 452.202 537.713 452.091 537.18 451.868C536.646 451.646 536.187 451.297 535.8 450.822C535.413 450.342 535.111 449.729 534.895 448.985C534.678 448.241 534.569 447.351 534.569 446.313C534.569 445.37 534.672 444.526 534.877 443.782C535.088 443.038 535.39 442.411 535.782 441.901C536.175 441.386 536.658 440.993 537.232 440.724C537.807 440.454 538.457 440.319 539.184 440.319C539.816 440.319 540.399 440.431 540.933 440.653C541.466 440.876 541.923 441.225 542.304 441.699C542.69 442.174 542.992 442.783 543.209 443.527C543.426 444.271 543.534 445.165 543.534 446.208ZM536.731 446.243C536.731 446.36 536.731 446.472 536.731 446.577C536.731 446.677 536.737 446.779 536.749 446.885L541.056 443.773C540.851 443.193 540.578 442.766 540.238 442.49C539.904 442.209 539.509 442.068 539.052 442.068C538.724 442.068 538.419 442.153 538.138 442.323C537.856 442.487 537.61 442.742 537.399 443.088C537.194 443.434 537.03 443.867 536.907 444.389C536.79 444.91 536.731 445.528 536.731 446.243ZM541.372 446.278C541.372 446.179 541.369 446.079 541.363 445.979C541.357 445.874 541.354 445.774 541.354 445.681L537.074 448.774C537.262 449.343 537.525 449.765 537.865 450.04C538.205 450.315 538.601 450.453 539.052 450.453C539.38 450.453 539.685 450.368 539.966 450.198C540.253 450.028 540.499 449.773 540.704 449.434C540.915 449.088 541.079 448.654 541.196 448.133C541.313 447.605 541.372 446.987 541.372 446.278ZM563.468 446.208C563.468 447.251 563.345 448.15 563.099 448.906C562.858 449.662 562.524 450.283 562.097 450.77C561.675 451.256 561.177 451.616 560.603 451.851C560.034 452.085 559.425 452.202 558.774 452.202C557.263 452.202 556.126 451.701 555.364 450.699C554.603 449.691 554.222 448.229 554.222 446.313C554.222 445.271 554.342 444.371 554.582 443.615C554.828 442.859 555.162 442.238 555.584 441.752C556.012 441.266 556.51 440.905 557.078 440.671C557.652 440.437 558.265 440.319 558.915 440.319C560.427 440.319 561.563 440.82 562.325 441.822C563.087 442.824 563.468 444.286 563.468 446.208ZM561.183 446.313C561.183 444.954 561.001 443.94 560.638 443.272C560.274 442.604 559.677 442.271 558.845 442.271C558.429 442.271 558.074 442.358 557.781 442.534C557.488 442.704 557.245 442.956 557.052 443.29C556.864 443.624 556.727 444.037 556.639 444.529C556.551 445.016 556.507 445.575 556.507 446.208C556.507 447.567 556.688 448.581 557.052 449.249C557.421 449.917 558.019 450.251 558.845 450.251C559.261 450.251 559.615 450.166 559.908 449.996C560.207 449.82 560.45 449.565 560.638 449.231C560.825 448.897 560.963 448.487 561.051 448.001C561.139 447.509 561.183 446.946 561.183 446.313ZM570.578 452L567.124 446.445V452H564.927V440.513H567.124V445.742L570.561 440.513H573.171L569.269 445.988L573.373 452H570.578Z" fill="black"/>
<path d="M527.091 304.088C525.913 303.871 525.034 303.282 524.454 302.321C523.874 301.36 523.584 300.042 523.584 298.366C523.584 297.329 523.704 296.433 523.944 295.677C524.19 294.915 524.524 294.288 524.946 293.796C525.374 293.298 525.872 292.929 526.44 292.688C527.015 292.442 527.627 292.319 528.277 292.319C529.789 292.319 530.926 292.817 531.688 293.813C532.449 294.81 532.83 296.248 532.83 298.129C532.83 299.025 532.739 299.819 532.558 300.511C532.376 301.202 532.118 301.794 531.784 302.286C531.456 302.778 531.066 303.174 530.615 303.473C530.164 303.771 529.675 303.977 529.147 304.088C529.194 304.369 529.271 304.601 529.376 304.782C529.487 304.964 529.616 305.107 529.763 305.213C529.915 305.318 530.079 305.392 530.255 305.433C530.431 305.474 530.612 305.494 530.8 305.494C531.052 305.494 531.301 305.441 531.547 305.336C531.799 305.23 532.024 305.084 532.224 304.896L533.217 306.373C532.848 306.684 532.443 306.921 532.004 307.085C531.57 307.249 531.134 307.331 530.694 307.331C530.144 307.331 529.648 307.267 529.209 307.138C528.775 307.009 528.403 306.81 528.093 306.54C527.788 306.276 527.551 305.939 527.381 305.529C527.211 305.125 527.114 304.645 527.091 304.088ZM530.545 298.313C530.545 296.954 530.366 295.94 530.009 295.272C529.651 294.604 529.062 294.271 528.242 294.271C527.826 294.271 527.469 294.358 527.17 294.534C526.871 294.704 526.625 294.959 526.432 295.299C526.238 295.633 526.095 296.046 526.001 296.538C525.913 297.024 525.869 297.581 525.869 298.208C525.869 299.556 526.051 300.566 526.414 301.24C526.783 301.914 527.381 302.251 528.207 302.251C528.623 302.251 528.978 302.166 529.271 301.996C529.569 301.82 529.812 301.565 530 301.231C530.188 300.897 530.325 300.487 530.413 300.001C530.501 299.509 530.545 298.946 530.545 298.313ZM542.287 299.772C542.287 300.505 542.188 301.149 541.988 301.706C541.795 302.257 541.514 302.717 541.145 303.086C540.781 303.455 540.336 303.733 539.809 303.921C539.281 304.108 538.689 304.202 538.033 304.202C537.295 304.202 536.662 304.108 536.135 303.921C535.607 303.733 535.18 303.464 534.852 303.112C534.523 302.761 534.286 302.333 534.14 301.829C533.993 301.325 533.92 300.76 533.92 300.133V292.513H536.082V300.001C536.082 300.388 536.114 300.73 536.179 301.029C536.249 301.328 536.366 301.583 536.53 301.794C536.7 301.999 536.911 302.154 537.163 302.26C537.415 302.365 537.731 302.418 538.112 302.418C538.47 302.418 538.771 302.374 539.018 302.286C539.264 302.192 539.469 302.046 539.633 301.847C539.797 301.642 539.92 301.381 540.002 301.064C540.084 300.748 540.125 300.364 540.125 299.913V292.513H542.287V299.772ZM544.669 304V292.513H551.586V294.341H546.866V297.197H551.366V298.981H546.866V302.172H551.586V304H544.669ZM559.874 304L558.257 300.309C558.104 299.957 557.891 299.693 557.615 299.518C557.346 299.336 557.026 299.245 556.657 299.245H556.244V304H554.082V292.513H557.431C558.063 292.513 558.638 292.568 559.153 292.68C559.669 292.785 560.108 292.964 560.472 293.216C560.835 293.468 561.113 293.796 561.307 294.2C561.506 294.604 561.605 295.1 561.605 295.686C561.605 296.107 561.544 296.482 561.421 296.811C561.298 297.139 561.125 297.423 560.902 297.663C560.68 297.897 560.413 298.088 560.103 298.234C559.798 298.381 559.464 298.483 559.101 298.542C559.382 298.601 559.64 298.762 559.874 299.025C560.108 299.283 560.343 299.658 560.577 300.15L562.414 304H559.874ZM559.338 295.896C559.338 295.334 559.159 294.93 558.802 294.684C558.444 294.438 557.908 294.314 557.193 294.314H556.244V297.558H557.123C557.457 297.558 557.759 297.522 558.028 297.452C558.304 297.382 558.538 297.276 558.731 297.136C558.925 296.995 559.074 296.822 559.18 296.617C559.285 296.406 559.338 296.166 559.338 295.896ZM568.865 299.931V304H566.668V299.948L562.933 292.513H565.332L567.02 296.063L567.793 297.804L568.566 296.011L570.333 292.513H572.636L568.865 299.931Z" fill="black"/>
<circle cx="547.5" cy="269.5" r="10" fill="#7F00CD" stroke="black" stroke-width="3"/>
<path d="M545.092 273V271.729H547.043V266.807L545.344 267.744L544.875 266.578L547.307 265.295H548.508V271.729H550.189V273H545.092Z" fill="white"/>
<circle cx="172.5" cy="300.5" r="10" fill="#7F00CD" stroke="black" stroke-width="3"/>
<path d="M175.178 301.662C175.178 302.041 175.107 302.383 174.967 302.688C174.826 302.988 174.609 303.246 174.316 303.461C174.027 303.672 173.662 303.834 173.221 303.947C172.779 304.061 172.26 304.117 171.662 304.117C171.529 304.117 171.389 304.113 171.24 304.105C171.096 304.102 170.951 304.094 170.807 304.082C170.662 304.074 170.521 304.062 170.385 304.047C170.248 304.035 170.125 304.02 170.016 304V302.758C170.262 302.805 170.537 302.844 170.842 302.875C171.15 302.902 171.471 302.916 171.803 302.916C172.127 302.916 172.406 302.889 172.641 302.834C172.875 302.779 173.068 302.701 173.221 302.6C173.373 302.494 173.484 302.365 173.555 302.213C173.629 302.061 173.666 301.889 173.666 301.697C173.666 301.529 173.629 301.377 173.555 301.24C173.48 301.104 173.367 300.988 173.215 300.895C173.062 300.797 172.867 300.723 172.629 300.672C172.395 300.617 172.115 300.59 171.791 300.59H170.941V299.5H171.721C172.025 299.5 172.277 299.471 172.477 299.412C172.68 299.35 172.84 299.268 172.957 299.166C173.078 299.064 173.164 298.945 173.215 298.809C173.266 298.668 173.291 298.521 173.291 298.369C173.291 298.057 173.189 297.82 172.986 297.66C172.783 297.496 172.469 297.414 172.043 297.414C171.738 297.414 171.438 297.443 171.141 297.502C170.844 297.561 170.537 297.639 170.221 297.736V296.535C170.396 296.477 170.564 296.428 170.725 296.389C170.885 296.35 171.045 296.316 171.205 296.289C171.365 296.262 171.527 296.242 171.691 296.23C171.855 296.219 172.025 296.213 172.201 296.213C172.623 296.213 172.992 296.258 173.309 296.348C173.629 296.438 173.896 296.566 174.111 296.734C174.33 296.898 174.494 297.1 174.604 297.338C174.713 297.576 174.768 297.842 174.768 298.135C174.768 298.6 174.66 298.977 174.445 299.266C174.234 299.551 173.938 299.77 173.555 299.922C173.801 299.961 174.023 300.029 174.223 300.127C174.422 300.221 174.592 300.344 174.732 300.496C174.877 300.645 174.986 300.816 175.061 301.012C175.139 301.207 175.178 301.424 175.178 301.662Z" fill="white"/>
<circle cx="168.5" cy="381.5" r="10" fill="#7F00CD" stroke="black" stroke-width="3"/>
<path d="M170.387 383.441V385H168.992V383.441H165.43V382.217L168.418 377.342H170.387V382.182H171.547V383.441H170.387ZM169.01 378.725L166.83 382.182H169.01V378.725Z" fill="white"/>
<circle cx="547.5" cy="392.5" r="10" fill="#7F00CD" stroke="black" stroke-width="3"/>
<path d="M550.096 393.551C550.096 393.961 550.01 394.326 549.838 394.646C549.666 394.963 549.428 395.23 549.123 395.449C548.818 395.668 548.459 395.834 548.045 395.947C547.631 396.061 547.182 396.117 546.697 396.117C546.576 396.117 546.447 396.113 546.311 396.105C546.174 396.098 546.035 396.088 545.895 396.076C545.754 396.064 545.617 396.049 545.484 396.029C545.352 396.014 545.229 395.996 545.115 395.977V394.729C545.338 394.783 545.594 394.828 545.883 394.863C546.172 394.895 546.467 394.91 546.768 394.91C547.354 394.91 547.799 394.799 548.104 394.576C548.412 394.35 548.566 394.037 548.566 393.639C548.566 393.225 548.424 392.918 548.139 392.719C547.854 392.516 547.393 392.414 546.756 392.414H545.256V388.342H549.674V389.689H546.592V391.248H547.143C547.533 391.248 547.906 391.283 548.262 391.354C548.617 391.424 548.93 391.547 549.199 391.723C549.473 391.895 549.689 392.129 549.85 392.426C550.014 392.723 550.096 393.098 550.096 393.551Z" fill="white"/>
<circle cx="443.5" cy="313.5" r="10" fill="#7F00CD" stroke="black" stroke-width="3"/>
<path d="M440.957 317V315.945L442.768 314.135C443.107 313.795 443.379 313.502 443.582 313.256C443.789 313.01 443.947 312.791 444.057 312.6C444.17 312.404 444.244 312.225 444.279 312.061C444.314 311.896 444.332 311.727 444.332 311.551C444.332 311.406 444.309 311.27 444.262 311.141C444.215 311.008 444.146 310.895 444.057 310.801C443.967 310.703 443.854 310.627 443.717 310.572C443.58 310.514 443.424 310.484 443.248 310.484C442.947 310.484 442.668 310.551 442.41 310.684C442.152 310.812 441.908 310.986 441.678 311.205L440.922 310.232C441.254 309.924 441.627 309.678 442.041 309.494C442.459 309.307 442.91 309.213 443.395 309.213C443.77 309.213 444.109 309.262 444.414 309.359C444.719 309.453 444.979 309.594 445.193 309.781C445.412 309.969 445.58 310.203 445.697 310.484C445.818 310.766 445.879 311.09 445.879 311.457C445.879 311.762 445.838 312.047 445.756 312.312C445.674 312.574 445.555 312.83 445.398 313.08C445.242 313.33 445.049 313.58 444.818 313.83C444.592 314.08 444.332 314.344 444.039 314.621L442.926 315.682H446.154V317H440.957Z" fill="white"/>
</svg>
