<svg width="569" height="80" viewBox="0 0 569 80" fill="none" xmlns="http://www.w3.org/2000/svg">
<path d="M205.061 20.0607C205.646 19.4749 205.646 18.5251 205.061 17.9393L195.515 8.3934C194.929 7.80761 193.979 7.80761 193.393 8.3934C192.808 8.97918 192.808 9.92893 193.393 10.5147L201.879 19L193.393 27.4853C192.808 28.0711 192.808 29.0208 193.393 29.6066C193.979 30.1924 194.929 30.1924 195.515 29.6066L205.061 20.0607ZM148 20.5H204V17.5H148V20.5Z" fill="black"/>
<path d="M414.061 16.0607C414.646 15.4749 414.646 14.5251 414.061 13.9393L404.515 4.3934C403.929 3.80761 402.979 3.80761 402.393 4.3934C401.808 4.97918 401.808 5.92893 402.393 6.51472L410.879 15L402.393 23.4853C401.808 24.0711 401.808 25.0208 402.393 25.6066C402.979 26.1924 403.929 26.1924 404.515 25.6066L414.061 16.0607ZM357 16.5H413V13.5H357V16.5Z" fill="black"/>
<path d="M414.061 16.0607C414.646 15.4749 414.646 14.5251 414.061 13.9393L404.515 4.3934C403.929 3.80761 402.979 3.80761 402.393 4.3934C401.808 4.97918 401.808 5.92893 402.393 6.51472L410.879 15L402.393 23.4853C401.808 24.0711 401.808 25.0208 402.393 25.6066C402.979 26.1924 403.929 26.1924 404.515 25.6066L414.061 16.0607ZM357 16.5H413V13.5H357V16.5Z" fill="black"/>
<path d="M72.0607 46.9393C71.4749 46.3536 70.5251 46.3536 69.9393 46.9393L60.3934 56.4853C59.8076 57.0711 59.8076 58.0208 60.3934 58.6066C60.9792 59.1924 61.9289 59.1924 62.5147 58.6066L71 50.1213L79.4853 58.6066C80.0711 59.1924 81.0208 59.1924 81.6066 58.6066C82.1924 58.0208 82.1924 57.0711 81.6066 56.4853L72.0607 46.9393ZM72.5 80L72.5 48L69.5 48L69.5 80L72.5 80Z" fill="black"/>
<rect x="1.5" y="1.5" width="145" height="33" rx="2.5" fill="#7DE77B" stroke="black" stroke-width="3"/>
<path d="M43.9767 22.3563C43.6368 22.493 43.3068 22.5946 42.9864 22.661C42.67 22.7274 42.34 22.7606 41.9962 22.7606C41.4454 22.7606 40.9571 22.6805 40.5314 22.5204C40.1095 22.3563 39.7521 22.1141 39.4591 21.7938C39.17 21.4735 38.9493 21.077 38.797 20.6044C38.6485 20.1278 38.5743 19.5751 38.5743 18.9462C38.5743 18.3016 38.6564 17.7294 38.8204 17.2294C38.9845 16.7255 39.2189 16.3016 39.5235 15.9579C39.8282 15.6102 40.1974 15.3466 40.631 15.1669C41.0685 14.9833 41.5587 14.8915 42.1017 14.8915C42.2775 14.8915 42.4415 14.8954 42.5939 14.9032C42.7501 14.911 42.9025 14.9266 43.0509 14.9501C43.1993 14.9696 43.3497 14.9969 43.5021 15.0321C43.6544 15.0673 43.8126 15.1122 43.9767 15.1669V16.5966C43.6446 16.4403 43.3282 16.329 43.0275 16.2626C42.7267 16.1962 42.4532 16.163 42.2071 16.163C41.8439 16.163 41.5333 16.2294 41.2755 16.3622C41.0177 16.4911 40.8048 16.6747 40.6368 16.913C40.4728 17.1473 40.3517 17.4286 40.2735 17.7567C40.1954 18.0809 40.1564 18.4384 40.1564 18.829C40.1564 19.243 40.1954 19.6141 40.2735 19.9423C40.3556 20.2665 40.4806 20.5419 40.6485 20.7684C40.8165 20.995 41.0314 21.1688 41.2931 21.2899C41.5548 21.4071 41.8653 21.4657 42.2247 21.4657C42.3536 21.4657 42.4923 21.454 42.6407 21.4305C42.7931 21.4032 42.9454 21.37 43.0978 21.3309C43.254 21.288 43.4064 21.2391 43.5548 21.1844C43.7071 21.1259 43.8478 21.0673 43.9767 21.0087V22.3563ZM50.8673 19.6317C50.8673 20.1005 50.8009 20.5302 50.6681 20.9208C50.5353 21.3075 50.3439 21.6395 50.0939 21.9169C49.8439 22.1942 49.5372 22.4091 49.1739 22.5614C48.8107 22.7137 48.3966 22.7899 47.9318 22.7899C47.4903 22.7899 47.0958 22.7255 46.7482 22.5966C46.4005 22.4677 46.1056 22.2762 45.8634 22.0223C45.6212 21.7645 45.4357 21.4442 45.3068 21.0614C45.1778 20.6747 45.1134 20.2255 45.1134 19.7137C45.1134 19.2411 45.1798 18.8114 45.3126 18.4247C45.4493 18.038 45.6427 17.7079 45.8927 17.4344C46.1466 17.161 46.4552 16.9501 46.8185 16.8016C47.1818 16.6493 47.5919 16.5731 48.0489 16.5731C48.4943 16.5731 48.8907 16.6395 49.2384 16.7723C49.586 16.9012 49.881 17.0946 50.1232 17.3524C50.3653 17.6102 50.5489 17.9305 50.6739 18.3134C50.8028 18.6923 50.8673 19.1317 50.8673 19.6317ZM49.379 19.6669C49.379 19.0497 49.2618 18.5868 49.0275 18.2782C48.797 17.9657 48.4552 17.8094 48.0021 17.8094C47.7521 17.8094 47.5392 17.8583 47.3634 17.9559C47.1876 18.0536 47.0431 18.1884 46.9298 18.3602C46.8165 18.5282 46.7325 18.7255 46.6778 18.952C46.6271 19.1786 46.6017 19.4208 46.6017 19.6786C46.6017 20.2997 46.7267 20.7684 46.9767 21.0848C47.2267 21.3973 47.5685 21.5536 48.0021 21.5536C48.2403 21.5536 48.4474 21.5067 48.6232 21.413C48.7989 21.3153 48.9415 21.1825 49.0509 21.0145C49.1603 20.8427 49.2423 20.6415 49.297 20.411C49.3517 20.1805 49.379 19.9325 49.379 19.6669ZM56.3048 22.6552V18.6005C56.3048 18.452 56.3009 18.3231 56.2931 18.2137C56.2853 18.1005 56.2696 18.0067 56.2462 17.9325C56.2228 17.8583 56.1876 17.8036 56.1407 17.7684C56.0978 17.7294 56.0372 17.7098 55.9591 17.7098C55.838 17.7098 55.7189 17.7919 55.6017 17.9559C55.4845 18.12 55.3517 18.3993 55.2032 18.7938V22.6552H53.9786V18.6005C53.9786 18.452 53.9747 18.3231 53.9669 18.2137C53.9591 18.1005 53.9435 18.0067 53.92 17.9325C53.8966 17.8583 53.8614 17.8036 53.8146 17.7684C53.7677 17.7294 53.7052 17.7098 53.6271 17.7098C53.5255 17.7098 53.4122 17.7919 53.2872 17.9559C53.1622 18.12 53.0235 18.3993 52.8712 18.7938V22.6552H51.6349V16.702H52.6954L52.7189 17.5692C52.8048 17.3934 52.8907 17.243 52.9767 17.118C53.0626 16.993 53.1544 16.8915 53.2521 16.8134C53.3497 16.7313 53.4532 16.6727 53.5626 16.6376C53.6759 16.6024 53.8028 16.5848 53.9435 16.5848C54.2755 16.5848 54.5275 16.6727 54.6993 16.8485C54.8751 17.0204 54.9747 17.2606 54.9982 17.5692C55.0919 17.3934 55.1837 17.243 55.2735 17.118C55.3673 16.993 55.463 16.8915 55.5607 16.8134C55.6622 16.7313 55.7696 16.6727 55.8829 16.6376C56.0001 16.6024 56.129 16.5848 56.2696 16.5848C56.7032 16.5848 57.0235 16.7372 57.2306 17.0419C57.4376 17.3427 57.5411 17.7899 57.5411 18.3837V22.6552H56.3048ZM64.0568 19.5731C64.0568 20.12 63.9786 20.5927 63.8224 20.9911C63.67 21.3895 63.4552 21.7216 63.1778 21.9872C62.9044 22.2489 62.5802 22.4442 62.2052 22.5731C61.8302 22.6981 61.422 22.7606 60.9806 22.7606C60.8321 22.7606 60.6837 22.7509 60.5353 22.7313C60.3868 22.7118 60.2521 22.6864 60.131 22.6552V24.9813H58.7013V16.702H59.9376L59.9728 17.5809C60.0939 17.4286 60.2189 17.2899 60.3478 17.1649C60.4806 17.0399 60.6232 16.9344 60.7755 16.8485C60.9278 16.7587 61.0919 16.6903 61.2677 16.6434C61.4435 16.5966 61.6407 16.5731 61.8595 16.5731C62.211 16.5731 62.5235 16.6434 62.797 16.7841C63.0704 16.9247 63.2989 17.1259 63.4825 17.3876C63.67 17.6454 63.8126 17.9598 63.9103 18.3309C64.0079 18.6981 64.0568 19.1122 64.0568 19.5731ZM62.5568 19.6317C62.5568 19.3036 62.5333 19.0243 62.4864 18.7938C62.4396 18.5634 62.3712 18.3739 62.2814 18.2255C62.1954 18.077 62.088 17.9696 61.9591 17.9032C61.8341 17.8329 61.6896 17.7977 61.5255 17.7977C61.2833 17.7977 61.0509 17.8954 60.8282 18.0907C60.6095 18.286 60.3771 18.5516 60.131 18.8876V21.4891C60.2443 21.5321 60.3829 21.5673 60.547 21.5946C60.715 21.6219 60.8849 21.6356 61.0568 21.6356C61.2833 21.6356 61.4884 21.5887 61.672 21.495C61.8595 21.4012 62.0177 21.2684 62.1466 21.0966C62.2794 20.9247 62.381 20.7157 62.4513 20.4696C62.5216 20.2196 62.5568 19.9403 62.5568 19.6317ZM70.6603 19.6317C70.6603 20.1005 70.5939 20.5302 70.461 20.9208C70.3282 21.3075 70.1368 21.6395 69.8868 21.9169C69.6368 22.1942 69.3302 22.4091 68.9669 22.5614C68.6036 22.7137 68.1896 22.7899 67.7247 22.7899C67.2833 22.7899 66.8888 22.7255 66.5411 22.5966C66.1935 22.4677 65.8985 22.2762 65.6564 22.0223C65.4142 21.7645 65.2286 21.4442 65.0997 21.0614C64.9708 20.6747 64.9064 20.2255 64.9064 19.7137C64.9064 19.2411 64.9728 18.8114 65.1056 18.4247C65.2423 18.038 65.4357 17.7079 65.6857 17.4344C65.9396 17.161 66.2482 16.9501 66.6114 16.8016C66.9747 16.6493 67.3849 16.5731 67.8419 16.5731C68.2872 16.5731 68.6837 16.6395 69.0314 16.7723C69.379 16.9012 69.6739 17.0946 69.9161 17.3524C70.1583 17.6102 70.3419 17.9305 70.4669 18.3134C70.5958 18.6923 70.6603 19.1317 70.6603 19.6317ZM69.172 19.6669C69.172 19.0497 69.0548 18.5868 68.8204 18.2782C68.59 17.9657 68.2482 17.8094 67.795 17.8094C67.545 17.8094 67.3321 17.8583 67.1564 17.9559C66.9806 18.0536 66.836 18.1884 66.7228 18.3602C66.6095 18.5282 66.5255 18.7255 66.4708 18.952C66.42 19.1786 66.3946 19.4208 66.3946 19.6786C66.3946 20.2997 66.5196 20.7684 66.7696 21.0848C67.0196 21.3973 67.3614 21.5536 67.795 21.5536C68.0333 21.5536 68.2403 21.5067 68.4161 21.413C68.5919 21.3153 68.7345 21.1825 68.8439 21.0145C68.9532 20.8427 69.0353 20.6415 69.09 20.411C69.1446 20.1805 69.172 19.9325 69.172 19.6669ZM75.4474 22.6552V18.7762C75.4474 18.1239 75.2052 17.7977 74.7208 17.7977C74.4786 17.7977 74.2462 17.8954 74.0235 18.0907C73.8048 18.286 73.5724 18.5516 73.3263 18.8876V22.6552H71.8966V16.702H73.1329L73.1681 17.5809C73.2892 17.4286 73.4142 17.2899 73.5431 17.1649C73.6759 17.0399 73.8185 16.9344 73.9708 16.8485C74.1232 16.7587 74.2872 16.6903 74.463 16.6434C74.6388 16.5966 74.836 16.5731 75.0548 16.5731C75.3595 16.5731 75.6251 16.6239 75.8517 16.7255C76.0782 16.8231 76.2677 16.9637 76.42 17.1473C76.5724 17.327 76.6857 17.5458 76.7599 17.8036C76.838 18.0575 76.8771 18.3427 76.8771 18.6591V22.6552H75.4474ZM83.6798 19.2216C83.6798 19.3192 83.6759 19.4462 83.6681 19.6024C83.6642 19.7587 83.6564 19.9052 83.6446 20.0419H79.7306C79.7306 20.3036 79.7696 20.5341 79.8478 20.7333C79.9298 20.9325 80.0431 21.1005 80.1876 21.2372C80.336 21.37 80.5118 21.4716 80.715 21.5419C80.922 21.6122 81.1505 21.6473 81.4005 21.6473C81.6896 21.6473 81.9982 21.6259 82.3263 21.5829C82.6583 21.536 83.0021 21.4618 83.3575 21.3602V22.4969C83.2052 22.5399 83.0392 22.579 82.8595 22.6141C82.6798 22.6493 82.4962 22.6805 82.3087 22.7079C82.1212 22.7352 81.9318 22.7548 81.7403 22.7665C81.5489 22.7821 81.3634 22.7899 81.1837 22.7899C80.7306 22.7899 80.3243 22.7255 79.965 22.5966C79.6056 22.4677 79.3009 22.2782 79.0509 22.0282C78.8009 21.7743 78.6095 21.4618 78.4767 21.0907C78.3439 20.7196 78.2775 20.2899 78.2775 19.8016C78.2775 19.3173 78.3439 18.8778 78.4767 18.4833C78.6095 18.0848 78.797 17.745 79.0392 17.4637C79.2814 17.1786 79.5743 16.9598 79.9181 16.8075C80.2657 16.6512 80.6525 16.5731 81.0782 16.5731C81.5001 16.5731 81.8732 16.6395 82.1974 16.7723C82.5216 16.9012 82.7931 17.0829 83.0118 17.3173C83.2306 17.5516 83.3966 17.8309 83.5099 18.1552C83.6232 18.4794 83.6798 18.8348 83.6798 19.2216ZM82.2267 19.0165C82.2306 18.7821 82.2013 18.579 82.1388 18.4071C82.0763 18.2313 81.9903 18.0868 81.881 17.9735C81.7755 17.8602 81.6505 17.7762 81.506 17.7216C81.3653 17.6669 81.213 17.6395 81.0489 17.6395C80.6896 17.6395 80.3946 17.7606 80.1642 18.0028C79.9337 18.2411 79.797 18.579 79.754 19.0165H82.2267ZM88.6427 22.6552V18.7762C88.6427 18.1239 88.4005 17.7977 87.9161 17.7977C87.6739 17.7977 87.4415 17.8954 87.2189 18.0907C87.0001 18.286 86.7677 18.5516 86.5216 18.8876V22.6552H85.0919V16.702H86.3282L86.3634 17.5809C86.4845 17.4286 86.6095 17.2899 86.7384 17.1649C86.8712 17.0399 87.0138 16.9344 87.1661 16.8485C87.3185 16.7587 87.4825 16.6903 87.6583 16.6434C87.8341 16.5966 88.0314 16.5731 88.2501 16.5731C88.5548 16.5731 88.8204 16.6239 89.047 16.7255C89.2735 16.8231 89.463 16.9637 89.6153 17.1473C89.7677 17.327 89.881 17.5458 89.9552 17.8036C90.0333 18.0575 90.0724 18.3427 90.0724 18.6591V22.6552H88.6427ZM96.5997 22.5966C96.3419 22.6552 96.0821 22.702 95.8204 22.7372C95.5587 22.7723 95.3107 22.7899 95.0763 22.7899C94.6857 22.7899 94.3478 22.7489 94.0626 22.6669C93.7814 22.5848 93.547 22.4598 93.3595 22.2919C93.1759 22.1239 93.0392 21.911 92.9493 21.6532C92.8634 21.3915 92.8204 21.0809 92.8204 20.7216V17.8153H91.2208V16.702H92.8204V15.1786L94.2853 14.7977V16.702H96.5997V17.8153H94.2853V20.6161C94.2853 20.9559 94.3634 21.2137 94.5196 21.3895C94.6759 21.5614 94.9376 21.6473 95.3048 21.6473C95.5392 21.6473 95.7677 21.6278 95.9903 21.5887C96.213 21.5497 96.4161 21.5048 96.5997 21.454V22.5966ZM109.051 22.6552L108.629 21.1434H105.957L105.524 22.6552H104.094L106.361 14.9969H108.377L110.645 22.6552H109.051ZM107.311 16.4032L106.303 19.9657H108.307L107.311 16.4032Z" fill="black"/>
<rect x="217.5" y="1.5" width="138" height="33" rx="2.5" fill="#7DE77B" stroke="black" stroke-width="3"/>
<path d="M256.454 22.5012C256.114 22.6379 255.784 22.7394 255.464 22.8058C255.148 22.8723 254.817 22.9055 254.474 22.9055C253.923 22.9055 253.435 22.8254 253.009 22.6652C252.587 22.5012 252.23 22.259 251.937 21.9387C251.648 21.6183 251.427 21.2219 251.274 20.7492C251.126 20.2726 251.052 19.7199 251.052 19.091C251.052 18.4465 251.134 17.8742 251.298 17.3742C251.462 16.8703 251.696 16.4465 252.001 16.1027C252.306 15.7551 252.675 15.4914 253.108 15.3117C253.546 15.1281 254.036 15.0363 254.579 15.0363C254.755 15.0363 254.919 15.0402 255.071 15.048C255.228 15.0558 255.38 15.0715 255.528 15.0949C255.677 15.1144 255.827 15.1418 255.98 15.1769C256.132 15.2121 256.29 15.257 256.454 15.3117V16.7414C256.122 16.5851 255.806 16.4738 255.505 16.4074C255.204 16.341 254.931 16.3078 254.685 16.3078C254.321 16.3078 254.011 16.3742 253.753 16.507C253.495 16.6359 253.282 16.8195 253.114 17.0578C252.95 17.2922 252.829 17.5734 252.751 17.9016C252.673 18.2258 252.634 18.5832 252.634 18.9738C252.634 19.3879 252.673 19.759 252.751 20.0871C252.833 20.4113 252.958 20.6867 253.126 20.9133C253.294 21.1398 253.509 21.3137 253.771 21.4348C254.032 21.5519 254.343 21.6105 254.702 21.6105C254.831 21.6105 254.97 21.5988 255.118 21.5754C255.271 21.548 255.423 21.5148 255.575 21.4758C255.732 21.4328 255.884 21.384 256.032 21.3293C256.185 21.2707 256.325 21.2121 256.454 21.1535V22.5012ZM263.345 19.7766C263.345 20.2453 263.278 20.675 263.146 21.0656C263.013 21.4523 262.821 21.7844 262.571 22.0617C262.321 22.3391 262.015 22.5539 261.651 22.7062C261.288 22.8586 260.874 22.9348 260.409 22.9348C259.968 22.9348 259.573 22.8703 259.226 22.7414C258.878 22.6125 258.583 22.4211 258.341 22.1672C258.099 21.9094 257.913 21.5891 257.784 21.2062C257.655 20.8195 257.591 20.3703 257.591 19.8586C257.591 19.3859 257.657 18.9562 257.79 18.5695C257.927 18.1828 258.12 17.8527 258.37 17.5793C258.624 17.3058 258.933 17.0949 259.296 16.9465C259.659 16.7941 260.069 16.718 260.526 16.718C260.972 16.718 261.368 16.7844 261.716 16.9172C262.064 17.0461 262.358 17.2394 262.601 17.4973C262.843 17.7551 263.026 18.0754 263.151 18.4582C263.28 18.8371 263.345 19.2766 263.345 19.7766ZM261.857 19.8117C261.857 19.1945 261.739 18.7316 261.505 18.423C261.274 18.1105 260.933 17.9543 260.48 17.9543C260.23 17.9543 260.017 18.0031 259.841 18.1008C259.665 18.1984 259.521 18.3332 259.407 18.5051C259.294 18.673 259.21 18.8703 259.155 19.0969C259.105 19.3234 259.079 19.5656 259.079 19.8234C259.079 20.4445 259.204 20.9133 259.454 21.2297C259.704 21.5422 260.046 21.6984 260.48 21.6984C260.718 21.6984 260.925 21.6516 261.101 21.5578C261.276 21.4601 261.419 21.3273 261.528 21.1594C261.638 20.9875 261.72 20.7863 261.774 20.5558C261.829 20.3254 261.857 20.0773 261.857 19.8117ZM268.782 22.8V18.7453C268.782 18.5969 268.778 18.468 268.771 18.3586C268.763 18.2453 268.747 18.1516 268.724 18.0773C268.7 18.0031 268.665 17.9484 268.618 17.9133C268.575 17.8742 268.515 17.8547 268.437 17.8547C268.316 17.8547 268.196 17.9367 268.079 18.1008C267.962 18.2648 267.829 18.5441 267.681 18.9387V22.8H266.456V18.7453C266.456 18.5969 266.452 18.468 266.444 18.3586C266.437 18.2453 266.421 18.1516 266.398 18.0773C266.374 18.0031 266.339 17.9484 266.292 17.9133C266.245 17.8742 266.183 17.8547 266.105 17.8547C266.003 17.8547 265.89 17.9367 265.765 18.1008C265.64 18.2648 265.501 18.5441 265.349 18.9387V22.8H264.112V16.8469H265.173L265.196 17.7141C265.282 17.5383 265.368 17.3879 265.454 17.2629C265.54 17.1379 265.632 17.0363 265.73 16.9582C265.827 16.8762 265.931 16.8176 266.04 16.7824C266.153 16.7473 266.28 16.7297 266.421 16.7297C266.753 16.7297 267.005 16.8176 267.177 16.9933C267.353 17.1652 267.452 17.4055 267.476 17.7141C267.569 17.5383 267.661 17.3879 267.751 17.2629C267.845 17.1379 267.941 17.0363 268.038 16.9582C268.14 16.8762 268.247 16.8176 268.36 16.7824C268.478 16.7473 268.607 16.7297 268.747 16.7297C269.181 16.7297 269.501 16.882 269.708 17.1867C269.915 17.4875 270.019 17.9348 270.019 18.5285V22.8H268.782ZM276.534 19.718C276.534 20.2648 276.456 20.7375 276.3 21.1359C276.148 21.5344 275.933 21.8664 275.655 22.132C275.382 22.3937 275.058 22.5891 274.683 22.718C274.308 22.843 273.899 22.9055 273.458 22.9055C273.31 22.9055 273.161 22.8957 273.013 22.8762C272.864 22.8566 272.73 22.8312 272.608 22.8V25.1262H271.179V16.8469H272.415L272.45 17.7258C272.571 17.5734 272.696 17.4348 272.825 17.3098C272.958 17.1848 273.101 17.0793 273.253 16.9933C273.405 16.9035 273.569 16.8351 273.745 16.7883C273.921 16.7414 274.118 16.718 274.337 16.718C274.689 16.718 275.001 16.7883 275.274 16.9289C275.548 17.0695 275.776 17.2707 275.96 17.5324C276.148 17.7902 276.29 18.1047 276.388 18.4758C276.485 18.843 276.534 19.257 276.534 19.718ZM275.034 19.7766C275.034 19.4484 275.011 19.1691 274.964 18.9387C274.917 18.7082 274.849 18.5187 274.759 18.3703C274.673 18.2219 274.566 18.1144 274.437 18.048C274.312 17.9777 274.167 17.9426 274.003 17.9426C273.761 17.9426 273.528 18.0402 273.306 18.2355C273.087 18.4308 272.855 18.6965 272.608 19.0324V21.634C272.722 21.6769 272.86 21.7121 273.024 21.7394C273.192 21.7668 273.362 21.7805 273.534 21.7805C273.761 21.7805 273.966 21.7336 274.149 21.6398C274.337 21.5461 274.495 21.4133 274.624 21.2414C274.757 21.0695 274.858 20.8605 274.929 20.6144C274.999 20.3644 275.034 20.0851 275.034 19.7766ZM283.138 19.7766C283.138 20.2453 283.071 20.675 282.939 21.0656C282.806 21.4523 282.614 21.7844 282.364 22.0617C282.114 22.3391 281.808 22.5539 281.444 22.7062C281.081 22.8586 280.667 22.9348 280.202 22.9348C279.761 22.9348 279.366 22.8703 279.019 22.7414C278.671 22.6125 278.376 22.4211 278.134 22.1672C277.892 21.9094 277.706 21.5891 277.577 21.2062C277.448 20.8195 277.384 20.3703 277.384 19.8586C277.384 19.3859 277.45 18.9562 277.583 18.5695C277.72 18.1828 277.913 17.8527 278.163 17.5793C278.417 17.3058 278.726 17.0949 279.089 16.9465C279.452 16.7941 279.862 16.718 280.319 16.718C280.765 16.718 281.161 16.7844 281.509 16.9172C281.857 17.0461 282.151 17.2394 282.394 17.4973C282.636 17.7551 282.819 18.0754 282.944 18.4582C283.073 18.8371 283.138 19.2766 283.138 19.7766ZM281.649 19.8117C281.649 19.1945 281.532 18.7316 281.298 18.423C281.067 18.1105 280.726 17.9543 280.273 17.9543C280.023 17.9543 279.81 18.0031 279.634 18.1008C279.458 18.1984 279.314 18.3332 279.2 18.5051C279.087 18.673 279.003 18.8703 278.948 19.0969C278.898 19.3234 278.872 19.5656 278.872 19.8234C278.872 20.4445 278.997 20.9133 279.247 21.2297C279.497 21.5422 279.839 21.6984 280.273 21.6984C280.511 21.6984 280.718 21.6516 280.894 21.5578C281.069 21.4601 281.212 21.3273 281.321 21.1594C281.431 20.9875 281.513 20.7863 281.567 20.5558C281.622 20.3254 281.649 20.0773 281.649 19.8117ZM287.925 22.8V18.9211C287.925 18.2687 287.683 17.9426 287.198 17.9426C286.956 17.9426 286.724 18.0402 286.501 18.2355C286.282 18.4308 286.05 18.6965 285.804 19.0324V22.8H284.374V16.8469H285.61L285.646 17.7258C285.767 17.5734 285.892 17.4348 286.021 17.3098C286.153 17.1848 286.296 17.0793 286.448 16.9933C286.601 16.9035 286.765 16.8351 286.941 16.7883C287.116 16.7414 287.314 16.718 287.532 16.718C287.837 16.718 288.103 16.7687 288.329 16.8703C288.556 16.968 288.745 17.1086 288.898 17.2922C289.05 17.4719 289.163 17.6906 289.237 17.9484C289.316 18.2023 289.355 18.4875 289.355 18.8039V22.8H287.925ZM296.157 19.3664C296.157 19.4641 296.153 19.591 296.146 19.7473C296.142 19.9035 296.134 20.05 296.122 20.1867H292.208C292.208 20.4484 292.247 20.6789 292.325 20.8781C292.407 21.0773 292.521 21.2453 292.665 21.382C292.814 21.5148 292.989 21.6164 293.192 21.6867C293.399 21.757 293.628 21.7922 293.878 21.7922C294.167 21.7922 294.476 21.7707 294.804 21.7277C295.136 21.6808 295.48 21.6066 295.835 21.5051V22.6418C295.683 22.6848 295.517 22.7238 295.337 22.759C295.157 22.7941 294.974 22.8254 294.786 22.8527C294.599 22.8801 294.409 22.8996 294.218 22.9113C294.026 22.9269 293.841 22.9348 293.661 22.9348C293.208 22.9348 292.802 22.8703 292.442 22.7414C292.083 22.6125 291.778 22.423 291.528 22.173C291.278 21.9191 291.087 21.6066 290.954 21.2355C290.821 20.8644 290.755 20.4348 290.755 19.9465C290.755 19.4621 290.821 19.0226 290.954 18.6281C291.087 18.2297 291.274 17.8898 291.517 17.6086C291.759 17.3234 292.052 17.1047 292.396 16.9523C292.743 16.7961 293.13 16.718 293.556 16.718C293.978 16.718 294.351 16.7844 294.675 16.9172C294.999 17.0461 295.271 17.2277 295.489 17.4621C295.708 17.6965 295.874 17.9758 295.987 18.3C296.101 18.6242 296.157 18.9797 296.157 19.3664ZM294.704 19.1613C294.708 18.9269 294.679 18.7238 294.616 18.5519C294.554 18.3762 294.468 18.2316 294.358 18.1183C294.253 18.0051 294.128 17.9211 293.983 17.8664C293.843 17.8117 293.691 17.7844 293.526 17.7844C293.167 17.7844 292.872 17.9055 292.642 18.1476C292.411 18.3859 292.274 18.7238 292.232 19.1613H294.704ZM301.12 22.8V18.9211C301.12 18.2687 300.878 17.9426 300.394 17.9426C300.151 17.9426 299.919 18.0402 299.696 18.2355C299.478 18.4308 299.245 18.6965 298.999 19.0324V22.8H297.569V16.8469H298.806L298.841 17.7258C298.962 17.5734 299.087 17.4348 299.216 17.3098C299.349 17.1848 299.491 17.0793 299.644 16.9933C299.796 16.9035 299.96 16.8351 300.136 16.7883C300.312 16.7414 300.509 16.718 300.728 16.718C301.032 16.718 301.298 16.7687 301.524 16.8703C301.751 16.968 301.941 17.1086 302.093 17.2922C302.245 17.4719 302.358 17.6906 302.433 17.9484C302.511 18.2023 302.55 18.4875 302.55 18.8039V22.8H301.12ZM309.077 22.7414C308.819 22.8 308.56 22.8469 308.298 22.882C308.036 22.9172 307.788 22.9348 307.554 22.9348C307.163 22.9348 306.825 22.8937 306.54 22.8117C306.259 22.7297 306.024 22.6047 305.837 22.4367C305.653 22.2687 305.517 22.0558 305.427 21.798C305.341 21.5363 305.298 21.2258 305.298 20.8664V17.9601H303.698V16.8469H305.298V15.3234L306.763 14.9426V16.8469H309.077V17.9601H306.763V20.7609C306.763 21.1008 306.841 21.3586 306.997 21.5344C307.153 21.7062 307.415 21.7922 307.782 21.7922C308.017 21.7922 308.245 21.7726 308.468 21.7336C308.691 21.6945 308.894 21.6496 309.077 21.5988V22.7414ZM317.304 22.8V15.1418H319.776C320.648 15.1418 321.3 15.2941 321.733 15.5988C322.171 15.9035 322.39 16.3644 322.39 16.9816C322.39 17.173 322.366 17.3605 322.319 17.5441C322.276 17.7238 322.208 17.8898 322.114 18.0422C322.021 18.1945 321.903 18.3293 321.763 18.4465C321.622 18.5637 321.456 18.6555 321.265 18.7219C321.456 18.7531 321.638 18.8156 321.81 18.9094C321.985 18.9992 322.138 19.1183 322.267 19.2668C322.399 19.4113 322.503 19.5832 322.577 19.7824C322.655 19.9816 322.694 20.2043 322.694 20.4504C322.694 21.2316 322.433 21.8195 321.909 22.2141C321.386 22.6047 320.63 22.8 319.642 22.8H317.304ZM320.89 17.2336C320.89 17.0891 320.866 16.9582 320.819 16.841C320.773 16.7238 320.696 16.6242 320.591 16.5422C320.489 16.4601 320.357 16.3976 320.192 16.3547C320.032 16.3078 319.837 16.2844 319.607 16.2844H318.733V18.3117H319.607C319.841 18.3117 320.038 18.2844 320.198 18.2297C320.362 18.1711 320.495 18.093 320.597 17.9953C320.702 17.8937 320.776 17.7785 320.819 17.6496C320.866 17.5207 320.89 17.382 320.89 17.2336ZM319.741 21.6223C319.972 21.6223 320.173 21.593 320.345 21.5344C320.521 21.4758 320.667 21.3957 320.784 21.2941C320.901 21.1887 320.989 21.0656 321.048 20.925C321.11 20.7844 321.142 20.634 321.142 20.4738C321.142 20.1418 321.017 19.882 320.767 19.6945C320.521 19.507 320.142 19.4133 319.63 19.4133H318.733V21.6223H319.741Z" fill="black"/>
<rect x="429.5" y="1.5" width="138" height="33" rx="2.5" fill="#7DE77B" stroke="black" stroke-width="3"/>
<path d="M468.454 22.5012C468.114 22.6379 467.784 22.7394 467.464 22.8058C467.148 22.8723 466.817 22.9055 466.474 22.9055C465.923 22.9055 465.435 22.8254 465.009 22.6652C464.587 22.5012 464.23 22.259 463.937 21.9387C463.648 21.6183 463.427 21.2219 463.274 20.7492C463.126 20.2726 463.052 19.7199 463.052 19.091C463.052 18.4465 463.134 17.8742 463.298 17.3742C463.462 16.8703 463.696 16.4465 464.001 16.1027C464.306 15.7551 464.675 15.4914 465.108 15.3117C465.546 15.1281 466.036 15.0363 466.579 15.0363C466.755 15.0363 466.919 15.0402 467.071 15.048C467.228 15.0558 467.38 15.0715 467.528 15.0949C467.677 15.1144 467.827 15.1418 467.98 15.1769C468.132 15.2121 468.29 15.257 468.454 15.3117V16.7414C468.122 16.5851 467.806 16.4738 467.505 16.4074C467.204 16.341 466.931 16.3078 466.685 16.3078C466.321 16.3078 466.011 16.3742 465.753 16.507C465.495 16.6359 465.282 16.8195 465.114 17.0578C464.95 17.2922 464.829 17.5734 464.751 17.9016C464.673 18.2258 464.634 18.5832 464.634 18.9738C464.634 19.3879 464.673 19.759 464.751 20.0871C464.833 20.4113 464.958 20.6867 465.126 20.9133C465.294 21.1398 465.509 21.3137 465.771 21.4348C466.032 21.5519 466.343 21.6105 466.702 21.6105C466.831 21.6105 466.97 21.5988 467.118 21.5754C467.271 21.548 467.423 21.5148 467.575 21.4758C467.732 21.4328 467.884 21.384 468.032 21.3293C468.185 21.2707 468.325 21.2121 468.454 21.1535V22.5012ZM475.345 19.7766C475.345 20.2453 475.278 20.675 475.146 21.0656C475.013 21.4523 474.821 21.7844 474.571 22.0617C474.321 22.3391 474.015 22.5539 473.651 22.7062C473.288 22.8586 472.874 22.9348 472.409 22.9348C471.968 22.9348 471.573 22.8703 471.226 22.7414C470.878 22.6125 470.583 22.4211 470.341 22.1672C470.099 21.9094 469.913 21.5891 469.784 21.2062C469.655 20.8195 469.591 20.3703 469.591 19.8586C469.591 19.3859 469.657 18.9562 469.79 18.5695C469.927 18.1828 470.12 17.8527 470.37 17.5793C470.624 17.3058 470.933 17.0949 471.296 16.9465C471.659 16.7941 472.069 16.718 472.526 16.718C472.972 16.718 473.368 16.7844 473.716 16.9172C474.064 17.0461 474.358 17.2394 474.601 17.4973C474.843 17.7551 475.026 18.0754 475.151 18.4582C475.28 18.8371 475.345 19.2766 475.345 19.7766ZM473.857 19.8117C473.857 19.1945 473.739 18.7316 473.505 18.423C473.274 18.1105 472.933 17.9543 472.48 17.9543C472.23 17.9543 472.017 18.0031 471.841 18.1008C471.665 18.1984 471.521 18.3332 471.407 18.5051C471.294 18.673 471.21 18.8703 471.155 19.0969C471.105 19.3234 471.079 19.5656 471.079 19.8234C471.079 20.4445 471.204 20.9133 471.454 21.2297C471.704 21.5422 472.046 21.6984 472.48 21.6984C472.718 21.6984 472.925 21.6516 473.101 21.5578C473.276 21.4601 473.419 21.3273 473.528 21.1594C473.638 20.9875 473.72 20.7863 473.774 20.5558C473.829 20.3254 473.857 20.0773 473.857 19.8117ZM480.782 22.8V18.7453C480.782 18.5969 480.778 18.468 480.771 18.3586C480.763 18.2453 480.747 18.1516 480.724 18.0773C480.7 18.0031 480.665 17.9484 480.618 17.9133C480.575 17.8742 480.515 17.8547 480.437 17.8547C480.316 17.8547 480.196 17.9367 480.079 18.1008C479.962 18.2648 479.829 18.5441 479.681 18.9387V22.8H478.456V18.7453C478.456 18.5969 478.452 18.468 478.444 18.3586C478.437 18.2453 478.421 18.1516 478.398 18.0773C478.374 18.0031 478.339 17.9484 478.292 17.9133C478.245 17.8742 478.183 17.8547 478.105 17.8547C478.003 17.8547 477.89 17.9367 477.765 18.1008C477.64 18.2648 477.501 18.5441 477.349 18.9387V22.8H476.112V16.8469H477.173L477.196 17.7141C477.282 17.5383 477.368 17.3879 477.454 17.2629C477.54 17.1379 477.632 17.0363 477.73 16.9582C477.827 16.8762 477.931 16.8176 478.04 16.7824C478.153 16.7473 478.28 16.7297 478.421 16.7297C478.753 16.7297 479.005 16.8176 479.177 16.9933C479.353 17.1652 479.452 17.4055 479.476 17.7141C479.569 17.5383 479.661 17.3879 479.751 17.2629C479.845 17.1379 479.941 17.0363 480.038 16.9582C480.14 16.8762 480.247 16.8176 480.36 16.7824C480.478 16.7473 480.607 16.7297 480.747 16.7297C481.181 16.7297 481.501 16.882 481.708 17.1867C481.915 17.4875 482.019 17.9348 482.019 18.5285V22.8H480.782ZM488.534 19.718C488.534 20.2648 488.456 20.7375 488.3 21.1359C488.148 21.5344 487.933 21.8664 487.655 22.132C487.382 22.3937 487.058 22.5891 486.683 22.718C486.308 22.843 485.899 22.9055 485.458 22.9055C485.31 22.9055 485.161 22.8957 485.013 22.8762C484.864 22.8566 484.73 22.8312 484.608 22.8V25.1262H483.179V16.8469H484.415L484.45 17.7258C484.571 17.5734 484.696 17.4348 484.825 17.3098C484.958 17.1848 485.101 17.0793 485.253 16.9933C485.405 16.9035 485.569 16.8351 485.745 16.7883C485.921 16.7414 486.118 16.718 486.337 16.718C486.689 16.718 487.001 16.7883 487.274 16.9289C487.548 17.0695 487.776 17.2707 487.96 17.5324C488.148 17.7902 488.29 18.1047 488.388 18.4758C488.485 18.843 488.534 19.257 488.534 19.718ZM487.034 19.7766C487.034 19.4484 487.011 19.1691 486.964 18.9387C486.917 18.7082 486.849 18.5187 486.759 18.3703C486.673 18.2219 486.566 18.1144 486.437 18.048C486.312 17.9777 486.167 17.9426 486.003 17.9426C485.761 17.9426 485.528 18.0402 485.306 18.2355C485.087 18.4308 484.855 18.6965 484.608 19.0324V21.634C484.722 21.6769 484.86 21.7121 485.024 21.7394C485.192 21.7668 485.362 21.7805 485.534 21.7805C485.761 21.7805 485.966 21.7336 486.149 21.6398C486.337 21.5461 486.495 21.4133 486.624 21.2414C486.757 21.0695 486.858 20.8605 486.929 20.6144C486.999 20.3644 487.034 20.0851 487.034 19.7766ZM495.138 19.7766C495.138 20.2453 495.071 20.675 494.939 21.0656C494.806 21.4523 494.614 21.7844 494.364 22.0617C494.114 22.3391 493.808 22.5539 493.444 22.7062C493.081 22.8586 492.667 22.9348 492.202 22.9348C491.761 22.9348 491.366 22.8703 491.019 22.7414C490.671 22.6125 490.376 22.4211 490.134 22.1672C489.892 21.9094 489.706 21.5891 489.577 21.2062C489.448 20.8195 489.384 20.3703 489.384 19.8586C489.384 19.3859 489.45 18.9562 489.583 18.5695C489.72 18.1828 489.913 17.8527 490.163 17.5793C490.417 17.3058 490.726 17.0949 491.089 16.9465C491.452 16.7941 491.862 16.718 492.319 16.718C492.765 16.718 493.161 16.7844 493.509 16.9172C493.857 17.0461 494.151 17.2394 494.394 17.4973C494.636 17.7551 494.819 18.0754 494.944 18.4582C495.073 18.8371 495.138 19.2766 495.138 19.7766ZM493.649 19.8117C493.649 19.1945 493.532 18.7316 493.298 18.423C493.067 18.1105 492.726 17.9543 492.273 17.9543C492.023 17.9543 491.81 18.0031 491.634 18.1008C491.458 18.1984 491.314 18.3332 491.2 18.5051C491.087 18.673 491.003 18.8703 490.948 19.0969C490.898 19.3234 490.872 19.5656 490.872 19.8234C490.872 20.4445 490.997 20.9133 491.247 21.2297C491.497 21.5422 491.839 21.6984 492.273 21.6984C492.511 21.6984 492.718 21.6516 492.894 21.5578C493.069 21.4601 493.212 21.3273 493.321 21.1594C493.431 20.9875 493.513 20.7863 493.567 20.5558C493.622 20.3254 493.649 20.0773 493.649 19.8117ZM499.925 22.8V18.9211C499.925 18.2687 499.683 17.9426 499.198 17.9426C498.956 17.9426 498.724 18.0402 498.501 18.2355C498.282 18.4308 498.05 18.6965 497.804 19.0324V22.8H496.374V16.8469H497.61L497.646 17.7258C497.767 17.5734 497.892 17.4348 498.021 17.3098C498.153 17.1848 498.296 17.0793 498.448 16.9933C498.601 16.9035 498.765 16.8351 498.941 16.7883C499.116 16.7414 499.314 16.718 499.532 16.718C499.837 16.718 500.103 16.7687 500.329 16.8703C500.556 16.968 500.745 17.1086 500.898 17.2922C501.05 17.4719 501.163 17.6906 501.237 17.9484C501.316 18.2023 501.355 18.4875 501.355 18.8039V22.8H499.925ZM508.157 19.3664C508.157 19.4641 508.153 19.591 508.146 19.7473C508.142 19.9035 508.134 20.05 508.122 20.1867H504.208C504.208 20.4484 504.247 20.6789 504.325 20.8781C504.407 21.0773 504.521 21.2453 504.665 21.382C504.814 21.5148 504.989 21.6164 505.192 21.6867C505.399 21.757 505.628 21.7922 505.878 21.7922C506.167 21.7922 506.476 21.7707 506.804 21.7277C507.136 21.6808 507.48 21.6066 507.835 21.5051V22.6418C507.683 22.6848 507.517 22.7238 507.337 22.759C507.157 22.7941 506.974 22.8254 506.786 22.8527C506.599 22.8801 506.409 22.8996 506.218 22.9113C506.026 22.9269 505.841 22.9348 505.661 22.9348C505.208 22.9348 504.802 22.8703 504.442 22.7414C504.083 22.6125 503.778 22.423 503.528 22.173C503.278 21.9191 503.087 21.6066 502.954 21.2355C502.821 20.8644 502.755 20.4348 502.755 19.9465C502.755 19.4621 502.821 19.0226 502.954 18.6281C503.087 18.2297 503.274 17.8898 503.517 17.6086C503.759 17.3234 504.052 17.1047 504.396 16.9523C504.743 16.7961 505.13 16.718 505.556 16.718C505.978 16.718 506.351 16.7844 506.675 16.9172C506.999 17.0461 507.271 17.2277 507.489 17.4621C507.708 17.6965 507.874 17.9758 507.987 18.3C508.101 18.6242 508.157 18.9797 508.157 19.3664ZM506.704 19.1613C506.708 18.9269 506.679 18.7238 506.616 18.5519C506.554 18.3762 506.468 18.2316 506.358 18.1183C506.253 18.0051 506.128 17.9211 505.983 17.8664C505.843 17.8117 505.691 17.7844 505.526 17.7844C505.167 17.7844 504.872 17.9055 504.642 18.1476C504.411 18.3859 504.274 18.7238 504.232 19.1613H506.704ZM513.12 22.8V18.9211C513.12 18.2687 512.878 17.9426 512.394 17.9426C512.151 17.9426 511.919 18.0402 511.696 18.2355C511.478 18.4308 511.245 18.6965 510.999 19.0324V22.8H509.569V16.8469H510.806L510.841 17.7258C510.962 17.5734 511.087 17.4348 511.216 17.3098C511.349 17.1848 511.491 17.0793 511.644 16.9933C511.796 16.9035 511.96 16.8351 512.136 16.7883C512.312 16.7414 512.509 16.718 512.728 16.718C513.032 16.718 513.298 16.7687 513.524 16.8703C513.751 16.968 513.941 17.1086 514.093 17.2922C514.245 17.4719 514.358 17.6906 514.433 17.9484C514.511 18.2023 514.55 18.4875 514.55 18.8039V22.8H513.12ZM521.077 22.7414C520.819 22.8 520.56 22.8469 520.298 22.882C520.036 22.9172 519.788 22.9348 519.554 22.9348C519.163 22.9348 518.825 22.8937 518.54 22.8117C518.259 22.7297 518.024 22.6047 517.837 22.4367C517.653 22.2687 517.517 22.0558 517.427 21.798C517.341 21.5363 517.298 21.2258 517.298 20.8664V17.9601H515.698V16.8469H517.298V15.3234L518.763 14.9426V16.8469H521.077V17.9601H518.763V20.7609C518.763 21.1008 518.841 21.3586 518.997 21.5344C519.153 21.7062 519.415 21.7922 519.782 21.7922C520.017 21.7922 520.245 21.7726 520.468 21.7336C520.691 21.6945 520.894 21.6496 521.077 21.5988V22.7414ZM534.431 22.5012C534.091 22.6379 533.761 22.7394 533.441 22.8058C533.124 22.8723 532.794 22.9055 532.45 22.9055C531.899 22.9055 531.411 22.8254 530.985 22.6652C530.564 22.5012 530.206 22.259 529.913 21.9387C529.624 21.6183 529.403 21.2219 529.251 20.7492C529.103 20.2726 529.028 19.7199 529.028 19.091C529.028 18.4465 529.11 17.8742 529.274 17.3742C529.439 16.8703 529.673 16.4465 529.978 16.1027C530.282 15.7551 530.651 15.4914 531.085 15.3117C531.523 15.1281 532.013 15.0363 532.556 15.0363C532.732 15.0363 532.896 15.0402 533.048 15.048C533.204 15.0558 533.357 15.0715 533.505 15.0949C533.653 15.1144 533.804 15.1418 533.956 15.1769C534.108 15.2121 534.267 15.257 534.431 15.3117V16.7414C534.099 16.5851 533.782 16.4738 533.482 16.4074C533.181 16.341 532.907 16.3078 532.661 16.3078C532.298 16.3078 531.987 16.3742 531.73 16.507C531.472 16.6359 531.259 16.8195 531.091 17.0578C530.927 17.2922 530.806 17.5734 530.728 17.9016C530.649 18.2258 530.61 18.5832 530.61 18.9738C530.61 19.3879 530.649 19.759 530.728 20.0871C530.81 20.4113 530.935 20.6867 531.103 20.9133C531.271 21.1398 531.485 21.3137 531.747 21.4348C532.009 21.5519 532.319 21.6105 532.679 21.6105C532.808 21.6105 532.946 21.5988 533.095 21.5754C533.247 21.548 533.399 21.5148 533.552 21.4758C533.708 21.4328 533.86 21.384 534.009 21.3293C534.161 21.2707 534.302 21.2121 534.431 21.1535V22.5012Z" fill="black"/>
<line x1="71" y1="78.5" x2="502" y2="78.5" stroke="black" stroke-width="3"/>
<line x1="500.5" y1="36" x2="500.5" y2="80" stroke="black" stroke-width="3"/>
</svg>
