<svg width="608" height="80" viewBox="0 0 608 80" fill="none" xmlns="http://www.w3.org/2000/svg">
<path d="M205.061 20.0607C205.646 19.4749 205.646 18.5251 205.061 17.9393L195.515 8.3934C194.929 7.80761 193.979 7.80761 193.393 8.3934C192.808 8.97918 192.808 9.92893 193.393 10.5147L201.879 19L193.393 27.4853C192.808 28.0711 192.808 29.0208 193.393 29.6066C193.979 30.1924 194.929 30.1924 195.515 29.6066L205.061 20.0607ZM148 20.5H204V17.5H148V20.5Z" fill="black"/>
<path d="M414.061 16.0607C414.646 15.4749 414.646 14.5251 414.061 13.9393L404.515 4.3934C403.929 3.80761 402.979 3.80761 402.393 4.3934C401.808 4.97918 401.808 5.92893 402.393 6.51472L410.879 15L402.393 23.4853C401.808 24.0711 401.808 25.0208 402.393 25.6066C402.979 26.1924 403.929 26.1924 404.515 25.6066L414.061 16.0607ZM357 16.5H413V13.5H357V16.5Z" fill="black"/>
<path d="M414.061 16.0607C414.646 15.4749 414.646 14.5251 414.061 13.9393L404.515 4.3934C403.929 3.80761 402.979 3.80761 402.393 4.3934C401.808 4.97918 401.808 5.92893 402.393 6.51472L410.879 15L402.393 23.4853C401.808 24.0711 401.808 25.0208 402.393 25.6066C402.979 26.1924 403.929 26.1924 404.515 25.6066L414.061 16.0607ZM357 16.5H413V13.5H357V16.5Z" fill="black"/>
<path d="M72.0607 46.9393C71.4749 46.3536 70.5251 46.3536 69.9393 46.9393L60.3934 56.4853C59.8076 57.0711 59.8076 58.0208 60.3934 58.6066C60.9792 59.1924 61.9289 59.1924 62.5147 58.6066L71 50.1213L79.4853 58.6066C80.0711 59.1924 81.0208 59.1924 81.6066 58.6066C82.1924 58.0208 82.1924 57.0711 81.6066 56.4853L72.0607 46.9393ZM72.5 80L72.5 48L69.5 48L69.5 80L72.5 80Z" fill="black"/>
<rect x="1.5" y="1.5" width="145" height="33" rx="2.5" fill="#7DE77B" stroke="black" stroke-width="3"/>
<path d="M54.0782 19.8368C54.0782 20.3251 54.0118 20.7548 53.879 21.1259C53.7501 21.493 53.5626 21.7997 53.3165 22.0458C53.0743 22.2919 52.7775 22.4774 52.4259 22.6024C52.0743 22.7274 51.6798 22.7899 51.2423 22.7899C50.7501 22.7899 50.3282 22.7274 49.9767 22.6024C49.6251 22.4774 49.34 22.2977 49.1212 22.0634C48.9025 21.829 48.7443 21.5438 48.6466 21.2079C48.5489 20.8719 48.5001 20.495 48.5001 20.077V14.9969H49.9415V19.9891C49.9415 20.2469 49.963 20.4755 50.006 20.6747C50.0528 20.8739 50.131 21.0438 50.2403 21.1844C50.3536 21.3212 50.4943 21.4247 50.6622 21.495C50.8302 21.5653 51.0411 21.6005 51.295 21.6005C51.5333 21.6005 51.7345 21.5712 51.8985 21.5126C52.0626 21.4501 52.1993 21.3524 52.3087 21.2196C52.4181 21.0829 52.5001 20.9091 52.5548 20.6981C52.6095 20.4872 52.6368 20.2313 52.6368 19.9305V14.9969H54.0782V19.8368ZM60.3126 20.9032C60.3126 21.243 60.2364 21.5341 60.0841 21.7762C59.9357 22.0145 59.7364 22.2098 59.4864 22.3622C59.2403 22.5106 58.9591 22.618 58.6427 22.6844C58.3302 22.7548 58.0099 22.7899 57.6818 22.7899C57.2443 22.7899 56.8497 22.7684 56.4982 22.7255C56.1466 22.6864 55.8146 22.6278 55.5021 22.5497V21.2606C55.8693 21.413 56.2345 21.5243 56.5978 21.5946C56.965 21.661 57.3107 21.6942 57.6349 21.6942C58.0099 21.6942 58.2892 21.6356 58.4728 21.5184C58.6603 21.3973 58.754 21.2411 58.754 21.0497C58.754 20.9598 58.7345 20.8778 58.6954 20.8036C58.6564 20.7294 58.5821 20.6591 58.4728 20.5927C58.3673 20.5223 58.2169 20.452 58.0216 20.3817C57.8263 20.3075 57.5704 20.2255 57.254 20.1356C56.961 20.0536 56.7032 19.9618 56.4806 19.8602C56.2618 19.7548 56.0802 19.6317 55.9357 19.4911C55.7911 19.3505 55.6818 19.1884 55.6075 19.0048C55.5372 18.8173 55.5021 18.5985 55.5021 18.3485C55.5021 18.1063 55.5568 17.8778 55.6661 17.663C55.7755 17.4481 55.9376 17.2606 56.1525 17.1005C56.3712 16.9364 56.6427 16.8075 56.9669 16.7137C57.2911 16.62 57.67 16.5731 58.1036 16.5731C58.4786 16.5731 58.8107 16.5927 59.0997 16.6317C59.3888 16.6708 59.6446 16.7137 59.8673 16.7606V17.9266C59.5275 17.8173 59.2071 17.7411 58.9064 17.6981C58.6095 17.6512 58.3146 17.6278 58.0216 17.6278C57.7286 17.6278 57.4923 17.6805 57.3126 17.786C57.1368 17.8915 57.0489 18.038 57.0489 18.2255C57.0489 18.3153 57.0665 18.3954 57.1017 18.4657C57.1368 18.536 57.2052 18.6044 57.3068 18.6708C57.4122 18.7372 57.5568 18.8075 57.7403 18.8817C57.9278 18.952 58.1739 19.0302 58.4786 19.1161C58.8224 19.2137 59.1114 19.3192 59.3458 19.4325C59.5802 19.5419 59.7677 19.6669 59.9083 19.8075C60.0528 19.9481 60.1564 20.1083 60.2189 20.288C60.2814 20.4677 60.3126 20.6727 60.3126 20.9032ZM67.1857 19.2216C67.1857 19.3192 67.1818 19.4462 67.1739 19.6024C67.17 19.7587 67.1622 19.9052 67.1505 20.0419H63.2364C63.2364 20.3036 63.2755 20.5341 63.3536 20.7333C63.4357 20.9325 63.5489 21.1005 63.6935 21.2372C63.8419 21.37 64.0177 21.4716 64.2208 21.5419C64.4278 21.6122 64.6564 21.6473 64.9064 21.6473C65.1954 21.6473 65.504 21.6259 65.8321 21.5829C66.1642 21.536 66.5079 21.4618 66.8634 21.3602V22.4969C66.711 22.5399 66.545 22.579 66.3653 22.6141C66.1857 22.6493 66.0021 22.6805 65.8146 22.7079C65.6271 22.7352 65.4376 22.7548 65.2462 22.7665C65.0548 22.7821 64.8693 22.7899 64.6896 22.7899C64.2364 22.7899 63.8302 22.7255 63.4708 22.5966C63.1114 22.4677 62.8068 22.2782 62.5568 22.0282C62.3068 21.7743 62.1153 21.4618 61.9825 21.0907C61.8497 20.7196 61.7833 20.2899 61.7833 19.8016C61.7833 19.3173 61.8497 18.8778 61.9825 18.4833C62.1153 18.0848 62.3028 17.745 62.545 17.4637C62.7872 17.1786 63.0802 16.9598 63.4239 16.8075C63.7716 16.6512 64.1583 16.5731 64.5841 16.5731C65.006 16.5731 65.379 16.6395 65.7032 16.7723C66.0275 16.9012 66.2989 17.0829 66.5177 17.3173C66.7364 17.5516 66.9025 17.8309 67.0157 18.1552C67.129 18.4794 67.1857 18.8348 67.1857 19.2216ZM65.7325 19.0165C65.7364 18.7821 65.7071 18.579 65.6446 18.4071C65.5821 18.2313 65.4962 18.0868 65.3868 17.9735C65.2814 17.8602 65.1564 17.7762 65.0118 17.7216C64.8712 17.6669 64.7189 17.6395 64.5548 17.6395C64.1954 17.6395 63.9005 17.7606 63.67 18.0028C63.4396 18.2411 63.3028 18.579 63.2599 19.0165H65.7325ZM72.4298 19.0165C72.4376 18.7938 72.4259 18.6044 72.3946 18.4481C72.3673 18.2919 72.3204 18.163 72.254 18.0614C72.1915 17.9598 72.1134 17.8856 72.0196 17.8387C71.9259 17.7919 71.8185 17.7684 71.6974 17.7684C71.4864 17.7684 71.2677 17.8563 71.0411 18.0321C70.8185 18.204 70.5724 18.4891 70.3028 18.8876V22.6552H68.838V16.702H70.1329L70.1857 17.5692C70.2833 17.4169 70.3927 17.2802 70.5138 17.1591C70.6388 17.038 70.7755 16.9344 70.9239 16.8485C71.0763 16.7587 71.2443 16.6903 71.4278 16.6434C71.6114 16.5966 71.8126 16.5731 72.0314 16.5731C72.3321 16.5731 72.5978 16.6259 72.8282 16.7313C73.0626 16.8329 73.2579 16.9852 73.4142 17.1884C73.5743 17.3915 73.6915 17.6473 73.7657 17.9559C73.8439 18.2606 73.8771 18.6141 73.8653 19.0165H72.4298ZM78.9982 22.6552L77.92 20.1942C77.8185 19.9598 77.6759 19.7841 77.4923 19.6669C77.3126 19.5458 77.0997 19.4852 76.8536 19.4852H76.5782V22.6552H75.1368V14.9969H77.3693C77.7911 14.9969 78.1739 15.0341 78.5177 15.1083C78.8614 15.1786 79.1544 15.2977 79.3966 15.4657C79.6388 15.6337 79.8243 15.8524 79.9532 16.1219C80.086 16.3915 80.1525 16.7216 80.1525 17.1122C80.1525 17.3934 80.1114 17.6434 80.0294 17.8622C79.9474 18.0809 79.8321 18.2704 79.6837 18.4305C79.5353 18.5868 79.3575 18.7137 79.1505 18.8114C78.9474 18.9091 78.7247 18.9774 78.4825 19.0165C78.67 19.0555 78.8419 19.163 78.9982 19.3387C79.1544 19.5106 79.3107 19.7606 79.4669 20.0887L80.6915 22.6552H78.9982ZM78.6407 17.2528C78.6407 16.8778 78.5216 16.6083 78.2833 16.4442C78.045 16.2802 77.6876 16.1981 77.211 16.1981H76.5782V18.3602H77.1642C77.3868 18.3602 77.588 18.3368 77.7677 18.2899C77.9513 18.243 78.1075 18.1727 78.2364 18.079C78.3653 17.9852 78.465 17.87 78.5353 17.7333C78.6056 17.5927 78.6407 17.4325 78.6407 17.2528ZM86.9786 19.2216C86.9786 19.3192 86.9747 19.4462 86.9669 19.6024C86.963 19.7587 86.9552 19.9052 86.9435 20.0419H83.0294C83.0294 20.3036 83.0685 20.5341 83.1466 20.7333C83.2286 20.9325 83.3419 21.1005 83.4864 21.2372C83.6349 21.37 83.8107 21.4716 84.0138 21.5419C84.2208 21.6122 84.4493 21.6473 84.6993 21.6473C84.9884 21.6473 85.297 21.6259 85.6251 21.5829C85.9571 21.536 86.3009 21.4618 86.6564 21.3602V22.4969C86.504 22.5399 86.338 22.579 86.1583 22.6141C85.9786 22.6493 85.795 22.6805 85.6075 22.7079C85.42 22.7352 85.2306 22.7548 85.0392 22.7665C84.8478 22.7821 84.6622 22.7899 84.4825 22.7899C84.0294 22.7899 83.6232 22.7255 83.2638 22.5966C82.9044 22.4677 82.5997 22.2782 82.3497 22.0282C82.0997 21.7743 81.9083 21.4618 81.7755 21.0907C81.6427 20.7196 81.5763 20.2899 81.5763 19.8016C81.5763 19.3173 81.6427 18.8778 81.7755 18.4833C81.9083 18.0848 82.0958 17.745 82.338 17.4637C82.5802 17.1786 82.8732 16.9598 83.2169 16.8075C83.5646 16.6512 83.9513 16.5731 84.3771 16.5731C84.7989 16.5731 85.172 16.6395 85.4962 16.7723C85.8204 16.9012 86.0919 17.0829 86.3107 17.3173C86.5294 17.5516 86.6954 17.8309 86.8087 18.1552C86.922 18.4794 86.9786 18.8348 86.9786 19.2216ZM85.5255 19.0165C85.5294 18.7821 85.5001 18.579 85.4376 18.4071C85.3751 18.2313 85.2892 18.0868 85.1798 17.9735C85.0743 17.8602 84.9493 17.7762 84.8048 17.7216C84.6642 17.6669 84.5118 17.6395 84.3478 17.6395C83.9884 17.6395 83.6935 17.7606 83.463 18.0028C83.2325 18.2411 83.0958 18.579 83.0528 19.0165H85.5255ZM93.7462 19.5731C93.7462 20.12 93.6681 20.5927 93.5118 20.9911C93.3595 21.3895 93.1446 21.7216 92.8673 21.9872C92.5939 22.2489 92.2696 22.4442 91.8946 22.5731C91.5196 22.6981 91.1114 22.7606 90.67 22.7606C90.5216 22.7606 90.3732 22.7509 90.2247 22.7313C90.0763 22.7118 89.9415 22.6864 89.8204 22.6552V24.9813H88.3907V16.702H89.6271L89.6622 17.5809C89.7833 17.4286 89.9083 17.2899 90.0372 17.1649C90.17 17.0399 90.3126 16.9344 90.465 16.8485C90.6173 16.7587 90.7814 16.6903 90.9571 16.6434C91.1329 16.5966 91.3302 16.5731 91.5489 16.5731C91.9005 16.5731 92.213 16.6434 92.4864 16.7841C92.7599 16.9247 92.9884 17.1259 93.172 17.3876C93.3595 17.6454 93.5021 17.9598 93.5997 18.3309C93.6974 18.6981 93.7462 19.1122 93.7462 19.5731ZM92.2462 19.6317C92.2462 19.3036 92.2228 19.0243 92.1759 18.7938C92.129 18.5634 92.0607 18.3739 91.9708 18.2255C91.8849 18.077 91.7775 17.9696 91.6485 17.9032C91.5235 17.8329 91.379 17.7977 91.215 17.7977C90.9728 17.7977 90.7403 17.8954 90.5177 18.0907C90.2989 18.286 90.0665 18.5516 89.8204 18.8876V21.4891C89.9337 21.5321 90.0724 21.5673 90.2364 21.5946C90.4044 21.6219 90.5743 21.6356 90.7462 21.6356C90.9728 21.6356 91.1778 21.5887 91.3614 21.495C91.5489 21.4012 91.7071 21.2684 91.836 21.0966C91.9689 20.9247 92.0704 20.7157 92.1407 20.4696C92.211 20.2196 92.2462 19.9403 92.2462 19.6317ZM100.35 19.6317C100.35 20.1005 100.283 20.5302 100.15 20.9208C100.018 21.3075 99.8263 21.6395 99.5763 21.9169C99.3263 22.1942 99.0196 22.4091 98.6564 22.5614C98.2931 22.7137 97.879 22.7899 97.4142 22.7899C96.9728 22.7899 96.5782 22.7255 96.2306 22.5966C95.8829 22.4677 95.588 22.2762 95.3458 22.0223C95.1036 21.7645 94.9181 21.4442 94.7892 21.0614C94.6603 20.6747 94.5958 20.2255 94.5958 19.7137C94.5958 19.2411 94.6622 18.8114 94.795 18.4247C94.9317 18.038 95.1251 17.7079 95.3751 17.4344C95.629 17.161 95.9376 16.9501 96.3009 16.8016C96.6642 16.6493 97.0743 16.5731 97.5314 16.5731C97.9767 16.5731 98.3732 16.6395 98.7208 16.7723C99.0685 16.9012 99.3634 17.0946 99.6056 17.3524C99.8478 17.6102 100.031 17.9305 100.156 18.3134C100.285 18.6923 100.35 19.1317 100.35 19.6317ZM98.8614 19.6669C98.8614 19.0497 98.7442 18.5868 98.5099 18.2782C98.2794 17.9657 97.9376 17.8094 97.4845 17.8094C97.2345 17.8094 97.0216 17.8583 96.8458 17.9559C96.67 18.0536 96.5255 18.1884 96.4122 18.3602C96.2989 18.5282 96.215 18.7255 96.1603 18.952C96.1095 19.1786 96.0841 19.4208 96.0841 19.6786C96.0841 20.2997 96.2091 20.7684 96.4591 21.0848C96.7091 21.3973 97.0509 21.5536 97.4845 21.5536C97.7228 21.5536 97.9298 21.5067 98.1056 21.413C98.2814 21.3153 98.4239 21.1825 98.5333 21.0145C98.6427 20.8427 98.7247 20.6415 98.7794 20.411C98.8341 20.1805 98.8614 19.9325 98.8614 19.6669Z" fill="black"/>
<rect x="217.5" y="1.5" width="138" height="33" rx="2.5" fill="#7DE77B" stroke="black" stroke-width="3"/>
<path d="M279.751 19.9817C279.751 20.47 279.685 20.8997 279.552 21.2708C279.423 21.6379 279.235 21.9446 278.989 22.1907C278.747 22.4368 278.45 22.6223 278.099 22.7473C277.747 22.8723 277.353 22.9348 276.915 22.9348C276.423 22.9348 276.001 22.8723 275.649 22.7473C275.298 22.6223 275.013 22.4426 274.794 22.2083C274.575 21.9739 274.417 21.6887 274.319 21.3528C274.222 21.0168 274.173 20.6399 274.173 20.2219V15.1418H275.614V20.134C275.614 20.3918 275.636 20.6204 275.679 20.8196C275.726 21.0188 275.804 21.1887 275.913 21.3293C276.026 21.4661 276.167 21.5696 276.335 21.6399C276.503 21.7102 276.714 21.7454 276.968 21.7454C277.206 21.7454 277.407 21.7161 277.571 21.6575C277.735 21.595 277.872 21.4973 277.982 21.3645C278.091 21.2278 278.173 21.054 278.228 20.843C278.282 20.6321 278.31 20.3762 278.31 20.0754V15.1418H279.751V19.9817ZM285.985 21.0481C285.985 21.3879 285.909 21.679 285.757 21.9211C285.608 22.1594 285.409 22.3547 285.159 22.5071C284.913 22.6555 284.632 22.7629 284.316 22.8293C284.003 22.8997 283.683 22.9348 283.355 22.9348C282.917 22.9348 282.523 22.9133 282.171 22.8704C281.819 22.8313 281.487 22.7727 281.175 22.6946V21.4055C281.542 21.5579 281.907 21.6692 282.271 21.7395C282.638 21.8059 282.983 21.8391 283.308 21.8391C283.683 21.8391 283.962 21.7805 284.146 21.6633C284.333 21.5422 284.427 21.386 284.427 21.1946C284.427 21.1047 284.407 21.0227 284.368 20.9485C284.329 20.8743 284.255 20.804 284.146 20.7375C284.04 20.6672 283.89 20.5969 283.694 20.5266C283.499 20.4524 283.243 20.3704 282.927 20.2805C282.634 20.1985 282.376 20.1067 282.153 20.0051C281.935 19.8997 281.753 19.7766 281.608 19.636C281.464 19.4954 281.355 19.3333 281.28 19.1497C281.21 18.9622 281.175 18.7434 281.175 18.4934C281.175 18.2512 281.23 18.0227 281.339 17.8079C281.448 17.593 281.61 17.4055 281.825 17.2454C282.044 17.0813 282.316 16.9524 282.64 16.8586C282.964 16.7649 283.343 16.718 283.776 16.718C284.151 16.718 284.483 16.7375 284.773 16.7766C285.062 16.8157 285.317 16.8586 285.54 16.9055V18.0715C285.2 17.9622 284.88 17.886 284.579 17.843C284.282 17.7961 283.987 17.7727 283.694 17.7727C283.401 17.7727 283.165 17.8254 282.985 17.9309C282.81 18.0364 282.722 18.1829 282.722 18.3704C282.722 18.4602 282.739 18.5403 282.774 18.6106C282.81 18.6809 282.878 18.7493 282.98 18.8157C283.085 18.8821 283.23 18.9524 283.413 19.0266C283.601 19.0969 283.847 19.175 284.151 19.261C284.495 19.3586 284.784 19.4641 285.019 19.5774C285.253 19.6868 285.441 19.8118 285.581 19.9524C285.726 20.093 285.829 20.2532 285.892 20.4329C285.954 20.6125 285.985 20.8176 285.985 21.0481ZM292.858 19.3665C292.858 19.4641 292.855 19.5911 292.847 19.7473C292.843 19.9036 292.835 20.05 292.823 20.1868H288.909C288.909 20.4485 288.948 20.679 289.026 20.8782C289.108 21.0774 289.222 21.2454 289.366 21.3821C289.515 21.5149 289.691 21.6165 289.894 21.6868C290.101 21.7571 290.329 21.7922 290.579 21.7922C290.868 21.7922 291.177 21.7708 291.505 21.7278C291.837 21.6809 292.181 21.6067 292.536 21.5051V22.6418C292.384 22.6848 292.218 22.7239 292.038 22.759C291.858 22.7942 291.675 22.8254 291.487 22.8528C291.3 22.8801 291.11 22.8997 290.919 22.9114C290.728 22.927 290.542 22.9348 290.362 22.9348C289.909 22.9348 289.503 22.8704 289.144 22.7415C288.784 22.6125 288.48 22.4231 288.23 22.1731C287.98 21.9192 287.788 21.6067 287.655 21.2356C287.523 20.8645 287.456 20.4348 287.456 19.9465C287.456 19.4622 287.523 19.0227 287.655 18.6282C287.788 18.2297 287.976 17.8899 288.218 17.6086C288.46 17.3235 288.753 17.1047 289.097 16.9524C289.444 16.7961 289.831 16.718 290.257 16.718C290.679 16.718 291.052 16.7844 291.376 16.9172C291.7 17.0461 291.972 17.2278 292.191 17.4622C292.409 17.6965 292.575 17.9758 292.689 18.3C292.802 18.6243 292.858 18.9797 292.858 19.3665ZM291.405 19.1614C291.409 18.927 291.38 18.7239 291.317 18.552C291.255 18.3762 291.169 18.2317 291.06 18.1184C290.954 18.0051 290.829 17.9211 290.685 17.8665C290.544 17.8118 290.392 17.7844 290.228 17.7844C289.868 17.7844 289.573 17.9055 289.343 18.1477C289.112 18.386 288.976 18.7239 288.933 19.1614H291.405ZM298.103 19.1614C298.11 18.9387 298.099 18.7493 298.067 18.593C298.04 18.4368 297.993 18.3079 297.927 18.2063C297.864 18.1047 297.786 18.0305 297.692 17.9836C297.599 17.9368 297.491 17.9133 297.37 17.9133C297.159 17.9133 296.941 18.0012 296.714 18.177C296.491 18.3489 296.245 18.634 295.976 19.0325V22.8H294.511V16.8469H295.806L295.858 17.7141C295.956 17.5618 296.066 17.425 296.187 17.304C296.312 17.1829 296.448 17.0793 296.597 16.9934C296.749 16.9036 296.917 16.8352 297.101 16.7883C297.284 16.7415 297.485 16.718 297.704 16.718C298.005 16.718 298.271 16.7708 298.501 16.8762C298.735 16.9778 298.931 17.1301 299.087 17.3333C299.247 17.5364 299.364 17.7922 299.439 18.1008C299.517 18.4055 299.55 18.759 299.538 19.1614H298.103Z" fill="black"/>
<rect x="429.5" y="1.5" width="177" height="33" rx="2.5" fill="#7DE77B" stroke="black" stroke-width="3"/>
<path d="M468.468 19.9817C468.468 20.47 468.401 20.8997 468.268 21.2708C468.14 21.6379 467.952 21.9446 467.706 22.1907C467.464 22.4368 467.167 22.6223 466.815 22.7473C466.464 22.8723 466.069 22.9348 465.632 22.9348C465.14 22.9348 464.718 22.8723 464.366 22.7473C464.015 22.6223 463.729 22.4426 463.511 22.2083C463.292 21.9739 463.134 21.6887 463.036 21.3528C462.938 21.0168 462.89 20.6399 462.89 20.2219V15.1418H464.331V20.134C464.331 20.3918 464.352 20.6204 464.395 20.8196C464.442 21.0188 464.52 21.1887 464.63 21.3293C464.743 21.4661 464.884 21.5696 465.052 21.6399C465.22 21.7102 465.431 21.7454 465.684 21.7454C465.923 21.7454 466.124 21.7161 466.288 21.6575C466.452 21.595 466.589 21.4973 466.698 21.3645C466.808 21.2278 466.89 21.054 466.944 20.843C466.999 20.6321 467.026 20.3762 467.026 20.0754V15.1418H468.468V19.9817ZM474.702 21.0481C474.702 21.3879 474.626 21.679 474.474 21.9211C474.325 22.1594 474.126 22.3547 473.876 22.5071C473.63 22.6555 473.349 22.7629 473.032 22.8293C472.72 22.8997 472.399 22.9348 472.071 22.9348C471.634 22.9348 471.239 22.9133 470.888 22.8704C470.536 22.8313 470.204 22.7727 469.892 22.6946V21.4055C470.259 21.5579 470.624 21.6692 470.987 21.7395C471.354 21.8059 471.7 21.8391 472.024 21.8391C472.399 21.8391 472.679 21.7805 472.862 21.6633C473.05 21.5422 473.143 21.386 473.143 21.1946C473.143 21.1047 473.124 21.0227 473.085 20.9485C473.046 20.8743 472.972 20.804 472.862 20.7375C472.757 20.6672 472.606 20.5969 472.411 20.5266C472.216 20.4524 471.96 20.3704 471.643 20.2805C471.35 20.1985 471.093 20.1067 470.87 20.0051C470.651 19.8997 470.47 19.7766 470.325 19.636C470.181 19.4954 470.071 19.3333 469.997 19.1497C469.927 18.9622 469.892 18.7434 469.892 18.4934C469.892 18.2512 469.946 18.0227 470.056 17.8079C470.165 17.593 470.327 17.4055 470.542 17.2454C470.761 17.0813 471.032 16.9524 471.356 16.8586C471.681 16.7649 472.059 16.718 472.493 16.718C472.868 16.718 473.2 16.7375 473.489 16.7766C473.778 16.8157 474.034 16.8586 474.257 16.9055V18.0715C473.917 17.9622 473.597 17.886 473.296 17.843C472.999 17.7961 472.704 17.7727 472.411 17.7727C472.118 17.7727 471.882 17.8254 471.702 17.9309C471.526 18.0364 471.438 18.1829 471.438 18.3704C471.438 18.4602 471.456 18.5403 471.491 18.6106C471.526 18.6809 471.595 18.7493 471.696 18.8157C471.802 18.8821 471.946 18.9524 472.13 19.0266C472.317 19.0969 472.563 19.175 472.868 19.261C473.212 19.3586 473.501 19.4641 473.735 19.5774C473.97 19.6868 474.157 19.8118 474.298 19.9524C474.442 20.093 474.546 20.2532 474.608 20.4329C474.671 20.6125 474.702 20.8176 474.702 21.0481ZM481.575 19.3665C481.575 19.4641 481.571 19.5911 481.563 19.7473C481.559 19.9036 481.552 20.05 481.54 20.1868H477.626C477.626 20.4485 477.665 20.679 477.743 20.8782C477.825 21.0774 477.938 21.2454 478.083 21.3821C478.231 21.5149 478.407 21.6165 478.61 21.6868C478.817 21.7571 479.046 21.7922 479.296 21.7922C479.585 21.7922 479.893 21.7708 480.222 21.7278C480.554 21.6809 480.897 21.6067 481.253 21.5051V22.6418C481.1 22.6848 480.934 22.7239 480.755 22.759C480.575 22.7942 480.392 22.8254 480.204 22.8528C480.017 22.8801 479.827 22.8997 479.636 22.9114C479.444 22.927 479.259 22.9348 479.079 22.9348C478.626 22.9348 478.22 22.8704 477.86 22.7415C477.501 22.6125 477.196 22.4231 476.946 22.1731C476.696 21.9192 476.505 21.6067 476.372 21.2356C476.239 20.8645 476.173 20.4348 476.173 19.9465C476.173 19.4622 476.239 19.0227 476.372 18.6282C476.505 18.2297 476.692 17.8899 476.934 17.6086C477.177 17.3235 477.47 17.1047 477.813 16.9524C478.161 16.7961 478.548 16.718 478.974 16.718C479.395 16.718 479.768 16.7844 480.093 16.9172C480.417 17.0461 480.688 17.2278 480.907 17.4622C481.126 17.6965 481.292 17.9758 481.405 18.3C481.518 18.6243 481.575 18.9797 481.575 19.3665ZM480.122 19.1614C480.126 18.927 480.097 18.7239 480.034 18.552C479.972 18.3762 479.886 18.2317 479.776 18.1184C479.671 18.0051 479.546 17.9211 479.401 17.8665C479.261 17.8118 479.108 17.7844 478.944 17.7844C478.585 17.7844 478.29 17.9055 478.059 18.1477C477.829 18.386 477.692 18.7239 477.649 19.1614H480.122ZM486.819 19.1614C486.827 18.9387 486.815 18.7493 486.784 18.593C486.757 18.4368 486.71 18.3079 486.643 18.2063C486.581 18.1047 486.503 18.0305 486.409 17.9836C486.315 17.9368 486.208 17.9133 486.087 17.9133C485.876 17.9133 485.657 18.0012 485.431 18.177C485.208 18.3489 484.962 18.634 484.692 19.0325V22.8H483.227V16.8469H484.522L484.575 17.7141C484.673 17.5618 484.782 17.425 484.903 17.304C485.028 17.1829 485.165 17.0793 485.313 16.9934C485.466 16.9036 485.634 16.8352 485.817 16.7883C486.001 16.7415 486.202 16.718 486.421 16.718C486.722 16.718 486.987 16.7708 487.218 16.8762C487.452 16.9778 487.647 17.1301 487.804 17.3333C487.964 17.5364 488.081 17.7922 488.155 18.1008C488.233 18.4055 488.267 18.759 488.255 19.1614H486.819ZM493.136 22.8V18.9211C493.136 18.2688 492.893 17.9426 492.409 17.9426C492.167 17.9426 491.934 18.0403 491.712 18.2356C491.493 18.4309 491.261 18.6965 491.015 19.0325V22.8H489.585V16.8469H490.821L490.856 17.7258C490.977 17.5735 491.102 17.4348 491.231 17.3098C491.364 17.1848 491.507 17.0793 491.659 16.9934C491.811 16.9036 491.975 16.8352 492.151 16.7883C492.327 16.7415 492.524 16.718 492.743 16.718C493.048 16.718 493.313 16.7688 493.54 16.8704C493.767 16.968 493.956 17.1086 494.108 17.2922C494.261 17.4719 494.374 17.6907 494.448 17.9485C494.526 18.2024 494.565 18.4875 494.565 18.804V22.8H493.136ZM499.915 22.8L499.88 22.0208C499.755 22.1536 499.624 22.2766 499.487 22.3899C499.35 22.4993 499.2 22.595 499.036 22.677C498.872 22.759 498.692 22.8215 498.497 22.8645C498.306 22.9114 498.095 22.9348 497.864 22.9348C497.559 22.9348 497.292 22.8899 497.061 22.8C496.831 22.7102 496.638 22.5852 496.481 22.425C496.325 22.2649 496.206 22.0715 496.124 21.845C496.046 21.6184 496.007 21.3684 496.007 21.095C496.007 20.8137 496.065 20.554 496.183 20.3157C496.304 20.0774 496.485 19.8723 496.727 19.7004C496.974 19.5286 497.278 19.3938 497.642 19.2961C498.009 19.1985 498.438 19.1497 498.931 19.1497H499.71V18.7922C499.71 18.6399 499.688 18.5032 499.645 18.3821C499.602 18.2571 499.532 18.1516 499.434 18.0657C499.341 17.9797 499.218 17.9133 499.065 17.8665C498.913 17.8196 498.725 17.7961 498.503 17.7961C498.151 17.7961 497.804 17.8372 497.46 17.9192C497.12 17.9973 496.79 18.1086 496.47 18.2532V17.1106C496.755 16.9973 497.083 16.9036 497.454 16.8293C497.829 16.7551 498.218 16.718 498.62 16.718C499.061 16.718 499.44 16.761 499.757 16.8469C500.073 16.929 500.333 17.054 500.536 17.2219C500.743 17.3899 500.895 17.6008 500.993 17.8547C501.091 18.1047 501.14 18.3977 501.14 18.7336V22.8H499.915ZM499.71 20.1692H498.837C498.595 20.1692 498.39 20.1926 498.222 20.2395C498.054 20.2864 497.917 20.3508 497.811 20.4329C497.706 20.5149 497.628 20.6106 497.577 20.72C497.53 20.8254 497.507 20.9387 497.507 21.0598C497.507 21.302 497.585 21.4875 497.741 21.6165C497.897 21.7415 498.11 21.804 498.38 21.804C498.579 21.804 498.786 21.7317 499.001 21.5872C499.216 21.4426 499.452 21.2356 499.71 20.9661V20.1692ZM506.981 22.8V18.7454C506.981 18.5969 506.977 18.468 506.97 18.3586C506.962 18.2454 506.946 18.1516 506.923 18.0774C506.899 18.0032 506.864 17.9485 506.817 17.9133C506.774 17.8743 506.714 17.8547 506.636 17.8547C506.515 17.8547 506.395 17.9368 506.278 18.1008C506.161 18.2649 506.028 18.5442 505.88 18.9387V22.8H504.655V18.7454C504.655 18.5969 504.651 18.468 504.643 18.3586C504.636 18.2454 504.62 18.1516 504.597 18.0774C504.573 18.0032 504.538 17.9485 504.491 17.9133C504.444 17.8743 504.382 17.8547 504.304 17.8547C504.202 17.8547 504.089 17.9368 503.964 18.1008C503.839 18.2649 503.7 18.5442 503.548 18.9387V22.8H502.311V16.8469H503.372L503.395 17.7141C503.481 17.5383 503.567 17.3879 503.653 17.2629C503.739 17.1379 503.831 17.0364 503.929 16.9583C504.026 16.8762 504.13 16.8176 504.239 16.7825C504.352 16.7473 504.479 16.7297 504.62 16.7297C504.952 16.7297 505.204 16.8176 505.376 16.9934C505.552 17.1653 505.651 17.4055 505.675 17.7141C505.768 17.5383 505.86 17.3879 505.95 17.2629C506.044 17.1379 506.14 17.0364 506.237 16.9583C506.339 16.8762 506.446 16.8176 506.559 16.7825C506.677 16.7473 506.806 16.7297 506.946 16.7297C507.38 16.7297 507.7 16.8821 507.907 17.1868C508.114 17.4875 508.218 17.9348 508.218 18.5286V22.8H506.981ZM514.563 19.3665C514.563 19.4641 514.559 19.5911 514.552 19.7473C514.548 19.9036 514.54 20.05 514.528 20.1868H510.614C510.614 20.4485 510.653 20.679 510.731 20.8782C510.813 21.0774 510.927 21.2454 511.071 21.3821C511.22 21.5149 511.395 21.6165 511.599 21.6868C511.806 21.7571 512.034 21.7922 512.284 21.7922C512.573 21.7922 512.882 21.7708 513.21 21.7278C513.542 21.6809 513.886 21.6067 514.241 21.5051V22.6418C514.089 22.6848 513.923 22.7239 513.743 22.759C513.563 22.7942 513.38 22.8254 513.192 22.8528C513.005 22.8801 512.815 22.8997 512.624 22.9114C512.433 22.927 512.247 22.9348 512.067 22.9348C511.614 22.9348 511.208 22.8704 510.849 22.7415C510.489 22.6125 510.184 22.4231 509.934 22.1731C509.684 21.9192 509.493 21.6067 509.36 21.2356C509.227 20.8645 509.161 20.4348 509.161 19.9465C509.161 19.4622 509.227 19.0227 509.36 18.6282C509.493 18.2297 509.681 17.8899 509.923 17.6086C510.165 17.3235 510.458 17.1047 510.802 16.9524C511.149 16.7961 511.536 16.718 511.962 16.718C512.384 16.718 512.757 16.7844 513.081 16.9172C513.405 17.0461 513.677 17.2278 513.895 17.4622C514.114 17.6965 514.28 17.9758 514.393 18.3C514.507 18.6243 514.563 18.9797 514.563 19.3665ZM513.11 19.1614C513.114 18.927 513.085 18.7239 513.022 18.552C512.96 18.3762 512.874 18.2317 512.765 18.1184C512.659 18.0051 512.534 17.9211 512.39 17.8665C512.249 17.8118 512.097 17.7844 511.933 17.7844C511.573 17.7844 511.278 17.9055 511.048 18.1477C510.817 18.386 510.681 18.7239 510.638 19.1614H513.11ZM518.495 19.5598V18.3704H521.22V22.4543C520.868 22.6184 520.501 22.7395 520.118 22.8176C519.735 22.8958 519.319 22.9348 518.87 22.9348C518.339 22.9348 517.86 22.8528 517.434 22.6887C517.013 22.5247 516.653 22.2805 516.356 21.9563C516.059 21.6321 515.831 21.2297 515.671 20.7493C515.515 20.2688 515.436 19.7122 515.436 19.0793C515.436 18.4426 515.518 17.8723 515.683 17.3684C515.85 16.8645 516.093 16.4387 516.409 16.0911C516.729 15.7395 517.12 15.4719 517.581 15.2883C518.046 15.1047 518.575 15.0129 519.169 15.0129C519.52 15.0129 519.862 15.0442 520.194 15.1067C520.53 15.1653 520.864 15.2454 521.196 15.3469V16.7708C520.907 16.634 520.587 16.5227 520.235 16.4368C519.888 16.3469 519.536 16.302 519.181 16.302C518.821 16.302 518.503 16.3645 518.225 16.4895C517.952 16.6145 517.722 16.7922 517.534 17.0227C517.35 17.2532 517.21 17.5364 517.112 17.8723C517.018 18.2083 516.972 18.5872 516.972 19.009C516.972 19.4153 517.009 19.7825 517.083 20.1106C517.157 20.4348 517.276 20.7122 517.44 20.9426C517.608 21.1692 517.823 21.343 518.085 21.4641C518.347 21.5852 518.665 21.6458 519.04 21.6458C519.13 21.6458 519.208 21.6438 519.274 21.6399C519.341 21.6321 519.403 21.6223 519.462 21.6106C519.52 21.5989 519.575 21.5852 519.626 21.5696C519.681 21.554 519.737 21.5364 519.796 21.5168V19.5598H518.495ZM527.759 19.3665C527.759 19.4641 527.755 19.5911 527.747 19.7473C527.743 19.9036 527.735 20.05 527.724 20.1868H523.809C523.809 20.4485 523.849 20.679 523.927 20.8782C524.009 21.0774 524.122 21.2454 524.267 21.3821C524.415 21.5149 524.591 21.6165 524.794 21.6868C525.001 21.7571 525.229 21.7922 525.479 21.7922C525.768 21.7922 526.077 21.7708 526.405 21.7278C526.737 21.6809 527.081 21.6067 527.436 21.5051V22.6418C527.284 22.6848 527.118 22.7239 526.938 22.759C526.759 22.7942 526.575 22.8254 526.388 22.8528C526.2 22.8801 526.011 22.8997 525.819 22.9114C525.628 22.927 525.442 22.9348 525.263 22.9348C524.809 22.9348 524.403 22.8704 524.044 22.7415C523.684 22.6125 523.38 22.4231 523.13 22.1731C522.88 21.9192 522.688 21.6067 522.556 21.2356C522.423 20.8645 522.356 20.4348 522.356 19.9465C522.356 19.4622 522.423 19.0227 522.556 18.6282C522.688 18.2297 522.876 17.8899 523.118 17.6086C523.36 17.3235 523.653 17.1047 523.997 16.9524C524.345 16.7961 524.731 16.718 525.157 16.718C525.579 16.718 525.952 16.7844 526.276 16.9172C526.6 17.0461 526.872 17.2278 527.091 17.4622C527.309 17.6965 527.475 17.9758 527.589 18.3C527.702 18.6243 527.759 18.9797 527.759 19.3665ZM526.306 19.1614C526.309 18.927 526.28 18.7239 526.218 18.552C526.155 18.3762 526.069 18.2317 525.96 18.1184C525.854 18.0051 525.729 17.9211 525.585 17.8665C525.444 17.8118 525.292 17.7844 525.128 17.7844C524.768 17.7844 524.474 17.9055 524.243 18.1477C524.013 18.386 523.876 18.7239 523.833 19.1614H526.306ZM532.722 22.8V18.9211C532.722 18.2688 532.479 17.9426 531.995 17.9426C531.753 17.9426 531.52 18.0403 531.298 18.2356C531.079 18.4309 530.847 18.6965 530.6 19.0325V22.8H529.171V16.8469H530.407L530.442 17.7258C530.563 17.5735 530.688 17.4348 530.817 17.3098C530.95 17.1848 531.093 17.0793 531.245 16.9934C531.397 16.9036 531.561 16.8352 531.737 16.7883C531.913 16.7415 532.11 16.718 532.329 16.718C532.634 16.718 532.899 16.7688 533.126 16.8704C533.352 16.968 533.542 17.1086 533.694 17.2922C533.847 17.4719 533.96 17.6907 534.034 17.9485C534.112 18.2024 534.151 18.4875 534.151 18.804V22.8H532.722ZM540.954 19.3665C540.954 19.4641 540.95 19.5911 540.942 19.7473C540.938 19.9036 540.931 20.05 540.919 20.1868H537.005C537.005 20.4485 537.044 20.679 537.122 20.8782C537.204 21.0774 537.317 21.2454 537.462 21.3821C537.61 21.5149 537.786 21.6165 537.989 21.6868C538.196 21.7571 538.425 21.7922 538.675 21.7922C538.964 21.7922 539.272 21.7708 539.6 21.7278C539.933 21.6809 540.276 21.6067 540.632 21.5051V22.6418C540.479 22.6848 540.313 22.7239 540.134 22.759C539.954 22.7942 539.77 22.8254 539.583 22.8528C539.395 22.8801 539.206 22.8997 539.015 22.9114C538.823 22.927 538.638 22.9348 538.458 22.9348C538.005 22.9348 537.599 22.8704 537.239 22.7415C536.88 22.6125 536.575 22.4231 536.325 22.1731C536.075 21.9192 535.884 21.6067 535.751 21.2356C535.618 20.8645 535.552 20.4348 535.552 19.9465C535.552 19.4622 535.618 19.0227 535.751 18.6282C535.884 18.2297 536.071 17.8899 536.313 17.6086C536.556 17.3235 536.849 17.1047 537.192 16.9524C537.54 16.7961 537.927 16.718 538.352 16.718C538.774 16.718 539.147 16.7844 539.472 16.9172C539.796 17.0461 540.067 17.2278 540.286 17.4622C540.505 17.6965 540.671 17.9758 540.784 18.3C540.897 18.6243 540.954 18.9797 540.954 19.3665ZM539.501 19.1614C539.505 18.927 539.475 18.7239 539.413 18.552C539.35 18.3762 539.265 18.2317 539.155 18.1184C539.05 18.0051 538.925 17.9211 538.78 17.8665C538.64 17.8118 538.487 17.7844 538.323 17.7844C537.964 17.7844 537.669 17.9055 537.438 18.1477C537.208 18.386 537.071 18.7239 537.028 19.1614H539.501ZM546.198 19.1614C546.206 18.9387 546.194 18.7493 546.163 18.593C546.136 18.4368 546.089 18.3079 546.022 18.2063C545.96 18.1047 545.882 18.0305 545.788 17.9836C545.694 17.9368 545.587 17.9133 545.466 17.9133C545.255 17.9133 545.036 18.0012 544.809 18.177C544.587 18.3489 544.341 18.634 544.071 19.0325V22.8H542.606V16.8469H543.901L543.954 17.7141C544.052 17.5618 544.161 17.425 544.282 17.304C544.407 17.1829 544.544 17.0793 544.692 16.9934C544.845 16.9036 545.013 16.8352 545.196 16.7883C545.38 16.7415 545.581 16.718 545.8 16.718C546.1 16.718 546.366 16.7708 546.597 16.8762C546.831 16.9778 547.026 17.1301 547.183 17.3333C547.343 17.5364 547.46 17.7922 547.534 18.1008C547.612 18.4055 547.645 18.759 547.634 19.1614H546.198ZM552.696 22.8L552.661 22.0208C552.536 22.1536 552.405 22.2766 552.268 22.3899C552.132 22.4993 551.981 22.595 551.817 22.677C551.653 22.759 551.474 22.8215 551.278 22.8645C551.087 22.9114 550.876 22.9348 550.645 22.9348C550.341 22.9348 550.073 22.8899 549.843 22.8C549.612 22.7102 549.419 22.5852 549.263 22.425C549.106 22.2649 548.987 22.0715 548.905 21.845C548.827 21.6184 548.788 21.3684 548.788 21.095C548.788 20.8137 548.847 20.554 548.964 20.3157C549.085 20.0774 549.267 19.8723 549.509 19.7004C549.755 19.5286 550.059 19.3938 550.423 19.2961C550.79 19.1985 551.22 19.1497 551.712 19.1497H552.491V18.7922C552.491 18.6399 552.47 18.5032 552.427 18.3821C552.384 18.2571 552.313 18.1516 552.216 18.0657C552.122 17.9797 551.999 17.9133 551.847 17.8665C551.694 17.8196 551.507 17.7961 551.284 17.7961C550.933 17.7961 550.585 17.8372 550.241 17.9192C549.901 17.9973 549.571 18.1086 549.251 18.2532V17.1106C549.536 16.9973 549.864 16.9036 550.235 16.8293C550.61 16.7551 550.999 16.718 551.401 16.718C551.843 16.718 552.222 16.761 552.538 16.8469C552.854 16.929 553.114 17.054 553.317 17.2219C553.524 17.3899 553.677 17.6008 553.774 17.8547C553.872 18.1047 553.921 18.3977 553.921 18.7336V22.8H552.696ZM552.491 20.1692H551.618C551.376 20.1692 551.171 20.1926 551.003 20.2395C550.835 20.2864 550.698 20.3508 550.593 20.4329C550.487 20.5149 550.409 20.6106 550.358 20.72C550.311 20.8254 550.288 20.9387 550.288 21.0598C550.288 21.302 550.366 21.4875 550.522 21.6165C550.679 21.7415 550.892 21.804 551.161 21.804C551.36 21.804 551.567 21.7317 551.782 21.5872C551.997 21.4426 552.233 21.2356 552.491 20.9661V20.1692ZM560.472 22.7415C560.214 22.8 559.954 22.8469 559.692 22.8821C559.431 22.9172 559.183 22.9348 558.948 22.9348C558.558 22.9348 558.22 22.8938 557.934 22.8118C557.653 22.7297 557.419 22.6047 557.231 22.4368C557.048 22.2688 556.911 22.0559 556.821 21.7981C556.735 21.5364 556.692 21.2258 556.692 20.8665V17.9602H555.093V16.8469H556.692V15.3235L558.157 14.9426V16.8469H560.472V17.9602H558.157V20.761C558.157 21.1008 558.235 21.3586 558.392 21.5344C558.548 21.7063 558.809 21.7922 559.177 21.7922C559.411 21.7922 559.64 21.7727 559.862 21.7336C560.085 21.6946 560.288 21.6497 560.472 21.5989V22.7415ZM567.52 19.7766C567.52 20.2454 567.454 20.675 567.321 21.0657C567.188 21.4524 566.997 21.7844 566.747 22.0618C566.497 22.3391 566.19 22.554 565.827 22.7063C565.464 22.8586 565.05 22.9348 564.585 22.9348C564.143 22.9348 563.749 22.8704 563.401 22.7415C563.054 22.6125 562.759 22.4211 562.517 22.1672C562.274 21.9094 562.089 21.5891 561.96 21.2063C561.831 20.8196 561.767 20.3704 561.767 19.8586C561.767 19.386 561.833 18.9563 561.966 18.5696C562.102 18.1829 562.296 17.8528 562.546 17.5793C562.8 17.3059 563.108 17.095 563.472 16.9465C563.835 16.7942 564.245 16.718 564.702 16.718C565.147 16.718 565.544 16.7844 565.892 16.9172C566.239 17.0461 566.534 17.2395 566.776 17.4973C567.018 17.7551 567.202 18.0754 567.327 18.4583C567.456 18.8372 567.52 19.2766 567.52 19.7766ZM566.032 19.8118C566.032 19.1946 565.915 18.7317 565.681 18.4231C565.45 18.1106 565.108 17.9543 564.655 17.9543C564.405 17.9543 564.192 18.0032 564.017 18.1008C563.841 18.1985 563.696 18.3333 563.583 18.5051C563.47 18.6731 563.386 18.8704 563.331 19.0969C563.28 19.3235 563.255 19.5657 563.255 19.8235C563.255 20.4446 563.38 20.9133 563.63 21.2297C563.88 21.5422 564.222 21.6985 564.655 21.6985C564.893 21.6985 565.1 21.6516 565.276 21.5579C565.452 21.4602 565.595 21.3274 565.704 21.1594C565.813 20.9875 565.895 20.7864 565.95 20.5559C566.005 20.3254 566.032 20.0774 566.032 19.8118ZM572.589 19.1614C572.597 18.9387 572.585 18.7493 572.554 18.593C572.526 18.4368 572.479 18.3079 572.413 18.2063C572.35 18.1047 572.272 18.0305 572.179 17.9836C572.085 17.9368 571.977 17.9133 571.856 17.9133C571.645 17.9133 571.427 18.0012 571.2 18.177C570.977 18.3489 570.731 18.634 570.462 19.0325V22.8H568.997V16.8469H570.292L570.345 17.7141C570.442 17.5618 570.552 17.425 570.673 17.304C570.798 17.1829 570.934 17.0793 571.083 16.9934C571.235 16.9036 571.403 16.8352 571.587 16.7883C571.77 16.7415 571.972 16.718 572.19 16.718C572.491 16.718 572.757 16.7708 572.987 16.8762C573.222 16.9778 573.417 17.1301 573.573 17.3333C573.733 17.5364 573.85 17.7922 573.925 18.1008C574.003 18.4055 574.036 18.759 574.024 19.1614H572.589Z" fill="black"/>
<line x1="71" y1="78.5" x2="518" y2="78.5" stroke="black" stroke-width="3"/>
<line x1="519.5" y1="36" x2="519.5" y2="80" stroke="black" stroke-width="3"/>
</svg>
