<svg width="234" height="142" viewBox="0 0 234 142" fill="none" xmlns="http://www.w3.org/2000/svg">
<path d="M232.5 71C232.5 89.8806 219.882 107.222 198.953 119.922C178.052 132.606 149.081 140.5 117 140.5C84.9195 140.5 55.9483 132.606 35.0467 119.922C14.1178 107.222 1.5 89.8806 1.5 71C1.5 52.1194 14.1178 34.7782 35.0467 22.0778C55.9483 9.39391 84.9195 1.5 117 1.5C149.081 1.5 178.052 9.39391 198.953 22.0778C219.882 34.7782 232.5 52.1194 232.5 71Z" fill="#7DE77B" fill-opacity="0.33" stroke="black" stroke-width="3"/>
<path d="M108 28.5C108 32.2412 105.198 35.85 100.175 38.5817C95.1904 41.2925 88.2362 43 80.5 43C72.7638 43 65.8096 41.2925 60.8252 38.5817C55.8024 35.85 53 32.2412 53 28.5C53 24.7588 55.8024 21.15 60.8252 18.4183C65.8096 15.7075 72.7638 14 80.5 14C88.2362 14 95.1904 15.7075 100.175 18.4183C105.198 21.15 108 24.7588 108 28.5Z" fill="#7DE77B" stroke="black" stroke-width="2"/>
<path d="M64.9061 30.3478V23.9659H68.7489V24.9816H66.1268V26.5685H68.6268V27.5597H66.1268V29.3322H68.7489V30.3478H64.9061ZM72.9578 30.3478H71.5858L69.618 25.3868H70.9461L71.9764 28.1993L72.284 29.1075L72.5867 28.2384L73.6268 25.3868H74.9061L72.9578 30.3478ZM80.0037 27.4865C80.0037 27.5678 80.0005 27.6736 79.994 27.8038C79.9907 27.934 79.9842 28.0561 79.9744 28.17H76.7127C76.7127 28.3881 76.7453 28.5802 76.8104 28.7462C76.8787 28.9122 76.9731 29.0522 77.0936 29.1661C77.2173 29.2768 77.3638 29.3615 77.533 29.42C77.7056 29.4786 77.896 29.5079 78.1043 29.5079C78.3452 29.5079 78.6024 29.49 78.8758 29.4542C79.1525 29.4152 79.439 29.3533 79.7352 29.2687V30.2159C79.6082 30.2517 79.4699 30.2843 79.3201 30.3136C79.1704 30.3429 79.0174 30.3689 78.8612 30.3917C78.7049 30.4145 78.547 30.4308 78.3875 30.4406C78.228 30.4536 78.0734 30.4601 77.9237 30.4601C77.5461 30.4601 77.2075 30.4064 76.908 30.299C76.6086 30.1915 76.3546 30.0337 76.1463 29.8253C75.938 29.6137 75.7785 29.3533 75.6678 29.0441C75.5571 28.7348 75.5018 28.3767 75.5018 27.9698C75.5018 27.5662 75.5571 27.2 75.6678 26.8712C75.7785 26.5392 75.9347 26.256 76.1365 26.0216C76.3384 25.784 76.5825 25.6017 76.869 25.4747C77.1587 25.3445 77.4809 25.2794 77.8358 25.2794C78.1873 25.2794 78.4982 25.3348 78.7684 25.4454C79.0386 25.5529 79.2648 25.7042 79.4471 25.8995C79.6294 26.0948 79.7677 26.3276 79.8621 26.5978C79.9565 26.868 80.0037 27.1642 80.0037 27.4865ZM78.7928 27.3156C78.7961 27.1202 78.7716 26.951 78.7196 26.8077C78.6675 26.6613 78.5959 26.5408 78.5047 26.4464C78.4168 26.352 78.3127 26.282 78.1922 26.2365C78.075 26.1909 77.9481 26.1681 77.8114 26.1681C77.5119 26.1681 77.2661 26.269 77.074 26.4708C76.882 26.6694 76.7681 26.951 76.7323 27.3156H78.7928ZM84.1395 30.3478V27.1154C84.1395 26.5717 83.9377 26.2999 83.534 26.2999C83.3322 26.2999 83.1385 26.3813 82.953 26.5441C82.7707 26.7068 82.577 26.9282 82.3719 27.2081V30.3478H81.1805V25.3868H82.2108L82.2401 26.1193C82.341 25.9923 82.4451 25.8767 82.5526 25.7726C82.6632 25.6684 82.7821 25.5805 82.909 25.5089C83.036 25.434 83.1727 25.3771 83.3192 25.338C83.4656 25.299 83.63 25.2794 83.8123 25.2794C84.0662 25.2794 84.2876 25.3217 84.4764 25.4064C84.6652 25.4878 84.8231 25.6049 84.95 25.7579C85.077 25.9077 85.1714 26.09 85.2332 26.3048C85.2983 26.5164 85.3309 26.754 85.3309 27.0177V30.3478H84.1395ZM90.7703 30.299C90.5555 30.3478 90.339 30.3868 90.1209 30.4161C89.9028 30.4454 89.6961 30.4601 89.5008 30.4601C89.1753 30.4601 88.8937 30.4259 88.6561 30.3575C88.4217 30.2892 88.2264 30.185 88.0701 30.045C87.9171 29.9051 87.8032 29.7277 87.7283 29.5128C87.6567 29.2947 87.6209 29.0359 87.6209 28.7365V26.3146H86.2879V25.3868H87.6209V24.1173L88.8416 23.7999V25.3868H90.7703V26.3146H88.8416V28.6486C88.8416 28.9318 88.9067 29.1466 89.0369 29.2931C89.1671 29.4363 89.3852 29.5079 89.6912 29.5079C89.8865 29.5079 90.077 29.4917 90.2625 29.4591C90.4481 29.4266 90.6173 29.3891 90.7703 29.3468V30.299ZM96.2684 28.8878C96.2684 29.171 96.2049 29.4135 96.078 29.6154C95.9543 29.8139 95.7882 29.9767 95.5799 30.1036C95.3748 30.2273 95.1405 30.3169 94.8768 30.3722C94.6164 30.4308 94.3494 30.4601 94.076 30.4601C93.7114 30.4601 93.3826 30.4422 93.0897 30.4064C92.7967 30.3738 92.52 30.325 92.2596 30.2599V29.1857C92.5656 29.3126 92.8699 29.4054 93.1727 29.464C93.4787 29.5193 93.7668 29.547 94.0369 29.547C94.3494 29.547 94.5822 29.4982 94.7352 29.4005C94.8914 29.2996 94.9696 29.1694 94.9696 29.0099C94.9696 28.935 94.9533 28.8667 94.9207 28.8048C94.8882 28.743 94.8263 28.6844 94.7352 28.629C94.6473 28.5704 94.522 28.5118 94.3592 28.4532C94.1964 28.3914 93.9832 28.323 93.7196 28.2482C93.4754 28.1798 93.2606 28.1033 93.075 28.0187C92.8927 27.9308 92.7414 27.8282 92.6209 27.7111C92.5005 27.5939 92.4093 27.4588 92.3475 27.3058C92.2889 27.1495 92.2596 26.9672 92.2596 26.7589C92.2596 26.5571 92.3052 26.3667 92.3963 26.1876C92.4875 26.0086 92.6225 25.8523 92.8016 25.7189C92.9839 25.5822 93.2101 25.4747 93.4803 25.3966C93.7505 25.3185 94.0662 25.2794 94.4276 25.2794C94.7401 25.2794 95.0168 25.2957 95.2576 25.3282C95.4985 25.3608 95.7117 25.3966 95.8973 25.4357V26.4073C95.6141 26.3162 95.3472 26.2527 95.0965 26.2169C94.8491 26.1779 94.6033 26.1583 94.3592 26.1583C94.1151 26.1583 93.9181 26.2023 93.7684 26.2902C93.6219 26.3781 93.5487 26.5001 93.5487 26.6564C93.5487 26.7312 93.5633 26.798 93.5926 26.8566C93.6219 26.9152 93.6789 26.9721 93.7635 27.0275C93.8514 27.0828 93.9718 27.1414 94.1248 27.2032C94.2811 27.2618 94.4862 27.3269 94.7401 27.3986C95.0265 27.4799 95.2674 27.5678 95.4627 27.6622C95.658 27.7534 95.8143 27.8575 95.9315 27.9747C96.0519 28.0919 96.1382 28.2254 96.1903 28.3751C96.2423 28.5249 96.2684 28.6958 96.2684 28.8878Z" fill="black"/>
<path d="M83 70.5C83 74.2412 80.1976 77.85 75.1748 80.5817C70.1904 83.2925 63.2362 85 55.5 85C47.7638 85 40.8096 83.2925 35.8252 80.5817C30.8024 77.85 28 74.2412 28 70.5C28 66.7588 30.8024 63.15 35.8252 60.4183C40.8096 57.7075 47.7638 56 55.5 56C63.2362 56 70.1904 57.7075 75.1748 60.4183C80.1976 63.15 83 66.7588 83 70.5Z" fill="#7DE77B" stroke="black" stroke-width="2"/>
<path d="M38.7489 69.0763C38.7489 69.5711 38.687 70.0203 38.5633 70.424C38.4429 70.8276 38.2524 71.1726 37.992 71.4591C37.7349 71.7423 37.4045 71.962 37.0008 72.1183C36.5972 72.2713 36.1138 72.3478 35.5506 72.3478H33.9295V65.9659H35.8192C36.3074 65.9659 36.7339 66.0278 37.0985 66.1515C37.4663 66.2719 37.7723 66.4591 38.0164 66.713C38.2606 66.9669 38.4429 67.2892 38.5633 67.6798C38.687 68.0704 38.7489 68.5359 38.7489 69.0763ZM37.4598 69.1544C37.4598 68.8094 37.4321 68.5017 37.3768 68.2316C37.3214 67.9614 37.227 67.7335 37.0936 67.548C36.9634 67.3592 36.7876 67.2159 36.5662 67.1183C36.3449 67.0206 36.0698 66.9718 35.741 66.9718H35.1307V71.3419H35.658C36.2472 71.3419 36.6948 71.1661 37.0008 70.8146C37.3068 70.463 37.4598 69.9096 37.4598 69.1544ZM44.1541 69.8282C44.1541 70.2189 44.0988 70.5769 43.9881 70.9025C43.8774 71.2247 43.7179 71.5014 43.5096 71.7325C43.3013 71.9637 43.0457 72.1427 42.743 72.2697C42.4403 72.3966 42.0952 72.4601 41.7078 72.4601C41.34 72.4601 41.0112 72.4064 40.7215 72.299C40.4318 72.1915 40.186 72.032 39.9842 71.8204C39.7824 71.6056 39.6278 71.3387 39.5203 71.0197C39.4129 70.6974 39.3592 70.323 39.3592 69.8966C39.3592 69.5027 39.4145 69.1447 39.5252 68.8224C39.6392 68.5001 39.8003 68.2251 40.0086 67.9972C40.2202 67.7693 40.4774 67.5935 40.7801 67.4698C41.0828 67.3429 41.4246 67.2794 41.8055 67.2794C42.1766 67.2794 42.507 67.3348 42.7967 67.4454C43.0864 67.5529 43.3322 67.714 43.534 67.9288C43.7358 68.1437 43.8888 68.4106 43.993 68.7296C44.1004 69.0454 44.1541 69.4116 44.1541 69.8282ZM42.9139 69.8575C42.9139 69.3432 42.8162 68.9575 42.6209 68.7003C42.4289 68.4399 42.144 68.3097 41.7664 68.3097C41.5581 68.3097 41.3807 68.3504 41.2342 68.4318C41.0877 68.5131 40.9673 68.6254 40.8729 68.7687C40.7785 68.9087 40.7085 69.073 40.6629 69.2618C40.6206 69.4506 40.5994 69.6525 40.5994 69.8673C40.5994 70.3849 40.7036 70.7755 40.9119 71.0392C41.1203 71.2996 41.4051 71.4298 41.7664 71.4298C41.965 71.4298 42.1375 71.3907 42.284 71.3126C42.4305 71.2312 42.5493 71.1206 42.6405 70.9806C42.7316 70.8374 42.8 70.6697 42.8455 70.4777C42.8911 70.2856 42.9139 70.0789 42.9139 69.8575ZM49.1981 72.1573C48.9637 72.2517 48.7212 72.3217 48.4705 72.3673C48.2199 72.4129 47.9578 72.4357 47.6844 72.4357C47.2905 72.4357 46.9373 72.382 46.6248 72.2745C46.3123 72.1671 46.047 72.0076 45.8289 71.796C45.6108 71.5844 45.4432 71.3224 45.326 71.0099C45.2121 70.6974 45.1551 70.3361 45.1551 69.9259C45.1551 69.5288 45.217 69.1691 45.3406 68.8468C45.4676 68.5245 45.645 68.2495 45.8729 68.0216C46.1007 67.7937 46.3742 67.618 46.6932 67.4943C47.0155 67.3706 47.3735 67.3087 47.7674 67.3087C48.0897 67.3087 48.3599 67.3266 48.578 67.3624C48.7993 67.395 48.9979 67.4373 49.1737 67.4894V68.6466C48.9718 68.5457 48.7521 68.4676 48.5145 68.4122C48.2801 68.3569 48.0571 68.3292 47.8455 68.3292C47.6242 68.3292 47.4256 68.3667 47.2498 68.4415C47.074 68.5164 46.9259 68.6206 46.8055 68.754C46.685 68.8875 46.5923 69.0503 46.5272 69.2423C46.4653 69.4311 46.4344 69.6394 46.4344 69.8673C46.4344 70.1049 46.4686 70.3182 46.5369 70.507C46.6053 70.6958 46.7013 70.8569 46.825 70.9904C46.952 71.1206 47.1033 71.2215 47.2791 71.2931C47.4549 71.3615 47.6502 71.3956 47.8651 71.3956C47.9692 71.3956 48.0783 71.3891 48.1922 71.3761C48.3094 71.3598 48.425 71.3387 48.5389 71.3126C48.6561 71.2833 48.77 71.2508 48.8807 71.215C48.9946 71.1792 49.1004 71.1401 49.1981 71.0978V72.1573ZM51.8641 67.3868V70.6193C51.8641 70.8894 51.9145 71.0945 52.0155 71.2345C52.1164 71.3712 52.2694 71.4396 52.4744 71.4396C52.673 71.4396 52.8634 71.3582 53.0457 71.1954C53.2313 71.0294 53.4266 70.8064 53.6317 70.5265V67.3868H54.8231V72.3478H53.7928L53.7635 71.6154C53.6593 71.7423 53.5535 71.8579 53.4461 71.962C53.3387 72.0662 53.2215 72.1557 53.0946 72.2306C52.9709 72.3022 52.8341 72.3575 52.6844 72.3966C52.5379 72.4389 52.3752 72.4601 52.1961 72.4601C51.9422 72.4601 51.7192 72.4194 51.5272 72.338C51.3384 72.2534 51.1805 72.1346 51.0535 71.9816C50.9266 71.8286 50.8306 71.6463 50.7655 71.4347C50.7036 71.2198 50.6727 70.9806 50.6727 70.7169V67.3868H51.8641ZM59.6815 72.3478V68.9689C59.6815 68.8452 59.6782 68.7378 59.6717 68.6466C59.6652 68.5522 59.6522 68.4741 59.6326 68.4122C59.6131 68.3504 59.5838 68.3048 59.5448 68.2755C59.5089 68.243 59.4585 68.2267 59.3934 68.2267C59.2925 68.2267 59.1932 68.295 59.0955 68.4318C58.9979 68.5685 58.8872 68.8012 58.7635 69.13V72.3478H57.743V68.9689C57.743 68.8452 57.7397 68.7378 57.7332 68.6466C57.7267 68.5522 57.7137 68.4741 57.6942 68.4122C57.6746 68.3504 57.6453 68.3048 57.6063 68.2755C57.5672 68.243 57.5151 68.2267 57.45 68.2267C57.3654 68.2267 57.271 68.295 57.1668 68.4318C57.0627 68.5685 56.9471 68.8012 56.8201 69.13V72.3478H55.7899V67.3868H56.6737L56.6932 68.1095C56.7648 67.963 56.8364 67.8377 56.908 67.7335C56.9796 67.6294 57.0561 67.5447 57.1375 67.4796C57.2189 67.4113 57.3052 67.3624 57.3963 67.3331C57.4907 67.3038 57.5965 67.2892 57.7137 67.2892C57.9904 67.2892 58.2003 67.3624 58.3436 67.5089C58.4901 67.6521 58.5731 67.8523 58.5926 68.1095C58.6707 67.963 58.7472 67.8377 58.8221 67.7335C58.9002 67.6294 58.98 67.5447 59.0614 67.4796C59.146 67.4113 59.2355 67.3624 59.3299 67.3331C59.4276 67.3038 59.535 67.2892 59.6522 67.2892C60.0135 67.2892 60.2804 67.4161 60.453 67.67C60.6255 67.9207 60.7117 68.2934 60.7117 68.7882V72.3478H59.6815ZM65.9998 69.4865C65.9998 69.5678 65.9966 69.6736 65.9901 69.8038C65.9868 69.934 65.9803 70.0561 65.9705 70.17H62.7088C62.7088 70.3881 62.7414 70.5802 62.8065 70.7462C62.8748 70.9122 62.9692 71.0522 63.0897 71.1661C63.2134 71.2768 63.3599 71.3615 63.5291 71.42C63.7017 71.4786 63.8921 71.5079 64.1004 71.5079C64.3413 71.5079 64.5985 71.49 64.8719 71.4542C65.1486 71.4152 65.435 71.3533 65.7313 71.2687V72.2159C65.6043 72.2517 65.466 72.2843 65.3162 72.3136C65.1665 72.3429 65.0135 72.3689 64.8573 72.3917C64.701 72.4145 64.5431 72.4308 64.3836 72.4406C64.2241 72.4536 64.0695 72.4601 63.9198 72.4601C63.5421 72.4601 63.2036 72.4064 62.9041 72.299C62.6046 72.1915 62.3507 72.0337 62.1424 71.8253C61.9341 71.6137 61.7746 71.3533 61.6639 71.0441C61.5532 70.7348 61.4979 70.3767 61.4979 69.9698C61.4979 69.5662 61.5532 69.2 61.6639 68.8712C61.7746 68.5392 61.9308 68.256 62.1326 68.0216C62.3345 67.784 62.5786 67.6017 62.8651 67.4747C63.1548 67.3445 63.477 67.2794 63.8319 67.2794C64.1834 67.2794 64.4943 67.3348 64.7645 67.4454C65.0347 67.5529 65.2609 67.7042 65.4432 67.8995C65.6255 68.0948 65.7638 68.3276 65.8582 68.5978C65.9526 68.868 65.9998 69.1642 65.9998 69.4865ZM64.7889 69.3156C64.7921 69.1202 64.7677 68.951 64.7156 68.8077C64.6636 68.6613 64.592 68.5408 64.5008 68.4464C64.4129 68.352 64.3087 68.282 64.1883 68.2365C64.0711 68.1909 63.9442 68.1681 63.8074 68.1681C63.508 68.1681 63.2622 68.269 63.0701 68.4708C62.8781 68.6694 62.7642 68.951 62.7283 69.3156H64.7889ZM70.1356 72.3478V69.1154C70.1356 68.5717 69.9337 68.2999 69.5301 68.2999C69.3283 68.2999 69.1346 68.3813 68.949 68.5441C68.7668 68.7068 68.5731 68.9282 68.368 69.2081V72.3478H67.1766V67.3868H68.2069L68.2362 68.1193C68.3371 67.9923 68.4412 67.8767 68.5487 67.7726C68.6593 67.6684 68.7781 67.5805 68.9051 67.5089C69.0321 67.434 69.1688 67.3771 69.3153 67.338C69.4617 67.299 69.6261 67.2794 69.8084 67.2794C70.0623 67.2794 70.2837 67.3217 70.4725 67.4064C70.6613 67.4878 70.8192 67.6049 70.9461 67.7579C71.0731 67.9077 71.1675 68.09 71.2293 68.3048C71.2944 68.5164 71.327 68.754 71.327 69.0177V72.3478H70.1356ZM76.7664 72.299C76.5516 72.3478 76.3351 72.3868 76.117 72.4161C75.8989 72.4454 75.6922 72.4601 75.4969 72.4601C75.1714 72.4601 74.8898 72.4259 74.6522 72.3575C74.4178 72.2892 74.2225 72.185 74.0662 72.045C73.9132 71.9051 73.7993 71.7277 73.7244 71.5128C73.6528 71.2947 73.617 71.0359 73.617 70.7365V68.3146H72.284V67.3868H73.617V66.1173L74.8377 65.7999V67.3868H76.7664V68.3146H74.8377V70.6486C74.8377 70.9318 74.9028 71.1466 75.033 71.2931C75.1632 71.4363 75.3813 71.5079 75.6873 71.5079C75.8826 71.5079 76.0731 71.4917 76.2586 71.4591C76.4442 71.4266 76.6134 71.3891 76.7664 71.3468V72.299Z" fill="black"/>
<path d="M144 65.5C144 69.2412 141.198 72.85 136.175 75.5817C131.19 78.2925 124.236 80 116.5 80C108.764 80 101.81 78.2925 96.8252 75.5817C91.8024 72.85 89 69.2412 89 65.5C89 61.7588 91.8024 58.15 96.8252 55.4183C101.81 52.7075 108.764 51 116.5 51C124.236 51 131.19 52.7075 136.175 55.4183C141.198 58.15 144 61.7588 144 65.5Z" fill="#7DE77B" stroke="black" stroke-width="2"/>
<path d="M102.239 65.4191C102.239 65.7674 102.174 66.0701 102.044 66.3273C101.917 66.5844 101.738 66.7976 101.507 66.9669C101.276 67.1329 101 67.2566 100.681 67.338C100.362 67.4194 100.014 67.4601 99.6365 67.4601C99.3013 67.4601 98.9774 67.4406 98.6649 67.4015C98.3524 67.3624 98.0431 67.2973 97.7371 67.2062V66.0197C97.8869 66.0717 98.0431 66.1206 98.2059 66.1661C98.3686 66.2117 98.5314 66.2524 98.6942 66.2882C98.8602 66.3208 99.0246 66.3468 99.1873 66.3663C99.3501 66.3859 99.508 66.3956 99.661 66.3956C99.8888 66.3956 100.083 66.3761 100.242 66.337C100.402 66.298 100.532 66.2443 100.633 66.1759C100.734 66.1075 100.807 66.0262 100.852 65.9318C100.898 65.8374 100.921 65.7332 100.921 65.6193C100.921 65.463 100.875 65.3328 100.784 65.2286C100.696 65.1212 100.579 65.0268 100.432 64.9454C100.286 64.8641 100.118 64.7908 99.9295 64.7257C99.744 64.6606 99.5535 64.5906 99.3582 64.5157C99.1662 64.4409 98.9757 64.3562 98.7869 64.2618C98.6014 64.1674 98.4354 64.0503 98.2889 63.9103C98.1424 63.7703 98.0236 63.6043 97.9324 63.4122C97.8446 63.2169 97.8006 62.9825 97.8006 62.7091C97.8006 62.4585 97.8462 62.2208 97.9373 61.9962C98.0285 61.7716 98.1717 61.5763 98.367 61.4103C98.5623 61.241 98.813 61.1075 99.119 61.0099C99.425 60.909 99.7944 60.8585 100.227 60.8585C100.354 60.8585 100.486 60.865 100.623 60.8781C100.763 60.8878 100.9 60.9025 101.033 60.922C101.17 60.9383 101.3 60.9594 101.424 60.9855C101.551 61.0083 101.666 61.0327 101.77 61.0587V62.1573C101.666 62.1183 101.552 62.0825 101.429 62.0499C101.305 62.0174 101.176 61.9897 101.043 61.9669C100.913 61.9409 100.781 61.9213 100.647 61.9083C100.514 61.8953 100.387 61.8888 100.266 61.8888C100.055 61.8888 99.8758 61.9067 99.7293 61.9425C99.5828 61.9751 99.4624 62.0223 99.368 62.0841C99.2736 62.1427 99.2052 62.2159 99.1629 62.3038C99.1206 62.3917 99.0994 62.4894 99.0994 62.5968C99.0994 62.7303 99.1434 62.8458 99.2313 62.9435C99.3224 63.0379 99.4412 63.1241 99.5877 63.2023C99.7375 63.2771 99.9051 63.3488 100.091 63.4171C100.279 63.4822 100.472 63.5538 100.667 63.632C100.865 63.7068 101.057 63.7931 101.243 63.8907C101.432 63.9884 101.599 64.1072 101.746 64.2472C101.896 64.3872 102.014 64.5532 102.102 64.7452C102.194 64.934 102.239 65.1587 102.239 65.4191ZM107.527 67.299C107.312 67.3478 107.096 67.3868 106.878 67.4161C106.66 67.4454 106.453 67.4601 106.258 67.4601C105.932 67.4601 105.651 67.4259 105.413 67.3575C105.179 67.2892 104.983 67.185 104.827 67.045C104.674 66.9051 104.56 66.7277 104.485 66.5128C104.414 66.2947 104.378 66.0359 104.378 65.7365V63.3146H103.045V62.3868H104.378V61.1173L105.598 60.7999V62.3868H107.527V63.3146H105.598V65.6486C105.598 65.9318 105.664 66.1466 105.794 66.2931C105.924 66.4363 106.142 66.5079 106.448 66.5079C106.643 66.5079 106.834 66.4917 107.019 66.4591C107.205 66.4266 107.374 66.3891 107.527 66.3468V67.299ZM111.917 66.8058C111.744 67.2355 111.564 67.6115 111.375 67.9337C111.189 68.2592 110.984 68.5294 110.76 68.7443C110.535 68.9624 110.284 69.1251 110.008 69.2325C109.734 69.3432 109.427 69.3986 109.085 69.3986C109.003 69.3986 108.914 69.3937 108.816 69.3839C108.722 69.3774 108.624 69.366 108.523 69.3497V68.339C108.562 68.3455 108.606 68.352 108.655 68.3585C108.707 68.3683 108.761 68.3748 108.816 68.3781C108.872 68.3846 108.927 68.3894 108.982 68.3927C109.041 68.396 109.095 68.3976 109.143 68.3976C109.28 68.3976 109.407 68.3715 109.524 68.3195C109.641 68.2674 109.749 68.1941 109.847 68.0997C109.947 68.0086 110.039 67.8979 110.12 67.7677C110.201 67.6407 110.273 67.5008 110.335 67.3478L108.367 62.3868H109.695L110.725 65.1993L111.033 66.1075L111.336 65.2384L112.376 62.3868H113.655L111.917 66.8058ZM116.033 61.3761H114.632V60.4484H117.254V66.42H118.684V67.3478H114.461V66.42H116.033V61.3761ZM122.849 61.0294C122.849 61.1368 122.83 61.2378 122.791 61.3322C122.752 61.4266 122.696 61.5096 122.625 61.5812C122.556 61.6495 122.475 61.7049 122.381 61.7472C122.286 61.7863 122.184 61.8058 122.073 61.8058C121.962 61.8058 121.858 61.7863 121.761 61.7472C121.666 61.7049 121.583 61.6495 121.512 61.5812C121.443 61.5096 121.389 61.4266 121.35 61.3322C121.311 61.2378 121.292 61.1368 121.292 61.0294C121.292 60.922 121.311 60.8211 121.35 60.7267C121.389 60.6323 121.443 60.5493 121.512 60.4777C121.583 60.406 121.666 60.3507 121.761 60.3116C121.858 60.2693 121.962 60.2482 122.073 60.2482C122.184 60.2482 122.286 60.2693 122.381 60.3116C122.475 60.3507 122.556 60.406 122.625 60.4777C122.696 60.5493 122.752 60.6323 122.791 60.7267C122.83 60.8211 122.849 60.922 122.849 61.0294ZM121.531 63.3146H120.13V62.3868H122.752V66.42H124.182V67.3478H119.959V66.42H121.531V63.3146ZM128.387 67.3478V64.1154C128.387 63.5717 128.185 63.2999 127.781 63.2999C127.579 63.2999 127.386 63.3813 127.2 63.5441C127.018 63.7068 126.824 63.9282 126.619 64.2081V67.3478H125.428V62.3868H126.458L126.487 63.1193C126.588 62.9923 126.692 62.8767 126.8 62.7726C126.91 62.6684 127.029 62.5805 127.156 62.5089C127.283 62.434 127.42 62.3771 127.566 62.338C127.713 62.299 127.877 62.2794 128.059 62.2794C128.313 62.2794 128.535 62.3217 128.723 62.4064C128.912 62.4878 129.07 62.6049 129.197 62.7579C129.324 62.9077 129.418 63.09 129.48 63.3048C129.545 63.5164 129.578 63.754 129.578 64.0177V67.3478H128.387ZM134.646 63.256C134.737 63.3699 134.801 63.4904 134.837 63.6173C134.876 63.741 134.895 63.868 134.895 63.9982C134.895 64.2749 134.847 64.519 134.749 64.7306C134.654 64.9422 134.519 65.1196 134.344 65.2628C134.171 65.406 133.963 65.5151 133.719 65.59C133.478 65.6616 133.211 65.6974 132.918 65.6974C132.745 65.6974 132.586 65.6811 132.439 65.6486C132.293 65.6128 132.182 65.5721 132.107 65.5265C132.052 65.5818 132.005 65.6437 131.966 65.712C131.927 65.7771 131.907 65.852 131.907 65.9366C131.907 65.9887 131.92 66.0408 131.946 66.0929C131.972 66.145 132.01 66.1922 132.058 66.2345C132.111 66.2736 132.171 66.3061 132.239 66.3322C132.311 66.3582 132.39 66.3728 132.478 66.3761L133.655 66.42C133.919 66.4266 134.156 66.4607 134.368 66.5226C134.583 66.5812 134.767 66.6658 134.92 66.7765C135.073 66.8872 135.19 67.0223 135.271 67.1818C135.356 67.338 135.398 67.517 135.398 67.7189C135.398 67.95 135.346 68.1681 135.242 68.3732C135.138 68.5782 134.98 68.7557 134.768 68.9054C134.56 69.0584 134.3 69.1788 133.987 69.2667C133.675 69.3546 133.312 69.3986 132.898 69.3986C132.498 69.3986 132.153 69.366 131.863 69.3009C131.577 69.2391 131.341 69.1512 131.155 69.0372C130.973 68.9233 130.838 68.7866 130.75 68.6271C130.662 68.4708 130.618 68.2983 130.618 68.1095C130.618 67.9956 130.633 67.8898 130.662 67.7921C130.691 67.6945 130.735 67.6001 130.794 67.5089C130.852 67.421 130.926 67.3348 131.014 67.2501C131.101 67.1655 131.206 67.0809 131.326 66.9962C131.166 66.9051 131.044 66.7879 130.96 66.6447C130.878 66.5014 130.838 66.3484 130.838 66.1857C130.838 66.075 130.852 65.9725 130.882 65.8781C130.911 65.7804 130.948 65.6876 130.994 65.5997C131.043 65.5118 131.098 65.4272 131.16 65.3458C131.222 65.2644 131.287 65.1847 131.355 65.1066C131.235 64.9861 131.134 64.8413 131.053 64.672C130.974 64.4995 130.935 64.2846 130.935 64.0275C130.935 63.7508 130.984 63.505 131.082 63.2902C131.183 63.0721 131.321 62.8898 131.497 62.7433C131.673 62.5935 131.881 62.4812 132.122 62.4064C132.366 62.3282 132.631 62.2892 132.918 62.2892C133.064 62.2892 133.204 62.2973 133.338 62.3136C133.474 62.3266 133.598 62.351 133.709 62.3868H135.428V63.256H134.646ZM131.839 68.007C131.839 68.199 131.935 68.3406 132.127 68.4318C132.322 68.5229 132.596 68.5685 132.947 68.5685C133.172 68.5685 133.361 68.5473 133.514 68.505C133.67 68.4627 133.797 68.4073 133.894 68.339C133.992 68.2706 134.062 68.1909 134.104 68.0997C134.147 68.0086 134.168 67.9142 134.168 67.8165C134.168 67.7286 134.147 67.6538 134.104 67.5919C134.065 67.5333 134.008 67.4829 133.933 67.4406C133.862 67.4015 133.776 67.3706 133.675 67.3478C133.577 67.3282 133.468 67.3152 133.347 67.3087L132.298 67.2892C132.203 67.3543 132.125 67.4161 132.063 67.4747C132.005 67.5333 131.958 67.5903 131.922 67.6456C131.889 67.7042 131.866 67.7628 131.853 67.8214C131.844 67.88 131.839 67.9419 131.839 68.007ZM132.039 64.0275C132.039 64.2911 132.115 64.5011 132.268 64.6573C132.425 64.8103 132.641 64.8868 132.918 64.8868C133.064 64.8868 133.191 64.8624 133.299 64.8136C133.409 64.7648 133.5 64.6997 133.572 64.6183C133.644 64.5369 133.697 64.4425 133.733 64.3351C133.769 64.2277 133.787 64.1154 133.787 63.9982C133.787 63.7215 133.709 63.5066 133.553 63.3536C133.4 63.1974 133.185 63.1193 132.908 63.1193C132.762 63.1193 132.633 63.1437 132.522 63.1925C132.415 63.2413 132.325 63.3081 132.254 63.3927C132.182 63.4741 132.128 63.5701 132.093 63.6808C132.057 63.7915 132.039 63.907 132.039 64.0275Z" fill="black"/>
<path d="M201 96.5C201 100.241 198.198 103.85 193.175 106.582C188.19 109.292 181.236 111 173.5 111C165.764 111 158.81 109.292 153.825 106.582C148.802 103.85 146 100.241 146 96.5C146 92.7588 148.802 89.15 153.825 86.4183C158.81 83.7075 165.764 82 173.5 82C181.236 82 188.19 83.7075 193.175 86.4183C198.198 89.15 201 92.7588 201 96.5Z" fill="#7DE77B" stroke="black" stroke-width="2"/>
<path d="M161.988 98.3478H160.577L159.947 96.38L159.718 95.5792L159.498 96.3995L158.878 98.3478H157.525L157.169 91.9659H158.228L158.38 96.0577L158.419 97.1759L158.707 96.1798L159.41 93.9093H160.167L160.909 96.3165L161.148 97.1661L161.168 96.17L161.329 91.9659H162.349L161.988 98.3478ZM166.104 92.0294C166.104 92.1368 166.085 92.2378 166.046 92.3322C166.007 92.4266 165.951 92.5096 165.88 92.5812C165.811 92.6495 165.73 92.7049 165.636 92.7472C165.541 92.7863 165.439 92.8058 165.328 92.8058C165.217 92.8058 165.113 92.7863 165.015 92.7472C164.921 92.7049 164.838 92.6495 164.766 92.5812C164.698 92.5096 164.644 92.4266 164.605 92.3322C164.566 92.2378 164.547 92.1368 164.547 92.0294C164.547 91.922 164.566 91.8211 164.605 91.7267C164.644 91.6323 164.698 91.5493 164.766 91.4777C164.838 91.406 164.921 91.3507 165.015 91.3116C165.113 91.2693 165.217 91.2482 165.328 91.2482C165.439 91.2482 165.541 91.2693 165.636 91.3116C165.73 91.3507 165.811 91.406 165.88 91.4777C165.951 91.5493 166.007 91.6323 166.046 91.7267C166.085 91.8211 166.104 91.922 166.104 92.0294ZM164.786 94.3146H163.385V93.3868H166.007V97.42H167.437V98.3478H163.214V97.42H164.786V94.3146ZM171.641 98.3478V95.1154C171.641 94.5717 171.44 94.2999 171.036 94.2999C170.834 94.2999 170.64 94.3813 170.455 94.5441C170.273 94.7068 170.079 94.9282 169.874 95.2081V98.3478H168.682V93.3868H169.713L169.742 94.1193C169.843 93.9923 169.947 93.8767 170.055 93.7726C170.165 93.6684 170.284 93.5805 170.411 93.5089C170.538 93.434 170.675 93.3771 170.821 93.338C170.968 93.299 171.132 93.2794 171.314 93.2794C171.568 93.2794 171.79 93.3217 171.978 93.4064C172.167 93.4878 172.325 93.6049 172.452 93.7579C172.579 93.9077 172.673 94.09 172.735 94.3048C172.8 94.5164 172.833 94.754 172.833 95.0177V98.3478H171.641ZM177.301 98.3478L177.271 97.6154C177.167 97.7423 177.06 97.8579 176.949 97.962C176.838 98.0662 176.72 98.1557 176.593 98.2306C176.466 98.3022 176.329 98.3575 176.182 98.3966C176.039 98.4389 175.88 98.4601 175.704 98.4601C175.411 98.4601 175.151 98.4015 174.923 98.2843C174.695 98.1671 174.503 98.0011 174.347 97.7863C174.194 97.5682 174.076 97.3045 173.995 96.9952C173.914 96.686 173.873 96.3409 173.873 95.9601C173.873 95.5044 173.936 95.1105 174.063 94.7784C174.194 94.4432 174.373 94.1665 174.6 93.9484C174.828 93.727 175.098 93.5642 175.411 93.4601C175.723 93.3527 176.064 93.299 176.431 93.299C176.555 93.299 176.679 93.3071 176.803 93.3234C176.93 93.3396 177.042 93.3608 177.139 93.3868V91.4484H178.331V98.3478H177.301ZM175.123 95.9064C175.123 96.1798 175.141 96.4142 175.177 96.6095C175.216 96.8016 175.271 96.9594 175.343 97.0831C175.417 97.2068 175.509 97.298 175.616 97.3566C175.723 97.4119 175.846 97.4396 175.982 97.4396C176.184 97.4396 176.376 97.3582 176.558 97.1954C176.741 97.0327 176.934 96.8097 177.139 96.5265V94.3585C177.045 94.3227 176.928 94.2934 176.788 94.2706C176.651 94.2478 176.513 94.2365 176.373 94.2365C176.181 94.2365 176.008 94.2755 175.855 94.3536C175.702 94.4318 175.57 94.5424 175.46 94.6857C175.352 94.8289 175.269 95.0047 175.211 95.213C175.152 95.4181 175.123 95.6492 175.123 95.9064ZM184.146 95.8282C184.146 96.2189 184.091 96.5769 183.98 96.9025C183.87 97.2247 183.71 97.5014 183.502 97.7325C183.293 97.9637 183.038 98.1427 182.735 98.2697C182.432 98.3966 182.087 98.4601 181.7 98.4601C181.332 98.4601 181.003 98.4064 180.714 98.299C180.424 98.1915 180.178 98.032 179.976 97.8204C179.775 97.6056 179.62 97.3387 179.513 97.0197C179.405 96.6974 179.351 96.323 179.351 95.8966C179.351 95.5027 179.407 95.1447 179.517 94.8224C179.631 94.5001 179.792 94.2251 180.001 93.9972C180.212 93.7693 180.47 93.5935 180.772 93.4698C181.075 93.3429 181.417 93.2794 181.798 93.2794C182.169 93.2794 182.499 93.3348 182.789 93.4454C183.079 93.5529 183.324 93.714 183.526 93.9288C183.728 94.1437 183.881 94.4106 183.985 94.7296C184.093 95.0454 184.146 95.4116 184.146 95.8282ZM182.906 95.8575C182.906 95.3432 182.808 94.9575 182.613 94.7003C182.421 94.4399 182.136 94.3097 181.759 94.3097C181.55 94.3097 181.373 94.3504 181.226 94.4318C181.08 94.5131 180.959 94.6254 180.865 94.7687C180.771 94.9087 180.701 95.073 180.655 95.2618C180.613 95.4506 180.592 95.6525 180.592 95.8673C180.592 96.3849 180.696 96.7755 180.904 97.0392C181.112 97.2996 181.397 97.4298 181.759 97.4298C181.957 97.4298 182.13 97.3907 182.276 97.3126C182.423 97.2312 182.541 97.1206 182.633 96.9806C182.724 96.8374 182.792 96.6697 182.838 96.4777C182.883 96.2856 182.906 96.0789 182.906 95.8575ZM189.249 98.3478H187.926L187.398 96.7755L187.237 96.2286L187.076 96.7902L186.568 98.3478H185.24L184.537 93.3868H185.67L186.026 96.1896L186.109 96.9562L186.309 96.2677L186.807 94.7589H187.716L188.248 96.2579L188.477 96.9659L188.57 96.1798L188.868 93.3868H189.947L189.249 98.3478Z" fill="black"/>
<path d="M197 40.5C197 44.2412 194.198 47.85 189.175 50.5817C184.19 53.2925 177.236 55 169.5 55C161.764 55 154.81 53.2925 149.825 50.5817C144.802 47.85 142 44.2412 142 40.5C142 36.7588 144.802 33.15 149.825 30.4183C154.81 27.7075 161.764 26 169.5 26C177.236 26 184.19 27.7075 189.175 30.4183C194.198 33.15 197 36.7588 197 40.5Z" fill="#7DE77B" stroke="black" stroke-width="2"/>
<path d="M160.625 36.9816V38.7491H163.037V39.7355H160.625V42.3478H159.404V35.9659H163.174V36.9816H160.625ZM169.15 39.8282C169.15 40.2189 169.095 40.5769 168.984 40.9025C168.874 41.2247 168.714 41.5014 168.506 41.7325C168.297 41.9637 168.042 42.1427 167.739 42.2697C167.436 42.3966 167.091 42.4601 166.704 42.4601C166.336 42.4601 166.007 42.4064 165.718 42.299C165.428 42.1915 165.182 42.032 164.98 41.8204C164.778 41.6056 164.624 41.3387 164.516 41.0197C164.409 40.6974 164.355 40.323 164.355 39.8966C164.355 39.5027 164.411 39.1447 164.521 38.8224C164.635 38.5001 164.796 38.2251 165.005 37.9972C165.216 37.7693 165.473 37.5935 165.776 37.4698C166.079 37.3429 166.421 37.2794 166.802 37.2794C167.173 37.2794 167.503 37.3348 167.793 37.4454C168.083 37.5529 168.328 37.714 168.53 37.9288C168.732 38.1437 168.885 38.4106 168.989 38.7296C169.097 39.0454 169.15 39.4116 169.15 39.8282ZM167.91 39.8575C167.91 39.3432 167.812 38.9575 167.617 38.7003C167.425 38.4399 167.14 38.3097 166.763 38.3097C166.554 38.3097 166.377 38.3504 166.23 38.4318C166.084 38.5131 165.963 38.6254 165.869 38.7687C165.775 38.9087 165.705 39.073 165.659 39.2618C165.617 39.4506 165.596 39.6525 165.596 39.8673C165.596 40.3849 165.7 40.7755 165.908 41.0392C166.116 41.2996 166.401 41.4298 166.763 41.4298C166.961 41.4298 167.134 41.3907 167.28 41.3126C167.427 41.2312 167.545 41.1206 167.637 40.9806C167.728 40.8374 167.796 40.6697 167.842 40.4777C167.887 40.2856 167.91 40.0789 167.91 39.8575ZM173.374 39.3156C173.38 39.13 173.371 38.9721 173.345 38.8419C173.322 38.7117 173.283 38.6043 173.227 38.5197C173.175 38.435 173.11 38.3732 173.032 38.3341C172.954 38.295 172.864 38.2755 172.764 38.2755C172.588 38.2755 172.405 38.3488 172.217 38.4952C172.031 38.6385 171.826 38.8761 171.601 39.2081V42.3478H170.381V37.3868H171.46L171.504 38.1095C171.585 37.9825 171.676 37.8686 171.777 37.7677C171.881 37.6668 171.995 37.5805 172.119 37.5089C172.246 37.434 172.386 37.3771 172.539 37.338C172.692 37.299 172.86 37.2794 173.042 37.2794C173.292 37.2794 173.514 37.3234 173.706 37.4113C173.901 37.4959 174.064 37.6228 174.194 37.7921C174.328 37.9614 174.425 38.1746 174.487 38.4318C174.552 38.6857 174.58 38.9803 174.57 39.3156H173.374ZM179.18 42.3478V38.9689C179.18 38.8452 179.176 38.7378 179.17 38.6466C179.163 38.5522 179.15 38.4741 179.131 38.4122C179.111 38.3504 179.082 38.3048 179.043 38.2755C179.007 38.243 178.957 38.2267 178.891 38.2267C178.791 38.2267 178.691 38.295 178.594 38.4318C178.496 38.5685 178.385 38.8012 178.262 39.13V42.3478H177.241V38.9689C177.241 38.8452 177.238 38.7378 177.231 38.6466C177.225 38.5522 177.212 38.4741 177.192 38.4122C177.173 38.3504 177.143 38.3048 177.104 38.2755C177.065 38.243 177.013 38.2267 176.948 38.2267C176.863 38.2267 176.769 38.295 176.665 38.4318C176.561 38.5685 176.445 38.8012 176.318 39.13V42.3478H175.288V37.3868H176.172L176.191 38.1095C176.263 37.963 176.334 37.8377 176.406 37.7335C176.478 37.6294 176.554 37.5447 176.636 37.4796C176.717 37.4113 176.803 37.3624 176.894 37.3331C176.989 37.3038 177.095 37.2892 177.212 37.2892C177.488 37.2892 177.698 37.3624 177.842 37.5089C177.988 37.6521 178.071 37.8523 178.091 38.1095C178.169 37.963 178.245 37.8377 178.32 37.7335C178.398 37.6294 178.478 37.5447 178.559 37.4796C178.644 37.4113 178.734 37.3624 178.828 37.3331C178.926 37.3038 179.033 37.2892 179.15 37.2892C179.512 37.2892 179.778 37.4161 179.951 37.67C180.124 37.9207 180.21 38.2934 180.21 38.7882V42.3478H179.18Z" fill="black"/>
<path d="M119 107.5C119 111.241 116.198 114.85 111.175 117.582C106.19 120.292 99.2362 122 91.5 122C83.7638 122 76.8096 120.292 71.8252 117.582C66.8024 114.85 64 111.241 64 107.5C64 103.759 66.8024 100.15 71.8252 97.4183C76.8096 94.7075 83.7638 93 91.5 93C99.2362 93 106.19 94.7075 111.175 97.4183C116.198 100.15 119 103.759 119 107.5Z" fill="#7DE77B" stroke="black" stroke-width="2"/>
<path d="M84.6561 109.348L84.3045 108.088H82.078L81.7166 109.348H80.5252L82.4149 102.966H84.0946L85.9842 109.348H84.6561ZM83.2059 104.138L82.366 107.107H84.036L83.2059 104.138ZM91.0916 104.997C91.0916 105.329 91.0363 105.637 90.9256 105.92C90.8149 106.2 90.6505 106.443 90.4324 106.648C90.2143 106.853 89.9425 107.012 89.617 107.126C89.2915 107.24 88.9139 107.297 88.4842 107.297H87.8739V109.348H86.6629V102.966H88.533C88.9464 102.966 89.311 103.012 89.6268 103.103C89.9458 103.191 90.2127 103.321 90.4276 103.493C90.6457 103.666 90.81 103.879 90.9207 104.133C91.0347 104.384 91.0916 104.672 91.0916 104.997ZM89.8319 105.08C89.8319 104.911 89.8042 104.758 89.7489 104.621C89.6968 104.481 89.6154 104.362 89.5047 104.265C89.3973 104.167 89.2606 104.092 89.0946 104.04C88.9285 103.988 88.7316 103.962 88.5037 103.962H87.8739V106.301H88.5428C88.7511 106.301 88.935 106.273 89.0946 106.218C89.2541 106.159 89.3875 106.076 89.4949 105.969C89.6056 105.861 89.6886 105.733 89.744 105.583C89.8026 105.433 89.8319 105.266 89.8319 105.08ZM92.2342 103.947V102.966H96.2674V103.947H94.8612V108.357H96.2674V109.348H92.2342V108.357H93.6405V103.947H92.2342ZM101.77 107.888C101.77 108.171 101.707 108.414 101.58 108.615C101.456 108.814 101.29 108.977 101.082 109.104C100.877 109.227 100.642 109.317 100.379 109.372C100.118 109.431 99.8514 109.46 99.578 109.46C99.2134 109.46 98.8846 109.442 98.5916 109.406C98.2987 109.374 98.022 109.325 97.7615 109.26V108.186C98.0675 108.313 98.3719 108.405 98.6746 108.464C98.9806 108.519 99.2687 108.547 99.5389 108.547C99.8514 108.547 100.084 108.498 100.237 108.401C100.393 108.3 100.472 108.169 100.472 108.01C100.472 107.935 100.455 107.867 100.423 107.805C100.39 107.743 100.328 107.684 100.237 107.629C100.149 107.57 100.024 107.512 99.8612 107.453C99.6984 107.391 99.4852 107.323 99.2215 107.248C98.9774 107.18 98.7625 107.103 98.577 107.019C98.3947 106.931 98.2433 106.828 98.1229 106.711C98.0024 106.594 97.9113 106.459 97.8494 106.306C97.7908 106.15 97.7615 105.967 97.7615 105.759C97.7615 105.557 97.8071 105.367 97.8983 105.188C97.9894 105.009 98.1245 104.852 98.3035 104.719C98.4858 104.582 98.7121 104.475 98.9823 104.397C99.2524 104.318 99.5682 104.279 99.9295 104.279C100.242 104.279 100.519 104.296 100.76 104.328C101 104.361 101.214 104.397 101.399 104.436V105.407C101.116 105.316 100.849 105.253 100.598 105.217C100.351 105.178 100.105 105.158 99.8612 105.158C99.617 105.158 99.4201 105.202 99.2703 105.29C99.1239 105.378 99.0506 105.5 99.0506 105.656C99.0506 105.731 99.0653 105.798 99.0946 105.857C99.1239 105.915 99.1808 105.972 99.2655 106.027C99.3533 106.083 99.4738 106.141 99.6268 106.203C99.783 106.262 99.9881 106.327 100.242 106.399C100.528 106.48 100.769 106.568 100.965 106.662C101.16 106.753 101.316 106.858 101.433 106.975C101.554 107.092 101.64 107.225 101.692 107.375C101.744 107.525 101.77 107.696 101.77 107.888Z" fill="black"/>
</svg>
