<svg width="864" height="338" viewBox="0 0 864 338" fill="none" xmlns="http://www.w3.org/2000/svg">
<rect width="864" height="338" fill="white"/>
<rect x="399.5" y="150.5" width="359" height="36" rx="2.5" fill="#7DE77B" stroke="black" stroke-width="3"/>
<path d="M556.299 168.074C556.299 168.668 556.225 169.207 556.076 169.691C555.932 170.176 555.703 170.59 555.391 170.934C555.082 171.273 554.686 171.537 554.201 171.725C553.717 171.908 553.137 172 552.461 172H550.516V164.342H552.783C553.369 164.342 553.881 164.416 554.318 164.564C554.76 164.709 555.127 164.934 555.42 165.238C555.713 165.543 555.932 165.93 556.076 166.398C556.225 166.867 556.299 167.426 556.299 168.074ZM554.752 168.168C554.752 167.754 554.719 167.385 554.652 167.061C554.586 166.736 554.473 166.463 554.312 166.24C554.156 166.014 553.945 165.842 553.68 165.725C553.414 165.607 553.084 165.549 552.689 165.549H551.957V170.793H552.59C553.297 170.793 553.834 170.582 554.201 170.16C554.568 169.738 554.752 169.074 554.752 168.168ZM561.156 172L561.121 171.221C560.996 171.354 560.865 171.477 560.729 171.59C560.592 171.699 560.441 171.795 560.277 171.877C560.113 171.959 559.934 172.021 559.738 172.064C559.547 172.111 559.336 172.135 559.105 172.135C558.801 172.135 558.533 172.09 558.303 172C558.072 171.91 557.879 171.785 557.723 171.625C557.566 171.465 557.447 171.271 557.365 171.045C557.287 170.818 557.248 170.568 557.248 170.295C557.248 170.014 557.307 169.754 557.424 169.516C557.545 169.277 557.727 169.072 557.969 168.9C558.215 168.729 558.52 168.594 558.883 168.496C559.25 168.398 559.68 168.35 560.172 168.35H560.951V167.992C560.951 167.84 560.93 167.703 560.887 167.582C560.844 167.457 560.773 167.352 560.676 167.266C560.582 167.18 560.459 167.113 560.307 167.066C560.154 167.02 559.967 166.996 559.744 166.996C559.393 166.996 559.045 167.037 558.701 167.119C558.361 167.197 558.031 167.309 557.711 167.453V166.311C557.996 166.197 558.324 166.104 558.695 166.029C559.07 165.955 559.459 165.918 559.861 165.918C560.303 165.918 560.682 165.961 560.998 166.047C561.314 166.129 561.574 166.254 561.777 166.422C561.984 166.59 562.137 166.801 562.234 167.055C562.332 167.305 562.381 167.598 562.381 167.934V172H561.156ZM560.951 169.369H560.078C559.836 169.369 559.631 169.393 559.463 169.439C559.295 169.486 559.158 169.551 559.053 169.633C558.947 169.715 558.869 169.811 558.818 169.92C558.771 170.025 558.748 170.139 558.748 170.26C558.748 170.502 558.826 170.688 558.982 170.816C559.139 170.941 559.352 171.004 559.621 171.004C559.82 171.004 560.027 170.932 560.242 170.787C560.457 170.643 560.693 170.436 560.951 170.166V169.369ZM568.932 171.941C568.674 172 568.414 172.047 568.152 172.082C567.891 172.117 567.643 172.135 567.408 172.135C567.018 172.135 566.68 172.094 566.395 172.012C566.113 171.93 565.879 171.805 565.691 171.637C565.508 171.469 565.371 171.256 565.281 170.998C565.195 170.736 565.152 170.426 565.152 170.066V167.16H563.553V166.047H565.152V164.523L566.617 164.143V166.047H568.932V167.16H566.617V169.961C566.617 170.301 566.695 170.559 566.852 170.734C567.008 170.906 567.27 170.992 567.637 170.992C567.871 170.992 568.1 170.973 568.322 170.934C568.545 170.895 568.748 170.85 568.932 170.799V171.941ZM574.352 172L574.316 171.221C574.191 171.354 574.061 171.477 573.924 171.59C573.787 171.699 573.637 171.795 573.473 171.877C573.309 171.959 573.129 172.021 572.934 172.064C572.742 172.111 572.531 172.135 572.301 172.135C571.996 172.135 571.729 172.09 571.498 172C571.268 171.91 571.074 171.785 570.918 171.625C570.762 171.465 570.643 171.271 570.561 171.045C570.482 170.818 570.443 170.568 570.443 170.295C570.443 170.014 570.502 169.754 570.619 169.516C570.74 169.277 570.922 169.072 571.164 168.9C571.41 168.729 571.715 168.594 572.078 168.496C572.445 168.398 572.875 168.35 573.367 168.35H574.146V167.992C574.146 167.84 574.125 167.703 574.082 167.582C574.039 167.457 573.969 167.352 573.871 167.266C573.777 167.18 573.654 167.113 573.502 167.066C573.35 167.02 573.162 166.996 572.939 166.996C572.588 166.996 572.24 167.037 571.896 167.119C571.557 167.197 571.227 167.309 570.906 167.453V166.311C571.191 166.197 571.52 166.104 571.891 166.029C572.266 165.955 572.654 165.918 573.057 165.918C573.498 165.918 573.877 165.961 574.193 166.047C574.51 166.129 574.77 166.254 574.973 166.422C575.18 166.59 575.332 166.801 575.43 167.055C575.527 167.305 575.576 167.598 575.576 167.934V172H574.352ZM574.146 169.369H573.273C573.031 169.369 572.826 169.393 572.658 169.439C572.49 169.486 572.354 169.551 572.248 169.633C572.143 169.715 572.064 169.811 572.014 169.92C571.967 170.025 571.943 170.139 571.943 170.26C571.943 170.502 572.021 170.688 572.178 170.816C572.334 170.941 572.547 171.004 572.816 171.004C573.016 171.004 573.223 170.932 573.438 170.787C573.652 170.643 573.889 170.436 574.146 170.166V169.369ZM586.334 168.76V167.57H589.059V171.654C588.707 171.818 588.34 171.939 587.957 172.018C587.574 172.096 587.158 172.135 586.709 172.135C586.178 172.135 585.699 172.053 585.273 171.889C584.852 171.725 584.492 171.48 584.195 171.156C583.898 170.832 583.67 170.43 583.51 169.949C583.354 169.469 583.275 168.912 583.275 168.279C583.275 167.643 583.357 167.072 583.521 166.568C583.689 166.064 583.932 165.639 584.248 165.291C584.568 164.939 584.959 164.672 585.42 164.488C585.885 164.305 586.414 164.213 587.008 164.213C587.359 164.213 587.701 164.244 588.033 164.307C588.369 164.365 588.703 164.445 589.035 164.547V165.971C588.746 165.834 588.426 165.723 588.074 165.637C587.727 165.547 587.375 165.502 587.02 165.502C586.66 165.502 586.342 165.564 586.064 165.689C585.791 165.814 585.561 165.992 585.373 166.223C585.189 166.453 585.049 166.736 584.951 167.072C584.857 167.408 584.811 167.787 584.811 168.209C584.811 168.615 584.848 168.982 584.922 169.311C584.996 169.635 585.115 169.912 585.279 170.143C585.447 170.369 585.662 170.543 585.924 170.664C586.186 170.785 586.504 170.846 586.879 170.846C586.969 170.846 587.047 170.844 587.113 170.84C587.18 170.832 587.242 170.822 587.301 170.811C587.359 170.799 587.414 170.785 587.465 170.77C587.52 170.754 587.576 170.736 587.635 170.717V168.76H586.334ZM594.244 168.361C594.252 168.139 594.24 167.949 594.209 167.793C594.182 167.637 594.135 167.508 594.068 167.406C594.006 167.305 593.928 167.23 593.834 167.184C593.74 167.137 593.633 167.113 593.512 167.113C593.301 167.113 593.082 167.201 592.855 167.377C592.633 167.549 592.387 167.834 592.117 168.232V172H590.652V166.047H591.947L592 166.914C592.098 166.762 592.207 166.625 592.328 166.504C592.453 166.383 592.59 166.279 592.738 166.193C592.891 166.104 593.059 166.035 593.242 165.988C593.426 165.941 593.627 165.918 593.846 165.918C594.146 165.918 594.412 165.971 594.643 166.076C594.877 166.178 595.072 166.33 595.229 166.533C595.389 166.736 595.506 166.992 595.58 167.301C595.658 167.605 595.691 167.959 595.68 168.361H594.244ZM600.742 172L600.707 171.221C600.582 171.354 600.451 171.477 600.314 171.59C600.178 171.699 600.027 171.795 599.863 171.877C599.699 171.959 599.52 172.021 599.324 172.064C599.133 172.111 598.922 172.135 598.691 172.135C598.387 172.135 598.119 172.09 597.889 172C597.658 171.91 597.465 171.785 597.309 171.625C597.152 171.465 597.033 171.271 596.951 171.045C596.873 170.818 596.834 170.568 596.834 170.295C596.834 170.014 596.893 169.754 597.01 169.516C597.131 169.277 597.312 169.072 597.555 168.9C597.801 168.729 598.105 168.594 598.469 168.496C598.836 168.398 599.266 168.35 599.758 168.35H600.537V167.992C600.537 167.84 600.516 167.703 600.473 167.582C600.43 167.457 600.359 167.352 600.262 167.266C600.168 167.18 600.045 167.113 599.893 167.066C599.74 167.02 599.553 166.996 599.33 166.996C598.979 166.996 598.631 167.037 598.287 167.119C597.947 167.197 597.617 167.309 597.297 167.453V166.311C597.582 166.197 597.91 166.104 598.281 166.029C598.656 165.955 599.045 165.918 599.447 165.918C599.889 165.918 600.268 165.961 600.584 166.047C600.9 166.129 601.16 166.254 601.363 166.422C601.57 166.59 601.723 166.801 601.82 167.055C601.918 167.305 601.967 167.598 601.967 167.934V172H600.742ZM600.537 169.369H599.664C599.422 169.369 599.217 169.393 599.049 169.439C598.881 169.486 598.744 169.551 598.639 169.633C598.533 169.715 598.455 169.811 598.404 169.92C598.357 170.025 598.334 170.139 598.334 170.26C598.334 170.502 598.412 170.688 598.568 170.816C598.725 170.941 598.938 171.004 599.207 171.004C599.406 171.004 599.613 170.932 599.828 170.787C600.043 170.643 600.279 170.436 600.537 170.166V169.369ZM608.963 168.918C608.963 169.465 608.885 169.938 608.729 170.336C608.576 170.734 608.361 171.066 608.084 171.332C607.811 171.594 607.486 171.789 607.111 171.918C606.736 172.043 606.328 172.105 605.887 172.105C605.738 172.105 605.59 172.096 605.441 172.076C605.293 172.057 605.158 172.031 605.037 172V174.326H603.607V166.047H604.844L604.879 166.926C605 166.773 605.125 166.635 605.254 166.51C605.387 166.385 605.529 166.279 605.682 166.193C605.834 166.104 605.998 166.035 606.174 165.988C606.35 165.941 606.547 165.918 606.766 165.918C607.117 165.918 607.43 165.988 607.703 166.129C607.977 166.27 608.205 166.471 608.389 166.732C608.576 166.99 608.719 167.305 608.816 167.676C608.914 168.043 608.963 168.457 608.963 168.918ZM607.463 168.977C607.463 168.648 607.439 168.369 607.393 168.139C607.346 167.908 607.277 167.719 607.188 167.57C607.102 167.422 606.994 167.314 606.865 167.248C606.74 167.178 606.596 167.143 606.432 167.143C606.189 167.143 605.957 167.24 605.734 167.436C605.516 167.631 605.283 167.896 605.037 168.232V170.834C605.15 170.877 605.289 170.912 605.453 170.939C605.621 170.967 605.791 170.98 605.963 170.98C606.189 170.98 606.395 170.934 606.578 170.84C606.766 170.746 606.924 170.613 607.053 170.441C607.186 170.27 607.287 170.061 607.357 169.814C607.428 169.564 607.463 169.285 607.463 168.977ZM613.756 172V168.121C613.756 167.469 613.514 167.143 613.029 167.143C612.787 167.143 612.555 167.24 612.332 167.436C612.113 167.631 611.881 167.896 611.635 168.232V172H610.205V163.721H611.635V165.76L611.564 166.838C611.686 166.693 611.809 166.564 611.934 166.451C612.059 166.334 612.193 166.236 612.338 166.158C612.482 166.08 612.639 166.021 612.807 165.982C612.975 165.939 613.16 165.918 613.363 165.918C613.668 165.918 613.934 165.969 614.16 166.07C614.387 166.168 614.576 166.309 614.729 166.492C614.881 166.672 614.994 166.891 615.068 167.148C615.146 167.402 615.186 167.688 615.186 168.004V172H613.756Z" fill="black"/>
<rect x="67.5" y="149.5" width="126" height="36" rx="2.5" fill="#7DE77B" stroke="black" stroke-width="3"/>
<path d="M104.299 167.074C104.299 167.668 104.225 168.207 104.076 168.691C103.932 169.176 103.703 169.59 103.391 169.934C103.082 170.273 102.686 170.537 102.201 170.725C101.717 170.908 101.137 171 100.461 171H98.5156V163.342H100.783C101.369 163.342 101.881 163.416 102.318 163.564C102.76 163.709 103.127 163.934 103.42 164.238C103.713 164.543 103.932 164.93 104.076 165.398C104.225 165.867 104.299 166.426 104.299 167.074ZM102.752 167.168C102.752 166.754 102.719 166.385 102.652 166.061C102.586 165.736 102.473 165.463 102.312 165.24C102.156 165.014 101.945 164.842 101.68 164.725C101.414 164.607 101.084 164.549 100.689 164.549H99.957V169.793H100.59C101.297 169.793 101.834 169.582 102.201 169.16C102.568 168.738 102.752 168.074 102.752 167.168ZM109.156 171L109.121 170.221C108.996 170.354 108.865 170.477 108.729 170.59C108.592 170.699 108.441 170.795 108.277 170.877C108.113 170.959 107.934 171.021 107.738 171.064C107.547 171.111 107.336 171.135 107.105 171.135C106.801 171.135 106.533 171.09 106.303 171C106.072 170.91 105.879 170.785 105.723 170.625C105.566 170.465 105.447 170.271 105.365 170.045C105.287 169.818 105.248 169.568 105.248 169.295C105.248 169.014 105.307 168.754 105.424 168.516C105.545 168.277 105.727 168.072 105.969 167.9C106.215 167.729 106.52 167.594 106.883 167.496C107.25 167.398 107.68 167.35 108.172 167.35H108.951V166.992C108.951 166.84 108.93 166.703 108.887 166.582C108.844 166.457 108.773 166.352 108.676 166.266C108.582 166.18 108.459 166.113 108.307 166.066C108.154 166.02 107.967 165.996 107.744 165.996C107.393 165.996 107.045 166.037 106.701 166.119C106.361 166.197 106.031 166.309 105.711 166.453V165.311C105.996 165.197 106.324 165.104 106.695 165.029C107.07 164.955 107.459 164.918 107.861 164.918C108.303 164.918 108.682 164.961 108.998 165.047C109.314 165.129 109.574 165.254 109.777 165.422C109.984 165.59 110.137 165.801 110.234 166.055C110.332 166.305 110.381 166.598 110.381 166.934V171H109.156ZM108.951 168.369H108.078C107.836 168.369 107.631 168.393 107.463 168.439C107.295 168.486 107.158 168.551 107.053 168.633C106.947 168.715 106.869 168.811 106.818 168.92C106.771 169.025 106.748 169.139 106.748 169.26C106.748 169.502 106.826 169.688 106.982 169.816C107.139 169.941 107.352 170.004 107.621 170.004C107.82 170.004 108.027 169.932 108.242 169.787C108.457 169.643 108.693 169.436 108.951 169.166V168.369ZM116.932 170.941C116.674 171 116.414 171.047 116.152 171.082C115.891 171.117 115.643 171.135 115.408 171.135C115.018 171.135 114.68 171.094 114.395 171.012C114.113 170.93 113.879 170.805 113.691 170.637C113.508 170.469 113.371 170.256 113.281 169.998C113.195 169.736 113.152 169.426 113.152 169.066V166.16H111.553V165.047H113.152V163.523L114.617 163.143V165.047H116.932V166.16H114.617V168.961C114.617 169.301 114.695 169.559 114.852 169.734C115.008 169.906 115.27 169.992 115.637 169.992C115.871 169.992 116.1 169.973 116.322 169.934C116.545 169.895 116.748 169.85 116.932 169.799V170.941ZM122.352 171L122.316 170.221C122.191 170.354 122.061 170.477 121.924 170.59C121.787 170.699 121.637 170.795 121.473 170.877C121.309 170.959 121.129 171.021 120.934 171.064C120.742 171.111 120.531 171.135 120.301 171.135C119.996 171.135 119.729 171.09 119.498 171C119.268 170.91 119.074 170.785 118.918 170.625C118.762 170.465 118.643 170.271 118.561 170.045C118.482 169.818 118.443 169.568 118.443 169.295C118.443 169.014 118.502 168.754 118.619 168.516C118.74 168.277 118.922 168.072 119.164 167.9C119.41 167.729 119.715 167.594 120.078 167.496C120.445 167.398 120.875 167.35 121.367 167.35H122.146V166.992C122.146 166.84 122.125 166.703 122.082 166.582C122.039 166.457 121.969 166.352 121.871 166.266C121.777 166.18 121.654 166.113 121.502 166.066C121.35 166.02 121.162 165.996 120.939 165.996C120.588 165.996 120.24 166.037 119.896 166.119C119.557 166.197 119.227 166.309 118.906 166.453V165.311C119.191 165.197 119.52 165.104 119.891 165.029C120.266 164.955 120.654 164.918 121.057 164.918C121.498 164.918 121.877 164.961 122.193 165.047C122.51 165.129 122.77 165.254 122.973 165.422C123.18 165.59 123.332 165.801 123.43 166.055C123.527 166.305 123.576 166.598 123.576 166.934V171H122.352ZM122.146 168.369H121.273C121.031 168.369 120.826 168.393 120.658 168.439C120.49 168.486 120.354 168.551 120.248 168.633C120.143 168.715 120.064 168.811 120.014 168.92C119.967 169.025 119.943 169.139 119.943 169.26C119.943 169.502 120.021 169.688 120.178 169.816C120.334 169.941 120.547 170.004 120.816 170.004C121.016 170.004 121.223 169.932 121.438 169.787C121.652 169.643 121.889 169.436 122.146 169.166V168.369ZM134.334 167.76V166.57H137.059V170.654C136.707 170.818 136.34 170.939 135.957 171.018C135.574 171.096 135.158 171.135 134.709 171.135C134.178 171.135 133.699 171.053 133.273 170.889C132.852 170.725 132.492 170.48 132.195 170.156C131.898 169.832 131.67 169.43 131.51 168.949C131.354 168.469 131.275 167.912 131.275 167.279C131.275 166.643 131.357 166.072 131.521 165.568C131.689 165.064 131.932 164.639 132.248 164.291C132.568 163.939 132.959 163.672 133.42 163.488C133.885 163.305 134.414 163.213 135.008 163.213C135.359 163.213 135.701 163.244 136.033 163.307C136.369 163.365 136.703 163.445 137.035 163.547V164.971C136.746 164.834 136.426 164.723 136.074 164.637C135.727 164.547 135.375 164.502 135.02 164.502C134.66 164.502 134.342 164.564 134.064 164.689C133.791 164.814 133.561 164.992 133.373 165.223C133.189 165.453 133.049 165.736 132.951 166.072C132.857 166.408 132.811 166.787 132.811 167.209C132.811 167.615 132.848 167.982 132.922 168.311C132.996 168.635 133.115 168.912 133.279 169.143C133.447 169.369 133.662 169.543 133.924 169.664C134.186 169.785 134.504 169.846 134.879 169.846C134.969 169.846 135.047 169.844 135.113 169.84C135.18 169.832 135.242 169.822 135.301 169.811C135.359 169.799 135.414 169.785 135.465 169.77C135.52 169.754 135.576 169.736 135.635 169.717V167.76H134.334ZM142.244 167.361C142.252 167.139 142.24 166.949 142.209 166.793C142.182 166.637 142.135 166.508 142.068 166.406C142.006 166.305 141.928 166.23 141.834 166.184C141.74 166.137 141.633 166.113 141.512 166.113C141.301 166.113 141.082 166.201 140.855 166.377C140.633 166.549 140.387 166.834 140.117 167.232V171H138.652V165.047H139.947L140 165.914C140.098 165.762 140.207 165.625 140.328 165.504C140.453 165.383 140.59 165.279 140.738 165.193C140.891 165.104 141.059 165.035 141.242 164.988C141.426 164.941 141.627 164.918 141.846 164.918C142.146 164.918 142.412 164.971 142.643 165.076C142.877 165.178 143.072 165.33 143.229 165.533C143.389 165.736 143.506 165.992 143.58 166.301C143.658 166.605 143.691 166.959 143.68 167.361H142.244ZM148.742 171L148.707 170.221C148.582 170.354 148.451 170.477 148.314 170.59C148.178 170.699 148.027 170.795 147.863 170.877C147.699 170.959 147.52 171.021 147.324 171.064C147.133 171.111 146.922 171.135 146.691 171.135C146.387 171.135 146.119 171.09 145.889 171C145.658 170.91 145.465 170.785 145.309 170.625C145.152 170.465 145.033 170.271 144.951 170.045C144.873 169.818 144.834 169.568 144.834 169.295C144.834 169.014 144.893 168.754 145.01 168.516C145.131 168.277 145.312 168.072 145.555 167.9C145.801 167.729 146.105 167.594 146.469 167.496C146.836 167.398 147.266 167.35 147.758 167.35H148.537V166.992C148.537 166.84 148.516 166.703 148.473 166.582C148.43 166.457 148.359 166.352 148.262 166.266C148.168 166.18 148.045 166.113 147.893 166.066C147.74 166.02 147.553 165.996 147.33 165.996C146.979 165.996 146.631 166.037 146.287 166.119C145.947 166.197 145.617 166.309 145.297 166.453V165.311C145.582 165.197 145.91 165.104 146.281 165.029C146.656 164.955 147.045 164.918 147.447 164.918C147.889 164.918 148.268 164.961 148.584 165.047C148.9 165.129 149.16 165.254 149.363 165.422C149.57 165.59 149.723 165.801 149.82 166.055C149.918 166.305 149.967 166.598 149.967 166.934V171H148.742ZM148.537 168.369H147.664C147.422 168.369 147.217 168.393 147.049 168.439C146.881 168.486 146.744 168.551 146.639 168.633C146.533 168.715 146.455 168.811 146.404 168.92C146.357 169.025 146.334 169.139 146.334 169.26C146.334 169.502 146.412 169.688 146.568 169.816C146.725 169.941 146.938 170.004 147.207 170.004C147.406 170.004 147.613 169.932 147.828 169.787C148.043 169.643 148.279 169.436 148.537 169.166V168.369ZM156.963 167.918C156.963 168.465 156.885 168.938 156.729 169.336C156.576 169.734 156.361 170.066 156.084 170.332C155.811 170.594 155.486 170.789 155.111 170.918C154.736 171.043 154.328 171.105 153.887 171.105C153.738 171.105 153.59 171.096 153.441 171.076C153.293 171.057 153.158 171.031 153.037 171V173.326H151.607V165.047H152.844L152.879 165.926C153 165.773 153.125 165.635 153.254 165.51C153.387 165.385 153.529 165.279 153.682 165.193C153.834 165.104 153.998 165.035 154.174 164.988C154.35 164.941 154.547 164.918 154.766 164.918C155.117 164.918 155.43 164.988 155.703 165.129C155.977 165.27 156.205 165.471 156.389 165.732C156.576 165.99 156.719 166.305 156.816 166.676C156.914 167.043 156.963 167.457 156.963 167.918ZM155.463 167.977C155.463 167.648 155.439 167.369 155.393 167.139C155.346 166.908 155.277 166.719 155.188 166.57C155.102 166.422 154.994 166.314 154.865 166.248C154.74 166.178 154.596 166.143 154.432 166.143C154.189 166.143 153.957 166.24 153.734 166.436C153.516 166.631 153.283 166.896 153.037 167.232V169.834C153.15 169.877 153.289 169.912 153.453 169.939C153.621 169.967 153.791 169.98 153.963 169.98C154.189 169.98 154.395 169.934 154.578 169.84C154.766 169.746 154.924 169.613 155.053 169.441C155.186 169.27 155.287 169.061 155.357 168.814C155.428 168.564 155.463 168.285 155.463 167.977ZM161.756 171V167.121C161.756 166.469 161.514 166.143 161.029 166.143C160.787 166.143 160.555 166.24 160.332 166.436C160.113 166.631 159.881 166.896 159.635 167.232V171H158.205V162.721H159.635V164.76L159.564 165.838C159.686 165.693 159.809 165.564 159.934 165.451C160.059 165.334 160.193 165.236 160.338 165.158C160.482 165.08 160.639 165.021 160.807 164.982C160.975 164.939 161.16 164.918 161.363 164.918C161.668 164.918 161.934 164.969 162.16 165.07C162.387 165.168 162.576 165.309 162.729 165.492C162.881 165.672 162.994 165.891 163.068 166.148C163.146 166.402 163.186 166.688 163.186 167.004V171H161.756Z" fill="black"/>
<rect x="521.5" y="221.5" width="122" height="22" rx="2.5" fill="#FFFD54" stroke="black" stroke-width="3"/>
<path d="M564.385 234.686C564.385 235.104 564.307 235.467 564.15 235.775C563.998 236.084 563.783 236.34 563.506 236.543C563.229 236.742 562.898 236.891 562.516 236.988C562.133 237.086 561.715 237.135 561.262 237.135C560.859 237.135 560.471 237.111 560.096 237.064C559.721 237.018 559.35 236.939 558.982 236.83V235.406C559.162 235.469 559.35 235.527 559.545 235.582C559.74 235.637 559.936 235.686 560.131 235.729C560.33 235.768 560.527 235.799 560.723 235.822C560.918 235.846 561.107 235.857 561.291 235.857C561.564 235.857 561.797 235.834 561.988 235.787C562.18 235.74 562.336 235.676 562.457 235.594C562.578 235.512 562.666 235.414 562.721 235.301C562.775 235.188 562.803 235.062 562.803 234.926C562.803 234.738 562.748 234.582 562.639 234.457C562.533 234.328 562.393 234.215 562.217 234.117C562.041 234.02 561.84 233.932 561.613 233.854C561.391 233.775 561.162 233.691 560.928 233.602C560.697 233.512 560.469 233.41 560.242 233.297C560.02 233.184 559.82 233.043 559.645 232.875C559.469 232.707 559.326 232.508 559.217 232.277C559.111 232.043 559.059 231.762 559.059 231.434C559.059 231.133 559.113 230.848 559.223 230.578C559.332 230.309 559.504 230.074 559.738 229.875C559.973 229.672 560.273 229.512 560.641 229.395C561.008 229.273 561.451 229.213 561.971 229.213C562.123 229.213 562.281 229.221 562.445 229.236C562.613 229.248 562.777 229.266 562.938 229.289C563.102 229.309 563.258 229.334 563.406 229.365C563.559 229.393 563.697 229.422 563.822 229.453V230.771C563.697 230.725 563.561 230.682 563.412 230.643C563.264 230.604 563.109 230.57 562.949 230.543C562.793 230.512 562.635 230.488 562.475 230.473C562.314 230.457 562.162 230.449 562.018 230.449C561.764 230.449 561.549 230.471 561.373 230.514C561.197 230.553 561.053 230.609 560.939 230.684C560.826 230.754 560.744 230.842 560.693 230.947C560.643 231.053 560.617 231.17 560.617 231.299C560.617 231.459 560.67 231.598 560.775 231.715C560.885 231.828 561.027 231.932 561.203 232.025C561.383 232.115 561.584 232.201 561.807 232.283C562.033 232.361 562.264 232.447 562.498 232.541C562.736 232.631 562.967 232.734 563.189 232.852C563.416 232.969 563.617 233.111 563.793 233.279C563.973 233.447 564.115 233.646 564.221 233.877C564.33 234.104 564.385 234.373 564.385 234.686ZM571.006 233.566C571.006 233.664 571.002 233.791 570.994 233.947C570.99 234.104 570.982 234.25 570.971 234.387H567.057C567.057 234.648 567.096 234.879 567.174 235.078C567.256 235.277 567.369 235.445 567.514 235.582C567.662 235.715 567.838 235.816 568.041 235.887C568.248 235.957 568.477 235.992 568.727 235.992C569.016 235.992 569.324 235.971 569.652 235.928C569.984 235.881 570.328 235.807 570.684 235.705V236.842C570.531 236.885 570.365 236.924 570.186 236.959C570.006 236.994 569.822 237.025 569.635 237.053C569.447 237.08 569.258 237.1 569.066 237.111C568.875 237.127 568.689 237.135 568.51 237.135C568.057 237.135 567.65 237.07 567.291 236.941C566.932 236.812 566.627 236.623 566.377 236.373C566.127 236.119 565.936 235.807 565.803 235.436C565.67 235.064 565.604 234.635 565.604 234.146C565.604 233.662 565.67 233.223 565.803 232.828C565.936 232.43 566.123 232.09 566.365 231.809C566.607 231.523 566.9 231.305 567.244 231.152C567.592 230.996 567.979 230.918 568.404 230.918C568.826 230.918 569.199 230.984 569.523 231.117C569.848 231.246 570.119 231.428 570.338 231.662C570.557 231.896 570.723 232.176 570.836 232.5C570.949 232.824 571.006 233.18 571.006 233.566ZM569.553 233.361C569.557 233.127 569.527 232.924 569.465 232.752C569.402 232.576 569.316 232.432 569.207 232.318C569.102 232.205 568.977 232.121 568.832 232.066C568.691 232.012 568.539 231.984 568.375 231.984C568.016 231.984 567.721 232.105 567.49 232.348C567.26 232.586 567.123 232.924 567.08 233.361H569.553ZM576.25 233.361C576.258 233.139 576.246 232.949 576.215 232.793C576.188 232.637 576.141 232.508 576.074 232.406C576.012 232.305 575.934 232.23 575.84 232.184C575.746 232.137 575.639 232.113 575.518 232.113C575.307 232.113 575.088 232.201 574.861 232.377C574.639 232.549 574.393 232.834 574.123 233.232V237H572.658V231.047H573.953L574.006 231.914C574.104 231.762 574.213 231.625 574.334 231.504C574.459 231.383 574.596 231.279 574.744 231.193C574.896 231.104 575.064 231.035 575.248 230.988C575.432 230.941 575.633 230.918 575.852 230.918C576.152 230.918 576.418 230.971 576.648 231.076C576.883 231.178 577.078 231.33 577.234 231.533C577.395 231.736 577.512 231.992 577.586 232.301C577.664 232.605 577.697 232.959 577.686 233.361H576.25ZM582.344 237H580.697L578.336 231.047H579.93L581.166 234.422L581.535 235.512L581.898 234.469L583.146 231.047H584.682L582.344 237ZM589.117 229.418C589.117 229.547 589.094 229.668 589.047 229.781C589 229.895 588.934 229.994 588.848 230.08C588.766 230.162 588.668 230.229 588.555 230.279C588.441 230.326 588.318 230.35 588.186 230.35C588.053 230.35 587.928 230.326 587.811 230.279C587.697 230.229 587.598 230.162 587.512 230.08C587.43 229.994 587.365 229.895 587.318 229.781C587.271 229.668 587.248 229.547 587.248 229.418C587.248 229.289 587.271 229.168 587.318 229.055C587.365 228.941 587.43 228.842 587.512 228.756C587.598 228.67 587.697 228.604 587.811 228.557C587.928 228.506 588.053 228.48 588.186 228.48C588.318 228.48 588.441 228.506 588.555 228.557C588.668 228.604 588.766 228.67 588.848 228.756C588.934 228.842 589 228.941 589.047 229.055C589.094 229.168 589.117 229.289 589.117 229.418ZM587.535 232.16H585.854V231.047H589V235.887H590.717V237H585.648V235.887H587.535V232.16ZM597.027 236.771C596.746 236.885 596.455 236.969 596.154 237.023C595.854 237.078 595.539 237.105 595.211 237.105C594.738 237.105 594.314 237.041 593.939 236.912C593.564 236.783 593.246 236.592 592.984 236.338C592.723 236.084 592.521 235.77 592.381 235.395C592.244 235.02 592.176 234.586 592.176 234.094C592.176 233.617 592.25 233.186 592.398 232.799C592.551 232.412 592.764 232.082 593.037 231.809C593.311 231.535 593.639 231.324 594.021 231.176C594.408 231.027 594.838 230.953 595.311 230.953C595.697 230.953 596.021 230.975 596.283 231.018C596.549 231.057 596.787 231.107 596.998 231.17V232.559C596.756 232.438 596.492 232.344 596.207 232.277C595.926 232.211 595.658 232.178 595.404 232.178C595.139 232.178 594.9 232.223 594.689 232.312C594.479 232.402 594.301 232.527 594.156 232.688C594.012 232.848 593.9 233.043 593.822 233.273C593.748 233.5 593.711 233.75 593.711 234.023C593.711 234.309 593.752 234.564 593.834 234.791C593.916 235.018 594.031 235.211 594.18 235.371C594.332 235.527 594.514 235.648 594.725 235.734C594.936 235.816 595.17 235.857 595.428 235.857C595.553 235.857 595.684 235.85 595.82 235.834C595.961 235.814 596.1 235.789 596.236 235.758C596.377 235.723 596.514 235.684 596.646 235.641C596.783 235.598 596.91 235.551 597.027 235.5V236.771ZM603.994 233.566C603.994 233.664 603.99 233.791 603.982 233.947C603.979 234.104 603.971 234.25 603.959 234.387H600.045C600.045 234.648 600.084 234.879 600.162 235.078C600.244 235.277 600.357 235.445 600.502 235.582C600.65 235.715 600.826 235.816 601.029 235.887C601.236 235.957 601.465 235.992 601.715 235.992C602.004 235.992 602.312 235.971 602.641 235.928C602.973 235.881 603.316 235.807 603.672 235.705V236.842C603.52 236.885 603.354 236.924 603.174 236.959C602.994 236.994 602.811 237.025 602.623 237.053C602.436 237.08 602.246 237.1 602.055 237.111C601.863 237.127 601.678 237.135 601.498 237.135C601.045 237.135 600.639 237.07 600.279 236.941C599.92 236.812 599.615 236.623 599.365 236.373C599.115 236.119 598.924 235.807 598.791 235.436C598.658 235.064 598.592 234.635 598.592 234.146C598.592 233.662 598.658 233.223 598.791 232.828C598.924 232.43 599.111 232.09 599.354 231.809C599.596 231.523 599.889 231.305 600.232 231.152C600.58 230.996 600.967 230.918 601.393 230.918C601.814 230.918 602.188 230.984 602.512 231.117C602.836 231.246 603.107 231.428 603.326 231.662C603.545 231.896 603.711 232.176 603.824 232.5C603.938 232.824 603.994 233.18 603.994 233.566ZM602.541 233.361C602.545 233.127 602.516 232.924 602.453 232.752C602.391 232.576 602.305 232.432 602.195 232.318C602.09 232.205 601.965 232.121 601.82 232.066C601.68 232.012 601.527 231.984 601.363 231.984C601.004 231.984 600.709 232.105 600.479 232.348C600.248 232.586 600.111 232.924 600.068 233.361H602.541Z" fill="black"/>
<rect x="431.5" y="94.5" width="93" height="22" rx="2.5" fill="#FFFD54" stroke="black" stroke-width="3"/>
<path d="M473.084 109L472.662 107.488H469.99L469.557 109H468.127L470.395 101.342H472.41L474.678 109H473.084ZM471.344 102.748L470.336 106.311H472.34L471.344 102.748ZM480.871 105.918C480.871 106.465 480.793 106.938 480.637 107.336C480.484 107.734 480.27 108.066 479.992 108.332C479.719 108.594 479.395 108.789 479.02 108.918C478.645 109.043 478.236 109.105 477.795 109.105C477.646 109.105 477.498 109.096 477.35 109.076C477.201 109.057 477.066 109.031 476.945 109V111.326H475.516V103.047H476.752L476.787 103.926C476.908 103.773 477.033 103.635 477.162 103.51C477.295 103.385 477.438 103.279 477.59 103.193C477.742 103.104 477.906 103.035 478.082 102.988C478.258 102.941 478.455 102.918 478.674 102.918C479.025 102.918 479.338 102.988 479.611 103.129C479.885 103.27 480.113 103.471 480.297 103.732C480.484 103.99 480.627 104.305 480.725 104.676C480.822 105.043 480.871 105.457 480.871 105.918ZM479.371 105.977C479.371 105.648 479.348 105.369 479.301 105.139C479.254 104.908 479.186 104.719 479.096 104.57C479.01 104.422 478.902 104.314 478.773 104.248C478.648 104.178 478.504 104.143 478.34 104.143C478.098 104.143 477.865 104.24 477.643 104.436C477.424 104.631 477.191 104.896 476.945 105.232V107.834C477.059 107.877 477.197 107.912 477.361 107.939C477.529 107.967 477.699 107.98 477.871 107.98C478.098 107.98 478.303 107.934 478.486 107.84C478.674 107.746 478.832 107.613 478.961 107.441C479.094 107.27 479.195 107.061 479.266 106.814C479.336 106.564 479.371 106.285 479.371 105.977ZM487.469 105.918C487.469 106.465 487.391 106.938 487.234 107.336C487.082 107.734 486.867 108.066 486.59 108.332C486.316 108.594 485.992 108.789 485.617 108.918C485.242 109.043 484.834 109.105 484.393 109.105C484.244 109.105 484.096 109.096 483.947 109.076C483.799 109.057 483.664 109.031 483.543 109V111.326H482.113V103.047H483.35L483.385 103.926C483.506 103.773 483.631 103.635 483.76 103.51C483.893 103.385 484.035 103.279 484.188 103.193C484.34 103.104 484.504 103.035 484.68 102.988C484.855 102.941 485.053 102.918 485.271 102.918C485.623 102.918 485.936 102.988 486.209 103.129C486.482 103.27 486.711 103.471 486.895 103.732C487.082 103.99 487.225 104.305 487.322 104.676C487.42 105.043 487.469 105.457 487.469 105.918ZM485.969 105.977C485.969 105.648 485.945 105.369 485.898 105.139C485.852 104.908 485.783 104.719 485.693 104.57C485.607 104.422 485.5 104.314 485.371 104.248C485.246 104.178 485.102 104.143 484.938 104.143C484.695 104.143 484.463 104.24 484.24 104.436C484.021 104.631 483.789 104.896 483.543 105.232V107.834C483.656 107.877 483.795 107.912 483.959 107.939C484.127 107.967 484.297 107.98 484.469 107.98C484.695 107.98 484.9 107.934 485.084 107.84C485.271 107.746 485.43 107.613 485.559 107.441C485.691 107.27 485.793 107.061 485.863 106.814C485.934 106.564 485.969 106.285 485.969 105.977Z" fill="black"/>
<rect x="537.5" y="94.5" width="93" height="22" rx="2.5" fill="#FFFD54" stroke="black" stroke-width="3"/>
<path d="M579.084 109L578.662 107.488H575.99L575.557 109H574.127L576.395 101.342H578.41L580.678 109H579.084ZM577.344 102.748L576.336 106.311H578.34L577.344 102.748ZM586.871 105.918C586.871 106.465 586.793 106.938 586.637 107.336C586.484 107.734 586.27 108.066 585.992 108.332C585.719 108.594 585.395 108.789 585.02 108.918C584.645 109.043 584.236 109.105 583.795 109.105C583.646 109.105 583.498 109.096 583.35 109.076C583.201 109.057 583.066 109.031 582.945 109V111.326H581.516V103.047H582.752L582.787 103.926C582.908 103.773 583.033 103.635 583.162 103.51C583.295 103.385 583.438 103.279 583.59 103.193C583.742 103.104 583.906 103.035 584.082 102.988C584.258 102.941 584.455 102.918 584.674 102.918C585.025 102.918 585.338 102.988 585.611 103.129C585.885 103.27 586.113 103.471 586.297 103.732C586.484 103.99 586.627 104.305 586.725 104.676C586.822 105.043 586.871 105.457 586.871 105.918ZM585.371 105.977C585.371 105.648 585.348 105.369 585.301 105.139C585.254 104.908 585.186 104.719 585.096 104.57C585.01 104.422 584.902 104.314 584.773 104.248C584.648 104.178 584.504 104.143 584.34 104.143C584.098 104.143 583.865 104.24 583.643 104.436C583.424 104.631 583.191 104.896 582.945 105.232V107.834C583.059 107.877 583.197 107.912 583.361 107.939C583.529 107.967 583.699 107.98 583.871 107.98C584.098 107.98 584.303 107.934 584.486 107.84C584.674 107.746 584.832 107.613 584.961 107.441C585.094 107.27 585.195 107.061 585.266 106.814C585.336 106.564 585.371 106.285 585.371 105.977ZM593.469 105.918C593.469 106.465 593.391 106.938 593.234 107.336C593.082 107.734 592.867 108.066 592.59 108.332C592.316 108.594 591.992 108.789 591.617 108.918C591.242 109.043 590.834 109.105 590.393 109.105C590.244 109.105 590.096 109.096 589.947 109.076C589.799 109.057 589.664 109.031 589.543 109V111.326H588.113V103.047H589.35L589.385 103.926C589.506 103.773 589.631 103.635 589.76 103.51C589.893 103.385 590.035 103.279 590.188 103.193C590.34 103.104 590.504 103.035 590.68 102.988C590.855 102.941 591.053 102.918 591.271 102.918C591.623 102.918 591.936 102.988 592.209 103.129C592.482 103.27 592.711 103.471 592.895 103.732C593.082 103.99 593.225 104.305 593.322 104.676C593.42 105.043 593.469 105.457 593.469 105.918ZM591.969 105.977C591.969 105.648 591.945 105.369 591.898 105.139C591.852 104.908 591.783 104.719 591.693 104.57C591.607 104.422 591.5 104.314 591.371 104.248C591.246 104.178 591.102 104.143 590.938 104.143C590.695 104.143 590.463 104.24 590.24 104.436C590.021 104.631 589.789 104.896 589.543 105.232V107.834C589.656 107.877 589.795 107.912 589.959 107.939C590.127 107.967 590.297 107.98 590.469 107.98C590.695 107.98 590.9 107.934 591.084 107.84C591.271 107.746 591.43 107.613 591.559 107.441C591.691 107.27 591.793 107.061 591.863 106.814C591.934 106.564 591.969 106.285 591.969 105.977Z" fill="black"/>
<rect x="640.5" y="94.5" width="93" height="22" rx="2.5" fill="#FFFD54" stroke="black" stroke-width="3"/>
<path d="M682.084 109L681.662 107.488H678.99L678.557 109H677.127L679.395 101.342H681.41L683.678 109H682.084ZM680.344 102.748L679.336 106.311H681.34L680.344 102.748ZM689.871 105.918C689.871 106.465 689.793 106.938 689.637 107.336C689.484 107.734 689.27 108.066 688.992 108.332C688.719 108.594 688.395 108.789 688.02 108.918C687.645 109.043 687.236 109.105 686.795 109.105C686.646 109.105 686.498 109.096 686.35 109.076C686.201 109.057 686.066 109.031 685.945 109V111.326H684.516V103.047H685.752L685.787 103.926C685.908 103.773 686.033 103.635 686.162 103.51C686.295 103.385 686.438 103.279 686.59 103.193C686.742 103.104 686.906 103.035 687.082 102.988C687.258 102.941 687.455 102.918 687.674 102.918C688.025 102.918 688.338 102.988 688.611 103.129C688.885 103.27 689.113 103.471 689.297 103.732C689.484 103.99 689.627 104.305 689.725 104.676C689.822 105.043 689.871 105.457 689.871 105.918ZM688.371 105.977C688.371 105.648 688.348 105.369 688.301 105.139C688.254 104.908 688.186 104.719 688.096 104.57C688.01 104.422 687.902 104.314 687.773 104.248C687.648 104.178 687.504 104.143 687.34 104.143C687.098 104.143 686.865 104.24 686.643 104.436C686.424 104.631 686.191 104.896 685.945 105.232V107.834C686.059 107.877 686.197 107.912 686.361 107.939C686.529 107.967 686.699 107.98 686.871 107.98C687.098 107.98 687.303 107.934 687.486 107.84C687.674 107.746 687.832 107.613 687.961 107.441C688.094 107.27 688.195 107.061 688.266 106.814C688.336 106.564 688.371 106.285 688.371 105.977ZM696.469 105.918C696.469 106.465 696.391 106.938 696.234 107.336C696.082 107.734 695.867 108.066 695.59 108.332C695.316 108.594 694.992 108.789 694.617 108.918C694.242 109.043 693.834 109.105 693.393 109.105C693.244 109.105 693.096 109.096 692.947 109.076C692.799 109.057 692.664 109.031 692.543 109V111.326H691.113V103.047H692.35L692.385 103.926C692.506 103.773 692.631 103.635 692.76 103.51C692.893 103.385 693.035 103.279 693.188 103.193C693.34 103.104 693.504 103.035 693.68 102.988C693.855 102.941 694.053 102.918 694.271 102.918C694.623 102.918 694.936 102.988 695.209 103.129C695.482 103.27 695.711 103.471 695.895 103.732C696.082 103.99 696.225 104.305 696.322 104.676C696.42 105.043 696.469 105.457 696.469 105.918ZM694.969 105.977C694.969 105.648 694.945 105.369 694.898 105.139C694.852 104.908 694.783 104.719 694.693 104.57C694.607 104.422 694.5 104.314 694.371 104.248C694.246 104.178 694.102 104.143 693.938 104.143C693.695 104.143 693.463 104.24 693.24 104.436C693.021 104.631 692.789 104.896 692.543 105.232V107.834C692.656 107.877 692.795 107.912 692.959 107.939C693.127 107.967 693.297 107.98 693.469 107.98C693.695 107.98 693.9 107.934 694.084 107.84C694.271 107.746 694.43 107.613 694.559 107.441C694.691 107.27 694.793 107.061 694.863 106.814C694.934 106.564 694.969 106.285 694.969 105.977Z" fill="black"/>
<line x1="582" y1="220" x2="582" y2="188" stroke="black" stroke-width="2"/>
<rect x="667.5" y="221.5" width="122" height="22" rx="2.5" fill="#FFFD54" stroke="black" stroke-width="3"/>
<rect x="798.5" y="221.5" width="37" height="22" rx="2.5" fill="#FFFD54" stroke="black" stroke-width="3"/>
<path d="M710.385 234.686C710.385 235.104 710.307 235.467 710.15 235.775C709.998 236.084 709.783 236.34 709.506 236.543C709.229 236.742 708.898 236.891 708.516 236.988C708.133 237.086 707.715 237.135 707.262 237.135C706.859 237.135 706.471 237.111 706.096 237.064C705.721 237.018 705.35 236.939 704.982 236.83V235.406C705.162 235.469 705.35 235.527 705.545 235.582C705.74 235.637 705.936 235.686 706.131 235.729C706.33 235.768 706.527 235.799 706.723 235.822C706.918 235.846 707.107 235.857 707.291 235.857C707.564 235.857 707.797 235.834 707.988 235.787C708.18 235.74 708.336 235.676 708.457 235.594C708.578 235.512 708.666 235.414 708.721 235.301C708.775 235.188 708.803 235.062 708.803 234.926C708.803 234.738 708.748 234.582 708.639 234.457C708.533 234.328 708.393 234.215 708.217 234.117C708.041 234.02 707.84 233.932 707.613 233.854C707.391 233.775 707.162 233.691 706.928 233.602C706.697 233.512 706.469 233.41 706.242 233.297C706.02 233.184 705.82 233.043 705.645 232.875C705.469 232.707 705.326 232.508 705.217 232.277C705.111 232.043 705.059 231.762 705.059 231.434C705.059 231.133 705.113 230.848 705.223 230.578C705.332 230.309 705.504 230.074 705.738 229.875C705.973 229.672 706.273 229.512 706.641 229.395C707.008 229.273 707.451 229.213 707.971 229.213C708.123 229.213 708.281 229.221 708.445 229.236C708.613 229.248 708.777 229.266 708.938 229.289C709.102 229.309 709.258 229.334 709.406 229.365C709.559 229.393 709.697 229.422 709.822 229.453V230.771C709.697 230.725 709.561 230.682 709.412 230.643C709.264 230.604 709.109 230.57 708.949 230.543C708.793 230.512 708.635 230.488 708.475 230.473C708.314 230.457 708.162 230.449 708.018 230.449C707.764 230.449 707.549 230.471 707.373 230.514C707.197 230.553 707.053 230.609 706.939 230.684C706.826 230.754 706.744 230.842 706.693 230.947C706.643 231.053 706.617 231.17 706.617 231.299C706.617 231.459 706.67 231.598 706.775 231.715C706.885 231.828 707.027 231.932 707.203 232.025C707.383 232.115 707.584 232.201 707.807 232.283C708.033 232.361 708.264 232.447 708.498 232.541C708.736 232.631 708.967 232.734 709.189 232.852C709.416 232.969 709.617 233.111 709.793 233.279C709.973 233.447 710.115 233.646 710.221 233.877C710.33 234.104 710.385 234.373 710.385 234.686ZM717.006 233.566C717.006 233.664 717.002 233.791 716.994 233.947C716.99 234.104 716.982 234.25 716.971 234.387H713.057C713.057 234.648 713.096 234.879 713.174 235.078C713.256 235.277 713.369 235.445 713.514 235.582C713.662 235.715 713.838 235.816 714.041 235.887C714.248 235.957 714.477 235.992 714.727 235.992C715.016 235.992 715.324 235.971 715.652 235.928C715.984 235.881 716.328 235.807 716.684 235.705V236.842C716.531 236.885 716.365 236.924 716.186 236.959C716.006 236.994 715.822 237.025 715.635 237.053C715.447 237.08 715.258 237.1 715.066 237.111C714.875 237.127 714.689 237.135 714.51 237.135C714.057 237.135 713.65 237.07 713.291 236.941C712.932 236.812 712.627 236.623 712.377 236.373C712.127 236.119 711.936 235.807 711.803 235.436C711.67 235.064 711.604 234.635 711.604 234.146C711.604 233.662 711.67 233.223 711.803 232.828C711.936 232.43 712.123 232.09 712.365 231.809C712.607 231.523 712.9 231.305 713.244 231.152C713.592 230.996 713.979 230.918 714.404 230.918C714.826 230.918 715.199 230.984 715.523 231.117C715.848 231.246 716.119 231.428 716.338 231.662C716.557 231.896 716.723 232.176 716.836 232.5C716.949 232.824 717.006 233.18 717.006 233.566ZM715.553 233.361C715.557 233.127 715.527 232.924 715.465 232.752C715.402 232.576 715.316 232.432 715.207 232.318C715.102 232.205 714.977 232.121 714.832 232.066C714.691 232.012 714.539 231.984 714.375 231.984C714.016 231.984 713.721 232.105 713.49 232.348C713.26 232.586 713.123 232.924 713.08 233.361H715.553ZM722.25 233.361C722.258 233.139 722.246 232.949 722.215 232.793C722.188 232.637 722.141 232.508 722.074 232.406C722.012 232.305 721.934 232.23 721.84 232.184C721.746 232.137 721.639 232.113 721.518 232.113C721.307 232.113 721.088 232.201 720.861 232.377C720.639 232.549 720.393 232.834 720.123 233.232V237H718.658V231.047H719.953L720.006 231.914C720.104 231.762 720.213 231.625 720.334 231.504C720.459 231.383 720.596 231.279 720.744 231.193C720.896 231.104 721.064 231.035 721.248 230.988C721.432 230.941 721.633 230.918 721.852 230.918C722.152 230.918 722.418 230.971 722.648 231.076C722.883 231.178 723.078 231.33 723.234 231.533C723.395 231.736 723.512 231.992 723.586 232.301C723.664 232.605 723.697 232.959 723.686 233.361H722.25ZM728.344 237H726.697L724.336 231.047H725.93L727.166 234.422L727.535 235.512L727.898 234.469L729.146 231.047H730.682L728.344 237ZM735.117 229.418C735.117 229.547 735.094 229.668 735.047 229.781C735 229.895 734.934 229.994 734.848 230.08C734.766 230.162 734.668 230.229 734.555 230.279C734.441 230.326 734.318 230.35 734.186 230.35C734.053 230.35 733.928 230.326 733.811 230.279C733.697 230.229 733.598 230.162 733.512 230.08C733.43 229.994 733.365 229.895 733.318 229.781C733.271 229.668 733.248 229.547 733.248 229.418C733.248 229.289 733.271 229.168 733.318 229.055C733.365 228.941 733.43 228.842 733.512 228.756C733.598 228.67 733.697 228.604 733.811 228.557C733.928 228.506 734.053 228.48 734.186 228.48C734.318 228.48 734.441 228.506 734.555 228.557C734.668 228.604 734.766 228.67 734.848 228.756C734.934 228.842 735 228.941 735.047 229.055C735.094 229.168 735.117 229.289 735.117 229.418ZM733.535 232.16H731.854V231.047H735V235.887H736.717V237H731.648V235.887H733.535V232.16ZM743.027 236.771C742.746 236.885 742.455 236.969 742.154 237.023C741.854 237.078 741.539 237.105 741.211 237.105C740.738 237.105 740.314 237.041 739.939 236.912C739.564 236.783 739.246 236.592 738.984 236.338C738.723 236.084 738.521 235.77 738.381 235.395C738.244 235.02 738.176 234.586 738.176 234.094C738.176 233.617 738.25 233.186 738.398 232.799C738.551 232.412 738.764 232.082 739.037 231.809C739.311 231.535 739.639 231.324 740.021 231.176C740.408 231.027 740.838 230.953 741.311 230.953C741.697 230.953 742.021 230.975 742.283 231.018C742.549 231.057 742.787 231.107 742.998 231.17V232.559C742.756 232.438 742.492 232.344 742.207 232.277C741.926 232.211 741.658 232.178 741.404 232.178C741.139 232.178 740.9 232.223 740.689 232.312C740.479 232.402 740.301 232.527 740.156 232.688C740.012 232.848 739.9 233.043 739.822 233.273C739.748 233.5 739.711 233.75 739.711 234.023C739.711 234.309 739.752 234.564 739.834 234.791C739.916 235.018 740.031 235.211 740.18 235.371C740.332 235.527 740.514 235.648 740.725 235.734C740.936 235.816 741.17 235.857 741.428 235.857C741.553 235.857 741.684 235.85 741.82 235.834C741.961 235.814 742.1 235.789 742.236 235.758C742.377 235.723 742.514 235.684 742.646 235.641C742.783 235.598 742.91 235.551 743.027 235.5V236.771ZM749.994 233.566C749.994 233.664 749.99 233.791 749.982 233.947C749.979 234.104 749.971 234.25 749.959 234.387H746.045C746.045 234.648 746.084 234.879 746.162 235.078C746.244 235.277 746.357 235.445 746.502 235.582C746.65 235.715 746.826 235.816 747.029 235.887C747.236 235.957 747.465 235.992 747.715 235.992C748.004 235.992 748.312 235.971 748.641 235.928C748.973 235.881 749.316 235.807 749.672 235.705V236.842C749.52 236.885 749.354 236.924 749.174 236.959C748.994 236.994 748.811 237.025 748.623 237.053C748.436 237.08 748.246 237.1 748.055 237.111C747.863 237.127 747.678 237.135 747.498 237.135C747.045 237.135 746.639 237.07 746.279 236.941C745.92 236.812 745.615 236.623 745.365 236.373C745.115 236.119 744.924 235.807 744.791 235.436C744.658 235.064 744.592 234.635 744.592 234.146C744.592 233.662 744.658 233.223 744.791 232.828C744.924 232.43 745.111 232.09 745.354 231.809C745.596 231.523 745.889 231.305 746.232 231.152C746.58 230.996 746.967 230.918 747.393 230.918C747.814 230.918 748.188 230.984 748.512 231.117C748.836 231.246 749.107 231.428 749.326 231.662C749.545 231.896 749.711 232.176 749.824 232.5C749.938 232.824 749.994 233.18 749.994 233.566ZM748.541 233.361C748.545 233.127 748.516 232.924 748.453 232.752C748.391 232.576 748.305 232.432 748.195 232.318C748.09 232.205 747.965 232.121 747.82 232.066C747.68 232.012 747.527 231.984 747.363 231.984C747.004 231.984 746.709 232.105 746.479 232.348C746.248 232.586 746.111 232.924 746.068 233.361H748.541Z" fill="black"/>
<path d="M817.566 234V230.121C817.566 229.469 817.324 229.143 816.84 229.143C816.598 229.143 816.365 229.24 816.143 229.436C815.924 229.631 815.691 229.896 815.445 230.232V234H814.016V228.047H815.252L815.287 228.926C815.408 228.773 815.533 228.635 815.662 228.51C815.795 228.385 815.938 228.279 816.09 228.193C816.242 228.104 816.406 228.035 816.582 227.988C816.758 227.941 816.955 227.918 817.174 227.918C817.479 227.918 817.744 227.969 817.971 228.07C818.197 228.168 818.387 228.309 818.539 228.492C818.691 228.672 818.805 228.891 818.879 229.148C818.957 229.402 818.996 229.688 818.996 230.004V234H817.566Z" fill="black"/>
<rect x="743.5" y="94.5" width="37" height="22" rx="2.5" fill="#FFFD54" stroke="black" stroke-width="3"/>
<path d="M762.566 107V103.121C762.566 102.469 762.324 102.143 761.84 102.143C761.598 102.143 761.365 102.24 761.143 102.436C760.924 102.631 760.691 102.896 760.445 103.232V107H759.016V101.047H760.252L760.287 101.926C760.408 101.773 760.533 101.635 760.662 101.51C760.795 101.385 760.938 101.279 761.09 101.193C761.242 101.104 761.406 101.035 761.582 100.988C761.758 100.941 761.955 100.918 762.174 100.918C762.479 100.918 762.744 100.969 762.971 101.07C763.197 101.168 763.387 101.309 763.539 101.492C763.691 101.672 763.805 101.891 763.879 102.148C763.957 102.402 763.996 102.688 763.996 103.004V107H762.566Z" fill="black"/>
<line x1="728" y1="220" x2="728" y2="188" stroke="black" stroke-width="2"/>
<rect x="373.5" y="221.5" width="122" height="22" rx="2.5" fill="#FFFD54" stroke="black" stroke-width="3"/>
<path d="M416.385 234.686C416.385 235.104 416.307 235.467 416.15 235.775C415.998 236.084 415.783 236.34 415.506 236.543C415.229 236.742 414.898 236.891 414.516 236.988C414.133 237.086 413.715 237.135 413.262 237.135C412.859 237.135 412.471 237.111 412.096 237.064C411.721 237.018 411.35 236.939 410.982 236.83V235.406C411.162 235.469 411.35 235.527 411.545 235.582C411.74 235.637 411.936 235.686 412.131 235.729C412.33 235.768 412.527 235.799 412.723 235.822C412.918 235.846 413.107 235.857 413.291 235.857C413.564 235.857 413.797 235.834 413.988 235.787C414.18 235.74 414.336 235.676 414.457 235.594C414.578 235.512 414.666 235.414 414.721 235.301C414.775 235.188 414.803 235.062 414.803 234.926C414.803 234.738 414.748 234.582 414.639 234.457C414.533 234.328 414.393 234.215 414.217 234.117C414.041 234.02 413.84 233.932 413.613 233.854C413.391 233.775 413.162 233.691 412.928 233.602C412.697 233.512 412.469 233.41 412.242 233.297C412.02 233.184 411.82 233.043 411.645 232.875C411.469 232.707 411.326 232.508 411.217 232.277C411.111 232.043 411.059 231.762 411.059 231.434C411.059 231.133 411.113 230.848 411.223 230.578C411.332 230.309 411.504 230.074 411.738 229.875C411.973 229.672 412.273 229.512 412.641 229.395C413.008 229.273 413.451 229.213 413.971 229.213C414.123 229.213 414.281 229.221 414.445 229.236C414.613 229.248 414.777 229.266 414.938 229.289C415.102 229.309 415.258 229.334 415.406 229.365C415.559 229.393 415.697 229.422 415.822 229.453V230.771C415.697 230.725 415.561 230.682 415.412 230.643C415.264 230.604 415.109 230.57 414.949 230.543C414.793 230.512 414.635 230.488 414.475 230.473C414.314 230.457 414.162 230.449 414.018 230.449C413.764 230.449 413.549 230.471 413.373 230.514C413.197 230.553 413.053 230.609 412.939 230.684C412.826 230.754 412.744 230.842 412.693 230.947C412.643 231.053 412.617 231.17 412.617 231.299C412.617 231.459 412.67 231.598 412.775 231.715C412.885 231.828 413.027 231.932 413.203 232.025C413.383 232.115 413.584 232.201 413.807 232.283C414.033 232.361 414.264 232.447 414.498 232.541C414.736 232.631 414.967 232.734 415.189 232.852C415.416 232.969 415.617 233.111 415.793 233.279C415.973 233.447 416.115 233.646 416.221 233.877C416.33 234.104 416.385 234.373 416.385 234.686ZM423.006 233.566C423.006 233.664 423.002 233.791 422.994 233.947C422.99 234.104 422.982 234.25 422.971 234.387H419.057C419.057 234.648 419.096 234.879 419.174 235.078C419.256 235.277 419.369 235.445 419.514 235.582C419.662 235.715 419.838 235.816 420.041 235.887C420.248 235.957 420.477 235.992 420.727 235.992C421.016 235.992 421.324 235.971 421.652 235.928C421.984 235.881 422.328 235.807 422.684 235.705V236.842C422.531 236.885 422.365 236.924 422.186 236.959C422.006 236.994 421.822 237.025 421.635 237.053C421.447 237.08 421.258 237.1 421.066 237.111C420.875 237.127 420.689 237.135 420.51 237.135C420.057 237.135 419.65 237.07 419.291 236.941C418.932 236.812 418.627 236.623 418.377 236.373C418.127 236.119 417.936 235.807 417.803 235.436C417.67 235.064 417.604 234.635 417.604 234.146C417.604 233.662 417.67 233.223 417.803 232.828C417.936 232.43 418.123 232.09 418.365 231.809C418.607 231.523 418.9 231.305 419.244 231.152C419.592 230.996 419.979 230.918 420.404 230.918C420.826 230.918 421.199 230.984 421.523 231.117C421.848 231.246 422.119 231.428 422.338 231.662C422.557 231.896 422.723 232.176 422.836 232.5C422.949 232.824 423.006 233.18 423.006 233.566ZM421.553 233.361C421.557 233.127 421.527 232.924 421.465 232.752C421.402 232.576 421.316 232.432 421.207 232.318C421.102 232.205 420.977 232.121 420.832 232.066C420.691 232.012 420.539 231.984 420.375 231.984C420.016 231.984 419.721 232.105 419.49 232.348C419.26 232.586 419.123 232.924 419.08 233.361H421.553ZM428.25 233.361C428.258 233.139 428.246 232.949 428.215 232.793C428.188 232.637 428.141 232.508 428.074 232.406C428.012 232.305 427.934 232.23 427.84 232.184C427.746 232.137 427.639 232.113 427.518 232.113C427.307 232.113 427.088 232.201 426.861 232.377C426.639 232.549 426.393 232.834 426.123 233.232V237H424.658V231.047H425.953L426.006 231.914C426.104 231.762 426.213 231.625 426.334 231.504C426.459 231.383 426.596 231.279 426.744 231.193C426.896 231.104 427.064 231.035 427.248 230.988C427.432 230.941 427.633 230.918 427.852 230.918C428.152 230.918 428.418 230.971 428.648 231.076C428.883 231.178 429.078 231.33 429.234 231.533C429.395 231.736 429.512 231.992 429.586 232.301C429.664 232.605 429.697 232.959 429.686 233.361H428.25ZM434.344 237H432.697L430.336 231.047H431.93L433.166 234.422L433.535 235.512L433.898 234.469L435.146 231.047H436.682L434.344 237ZM441.117 229.418C441.117 229.547 441.094 229.668 441.047 229.781C441 229.895 440.934 229.994 440.848 230.08C440.766 230.162 440.668 230.229 440.555 230.279C440.441 230.326 440.318 230.35 440.186 230.35C440.053 230.35 439.928 230.326 439.811 230.279C439.697 230.229 439.598 230.162 439.512 230.08C439.43 229.994 439.365 229.895 439.318 229.781C439.271 229.668 439.248 229.547 439.248 229.418C439.248 229.289 439.271 229.168 439.318 229.055C439.365 228.941 439.43 228.842 439.512 228.756C439.598 228.67 439.697 228.604 439.811 228.557C439.928 228.506 440.053 228.48 440.186 228.48C440.318 228.48 440.441 228.506 440.555 228.557C440.668 228.604 440.766 228.67 440.848 228.756C440.934 228.842 441 228.941 441.047 229.055C441.094 229.168 441.117 229.289 441.117 229.418ZM439.535 232.16H437.854V231.047H441V235.887H442.717V237H437.648V235.887H439.535V232.16ZM449.027 236.771C448.746 236.885 448.455 236.969 448.154 237.023C447.854 237.078 447.539 237.105 447.211 237.105C446.738 237.105 446.314 237.041 445.939 236.912C445.564 236.783 445.246 236.592 444.984 236.338C444.723 236.084 444.521 235.77 444.381 235.395C444.244 235.02 444.176 234.586 444.176 234.094C444.176 233.617 444.25 233.186 444.398 232.799C444.551 232.412 444.764 232.082 445.037 231.809C445.311 231.535 445.639 231.324 446.021 231.176C446.408 231.027 446.838 230.953 447.311 230.953C447.697 230.953 448.021 230.975 448.283 231.018C448.549 231.057 448.787 231.107 448.998 231.17V232.559C448.756 232.438 448.492 232.344 448.207 232.277C447.926 232.211 447.658 232.178 447.404 232.178C447.139 232.178 446.9 232.223 446.689 232.312C446.479 232.402 446.301 232.527 446.156 232.688C446.012 232.848 445.9 233.043 445.822 233.273C445.748 233.5 445.711 233.75 445.711 234.023C445.711 234.309 445.752 234.564 445.834 234.791C445.916 235.018 446.031 235.211 446.18 235.371C446.332 235.527 446.514 235.648 446.725 235.734C446.936 235.816 447.17 235.857 447.428 235.857C447.553 235.857 447.684 235.85 447.82 235.834C447.961 235.814 448.1 235.789 448.236 235.758C448.377 235.723 448.514 235.684 448.646 235.641C448.783 235.598 448.91 235.551 449.027 235.5V236.771ZM455.994 233.566C455.994 233.664 455.99 233.791 455.982 233.947C455.979 234.104 455.971 234.25 455.959 234.387H452.045C452.045 234.648 452.084 234.879 452.162 235.078C452.244 235.277 452.357 235.445 452.502 235.582C452.65 235.715 452.826 235.816 453.029 235.887C453.236 235.957 453.465 235.992 453.715 235.992C454.004 235.992 454.312 235.971 454.641 235.928C454.973 235.881 455.316 235.807 455.672 235.705V236.842C455.52 236.885 455.354 236.924 455.174 236.959C454.994 236.994 454.811 237.025 454.623 237.053C454.436 237.08 454.246 237.1 454.055 237.111C453.863 237.127 453.678 237.135 453.498 237.135C453.045 237.135 452.639 237.07 452.279 236.941C451.92 236.812 451.615 236.623 451.365 236.373C451.115 236.119 450.924 235.807 450.791 235.436C450.658 235.064 450.592 234.635 450.592 234.146C450.592 233.662 450.658 233.223 450.791 232.828C450.924 232.43 451.111 232.09 451.354 231.809C451.596 231.523 451.889 231.305 452.232 231.152C452.58 230.996 452.967 230.918 453.393 230.918C453.814 230.918 454.188 230.984 454.512 231.117C454.836 231.246 455.107 231.428 455.326 231.662C455.545 231.896 455.711 232.176 455.824 232.5C455.938 232.824 455.994 233.18 455.994 233.566ZM454.541 233.361C454.545 233.127 454.516 232.924 454.453 232.752C454.391 232.576 454.305 232.432 454.195 232.318C454.09 232.205 453.965 232.121 453.82 232.066C453.68 232.012 453.527 231.984 453.363 231.984C453.004 231.984 452.709 232.105 452.479 232.348C452.248 232.586 452.111 232.924 452.068 233.361H454.541Z" fill="black"/>
<line x1="434" y1="220" x2="434" y2="188" stroke="black" stroke-width="2"/>
<rect x="69.5" y="220.5" width="122" height="22" rx="2.5" fill="#FFFD54" stroke="black" stroke-width="3"/>
<path d="M112.385 233.686C112.385 234.104 112.307 234.467 112.15 234.775C111.998 235.084 111.783 235.34 111.506 235.543C111.229 235.742 110.898 235.891 110.516 235.988C110.133 236.086 109.715 236.135 109.262 236.135C108.859 236.135 108.471 236.111 108.096 236.064C107.721 236.018 107.35 235.939 106.982 235.83V234.406C107.162 234.469 107.35 234.527 107.545 234.582C107.74 234.637 107.936 234.686 108.131 234.729C108.33 234.768 108.527 234.799 108.723 234.822C108.918 234.846 109.107 234.857 109.291 234.857C109.564 234.857 109.797 234.834 109.988 234.787C110.18 234.74 110.336 234.676 110.457 234.594C110.578 234.512 110.666 234.414 110.721 234.301C110.775 234.188 110.803 234.062 110.803 233.926C110.803 233.738 110.748 233.582 110.639 233.457C110.533 233.328 110.393 233.215 110.217 233.117C110.041 233.02 109.84 232.932 109.613 232.854C109.391 232.775 109.162 232.691 108.928 232.602C108.697 232.512 108.469 232.41 108.242 232.297C108.02 232.184 107.82 232.043 107.645 231.875C107.469 231.707 107.326 231.508 107.217 231.277C107.111 231.043 107.059 230.762 107.059 230.434C107.059 230.133 107.113 229.848 107.223 229.578C107.332 229.309 107.504 229.074 107.738 228.875C107.973 228.672 108.273 228.512 108.641 228.395C109.008 228.273 109.451 228.213 109.971 228.213C110.123 228.213 110.281 228.221 110.445 228.236C110.613 228.248 110.777 228.266 110.938 228.289C111.102 228.309 111.258 228.334 111.406 228.365C111.559 228.393 111.697 228.422 111.822 228.453V229.771C111.697 229.725 111.561 229.682 111.412 229.643C111.264 229.604 111.109 229.57 110.949 229.543C110.793 229.512 110.635 229.488 110.475 229.473C110.314 229.457 110.162 229.449 110.018 229.449C109.764 229.449 109.549 229.471 109.373 229.514C109.197 229.553 109.053 229.609 108.939 229.684C108.826 229.754 108.744 229.842 108.693 229.947C108.643 230.053 108.617 230.17 108.617 230.299C108.617 230.459 108.67 230.598 108.775 230.715C108.885 230.828 109.027 230.932 109.203 231.025C109.383 231.115 109.584 231.201 109.807 231.283C110.033 231.361 110.264 231.447 110.498 231.541C110.736 231.631 110.967 231.734 111.189 231.852C111.416 231.969 111.617 232.111 111.793 232.279C111.973 232.447 112.115 232.646 112.221 232.877C112.33 233.104 112.385 233.373 112.385 233.686ZM119.006 232.566C119.006 232.664 119.002 232.791 118.994 232.947C118.99 233.104 118.982 233.25 118.971 233.387H115.057C115.057 233.648 115.096 233.879 115.174 234.078C115.256 234.277 115.369 234.445 115.514 234.582C115.662 234.715 115.838 234.816 116.041 234.887C116.248 234.957 116.477 234.992 116.727 234.992C117.016 234.992 117.324 234.971 117.652 234.928C117.984 234.881 118.328 234.807 118.684 234.705V235.842C118.531 235.885 118.365 235.924 118.186 235.959C118.006 235.994 117.822 236.025 117.635 236.053C117.447 236.08 117.258 236.1 117.066 236.111C116.875 236.127 116.689 236.135 116.51 236.135C116.057 236.135 115.65 236.07 115.291 235.941C114.932 235.812 114.627 235.623 114.377 235.373C114.127 235.119 113.936 234.807 113.803 234.436C113.67 234.064 113.604 233.635 113.604 233.146C113.604 232.662 113.67 232.223 113.803 231.828C113.936 231.43 114.123 231.09 114.365 230.809C114.607 230.523 114.9 230.305 115.244 230.152C115.592 229.996 115.979 229.918 116.404 229.918C116.826 229.918 117.199 229.984 117.523 230.117C117.848 230.246 118.119 230.428 118.338 230.662C118.557 230.896 118.723 231.176 118.836 231.5C118.949 231.824 119.006 232.18 119.006 232.566ZM117.553 232.361C117.557 232.127 117.527 231.924 117.465 231.752C117.402 231.576 117.316 231.432 117.207 231.318C117.102 231.205 116.977 231.121 116.832 231.066C116.691 231.012 116.539 230.984 116.375 230.984C116.016 230.984 115.721 231.105 115.49 231.348C115.26 231.586 115.123 231.924 115.08 232.361H117.553ZM124.25 232.361C124.258 232.139 124.246 231.949 124.215 231.793C124.188 231.637 124.141 231.508 124.074 231.406C124.012 231.305 123.934 231.23 123.84 231.184C123.746 231.137 123.639 231.113 123.518 231.113C123.307 231.113 123.088 231.201 122.861 231.377C122.639 231.549 122.393 231.834 122.123 232.232V236H120.658V230.047H121.953L122.006 230.914C122.104 230.762 122.213 230.625 122.334 230.504C122.459 230.383 122.596 230.279 122.744 230.193C122.896 230.104 123.064 230.035 123.248 229.988C123.432 229.941 123.633 229.918 123.852 229.918C124.152 229.918 124.418 229.971 124.648 230.076C124.883 230.178 125.078 230.33 125.234 230.533C125.395 230.736 125.512 230.992 125.586 231.301C125.664 231.605 125.697 231.959 125.686 232.361H124.25ZM130.344 236H128.697L126.336 230.047H127.93L129.166 233.422L129.535 234.512L129.898 233.469L131.146 230.047H132.682L130.344 236ZM137.117 228.418C137.117 228.547 137.094 228.668 137.047 228.781C137 228.895 136.934 228.994 136.848 229.08C136.766 229.162 136.668 229.229 136.555 229.279C136.441 229.326 136.318 229.35 136.186 229.35C136.053 229.35 135.928 229.326 135.811 229.279C135.697 229.229 135.598 229.162 135.512 229.08C135.43 228.994 135.365 228.895 135.318 228.781C135.271 228.668 135.248 228.547 135.248 228.418C135.248 228.289 135.271 228.168 135.318 228.055C135.365 227.941 135.43 227.842 135.512 227.756C135.598 227.67 135.697 227.604 135.811 227.557C135.928 227.506 136.053 227.48 136.186 227.48C136.318 227.48 136.441 227.506 136.555 227.557C136.668 227.604 136.766 227.67 136.848 227.756C136.934 227.842 137 227.941 137.047 228.055C137.094 228.168 137.117 228.289 137.117 228.418ZM135.535 231.16H133.854V230.047H137V234.887H138.717V236H133.648V234.887H135.535V231.16ZM145.027 235.771C144.746 235.885 144.455 235.969 144.154 236.023C143.854 236.078 143.539 236.105 143.211 236.105C142.738 236.105 142.314 236.041 141.939 235.912C141.564 235.783 141.246 235.592 140.984 235.338C140.723 235.084 140.521 234.77 140.381 234.395C140.244 234.02 140.176 233.586 140.176 233.094C140.176 232.617 140.25 232.186 140.398 231.799C140.551 231.412 140.764 231.082 141.037 230.809C141.311 230.535 141.639 230.324 142.021 230.176C142.408 230.027 142.838 229.953 143.311 229.953C143.697 229.953 144.021 229.975 144.283 230.018C144.549 230.057 144.787 230.107 144.998 230.17V231.559C144.756 231.438 144.492 231.344 144.207 231.277C143.926 231.211 143.658 231.178 143.404 231.178C143.139 231.178 142.9 231.223 142.689 231.312C142.479 231.402 142.301 231.527 142.156 231.688C142.012 231.848 141.9 232.043 141.822 232.273C141.748 232.5 141.711 232.75 141.711 233.023C141.711 233.309 141.752 233.564 141.834 233.791C141.916 234.018 142.031 234.211 142.18 234.371C142.332 234.527 142.514 234.648 142.725 234.734C142.936 234.816 143.17 234.857 143.428 234.857C143.553 234.857 143.684 234.85 143.82 234.834C143.961 234.814 144.1 234.789 144.236 234.758C144.377 234.723 144.514 234.684 144.646 234.641C144.783 234.598 144.91 234.551 145.027 234.5V235.771ZM151.994 232.566C151.994 232.664 151.99 232.791 151.982 232.947C151.979 233.104 151.971 233.25 151.959 233.387H148.045C148.045 233.648 148.084 233.879 148.162 234.078C148.244 234.277 148.357 234.445 148.502 234.582C148.65 234.715 148.826 234.816 149.029 234.887C149.236 234.957 149.465 234.992 149.715 234.992C150.004 234.992 150.312 234.971 150.641 234.928C150.973 234.881 151.316 234.807 151.672 234.705V235.842C151.52 235.885 151.354 235.924 151.174 235.959C150.994 235.994 150.811 236.025 150.623 236.053C150.436 236.08 150.246 236.1 150.055 236.111C149.863 236.127 149.678 236.135 149.498 236.135C149.045 236.135 148.639 236.07 148.279 235.941C147.92 235.812 147.615 235.623 147.365 235.373C147.115 235.119 146.924 234.807 146.791 234.436C146.658 234.064 146.592 233.635 146.592 233.146C146.592 232.662 146.658 232.223 146.791 231.828C146.924 231.43 147.111 231.09 147.354 230.809C147.596 230.523 147.889 230.305 148.232 230.152C148.58 229.996 148.967 229.918 149.393 229.918C149.814 229.918 150.188 229.984 150.512 230.117C150.836 230.246 151.107 230.428 151.326 230.662C151.545 230.896 151.711 231.176 151.824 231.5C151.938 231.824 151.994 232.18 151.994 232.566ZM150.541 232.361C150.545 232.127 150.516 231.924 150.453 231.752C150.391 231.576 150.305 231.432 150.195 231.318C150.09 231.205 149.965 231.121 149.82 231.066C149.68 231.012 149.527 230.984 149.363 230.984C149.004 230.984 148.709 231.105 148.479 231.348C148.248 231.586 148.111 231.924 148.068 232.361H150.541Z" fill="black"/>
<line x1="130" y1="219" x2="130" y2="187" stroke="black" stroke-width="2"/>
<line x1="477" y1="150" x2="477" y2="118" stroke="black" stroke-width="2"/>
<line x1="581" y1="149" x2="581" y2="117" stroke="black" stroke-width="2"/>
<line x1="477" y1="150" x2="477" y2="118" stroke="black" stroke-width="2"/>
<rect x="84.5" y="95.5" width="93" height="22" rx="2.5" fill="#FFFD54" stroke="black" stroke-width="3"/>
<path d="M126.084 110L125.662 108.488H122.99L122.557 110H121.127L123.395 102.342H125.41L127.678 110H126.084ZM124.344 103.748L123.336 107.311H125.34L124.344 103.748ZM133.871 106.918C133.871 107.465 133.793 107.938 133.637 108.336C133.484 108.734 133.27 109.066 132.992 109.332C132.719 109.594 132.395 109.789 132.02 109.918C131.645 110.043 131.236 110.105 130.795 110.105C130.646 110.105 130.498 110.096 130.35 110.076C130.201 110.057 130.066 110.031 129.945 110V112.326H128.516V104.047H129.752L129.787 104.926C129.908 104.773 130.033 104.635 130.162 104.51C130.295 104.385 130.438 104.279 130.59 104.193C130.742 104.104 130.906 104.035 131.082 103.988C131.258 103.941 131.455 103.918 131.674 103.918C132.025 103.918 132.338 103.988 132.611 104.129C132.885 104.27 133.113 104.471 133.297 104.732C133.484 104.99 133.627 105.305 133.725 105.676C133.822 106.043 133.871 106.457 133.871 106.918ZM132.371 106.977C132.371 106.648 132.348 106.369 132.301 106.139C132.254 105.908 132.186 105.719 132.096 105.57C132.01 105.422 131.902 105.314 131.773 105.248C131.648 105.178 131.504 105.143 131.34 105.143C131.098 105.143 130.865 105.24 130.643 105.436C130.424 105.631 130.191 105.896 129.945 106.232V108.834C130.059 108.877 130.197 108.912 130.361 108.939C130.529 108.967 130.699 108.98 130.871 108.98C131.098 108.98 131.303 108.934 131.486 108.84C131.674 108.746 131.832 108.613 131.961 108.441C132.094 108.27 132.195 108.061 132.266 107.814C132.336 107.564 132.371 107.285 132.371 106.977ZM140.469 106.918C140.469 107.465 140.391 107.938 140.234 108.336C140.082 108.734 139.867 109.066 139.59 109.332C139.316 109.594 138.992 109.789 138.617 109.918C138.242 110.043 137.834 110.105 137.393 110.105C137.244 110.105 137.096 110.096 136.947 110.076C136.799 110.057 136.664 110.031 136.543 110V112.326H135.113V104.047H136.35L136.385 104.926C136.506 104.773 136.631 104.635 136.76 104.51C136.893 104.385 137.035 104.279 137.188 104.193C137.34 104.104 137.504 104.035 137.68 103.988C137.855 103.941 138.053 103.918 138.271 103.918C138.623 103.918 138.936 103.988 139.209 104.129C139.482 104.27 139.711 104.471 139.895 104.732C140.082 104.99 140.225 105.305 140.322 105.676C140.42 106.043 140.469 106.457 140.469 106.918ZM138.969 106.977C138.969 106.648 138.945 106.369 138.898 106.139C138.852 105.908 138.783 105.719 138.693 105.57C138.607 105.422 138.5 105.314 138.371 105.248C138.246 105.178 138.102 105.143 137.938 105.143C137.695 105.143 137.463 105.24 137.24 105.436C137.021 105.631 136.789 105.896 136.543 106.232V108.834C136.656 108.877 136.795 108.912 136.959 108.939C137.127 108.967 137.297 108.98 137.469 108.98C137.695 108.98 137.9 108.934 138.084 108.84C138.271 108.746 138.43 108.613 138.559 108.441C138.691 108.27 138.793 108.061 138.863 107.814C138.934 107.564 138.969 107.285 138.969 106.977Z" fill="black"/>
<line x1="130" y1="151" x2="130" y2="119" stroke="black" stroke-width="2"/>
<line x1="130" y1="151" x2="130" y2="119" stroke="black" stroke-width="2"/>
<line x1="686" y1="150" x2="686" y2="118" stroke="black" stroke-width="2"/>
<path d="M327.121 170.121C328.293 168.95 328.293 167.05 327.121 165.879L308.029 146.787C306.858 145.615 304.958 145.615 303.787 146.787C302.615 147.958 302.615 149.858 303.787 151.029L320.757 168L303.787 184.971C302.615 186.142 302.615 188.042 303.787 189.213C304.958 190.385 306.858 190.385 308.029 189.213L327.121 170.121ZM248 171H325V165H248V171Z" fill="black"/>
<path d="M251.062 233.18C250.568 233.18 250.122 233.12 249.727 233C249.331 232.875 248.992 232.69 248.711 232.445C248.435 232.195 248.221 231.883 248.07 231.508C247.919 231.128 247.844 230.682 247.844 230.172C247.844 229.724 247.891 229.284 247.984 228.852C248.083 228.414 248.224 228 248.406 227.609C248.594 227.214 248.82 226.852 249.086 226.523C249.357 226.19 249.667 225.904 250.016 225.664C250.37 225.419 250.758 225.229 251.18 225.094C251.607 224.958 252.068 224.891 252.562 224.891C253.052 224.891 253.495 224.953 253.891 225.078C254.292 225.198 254.63 225.383 254.906 225.633C255.188 225.878 255.404 226.19 255.555 226.57C255.706 226.945 255.781 227.388 255.781 227.898C255.781 228.346 255.732 228.789 255.633 229.227C255.539 229.659 255.401 230.07 255.219 230.461C255.036 230.852 254.81 231.214 254.539 231.547C254.268 231.88 253.958 232.169 253.609 232.414C253.26 232.654 252.872 232.841 252.445 232.977C252.018 233.112 251.557 233.18 251.062 233.18ZM253.781 228.086C253.781 227.57 253.654 227.185 253.398 226.93C253.148 226.669 252.786 226.539 252.312 226.539C252.031 226.539 251.776 226.594 251.547 226.703C251.318 226.807 251.109 226.948 250.922 227.125C250.74 227.302 250.581 227.508 250.445 227.742C250.31 227.977 250.198 228.221 250.109 228.477C250.021 228.732 249.953 228.99 249.906 229.25C249.865 229.505 249.844 229.747 249.844 229.977C249.844 230.492 249.971 230.88 250.227 231.141C250.482 231.401 250.846 231.531 251.32 231.531C251.602 231.531 251.857 231.479 252.086 231.375C252.315 231.266 252.521 231.122 252.703 230.945C252.885 230.763 253.044 230.557 253.18 230.328C253.315 230.094 253.427 229.849 253.516 229.594C253.604 229.339 253.669 229.081 253.711 228.82C253.758 228.56 253.781 228.315 253.781 228.086ZM264.836 225.062C264.753 225.828 264.594 226.583 264.359 227.328C264.125 228.073 263.826 228.789 263.461 229.477C263.102 230.159 262.682 230.799 262.203 231.398C261.724 231.997 261.198 232.531 260.625 233H258.742L257.172 225.062H259.156L260.258 231.094C260.622 230.745 260.951 230.352 261.242 229.914C261.534 229.471 261.786 228.995 262 228.484C262.219 227.969 262.396 227.424 262.531 226.852C262.667 226.279 262.758 225.682 262.805 225.062H264.836ZM267.602 229.688C267.591 229.75 267.583 229.823 267.578 229.906C267.573 229.984 267.57 230.073 267.57 230.172C267.57 230.646 267.719 231.013 268.016 231.273C268.318 231.529 268.76 231.656 269.344 231.656C269.734 231.656 270.154 231.628 270.602 231.57C271.049 231.508 271.479 231.419 271.891 231.305V232.789C271.453 232.904 270.982 232.997 270.477 233.07C269.977 233.143 269.477 233.18 268.977 233.18C268.466 233.18 268.008 233.117 267.602 232.992C267.195 232.867 266.852 232.682 266.57 232.438C266.289 232.193 266.073 231.885 265.922 231.516C265.771 231.146 265.695 230.714 265.695 230.219C265.695 229.5 265.805 228.818 266.023 228.172C266.247 227.526 266.56 226.961 266.961 226.477C267.367 225.987 267.854 225.602 268.422 225.32C268.99 225.034 269.622 224.891 270.32 224.891C270.773 224.891 271.174 224.943 271.523 225.047C271.878 225.151 272.174 225.297 272.414 225.484C272.659 225.672 272.844 225.898 272.969 226.164C273.099 226.424 273.164 226.714 273.164 227.031C273.164 227.432 273.083 227.797 272.922 228.125C272.76 228.448 272.5 228.727 272.141 228.961C271.781 229.19 271.312 229.37 270.734 229.5C270.161 229.625 269.464 229.688 268.641 229.688H267.602ZM268.734 228.328C269.281 228.328 269.721 228.297 270.055 228.234C270.388 228.172 270.646 228.091 270.828 227.992C271.016 227.888 271.141 227.768 271.203 227.633C271.266 227.497 271.297 227.357 271.297 227.211C271.297 226.935 271.19 226.716 270.977 226.555C270.763 226.393 270.479 226.312 270.125 226.312C269.839 226.312 269.576 226.367 269.336 226.477C269.096 226.581 268.883 226.724 268.695 226.906C268.513 227.089 268.354 227.302 268.219 227.547C268.089 227.792 267.984 228.052 267.906 228.328H268.734ZM280.172 228.148C280.245 227.831 280.284 227.565 280.289 227.352C280.294 227.138 280.268 226.969 280.211 226.844C280.154 226.714 280.065 226.622 279.945 226.57C279.831 226.513 279.688 226.484 279.516 226.484C279.266 226.484 279.008 226.589 278.742 226.797C278.482 227 278.232 227.271 277.992 227.609C277.758 227.943 277.547 228.328 277.359 228.766C277.172 229.198 277.031 229.643 276.938 230.102L276.367 233H274.414L275.258 228.758C275.289 228.596 275.32 228.419 275.352 228.227C275.383 228.034 275.414 227.799 275.445 227.523C275.482 227.242 275.521 226.904 275.562 226.508C275.604 226.112 275.654 225.63 275.711 225.062H277.258L277.18 226.617C277.294 226.409 277.44 226.203 277.617 226C277.799 225.792 278.008 225.607 278.242 225.445C278.477 225.279 278.74 225.146 279.031 225.047C279.328 224.943 279.651 224.891 280 224.891C280.453 224.891 280.839 224.964 281.156 225.109C281.479 225.255 281.729 225.466 281.906 225.742C282.083 226.018 282.188 226.359 282.219 226.766C282.255 227.167 282.214 227.628 282.094 228.148H280.172ZM298.406 232.891C298.047 232.979 297.688 233.049 297.328 233.102C296.974 233.154 296.641 233.18 296.328 233.18C295.807 233.18 295.359 233.122 294.984 233.008C294.615 232.893 294.32 232.711 294.102 232.461C293.883 232.211 293.745 231.885 293.688 231.484C293.635 231.083 293.667 230.596 293.781 230.023L294.484 226.547H292.359L292.648 225.062H294.773L295.188 223.031L297.242 222.523L296.727 225.062H299.812L299.523 226.547H296.438L295.734 230.039C295.682 230.305 295.656 230.539 295.656 230.742C295.661 230.94 295.701 231.102 295.773 231.227C295.852 231.352 295.966 231.451 296.117 231.523C296.268 231.591 296.466 231.625 296.711 231.625C297.003 231.625 297.292 231.599 297.578 231.547C297.865 231.495 298.141 231.438 298.406 231.375V232.891ZM305.312 230.344C305.219 230.839 305.221 231.188 305.32 231.391C305.419 231.589 305.615 231.688 305.906 231.688C306.151 231.688 306.422 231.635 306.719 231.531C307.016 231.422 307.354 231.276 307.734 231.094V232.555C307.396 232.737 307.031 232.885 306.641 233C306.255 233.12 305.862 233.18 305.461 233.18C304.57 233.18 303.951 232.951 303.602 232.492C303.253 232.029 303.18 231.292 303.383 230.281L303.891 227.719C303.99 227.224 303.987 226.878 303.883 226.68C303.779 226.477 303.583 226.375 303.297 226.375C303.057 226.375 302.786 226.43 302.484 226.539C302.188 226.643 301.852 226.786 301.477 226.969V225.508C301.815 225.32 302.177 225.169 302.562 225.055C302.948 224.94 303.344 224.883 303.75 224.883C304.635 224.883 305.253 225.115 305.602 225.578C305.951 226.042 306.026 226.776 305.828 227.781L305.312 230.344ZM306.883 222.82C306.883 223.008 306.846 223.182 306.773 223.344C306.701 223.505 306.602 223.646 306.477 223.766C306.357 223.88 306.216 223.971 306.055 224.039C305.898 224.102 305.732 224.133 305.555 224.133C305.372 224.133 305.206 224.102 305.055 224.039C304.904 223.971 304.773 223.885 304.664 223.781C304.555 223.672 304.469 223.547 304.406 223.406C304.349 223.26 304.32 223.109 304.32 222.953C304.32 222.766 304.357 222.594 304.43 222.438C304.503 222.276 304.602 222.138 304.727 222.023C304.852 221.904 304.995 221.81 305.156 221.742C305.318 221.674 305.487 221.641 305.664 221.641C305.852 221.641 306.018 221.674 306.164 221.742C306.315 221.805 306.443 221.891 306.547 222C306.656 222.109 306.74 222.234 306.797 222.375C306.854 222.516 306.883 222.664 306.883 222.82ZM314.883 233L315.969 227.594C316.042 227.198 316.076 226.901 316.07 226.703C316.07 226.505 316 226.406 315.859 226.406C315.745 226.406 315.604 226.484 315.438 226.641C315.276 226.797 315.115 226.997 314.953 227.242C314.792 227.487 314.641 227.763 314.5 228.07C314.365 228.372 314.268 228.672 314.211 228.969L313.406 233H311.773L312.867 227.594C312.94 227.198 312.974 226.901 312.969 226.703C312.969 226.505 312.896 226.406 312.75 226.406C312.651 226.406 312.521 226.484 312.359 226.641C312.198 226.797 312.034 226.997 311.867 227.242C311.701 227.487 311.547 227.763 311.406 228.07C311.266 228.372 311.164 228.672 311.102 228.969L310.305 233H308.656L309.508 228.758C309.539 228.596 309.568 228.419 309.594 228.227C309.625 228.034 309.656 227.799 309.688 227.523C309.724 227.242 309.763 226.904 309.805 226.508C309.846 226.112 309.896 225.63 309.953 225.062H311.359L311.312 226.344L311.469 226.117C311.786 225.695 312.086 225.388 312.367 225.195C312.648 225.003 312.953 224.906 313.281 224.906C313.667 224.906 313.953 224.997 314.141 225.18C314.333 225.362 314.43 225.617 314.43 225.945C314.43 226.003 314.424 226.065 314.414 226.133C314.409 226.201 314.398 226.271 314.383 226.344C314.549 226.109 314.708 225.904 314.859 225.727C315.016 225.544 315.172 225.393 315.328 225.273C315.484 225.148 315.643 225.057 315.805 225C315.971 224.938 316.148 224.906 316.336 224.906C316.909 224.906 317.312 225.117 317.547 225.539C317.781 225.956 317.81 226.596 317.633 227.461L316.531 233H314.883ZM320.383 229.688C320.372 229.75 320.365 229.823 320.359 229.906C320.354 229.984 320.352 230.073 320.352 230.172C320.352 230.646 320.5 231.013 320.797 231.273C321.099 231.529 321.542 231.656 322.125 231.656C322.516 231.656 322.935 231.628 323.383 231.57C323.831 231.508 324.26 231.419 324.672 231.305V232.789C324.234 232.904 323.763 232.997 323.258 233.07C322.758 233.143 322.258 233.18 321.758 233.18C321.247 233.18 320.789 233.117 320.383 232.992C319.977 232.867 319.633 232.682 319.352 232.438C319.07 232.193 318.854 231.885 318.703 231.516C318.552 231.146 318.477 230.714 318.477 230.219C318.477 229.5 318.586 228.818 318.805 228.172C319.029 227.526 319.341 226.961 319.742 226.477C320.148 225.987 320.635 225.602 321.203 225.32C321.771 225.034 322.404 224.891 323.102 224.891C323.555 224.891 323.956 224.943 324.305 225.047C324.659 225.151 324.956 225.297 325.195 225.484C325.44 225.672 325.625 225.898 325.75 226.164C325.88 226.424 325.945 226.714 325.945 227.031C325.945 227.432 325.865 227.797 325.703 228.125C325.542 228.448 325.281 228.727 324.922 228.961C324.562 229.19 324.094 229.37 323.516 229.5C322.943 229.625 322.245 229.688 321.422 229.688H320.383ZM321.516 228.328C322.062 228.328 322.503 228.297 322.836 228.234C323.169 228.172 323.427 228.091 323.609 227.992C323.797 227.888 323.922 227.768 323.984 227.633C324.047 227.497 324.078 227.357 324.078 227.211C324.078 226.935 323.971 226.716 323.758 226.555C323.544 226.393 323.26 226.312 322.906 226.312C322.62 226.312 322.357 226.367 322.117 226.477C321.878 226.581 321.664 226.724 321.477 226.906C321.294 227.089 321.135 227.302 321 227.547C320.87 227.792 320.766 228.052 320.688 228.328H321.516Z" fill="black"/>
<path d="M228.25 213.18C227.479 213.18 226.893 212.94 226.492 212.461C226.096 211.982 225.898 211.302 225.898 210.422C225.898 209.625 226.005 208.891 226.219 208.219C226.432 207.542 226.742 206.961 227.148 206.477C227.555 205.987 228.052 205.607 228.641 205.336C229.234 205.06 229.906 204.922 230.656 204.922C231.057 204.922 231.414 204.951 231.727 205.008C232.044 205.06 232.32 205.122 232.555 205.195L233.914 204.906L233.039 209.305C233.008 209.471 232.977 209.651 232.945 209.844C232.914 210.031 232.88 210.266 232.844 210.547C232.812 210.823 232.776 211.159 232.734 211.555C232.693 211.951 232.646 212.432 232.594 213H231.039L231.102 211.562C230.982 211.745 230.831 211.932 230.648 212.125C230.466 212.312 230.253 212.484 230.008 212.641C229.768 212.797 229.5 212.924 229.203 213.023C228.911 213.128 228.594 213.18 228.25 213.18ZM231.68 206.586C231.513 206.529 231.341 206.484 231.164 206.453C230.992 206.422 230.807 206.406 230.609 206.406C230.24 206.406 229.914 206.474 229.633 206.609C229.357 206.74 229.117 206.914 228.914 207.133C228.711 207.346 228.542 207.591 228.406 207.867C228.276 208.143 228.172 208.424 228.094 208.711C228.016 208.997 227.961 209.281 227.93 209.562C227.898 209.839 227.883 210.083 227.883 210.297C227.883 210.714 227.953 211.031 228.094 211.25C228.24 211.469 228.458 211.578 228.75 211.578C228.99 211.578 229.245 211.482 229.516 211.289C229.786 211.096 230.044 210.849 230.289 210.547C230.534 210.245 230.747 209.909 230.93 209.539C231.117 209.169 231.245 208.807 231.312 208.453L231.68 206.586ZM239.453 204.922C239.734 204.922 239.982 204.935 240.195 204.961C240.409 204.987 240.604 205.016 240.781 205.047L241.406 201.961H243.305L241.836 209.305C241.805 209.471 241.773 209.651 241.742 209.844C241.711 210.031 241.677 210.266 241.641 210.547C241.609 210.823 241.573 211.159 241.531 211.555C241.49 211.951 241.443 212.432 241.391 213H239.836L239.898 211.562C239.779 211.745 239.628 211.932 239.445 212.125C239.263 212.312 239.049 212.484 238.805 212.641C238.565 212.797 238.297 212.924 238 213.023C237.708 213.128 237.391 213.18 237.047 213.18C236.276 213.18 235.69 212.94 235.289 212.461C234.893 211.982 234.695 211.302 234.695 210.422C234.695 209.625 234.802 208.891 235.016 208.219C235.229 207.542 235.539 206.961 235.945 206.477C236.352 205.987 236.849 205.607 237.438 205.336C238.031 205.06 238.703 204.922 239.453 204.922ZM236.68 210.297C236.68 210.714 236.75 211.031 236.891 211.25C237.036 211.469 237.255 211.578 237.547 211.578C237.786 211.578 238.042 211.482 238.312 211.289C238.583 211.096 238.841 210.849 239.086 210.547C239.331 210.245 239.544 209.909 239.727 209.539C239.914 209.169 240.042 208.807 240.109 208.453L240.477 206.586C240.362 206.544 240.211 206.505 240.023 206.469C239.836 206.427 239.63 206.406 239.406 206.406C239.036 206.406 238.711 206.474 238.43 206.609C238.154 206.74 237.914 206.914 237.711 207.133C237.508 207.346 237.339 207.591 237.203 207.867C237.073 208.143 236.969 208.424 236.891 208.711C236.812 208.997 236.758 209.281 236.727 209.562C236.695 209.839 236.68 210.083 236.68 210.297ZM248.25 204.922C248.531 204.922 248.779 204.935 248.992 204.961C249.206 204.987 249.401 205.016 249.578 205.047L250.203 201.961H252.102L250.633 209.305C250.602 209.471 250.57 209.651 250.539 209.844C250.508 210.031 250.474 210.266 250.438 210.547C250.406 210.823 250.37 211.159 250.328 211.555C250.286 211.951 250.24 212.432 250.188 213H248.633L248.695 211.562C248.576 211.745 248.424 211.932 248.242 212.125C248.06 212.312 247.846 212.484 247.602 212.641C247.362 212.797 247.094 212.924 246.797 213.023C246.505 213.128 246.188 213.18 245.844 213.18C245.073 213.18 244.487 212.94 244.086 212.461C243.69 211.982 243.492 211.302 243.492 210.422C243.492 209.625 243.599 208.891 243.812 208.219C244.026 207.542 244.336 206.961 244.742 206.477C245.148 205.987 245.646 205.607 246.234 205.336C246.828 205.06 247.5 204.922 248.25 204.922ZM245.477 210.297C245.477 210.714 245.547 211.031 245.688 211.25C245.833 211.469 246.052 211.578 246.344 211.578C246.583 211.578 246.839 211.482 247.109 211.289C247.38 211.096 247.638 210.849 247.883 210.547C248.128 210.245 248.341 209.909 248.523 209.539C248.711 209.169 248.839 208.807 248.906 208.453L249.273 206.586C249.159 206.544 249.008 206.505 248.82 206.469C248.633 206.427 248.427 206.406 248.203 206.406C247.833 206.406 247.508 206.474 247.227 206.609C246.951 206.74 246.711 206.914 246.508 207.133C246.305 207.346 246.135 207.591 246 207.867C245.87 208.143 245.766 208.424 245.688 208.711C245.609 208.997 245.555 209.281 245.523 209.562C245.492 209.839 245.477 210.083 245.477 210.297ZM254.406 209.688C254.396 209.75 254.388 209.823 254.383 209.906C254.378 209.984 254.375 210.073 254.375 210.172C254.375 210.646 254.523 211.013 254.82 211.273C255.122 211.529 255.565 211.656 256.148 211.656C256.539 211.656 256.958 211.628 257.406 211.57C257.854 211.508 258.284 211.419 258.695 211.305V212.789C258.258 212.904 257.786 212.997 257.281 213.07C256.781 213.143 256.281 213.18 255.781 213.18C255.271 213.18 254.812 213.117 254.406 212.992C254 212.867 253.656 212.682 253.375 212.438C253.094 212.193 252.878 211.885 252.727 211.516C252.576 211.146 252.5 210.714 252.5 210.219C252.5 209.5 252.609 208.818 252.828 208.172C253.052 207.526 253.365 206.961 253.766 206.477C254.172 205.987 254.659 205.602 255.227 205.32C255.794 205.034 256.427 204.891 257.125 204.891C257.578 204.891 257.979 204.943 258.328 205.047C258.682 205.151 258.979 205.297 259.219 205.484C259.464 205.672 259.648 205.898 259.773 206.164C259.904 206.424 259.969 206.714 259.969 207.031C259.969 207.432 259.888 207.797 259.727 208.125C259.565 208.448 259.305 208.727 258.945 208.961C258.586 209.19 258.117 209.37 257.539 209.5C256.966 209.625 256.268 209.688 255.445 209.688H254.406ZM255.539 208.328C256.086 208.328 256.526 208.297 256.859 208.234C257.193 208.172 257.451 208.091 257.633 207.992C257.82 207.888 257.945 207.768 258.008 207.633C258.07 207.497 258.102 207.357 258.102 207.211C258.102 206.935 257.995 206.716 257.781 206.555C257.568 206.393 257.284 206.312 256.93 206.312C256.643 206.312 256.38 206.367 256.141 206.477C255.901 206.581 255.688 206.724 255.5 206.906C255.318 207.089 255.159 207.302 255.023 207.547C254.893 207.792 254.789 208.052 254.711 208.328H255.539ZM265.844 204.922C266.125 204.922 266.372 204.935 266.586 204.961C266.799 204.987 266.995 205.016 267.172 205.047L267.797 201.961H269.695L268.227 209.305C268.195 209.471 268.164 209.651 268.133 209.844C268.102 210.031 268.068 210.266 268.031 210.547C268 210.823 267.964 211.159 267.922 211.555C267.88 211.951 267.833 212.432 267.781 213H266.227L266.289 211.562C266.169 211.745 266.018 211.932 265.836 212.125C265.654 212.312 265.44 212.484 265.195 212.641C264.956 212.797 264.688 212.924 264.391 213.023C264.099 213.128 263.781 213.18 263.438 213.18C262.667 213.18 262.081 212.94 261.68 212.461C261.284 211.982 261.086 211.302 261.086 210.422C261.086 209.625 261.193 208.891 261.406 208.219C261.62 207.542 261.93 206.961 262.336 206.477C262.742 205.987 263.24 205.607 263.828 205.336C264.422 205.06 265.094 204.922 265.844 204.922ZM263.07 210.297C263.07 210.714 263.141 211.031 263.281 211.25C263.427 211.469 263.646 211.578 263.938 211.578C264.177 211.578 264.432 211.482 264.703 211.289C264.974 211.096 265.232 210.849 265.477 210.547C265.721 210.245 265.935 209.909 266.117 209.539C266.305 209.169 266.432 208.807 266.5 208.453L266.867 206.586C266.753 206.544 266.602 206.505 266.414 206.469C266.227 206.427 266.021 206.406 265.797 206.406C265.427 206.406 265.102 206.474 264.82 206.609C264.544 206.74 264.305 206.914 264.102 207.133C263.898 207.346 263.729 207.591 263.594 207.867C263.464 208.143 263.359 208.424 263.281 208.711C263.203 208.997 263.148 209.281 263.117 209.562C263.086 209.839 263.07 210.083 263.07 210.297ZM278.812 211.156C279.344 211.344 279.852 211.484 280.336 211.578C280.82 211.672 281.271 211.719 281.688 211.719C282.297 211.719 282.74 211.622 283.016 211.43C283.297 211.237 283.438 210.992 283.438 210.695C283.438 210.591 283.417 210.497 283.375 210.414C283.333 210.326 283.258 210.242 283.148 210.164C283.039 210.086 282.888 210.008 282.695 209.93C282.508 209.852 282.263 209.766 281.961 209.672C281.232 209.448 280.685 209.146 280.32 208.766C279.956 208.385 279.773 207.904 279.773 207.32C279.773 206.987 279.857 206.674 280.023 206.383C280.19 206.086 280.432 205.828 280.75 205.609C281.073 205.385 281.471 205.211 281.945 205.086C282.419 204.956 282.964 204.891 283.578 204.891C284.099 204.891 284.544 204.914 284.914 204.961C285.284 205.003 285.607 205.052 285.883 205.109V206.664C285.378 206.513 284.932 206.414 284.547 206.367C284.161 206.32 283.812 206.297 283.5 206.297C283.177 206.297 282.906 206.326 282.688 206.383C282.469 206.435 282.294 206.51 282.164 206.609C282.034 206.708 281.94 206.812 281.883 206.922C281.831 207.026 281.805 207.128 281.805 207.227C281.805 207.346 281.828 207.453 281.875 207.547C281.922 207.641 282.005 207.729 282.125 207.812C282.245 207.896 282.406 207.979 282.609 208.062C282.812 208.146 283.068 208.234 283.375 208.328C284.083 208.552 284.615 208.839 284.969 209.188C285.323 209.536 285.5 209.969 285.5 210.484C285.5 210.948 285.401 211.349 285.203 211.688C285.005 212.021 284.734 212.299 284.391 212.523C284.047 212.747 283.643 212.911 283.18 213.016C282.716 213.125 282.219 213.18 281.688 213.18C281.089 213.18 280.552 213.151 280.078 213.094C279.609 213.042 279.188 212.969 278.812 212.875V211.156ZM289.594 209.688C289.583 209.75 289.576 209.823 289.57 209.906C289.565 209.984 289.562 210.073 289.562 210.172C289.562 210.646 289.711 211.013 290.008 211.273C290.31 211.529 290.753 211.656 291.336 211.656C291.727 211.656 292.146 211.628 292.594 211.57C293.042 211.508 293.471 211.419 293.883 211.305V212.789C293.445 212.904 292.974 212.997 292.469 213.07C291.969 213.143 291.469 213.18 290.969 213.18C290.458 213.18 290 213.117 289.594 212.992C289.188 212.867 288.844 212.682 288.562 212.438C288.281 212.193 288.065 211.885 287.914 211.516C287.763 211.146 287.688 210.714 287.688 210.219C287.688 209.5 287.797 208.818 288.016 208.172C288.24 207.526 288.552 206.961 288.953 206.477C289.359 205.987 289.846 205.602 290.414 205.32C290.982 205.034 291.615 204.891 292.312 204.891C292.766 204.891 293.167 204.943 293.516 205.047C293.87 205.151 294.167 205.297 294.406 205.484C294.651 205.672 294.836 205.898 294.961 206.164C295.091 206.424 295.156 206.714 295.156 207.031C295.156 207.432 295.076 207.797 294.914 208.125C294.753 208.448 294.492 208.727 294.133 208.961C293.773 209.19 293.305 209.37 292.727 209.5C292.154 209.625 291.456 209.688 290.633 209.688H289.594ZM290.727 208.328C291.273 208.328 291.714 208.297 292.047 208.234C292.38 208.172 292.638 208.091 292.82 207.992C293.008 207.888 293.133 207.768 293.195 207.633C293.258 207.497 293.289 207.357 293.289 207.211C293.289 206.935 293.182 206.716 292.969 206.555C292.755 206.393 292.471 206.312 292.117 206.312C291.831 206.312 291.568 206.367 291.328 206.477C291.089 206.581 290.875 206.724 290.688 206.906C290.505 207.089 290.346 207.302 290.211 207.547C290.081 207.792 289.977 208.052 289.898 208.328H290.727ZM302.164 208.148C302.237 207.831 302.276 207.565 302.281 207.352C302.286 207.138 302.26 206.969 302.203 206.844C302.146 206.714 302.057 206.622 301.938 206.57C301.823 206.513 301.68 206.484 301.508 206.484C301.258 206.484 301 206.589 300.734 206.797C300.474 207 300.224 207.271 299.984 207.609C299.75 207.943 299.539 208.328 299.352 208.766C299.164 209.198 299.023 209.643 298.93 210.102L298.359 213H296.406L297.25 208.758C297.281 208.596 297.312 208.419 297.344 208.227C297.375 208.034 297.406 207.799 297.438 207.523C297.474 207.242 297.513 206.904 297.555 206.508C297.596 206.112 297.646 205.63 297.703 205.062H299.25L299.172 206.617C299.286 206.409 299.432 206.203 299.609 206C299.792 205.792 300 205.607 300.234 205.445C300.469 205.279 300.732 205.146 301.023 205.047C301.32 204.943 301.643 204.891 301.992 204.891C302.445 204.891 302.831 204.964 303.148 205.109C303.471 205.255 303.721 205.466 303.898 205.742C304.076 206.018 304.18 206.359 304.211 206.766C304.247 207.167 304.206 207.628 304.086 208.148H302.164ZM313.219 205.062C313.135 205.828 312.977 206.583 312.742 207.328C312.508 208.073 312.208 208.789 311.844 209.477C311.484 210.159 311.065 210.799 310.586 211.398C310.107 211.997 309.581 212.531 309.008 213H307.125L305.555 205.062H307.539L308.641 211.094C309.005 210.745 309.333 210.352 309.625 209.914C309.917 209.471 310.169 208.995 310.383 208.484C310.602 207.969 310.779 207.424 310.914 206.852C311.049 206.279 311.141 205.682 311.188 205.062H313.219ZM318.508 210.344C318.414 210.839 318.417 211.188 318.516 211.391C318.615 211.589 318.81 211.688 319.102 211.688C319.346 211.688 319.617 211.635 319.914 211.531C320.211 211.422 320.549 211.276 320.93 211.094V212.555C320.591 212.737 320.227 212.885 319.836 213C319.451 213.12 319.057 213.18 318.656 213.18C317.766 213.18 317.146 212.951 316.797 212.492C316.448 212.029 316.375 211.292 316.578 210.281L317.086 207.719C317.185 207.224 317.182 206.878 317.078 206.68C316.974 206.477 316.779 206.375 316.492 206.375C316.253 206.375 315.982 206.43 315.68 206.539C315.383 206.643 315.047 206.786 314.672 206.969V205.508C315.01 205.32 315.372 205.169 315.758 205.055C316.143 204.94 316.539 204.883 316.945 204.883C317.831 204.883 318.448 205.115 318.797 205.578C319.146 206.042 319.221 206.776 319.023 207.781L318.508 210.344ZM320.078 202.82C320.078 203.008 320.042 203.182 319.969 203.344C319.896 203.505 319.797 203.646 319.672 203.766C319.552 203.88 319.411 203.971 319.25 204.039C319.094 204.102 318.927 204.133 318.75 204.133C318.568 204.133 318.401 204.102 318.25 204.039C318.099 203.971 317.969 203.885 317.859 203.781C317.75 203.672 317.664 203.547 317.602 203.406C317.544 203.26 317.516 203.109 317.516 202.953C317.516 202.766 317.552 202.594 317.625 202.438C317.698 202.276 317.797 202.138 317.922 202.023C318.047 201.904 318.19 201.81 318.352 201.742C318.513 201.674 318.682 201.641 318.859 201.641C319.047 201.641 319.214 201.674 319.359 201.742C319.51 201.805 319.638 201.891 319.742 202C319.852 202.109 319.935 202.234 319.992 202.375C320.049 202.516 320.078 202.664 320.078 202.82ZM329.117 212.648C328.914 212.727 328.701 212.797 328.477 212.859C328.258 212.922 328.039 212.974 327.82 213.016C327.602 213.057 327.391 213.089 327.188 213.109C326.984 213.13 326.799 213.141 326.633 213.141C325.482 213.141 324.607 212.883 324.008 212.367C323.414 211.852 323.117 211.091 323.117 210.086C323.117 209.669 323.161 209.253 323.25 208.836C323.344 208.419 323.479 208.021 323.656 207.641C323.839 207.255 324.068 206.898 324.344 206.57C324.62 206.242 324.94 205.958 325.305 205.719C325.674 205.474 326.089 205.284 326.547 205.148C327.01 205.008 327.521 204.938 328.078 204.938C328.562 204.938 329 204.971 329.391 205.039C329.781 205.107 330.117 205.185 330.398 205.273L330.047 207.062C329.755 206.917 329.427 206.799 329.062 206.711C328.698 206.617 328.346 206.57 328.008 206.57C327.643 206.57 327.32 206.625 327.039 206.734C326.763 206.839 326.518 206.979 326.305 207.156C326.096 207.333 325.919 207.536 325.773 207.766C325.633 207.995 325.518 208.232 325.43 208.477C325.341 208.721 325.276 208.966 325.234 209.211C325.198 209.451 325.18 209.669 325.18 209.867C325.18 210.398 325.336 210.799 325.648 211.07C325.961 211.341 326.401 211.477 326.969 211.477C327.333 211.477 327.698 211.435 328.062 211.352C328.427 211.263 328.779 211.151 329.117 211.016V212.648ZM333.578 209.688C333.568 209.75 333.56 209.823 333.555 209.906C333.549 209.984 333.547 210.073 333.547 210.172C333.547 210.646 333.695 211.013 333.992 211.273C334.294 211.529 334.737 211.656 335.32 211.656C335.711 211.656 336.13 211.628 336.578 211.57C337.026 211.508 337.456 211.419 337.867 211.305V212.789C337.43 212.904 336.958 212.997 336.453 213.07C335.953 213.143 335.453 213.18 334.953 213.18C334.443 213.18 333.984 213.117 333.578 212.992C333.172 212.867 332.828 212.682 332.547 212.438C332.266 212.193 332.049 211.885 331.898 211.516C331.747 211.146 331.672 210.714 331.672 210.219C331.672 209.5 331.781 208.818 332 208.172C332.224 207.526 332.536 206.961 332.938 206.477C333.344 205.987 333.831 205.602 334.398 205.32C334.966 205.034 335.599 204.891 336.297 204.891C336.75 204.891 337.151 204.943 337.5 205.047C337.854 205.151 338.151 205.297 338.391 205.484C338.635 205.672 338.82 205.898 338.945 206.164C339.076 206.424 339.141 206.714 339.141 207.031C339.141 207.432 339.06 207.797 338.898 208.125C338.737 208.448 338.477 208.727 338.117 208.961C337.758 209.19 337.289 209.37 336.711 209.5C336.138 209.625 335.44 209.688 334.617 209.688H333.578ZM334.711 208.328C335.258 208.328 335.698 208.297 336.031 208.234C336.365 208.172 336.622 208.091 336.805 207.992C336.992 207.888 337.117 207.768 337.18 207.633C337.242 207.497 337.273 207.357 337.273 207.211C337.273 206.935 337.167 206.716 336.953 206.555C336.74 206.393 336.456 206.312 336.102 206.312C335.815 206.312 335.552 206.367 335.312 206.477C335.073 206.581 334.859 206.724 334.672 206.906C334.49 207.089 334.331 207.302 334.195 207.547C334.065 207.792 333.961 208.052 333.883 208.328H334.711ZM340.391 211.156C340.922 211.344 341.43 211.484 341.914 211.578C342.398 211.672 342.849 211.719 343.266 211.719C343.875 211.719 344.318 211.622 344.594 211.43C344.875 211.237 345.016 210.992 345.016 210.695C345.016 210.591 344.995 210.497 344.953 210.414C344.911 210.326 344.836 210.242 344.727 210.164C344.617 210.086 344.466 210.008 344.273 209.93C344.086 209.852 343.841 209.766 343.539 209.672C342.81 209.448 342.263 209.146 341.898 208.766C341.534 208.385 341.352 207.904 341.352 207.32C341.352 206.987 341.435 206.674 341.602 206.383C341.768 206.086 342.01 205.828 342.328 205.609C342.651 205.385 343.049 205.211 343.523 205.086C343.997 204.956 344.542 204.891 345.156 204.891C345.677 204.891 346.122 204.914 346.492 204.961C346.862 205.003 347.185 205.052 347.461 205.109V206.664C346.956 206.513 346.51 206.414 346.125 206.367C345.74 206.32 345.391 206.297 345.078 206.297C344.755 206.297 344.484 206.326 344.266 206.383C344.047 206.435 343.872 206.51 343.742 206.609C343.612 206.708 343.518 206.812 343.461 206.922C343.409 207.026 343.383 207.128 343.383 207.227C343.383 207.346 343.406 207.453 343.453 207.547C343.5 207.641 343.583 207.729 343.703 207.812C343.823 207.896 343.984 207.979 344.188 208.062C344.391 208.146 344.646 208.234 344.953 208.328C345.661 208.552 346.193 208.839 346.547 209.188C346.901 209.536 347.078 209.969 347.078 210.484C347.078 210.948 346.979 211.349 346.781 211.688C346.583 212.021 346.312 212.299 345.969 212.523C345.625 212.747 345.221 212.911 344.758 213.016C344.294 213.125 343.797 213.18 343.266 213.18C342.667 213.18 342.13 213.151 341.656 213.094C341.188 213.042 340.766 212.969 340.391 212.875V211.156Z" fill="black"/>
</svg>
