<svg width="509" height="580" viewBox="0 0 509 580" fill="none" xmlns="http://www.w3.org/2000/svg">
<rect width="509" height="580" fill="white"/>
<rect x="191.5" y="141.5" width="123" height="135" rx="2.5" fill="#7DE77B" fill-opacity="0.41" stroke="black" stroke-width="3" stroke-dasharray="10 10"/>
<path d="M228.299 220.074C228.299 220.668 228.225 221.207 228.076 221.691C227.932 222.176 227.703 222.59 227.391 222.934C227.082 223.273 226.686 223.537 226.201 223.725C225.717 223.908 225.137 224 224.461 224H222.516V216.342H224.783C225.369 216.342 225.881 216.416 226.318 216.564C226.76 216.709 227.127 216.934 227.42 217.238C227.713 217.543 227.932 217.93 228.076 218.398C228.225 218.867 228.299 219.426 228.299 220.074ZM226.752 220.168C226.752 219.754 226.719 219.385 226.652 219.061C226.586 218.736 226.473 218.463 226.312 218.24C226.156 218.014 225.945 217.842 225.68 217.725C225.414 217.607 225.084 217.549 224.689 217.549H223.957V222.793H224.59C225.297 222.793 225.834 222.582 226.201 222.16C226.568 221.738 226.752 221.074 226.752 220.168ZM233.156 224L233.121 223.221C232.996 223.354 232.865 223.477 232.729 223.59C232.592 223.699 232.441 223.795 232.277 223.877C232.113 223.959 231.934 224.021 231.738 224.064C231.547 224.111 231.336 224.135 231.105 224.135C230.801 224.135 230.533 224.09 230.303 224C230.072 223.91 229.879 223.785 229.723 223.625C229.566 223.465 229.447 223.271 229.365 223.045C229.287 222.818 229.248 222.568 229.248 222.295C229.248 222.014 229.307 221.754 229.424 221.516C229.545 221.277 229.727 221.072 229.969 220.9C230.215 220.729 230.52 220.594 230.883 220.496C231.25 220.398 231.68 220.35 232.172 220.35H232.951V219.992C232.951 219.84 232.93 219.703 232.887 219.582C232.844 219.457 232.773 219.352 232.676 219.266C232.582 219.18 232.459 219.113 232.307 219.066C232.154 219.02 231.967 218.996 231.744 218.996C231.393 218.996 231.045 219.037 230.701 219.119C230.361 219.197 230.031 219.309 229.711 219.453V218.311C229.996 218.197 230.324 218.104 230.695 218.029C231.07 217.955 231.459 217.918 231.861 217.918C232.303 217.918 232.682 217.961 232.998 218.047C233.314 218.129 233.574 218.254 233.777 218.422C233.984 218.59 234.137 218.801 234.234 219.055C234.332 219.305 234.381 219.598 234.381 219.934V224H233.156ZM232.951 221.369H232.078C231.836 221.369 231.631 221.393 231.463 221.439C231.295 221.486 231.158 221.551 231.053 221.633C230.947 221.715 230.869 221.811 230.818 221.92C230.771 222.025 230.748 222.139 230.748 222.26C230.748 222.502 230.826 222.688 230.982 222.816C231.139 222.941 231.352 223.004 231.621 223.004C231.82 223.004 232.027 222.932 232.242 222.787C232.457 222.643 232.693 222.436 232.951 222.166V221.369ZM240.932 223.941C240.674 224 240.414 224.047 240.152 224.082C239.891 224.117 239.643 224.135 239.408 224.135C239.018 224.135 238.68 224.094 238.395 224.012C238.113 223.93 237.879 223.805 237.691 223.637C237.508 223.469 237.371 223.256 237.281 222.998C237.195 222.736 237.152 222.426 237.152 222.066V219.16H235.553V218.047H237.152V216.523L238.617 216.143V218.047H240.932V219.16H238.617V221.961C238.617 222.301 238.695 222.559 238.852 222.734C239.008 222.906 239.27 222.992 239.637 222.992C239.871 222.992 240.1 222.973 240.322 222.934C240.545 222.895 240.748 222.85 240.932 222.799V223.941ZM246.352 224L246.316 223.221C246.191 223.354 246.061 223.477 245.924 223.59C245.787 223.699 245.637 223.795 245.473 223.877C245.309 223.959 245.129 224.021 244.934 224.064C244.742 224.111 244.531 224.135 244.301 224.135C243.996 224.135 243.729 224.09 243.498 224C243.268 223.91 243.074 223.785 242.918 223.625C242.762 223.465 242.643 223.271 242.561 223.045C242.482 222.818 242.443 222.568 242.443 222.295C242.443 222.014 242.502 221.754 242.619 221.516C242.74 221.277 242.922 221.072 243.164 220.9C243.41 220.729 243.715 220.594 244.078 220.496C244.445 220.398 244.875 220.35 245.367 220.35H246.146V219.992C246.146 219.84 246.125 219.703 246.082 219.582C246.039 219.457 245.969 219.352 245.871 219.266C245.777 219.18 245.654 219.113 245.502 219.066C245.35 219.02 245.162 218.996 244.939 218.996C244.588 218.996 244.24 219.037 243.896 219.119C243.557 219.197 243.227 219.309 242.906 219.453V218.311C243.191 218.197 243.52 218.104 243.891 218.029C244.266 217.955 244.654 217.918 245.057 217.918C245.498 217.918 245.877 217.961 246.193 218.047C246.51 218.129 246.77 218.254 246.973 218.422C247.18 218.59 247.332 218.801 247.43 219.055C247.527 219.305 247.576 219.598 247.576 219.934V224H246.352ZM246.146 221.369H245.273C245.031 221.369 244.826 221.393 244.658 221.439C244.49 221.486 244.354 221.551 244.248 221.633C244.143 221.715 244.064 221.811 244.014 221.92C243.967 222.025 243.943 222.139 243.943 222.26C243.943 222.502 244.021 222.688 244.178 222.816C244.334 222.941 244.547 223.004 244.816 223.004C245.016 223.004 245.223 222.932 245.438 222.787C245.652 222.643 245.889 222.436 246.146 222.166V221.369ZM258.334 220.76V219.57H261.059V223.654C260.707 223.818 260.34 223.939 259.957 224.018C259.574 224.096 259.158 224.135 258.709 224.135C258.178 224.135 257.699 224.053 257.273 223.889C256.852 223.725 256.492 223.48 256.195 223.156C255.898 222.832 255.67 222.43 255.51 221.949C255.354 221.469 255.275 220.912 255.275 220.279C255.275 219.643 255.357 219.072 255.521 218.568C255.689 218.064 255.932 217.639 256.248 217.291C256.568 216.939 256.959 216.672 257.42 216.488C257.885 216.305 258.414 216.213 259.008 216.213C259.359 216.213 259.701 216.244 260.033 216.307C260.369 216.365 260.703 216.445 261.035 216.547V217.971C260.746 217.834 260.426 217.723 260.074 217.637C259.727 217.547 259.375 217.502 259.02 217.502C258.66 217.502 258.342 217.564 258.064 217.689C257.791 217.814 257.561 217.992 257.373 218.223C257.189 218.453 257.049 218.736 256.951 219.072C256.857 219.408 256.811 219.787 256.811 220.209C256.811 220.615 256.848 220.982 256.922 221.311C256.996 221.635 257.115 221.912 257.279 222.143C257.447 222.369 257.662 222.543 257.924 222.664C258.186 222.785 258.504 222.846 258.879 222.846C258.969 222.846 259.047 222.844 259.113 222.84C259.18 222.832 259.242 222.822 259.301 222.811C259.359 222.799 259.414 222.785 259.465 222.77C259.52 222.754 259.576 222.736 259.635 222.717V220.76H258.334ZM266.244 220.361C266.252 220.139 266.24 219.949 266.209 219.793C266.182 219.637 266.135 219.508 266.068 219.406C266.006 219.305 265.928 219.23 265.834 219.184C265.74 219.137 265.633 219.113 265.512 219.113C265.301 219.113 265.082 219.201 264.855 219.377C264.633 219.549 264.387 219.834 264.117 220.232V224H262.652V218.047H263.947L264 218.914C264.098 218.762 264.207 218.625 264.328 218.504C264.453 218.383 264.59 218.279 264.738 218.193C264.891 218.104 265.059 218.035 265.242 217.988C265.426 217.941 265.627 217.918 265.846 217.918C266.146 217.918 266.412 217.971 266.643 218.076C266.877 218.178 267.072 218.33 267.229 218.533C267.389 218.736 267.506 218.992 267.58 219.301C267.658 219.605 267.691 219.959 267.68 220.361H266.244ZM272.742 224L272.707 223.221C272.582 223.354 272.451 223.477 272.314 223.59C272.178 223.699 272.027 223.795 271.863 223.877C271.699 223.959 271.52 224.021 271.324 224.064C271.133 224.111 270.922 224.135 270.691 224.135C270.387 224.135 270.119 224.09 269.889 224C269.658 223.91 269.465 223.785 269.309 223.625C269.152 223.465 269.033 223.271 268.951 223.045C268.873 222.818 268.834 222.568 268.834 222.295C268.834 222.014 268.893 221.754 269.01 221.516C269.131 221.277 269.312 221.072 269.555 220.9C269.801 220.729 270.105 220.594 270.469 220.496C270.836 220.398 271.266 220.35 271.758 220.35H272.537V219.992C272.537 219.84 272.516 219.703 272.473 219.582C272.43 219.457 272.359 219.352 272.262 219.266C272.168 219.18 272.045 219.113 271.893 219.066C271.74 219.02 271.553 218.996 271.33 218.996C270.979 218.996 270.631 219.037 270.287 219.119C269.947 219.197 269.617 219.309 269.297 219.453V218.311C269.582 218.197 269.91 218.104 270.281 218.029C270.656 217.955 271.045 217.918 271.447 217.918C271.889 217.918 272.268 217.961 272.584 218.047C272.9 218.129 273.16 218.254 273.363 218.422C273.57 218.59 273.723 218.801 273.82 219.055C273.918 219.305 273.967 219.598 273.967 219.934V224H272.742ZM272.537 221.369H271.664C271.422 221.369 271.217 221.393 271.049 221.439C270.881 221.486 270.744 221.551 270.639 221.633C270.533 221.715 270.455 221.811 270.404 221.92C270.357 222.025 270.334 222.139 270.334 222.26C270.334 222.502 270.412 222.688 270.568 222.816C270.725 222.941 270.938 223.004 271.207 223.004C271.406 223.004 271.613 222.932 271.828 222.787C272.043 222.643 272.279 222.436 272.537 222.166V221.369ZM280.963 220.918C280.963 221.465 280.885 221.938 280.729 222.336C280.576 222.734 280.361 223.066 280.084 223.332C279.811 223.594 279.486 223.789 279.111 223.918C278.736 224.043 278.328 224.105 277.887 224.105C277.738 224.105 277.59 224.096 277.441 224.076C277.293 224.057 277.158 224.031 277.037 224V226.326H275.607V218.047H276.844L276.879 218.926C277 218.773 277.125 218.635 277.254 218.51C277.387 218.385 277.529 218.279 277.682 218.193C277.834 218.104 277.998 218.035 278.174 217.988C278.35 217.941 278.547 217.918 278.766 217.918C279.117 217.918 279.43 217.988 279.703 218.129C279.977 218.27 280.205 218.471 280.389 218.732C280.576 218.99 280.719 219.305 280.816 219.676C280.914 220.043 280.963 220.457 280.963 220.918ZM279.463 220.977C279.463 220.648 279.439 220.369 279.393 220.139C279.346 219.908 279.277 219.719 279.188 219.57C279.102 219.422 278.994 219.314 278.865 219.248C278.74 219.178 278.596 219.143 278.432 219.143C278.189 219.143 277.957 219.24 277.734 219.436C277.516 219.631 277.283 219.896 277.037 220.232V222.834C277.15 222.877 277.289 222.912 277.453 222.939C277.621 222.967 277.791 222.98 277.963 222.98C278.189 222.98 278.395 222.934 278.578 222.84C278.766 222.746 278.924 222.613 279.053 222.441C279.186 222.27 279.287 222.061 279.357 221.814C279.428 221.564 279.463 221.285 279.463 220.977ZM285.756 224V220.121C285.756 219.469 285.514 219.143 285.029 219.143C284.787 219.143 284.555 219.24 284.332 219.436C284.113 219.631 283.881 219.896 283.635 220.232V224H282.205V215.721H283.635V217.76L283.564 218.838C283.686 218.693 283.809 218.564 283.934 218.451C284.059 218.334 284.193 218.236 284.338 218.158C284.482 218.08 284.639 218.021 284.807 217.982C284.975 217.939 285.16 217.918 285.363 217.918C285.668 217.918 285.934 217.969 286.16 218.07C286.387 218.168 286.576 218.309 286.729 218.492C286.881 218.672 286.994 218.891 287.068 219.148C287.146 219.402 287.186 219.688 287.186 220.004V224H285.756Z" fill="black"/>
<rect x="179.5" y="288.5" width="150" height="138" rx="2.5" fill="#FFFD54" stroke="black" stroke-width="3"/>
<path d="M236.385 408.686C236.385 409.104 236.307 409.467 236.15 409.775C235.998 410.084 235.783 410.34 235.506 410.543C235.229 410.742 234.898 410.891 234.516 410.988C234.133 411.086 233.715 411.135 233.262 411.135C232.859 411.135 232.471 411.111 232.096 411.064C231.721 411.018 231.35 410.939 230.982 410.83V409.406C231.162 409.469 231.35 409.527 231.545 409.582C231.74 409.637 231.936 409.686 232.131 409.729C232.33 409.768 232.527 409.799 232.723 409.822C232.918 409.846 233.107 409.857 233.291 409.857C233.564 409.857 233.797 409.834 233.988 409.787C234.18 409.74 234.336 409.676 234.457 409.594C234.578 409.512 234.666 409.414 234.721 409.301C234.775 409.188 234.803 409.062 234.803 408.926C234.803 408.738 234.748 408.582 234.639 408.457C234.533 408.328 234.393 408.215 234.217 408.117C234.041 408.02 233.84 407.932 233.613 407.854C233.391 407.775 233.162 407.691 232.928 407.602C232.697 407.512 232.469 407.41 232.242 407.297C232.02 407.184 231.82 407.043 231.645 406.875C231.469 406.707 231.326 406.508 231.217 406.277C231.111 406.043 231.059 405.762 231.059 405.434C231.059 405.133 231.113 404.848 231.223 404.578C231.332 404.309 231.504 404.074 231.738 403.875C231.973 403.672 232.273 403.512 232.641 403.395C233.008 403.273 233.451 403.213 233.971 403.213C234.123 403.213 234.281 403.221 234.445 403.236C234.613 403.248 234.777 403.266 234.938 403.289C235.102 403.309 235.258 403.334 235.406 403.365C235.559 403.393 235.697 403.422 235.822 403.453V404.771C235.697 404.725 235.561 404.682 235.412 404.643C235.264 404.604 235.109 404.57 234.949 404.543C234.793 404.512 234.635 404.488 234.475 404.473C234.314 404.457 234.162 404.449 234.018 404.449C233.764 404.449 233.549 404.471 233.373 404.514C233.197 404.553 233.053 404.609 232.939 404.684C232.826 404.754 232.744 404.842 232.693 404.947C232.643 405.053 232.617 405.17 232.617 405.299C232.617 405.459 232.67 405.598 232.775 405.715C232.885 405.828 233.027 405.932 233.203 406.025C233.383 406.115 233.584 406.201 233.807 406.283C234.033 406.361 234.264 406.447 234.498 406.541C234.736 406.631 234.967 406.734 235.189 406.852C235.416 406.969 235.617 407.111 235.793 407.279C235.973 407.447 236.115 407.646 236.221 407.877C236.33 408.104 236.385 408.373 236.385 408.686ZM243.006 407.566C243.006 407.664 243.002 407.791 242.994 407.947C242.99 408.104 242.982 408.25 242.971 408.387H239.057C239.057 408.648 239.096 408.879 239.174 409.078C239.256 409.277 239.369 409.445 239.514 409.582C239.662 409.715 239.838 409.816 240.041 409.887C240.248 409.957 240.477 409.992 240.727 409.992C241.016 409.992 241.324 409.971 241.652 409.928C241.984 409.881 242.328 409.807 242.684 409.705V410.842C242.531 410.885 242.365 410.924 242.186 410.959C242.006 410.994 241.822 411.025 241.635 411.053C241.447 411.08 241.258 411.1 241.066 411.111C240.875 411.127 240.689 411.135 240.51 411.135C240.057 411.135 239.65 411.07 239.291 410.941C238.932 410.812 238.627 410.623 238.377 410.373C238.127 410.119 237.936 409.807 237.803 409.436C237.67 409.064 237.604 408.635 237.604 408.146C237.604 407.662 237.67 407.223 237.803 406.828C237.936 406.43 238.123 406.09 238.365 405.809C238.607 405.523 238.9 405.305 239.244 405.152C239.592 404.996 239.979 404.918 240.404 404.918C240.826 404.918 241.199 404.984 241.523 405.117C241.848 405.246 242.119 405.428 242.338 405.662C242.557 405.896 242.723 406.176 242.836 406.5C242.949 406.824 243.006 407.18 243.006 407.566ZM241.553 407.361C241.557 407.127 241.527 406.924 241.465 406.752C241.402 406.576 241.316 406.432 241.207 406.318C241.102 406.205 240.977 406.121 240.832 406.066C240.691 406.012 240.539 405.984 240.375 405.984C240.016 405.984 239.721 406.105 239.49 406.348C239.26 406.586 239.123 406.924 239.08 407.361H241.553ZM248.25 407.361C248.258 407.139 248.246 406.949 248.215 406.793C248.188 406.637 248.141 406.508 248.074 406.406C248.012 406.305 247.934 406.23 247.84 406.184C247.746 406.137 247.639 406.113 247.518 406.113C247.307 406.113 247.088 406.201 246.861 406.377C246.639 406.549 246.393 406.834 246.123 407.232V411H244.658V405.047H245.953L246.006 405.914C246.104 405.762 246.213 405.625 246.334 405.504C246.459 405.383 246.596 405.279 246.744 405.193C246.896 405.104 247.064 405.035 247.248 404.988C247.432 404.941 247.633 404.918 247.852 404.918C248.152 404.918 248.418 404.971 248.648 405.076C248.883 405.178 249.078 405.33 249.234 405.533C249.395 405.736 249.512 405.992 249.586 406.301C249.664 406.605 249.697 406.959 249.686 407.361H248.25ZM254.344 411H252.697L250.336 405.047H251.93L253.166 408.422L253.535 409.512L253.898 408.469L255.146 405.047H256.682L254.344 411ZM261.117 403.418C261.117 403.547 261.094 403.668 261.047 403.781C261 403.895 260.934 403.994 260.848 404.08C260.766 404.162 260.668 404.229 260.555 404.279C260.441 404.326 260.318 404.35 260.186 404.35C260.053 404.35 259.928 404.326 259.811 404.279C259.697 404.229 259.598 404.162 259.512 404.08C259.43 403.994 259.365 403.895 259.318 403.781C259.271 403.668 259.248 403.547 259.248 403.418C259.248 403.289 259.271 403.168 259.318 403.055C259.365 402.941 259.43 402.842 259.512 402.756C259.598 402.67 259.697 402.604 259.811 402.557C259.928 402.506 260.053 402.48 260.186 402.48C260.318 402.48 260.441 402.506 260.555 402.557C260.668 402.604 260.766 402.67 260.848 402.756C260.934 402.842 261 402.941 261.047 403.055C261.094 403.168 261.117 403.289 261.117 403.418ZM259.535 406.16H257.854V405.047H261V409.887H262.717V411H257.648V409.887H259.535V406.16ZM269.027 410.771C268.746 410.885 268.455 410.969 268.154 411.023C267.854 411.078 267.539 411.105 267.211 411.105C266.738 411.105 266.314 411.041 265.939 410.912C265.564 410.783 265.246 410.592 264.984 410.338C264.723 410.084 264.521 409.77 264.381 409.395C264.244 409.02 264.176 408.586 264.176 408.094C264.176 407.617 264.25 407.186 264.398 406.799C264.551 406.412 264.764 406.082 265.037 405.809C265.311 405.535 265.639 405.324 266.021 405.176C266.408 405.027 266.838 404.953 267.311 404.953C267.697 404.953 268.021 404.975 268.283 405.018C268.549 405.057 268.787 405.107 268.998 405.17V406.559C268.756 406.438 268.492 406.344 268.207 406.277C267.926 406.211 267.658 406.178 267.404 406.178C267.139 406.178 266.9 406.223 266.689 406.312C266.479 406.402 266.301 406.527 266.156 406.688C266.012 406.848 265.9 407.043 265.822 407.273C265.748 407.5 265.711 407.75 265.711 408.023C265.711 408.309 265.752 408.564 265.834 408.791C265.916 409.018 266.031 409.211 266.18 409.371C266.332 409.527 266.514 409.648 266.725 409.734C266.936 409.816 267.17 409.857 267.428 409.857C267.553 409.857 267.684 409.85 267.82 409.834C267.961 409.814 268.1 409.789 268.236 409.758C268.377 409.723 268.514 409.684 268.646 409.641C268.783 409.598 268.91 409.551 269.027 409.5V410.771ZM275.994 407.566C275.994 407.664 275.99 407.791 275.982 407.947C275.979 408.104 275.971 408.25 275.959 408.387H272.045C272.045 408.648 272.084 408.879 272.162 409.078C272.244 409.277 272.357 409.445 272.502 409.582C272.65 409.715 272.826 409.816 273.029 409.887C273.236 409.957 273.465 409.992 273.715 409.992C274.004 409.992 274.312 409.971 274.641 409.928C274.973 409.881 275.316 409.807 275.672 409.705V410.842C275.52 410.885 275.354 410.924 275.174 410.959C274.994 410.994 274.811 411.025 274.623 411.053C274.436 411.08 274.246 411.1 274.055 411.111C273.863 411.127 273.678 411.135 273.498 411.135C273.045 411.135 272.639 411.07 272.279 410.941C271.92 410.812 271.615 410.623 271.365 410.373C271.115 410.119 270.924 409.807 270.791 409.436C270.658 409.064 270.592 408.635 270.592 408.146C270.592 407.662 270.658 407.223 270.791 406.828C270.924 406.43 271.111 406.09 271.354 405.809C271.596 405.523 271.889 405.305 272.232 405.152C272.58 404.996 272.967 404.918 273.393 404.918C273.814 404.918 274.188 404.984 274.512 405.117C274.836 405.246 275.107 405.428 275.326 405.662C275.545 405.896 275.711 406.176 275.824 406.5C275.938 406.824 275.994 407.18 275.994 407.566ZM274.541 407.361C274.545 407.127 274.516 406.924 274.453 406.752C274.391 406.576 274.305 406.432 274.195 406.318C274.09 406.205 273.965 406.121 273.82 406.066C273.68 406.012 273.527 405.984 273.363 405.984C273.004 405.984 272.709 406.105 272.479 406.348C272.248 406.586 272.111 406.924 272.068 407.361H274.541Z" fill="black"/>
<rect x="179.5" y="71.5" width="150" height="85" rx="2.5" fill="#FFFD54" stroke="black" stroke-width="3"/>
<path d="M249.084 94L248.662 92.4883H245.99L245.557 94H244.127L246.395 86.3418H248.41L250.678 94H249.084ZM247.344 87.748L246.336 91.3105H248.34L247.344 87.748ZM256.871 90.918C256.871 91.4648 256.793 91.9375 256.637 92.3359C256.484 92.7344 256.27 93.0664 255.992 93.332C255.719 93.5938 255.395 93.7891 255.02 93.918C254.645 94.043 254.236 94.1055 253.795 94.1055C253.646 94.1055 253.498 94.0957 253.35 94.0762C253.201 94.0566 253.066 94.0312 252.945 94V96.3262H251.516V88.0469H252.752L252.787 88.9258C252.908 88.7734 253.033 88.6348 253.162 88.5098C253.295 88.3848 253.438 88.2793 253.59 88.1934C253.742 88.1035 253.906 88.0352 254.082 87.9883C254.258 87.9414 254.455 87.918 254.674 87.918C255.025 87.918 255.338 87.9883 255.611 88.1289C255.885 88.2695 256.113 88.4707 256.297 88.7324C256.484 88.9902 256.627 89.3047 256.725 89.6758C256.822 90.043 256.871 90.457 256.871 90.918ZM255.371 90.9766C255.371 90.6484 255.348 90.3691 255.301 90.1387C255.254 89.9082 255.186 89.7188 255.096 89.5703C255.01 89.4219 254.902 89.3145 254.773 89.248C254.648 89.1777 254.504 89.1426 254.34 89.1426C254.098 89.1426 253.865 89.2402 253.643 89.4355C253.424 89.6309 253.191 89.8965 252.945 90.2324V92.834C253.059 92.877 253.197 92.9121 253.361 92.9395C253.529 92.9668 253.699 92.9805 253.871 92.9805C254.098 92.9805 254.303 92.9336 254.486 92.8398C254.674 92.7461 254.832 92.6133 254.961 92.4414C255.094 92.2695 255.195 92.0605 255.266 91.8145C255.336 91.5645 255.371 91.2852 255.371 90.9766ZM263.469 90.918C263.469 91.4648 263.391 91.9375 263.234 92.3359C263.082 92.7344 262.867 93.0664 262.59 93.332C262.316 93.5938 261.992 93.7891 261.617 93.918C261.242 94.043 260.834 94.1055 260.393 94.1055C260.244 94.1055 260.096 94.0957 259.947 94.0762C259.799 94.0566 259.664 94.0312 259.543 94V96.3262H258.113V88.0469H259.35L259.385 88.9258C259.506 88.7734 259.631 88.6348 259.76 88.5098C259.893 88.3848 260.035 88.2793 260.188 88.1934C260.34 88.1035 260.504 88.0352 260.68 87.9883C260.855 87.9414 261.053 87.918 261.271 87.918C261.623 87.918 261.936 87.9883 262.209 88.1289C262.482 88.2695 262.711 88.4707 262.895 88.7324C263.082 88.9902 263.225 89.3047 263.322 89.6758C263.42 90.043 263.469 90.457 263.469 90.918ZM261.969 90.9766C261.969 90.6484 261.945 90.3691 261.898 90.1387C261.852 89.9082 261.783 89.7188 261.693 89.5703C261.607 89.4219 261.5 89.3145 261.371 89.248C261.246 89.1777 261.102 89.1426 260.938 89.1426C260.695 89.1426 260.463 89.2402 260.24 89.4355C260.021 89.6309 259.789 89.8965 259.543 90.2324V92.834C259.656 92.877 259.795 92.9121 259.959 92.9395C260.127 92.9668 260.297 92.9805 260.469 92.9805C260.695 92.9805 260.9 92.9336 261.084 92.8398C261.271 92.7461 261.43 92.6133 261.559 92.4414C261.691 92.2695 261.793 92.0605 261.863 91.8145C261.934 91.5645 261.969 91.2852 261.969 90.9766Z" fill="black"/>
<rect x="190.5" y="109.5" width="126" height="26" rx="2.5" fill="#7DE77B" stroke="black" stroke-width="3"/>
<path d="M241.623 126L240.545 123.539C240.443 123.305 240.301 123.129 240.117 123.012C239.938 122.891 239.725 122.83 239.479 122.83H239.203V126H237.762V118.342H239.994C240.416 118.342 240.799 118.379 241.143 118.453C241.486 118.523 241.779 118.643 242.021 118.811C242.264 118.979 242.449 119.197 242.578 119.467C242.711 119.736 242.777 120.066 242.777 120.457C242.777 120.738 242.736 120.988 242.654 121.207C242.572 121.426 242.457 121.615 242.309 121.775C242.16 121.932 241.982 122.059 241.775 122.156C241.572 122.254 241.35 122.322 241.107 122.361C241.295 122.4 241.467 122.508 241.623 122.684C241.779 122.855 241.936 123.105 242.092 123.434L243.316 126H241.623ZM241.266 120.598C241.266 120.223 241.146 119.953 240.908 119.789C240.67 119.625 240.312 119.543 239.836 119.543H239.203V121.705H239.789C240.012 121.705 240.213 121.682 240.393 121.635C240.576 121.588 240.732 121.518 240.861 121.424C240.99 121.33 241.09 121.215 241.16 121.078C241.23 120.938 241.266 120.777 241.266 120.598ZM249.604 122.566C249.604 122.664 249.6 122.791 249.592 122.947C249.588 123.104 249.58 123.25 249.568 123.387H245.654C245.654 123.648 245.693 123.879 245.771 124.078C245.854 124.277 245.967 124.445 246.111 124.582C246.26 124.715 246.436 124.816 246.639 124.887C246.846 124.957 247.074 124.992 247.324 124.992C247.613 124.992 247.922 124.971 248.25 124.928C248.582 124.881 248.926 124.807 249.281 124.705V125.842C249.129 125.885 248.963 125.924 248.783 125.959C248.604 125.994 248.42 126.025 248.232 126.053C248.045 126.08 247.855 126.1 247.664 126.111C247.473 126.127 247.287 126.135 247.107 126.135C246.654 126.135 246.248 126.07 245.889 125.941C245.529 125.812 245.225 125.623 244.975 125.373C244.725 125.119 244.533 124.807 244.4 124.436C244.268 124.064 244.201 123.635 244.201 123.146C244.201 122.662 244.268 122.223 244.4 121.828C244.533 121.43 244.721 121.09 244.963 120.809C245.205 120.523 245.498 120.305 245.842 120.152C246.189 119.996 246.576 119.918 247.002 119.918C247.424 119.918 247.797 119.984 248.121 120.117C248.445 120.246 248.717 120.428 248.936 120.662C249.154 120.896 249.32 121.176 249.434 121.5C249.547 121.824 249.604 122.18 249.604 122.566ZM248.15 122.361C248.154 122.127 248.125 121.924 248.062 121.752C248 121.576 247.914 121.432 247.805 121.318C247.699 121.205 247.574 121.121 247.43 121.066C247.289 121.012 247.137 120.984 246.973 120.984C246.613 120.984 246.318 121.105 246.088 121.348C245.857 121.586 245.721 121.924 245.678 122.361H248.15ZM254.748 126L254.713 125.221C254.588 125.354 254.457 125.477 254.32 125.59C254.184 125.699 254.033 125.795 253.869 125.877C253.705 125.959 253.525 126.021 253.33 126.064C253.139 126.111 252.928 126.135 252.697 126.135C252.393 126.135 252.125 126.09 251.895 126C251.664 125.91 251.471 125.785 251.314 125.625C251.158 125.465 251.039 125.271 250.957 125.045C250.879 124.818 250.84 124.568 250.84 124.295C250.84 124.014 250.898 123.754 251.016 123.516C251.137 123.277 251.318 123.072 251.561 122.9C251.807 122.729 252.111 122.594 252.475 122.496C252.842 122.398 253.271 122.35 253.764 122.35H254.543V121.992C254.543 121.84 254.521 121.703 254.479 121.582C254.436 121.457 254.365 121.352 254.268 121.266C254.174 121.18 254.051 121.113 253.898 121.066C253.746 121.02 253.559 120.996 253.336 120.996C252.984 120.996 252.637 121.037 252.293 121.119C251.953 121.197 251.623 121.309 251.303 121.453V120.311C251.588 120.197 251.916 120.104 252.287 120.029C252.662 119.955 253.051 119.918 253.453 119.918C253.895 119.918 254.273 119.961 254.59 120.047C254.906 120.129 255.166 120.254 255.369 120.422C255.576 120.59 255.729 120.801 255.826 121.055C255.924 121.305 255.973 121.598 255.973 121.934V126H254.748ZM254.543 123.369H253.67C253.428 123.369 253.223 123.393 253.055 123.439C252.887 123.486 252.75 123.551 252.645 123.633C252.539 123.715 252.461 123.811 252.41 123.92C252.363 124.025 252.34 124.139 252.34 124.26C252.34 124.502 252.418 124.688 252.574 124.816C252.73 124.941 252.943 125.004 253.213 125.004C253.412 125.004 253.619 124.932 253.834 124.787C254.049 124.643 254.285 124.436 254.543 124.166V123.369ZM262.43 125.771C262.148 125.885 261.857 125.969 261.557 126.023C261.256 126.078 260.941 126.105 260.613 126.105C260.141 126.105 259.717 126.041 259.342 125.912C258.967 125.783 258.648 125.592 258.387 125.338C258.125 125.084 257.924 124.77 257.783 124.395C257.646 124.02 257.578 123.586 257.578 123.094C257.578 122.617 257.652 122.186 257.801 121.799C257.953 121.412 258.166 121.082 258.439 120.809C258.713 120.535 259.041 120.324 259.424 120.176C259.811 120.027 260.24 119.953 260.713 119.953C261.1 119.953 261.424 119.975 261.686 120.018C261.951 120.057 262.189 120.107 262.4 120.17V121.559C262.158 121.438 261.895 121.344 261.609 121.277C261.328 121.211 261.061 121.178 260.807 121.178C260.541 121.178 260.303 121.223 260.092 121.312C259.881 121.402 259.703 121.527 259.559 121.688C259.414 121.848 259.303 122.043 259.225 122.273C259.15 122.5 259.113 122.75 259.113 123.023C259.113 123.309 259.154 123.564 259.236 123.791C259.318 124.018 259.434 124.211 259.582 124.371C259.734 124.527 259.916 124.648 260.127 124.734C260.338 124.816 260.572 124.857 260.83 124.857C260.955 124.857 261.086 124.85 261.223 124.834C261.363 124.814 261.502 124.789 261.639 124.758C261.779 124.723 261.916 124.684 262.049 124.641C262.186 124.598 262.312 124.551 262.43 124.5V125.771ZM269.121 125.941C268.863 126 268.604 126.047 268.342 126.082C268.08 126.117 267.832 126.135 267.598 126.135C267.207 126.135 266.869 126.094 266.584 126.012C266.303 125.93 266.068 125.805 265.881 125.637C265.697 125.469 265.561 125.256 265.471 124.998C265.385 124.736 265.342 124.426 265.342 124.066V121.16H263.742V120.047H265.342V118.523L266.807 118.143V120.047H269.121V121.16H266.807V123.961C266.807 124.301 266.885 124.559 267.041 124.734C267.197 124.906 267.459 124.992 267.826 124.992C268.061 124.992 268.289 124.973 268.512 124.934C268.734 124.895 268.938 124.85 269.121 124.799V125.941Z" fill="black"/>
<rect x="191.5" y="318.5" width="126" height="26" rx="2.5" fill="#7DE77B" stroke="black" stroke-width="3"/>
<path d="M203.4 335L202.979 333.488H200.307L199.873 335H198.443L200.711 327.342H202.727L204.994 335H203.4ZM201.66 328.748L200.652 332.311H202.656L201.66 328.748ZM211.188 331.918C211.188 332.465 211.109 332.938 210.953 333.336C210.801 333.734 210.586 334.066 210.309 334.332C210.035 334.594 209.711 334.789 209.336 334.918C208.961 335.043 208.553 335.105 208.111 335.105C207.963 335.105 207.814 335.096 207.666 335.076C207.518 335.057 207.383 335.031 207.262 335V337.326H205.832V329.047H207.068L207.104 329.926C207.225 329.773 207.35 329.635 207.479 329.51C207.611 329.385 207.754 329.279 207.906 329.193C208.059 329.104 208.223 329.035 208.398 328.988C208.574 328.941 208.771 328.918 208.99 328.918C209.342 328.918 209.654 328.988 209.928 329.129C210.201 329.27 210.43 329.471 210.613 329.732C210.801 329.99 210.943 330.305 211.041 330.676C211.139 331.043 211.188 331.457 211.188 331.918ZM209.688 331.977C209.688 331.648 209.664 331.369 209.617 331.139C209.57 330.908 209.502 330.719 209.412 330.57C209.326 330.422 209.219 330.314 209.09 330.248C208.965 330.178 208.82 330.143 208.656 330.143C208.414 330.143 208.182 330.24 207.959 330.436C207.74 330.631 207.508 330.896 207.262 331.232V333.834C207.375 333.877 207.514 333.912 207.678 333.939C207.846 333.967 208.016 333.98 208.188 333.98C208.414 333.98 208.619 333.934 208.803 333.84C208.99 333.746 209.148 333.613 209.277 333.441C209.41 333.27 209.512 333.061 209.582 332.814C209.652 332.564 209.688 332.285 209.688 331.977ZM217.785 331.918C217.785 332.465 217.707 332.938 217.551 333.336C217.398 333.734 217.184 334.066 216.906 334.332C216.633 334.594 216.309 334.789 215.934 334.918C215.559 335.043 215.15 335.105 214.709 335.105C214.561 335.105 214.412 335.096 214.264 335.076C214.115 335.057 213.98 335.031 213.859 335V337.326H212.43V329.047H213.666L213.701 329.926C213.822 329.773 213.947 329.635 214.076 329.51C214.209 329.385 214.352 329.279 214.504 329.193C214.656 329.104 214.82 329.035 214.996 328.988C215.172 328.941 215.369 328.918 215.588 328.918C215.939 328.918 216.252 328.988 216.525 329.129C216.799 329.27 217.027 329.471 217.211 329.732C217.398 329.99 217.541 330.305 217.639 330.676C217.736 331.043 217.785 331.457 217.785 331.918ZM216.285 331.977C216.285 331.648 216.262 331.369 216.215 331.139C216.168 330.908 216.1 330.719 216.01 330.57C215.924 330.422 215.816 330.314 215.688 330.248C215.562 330.178 215.418 330.143 215.254 330.143C215.012 330.143 214.779 330.24 214.557 330.436C214.338 330.631 214.105 330.896 213.859 331.232V333.834C213.973 333.877 214.111 333.912 214.275 333.939C214.443 333.967 214.613 333.98 214.785 333.98C215.012 333.98 215.217 333.934 215.4 333.84C215.588 333.746 215.746 333.613 215.875 333.441C216.008 333.27 216.109 333.061 216.18 332.814C216.25 332.564 216.285 332.285 216.285 331.977ZM220.949 327.834H219.268V326.721H222.414V333.887H224.131V335H219.062V333.887H220.949V327.834ZM229.129 327.418C229.129 327.547 229.105 327.668 229.059 327.781C229.012 327.895 228.945 327.994 228.859 328.08C228.777 328.162 228.68 328.229 228.566 328.279C228.453 328.326 228.33 328.35 228.197 328.35C228.064 328.35 227.939 328.326 227.822 328.279C227.709 328.229 227.609 328.162 227.523 328.08C227.441 327.994 227.377 327.895 227.33 327.781C227.283 327.668 227.26 327.547 227.26 327.418C227.26 327.289 227.283 327.168 227.33 327.055C227.377 326.941 227.441 326.842 227.523 326.756C227.609 326.67 227.709 326.604 227.822 326.557C227.939 326.506 228.064 326.48 228.197 326.48C228.33 326.48 228.453 326.506 228.566 326.557C228.68 326.604 228.777 326.67 228.859 326.756C228.945 326.842 229.012 326.941 229.059 327.055C229.105 327.168 229.129 327.289 229.129 327.418ZM227.547 330.16H225.865V329.047H229.012V333.887H230.729V335H225.66V333.887H227.547V330.16ZM237.039 334.771C236.758 334.885 236.467 334.969 236.166 335.023C235.865 335.078 235.551 335.105 235.223 335.105C234.75 335.105 234.326 335.041 233.951 334.912C233.576 334.783 233.258 334.592 232.996 334.338C232.734 334.084 232.533 333.77 232.393 333.395C232.256 333.02 232.188 332.586 232.188 332.094C232.188 331.617 232.262 331.186 232.41 330.799C232.562 330.412 232.775 330.082 233.049 329.809C233.322 329.535 233.65 329.324 234.033 329.176C234.42 329.027 234.85 328.953 235.322 328.953C235.709 328.953 236.033 328.975 236.295 329.018C236.561 329.057 236.799 329.107 237.01 329.17V330.559C236.768 330.438 236.504 330.344 236.219 330.277C235.938 330.211 235.67 330.178 235.416 330.178C235.15 330.178 234.912 330.223 234.701 330.312C234.49 330.402 234.312 330.527 234.168 330.688C234.023 330.848 233.912 331.043 233.834 331.273C233.76 331.5 233.723 331.75 233.723 332.023C233.723 332.309 233.764 332.564 233.846 332.791C233.928 333.018 234.043 333.211 234.191 333.371C234.344 333.527 234.525 333.648 234.736 333.734C234.947 333.816 235.182 333.857 235.439 333.857C235.564 333.857 235.695 333.85 235.832 333.834C235.973 333.814 236.111 333.789 236.248 333.758C236.389 333.723 236.525 333.684 236.658 333.641C236.795 333.598 236.922 333.551 237.039 333.5V334.771ZM242.553 335L242.518 334.221C242.393 334.354 242.262 334.477 242.125 334.59C241.988 334.699 241.838 334.795 241.674 334.877C241.51 334.959 241.33 335.021 241.135 335.064C240.943 335.111 240.732 335.135 240.502 335.135C240.197 335.135 239.93 335.09 239.699 335C239.469 334.91 239.275 334.785 239.119 334.625C238.963 334.465 238.844 334.271 238.762 334.045C238.684 333.818 238.645 333.568 238.645 333.295C238.645 333.014 238.703 332.754 238.82 332.516C238.941 332.277 239.123 332.072 239.365 331.9C239.611 331.729 239.916 331.594 240.279 331.496C240.646 331.398 241.076 331.35 241.568 331.35H242.348V330.992C242.348 330.84 242.326 330.703 242.283 330.582C242.24 330.457 242.17 330.352 242.072 330.266C241.979 330.18 241.855 330.113 241.703 330.066C241.551 330.02 241.363 329.996 241.141 329.996C240.789 329.996 240.441 330.037 240.098 330.119C239.758 330.197 239.428 330.309 239.107 330.453V329.311C239.393 329.197 239.721 329.104 240.092 329.029C240.467 328.955 240.855 328.918 241.258 328.918C241.699 328.918 242.078 328.961 242.395 329.047C242.711 329.129 242.971 329.254 243.174 329.422C243.381 329.59 243.533 329.801 243.631 330.055C243.729 330.305 243.777 330.598 243.777 330.934V335H242.553ZM242.348 332.369H241.475C241.232 332.369 241.027 332.393 240.859 332.439C240.691 332.486 240.555 332.551 240.449 332.633C240.344 332.715 240.266 332.811 240.215 332.92C240.168 333.025 240.145 333.139 240.145 333.26C240.145 333.502 240.223 333.688 240.379 333.816C240.535 333.941 240.748 334.004 241.018 334.004C241.217 334.004 241.424 333.932 241.639 333.787C241.854 333.643 242.09 333.436 242.348 333.166V332.369ZM250.328 334.941C250.07 335 249.811 335.047 249.549 335.082C249.287 335.117 249.039 335.135 248.805 335.135C248.414 335.135 248.076 335.094 247.791 335.012C247.51 334.93 247.275 334.805 247.088 334.637C246.904 334.469 246.768 334.256 246.678 333.998C246.592 333.736 246.549 333.426 246.549 333.066V330.16H244.949V329.047H246.549V327.523L248.014 327.143V329.047H250.328V330.16H248.014V332.961C248.014 333.301 248.092 333.559 248.248 333.734C248.404 333.906 248.666 333.992 249.033 333.992C249.268 333.992 249.496 333.973 249.719 333.934C249.941 333.895 250.145 333.85 250.328 333.799V334.941ZM255.52 327.418C255.52 327.547 255.496 327.668 255.449 327.781C255.402 327.895 255.336 327.994 255.25 328.08C255.168 328.162 255.07 328.229 254.957 328.279C254.844 328.326 254.721 328.35 254.588 328.35C254.455 328.35 254.33 328.326 254.213 328.279C254.1 328.229 254 328.162 253.914 328.08C253.832 327.994 253.768 327.895 253.721 327.781C253.674 327.668 253.65 327.547 253.65 327.418C253.65 327.289 253.674 327.168 253.721 327.055C253.768 326.941 253.832 326.842 253.914 326.756C254 326.67 254.1 326.604 254.213 326.557C254.33 326.506 254.455 326.48 254.588 326.48C254.721 326.48 254.844 326.506 254.957 326.557C255.07 326.604 255.168 326.67 255.25 326.756C255.336 326.842 255.402 326.941 255.449 327.055C255.496 327.168 255.52 327.289 255.52 327.418ZM253.938 330.16H252.256V329.047H255.402V333.887H257.119V335H252.051V333.887H253.938V330.16ZM263.975 331.977C263.975 332.445 263.908 332.875 263.775 333.266C263.643 333.652 263.451 333.984 263.201 334.262C262.951 334.539 262.645 334.754 262.281 334.906C261.918 335.059 261.504 335.135 261.039 335.135C260.598 335.135 260.203 335.07 259.855 334.941C259.508 334.812 259.213 334.621 258.971 334.367C258.729 334.109 258.543 333.789 258.414 333.406C258.285 333.02 258.221 332.57 258.221 332.059C258.221 331.586 258.287 331.156 258.42 330.77C258.557 330.383 258.75 330.053 259 329.779C259.254 329.506 259.562 329.295 259.926 329.146C260.289 328.994 260.699 328.918 261.156 328.918C261.602 328.918 261.998 328.984 262.346 329.117C262.693 329.246 262.988 329.439 263.23 329.697C263.473 329.955 263.656 330.275 263.781 330.658C263.91 331.037 263.975 331.477 263.975 331.977ZM262.486 332.012C262.486 331.395 262.369 330.932 262.135 330.623C261.904 330.311 261.562 330.154 261.109 330.154C260.859 330.154 260.646 330.203 260.471 330.301C260.295 330.398 260.15 330.533 260.037 330.705C259.924 330.873 259.84 331.07 259.785 331.297C259.734 331.523 259.709 331.766 259.709 332.023C259.709 332.645 259.834 333.113 260.084 333.43C260.334 333.742 260.676 333.898 261.109 333.898C261.348 333.898 261.555 333.852 261.73 333.758C261.906 333.66 262.049 333.527 262.158 333.359C262.268 333.188 262.35 332.986 262.404 332.756C262.459 332.525 262.486 332.277 262.486 332.012ZM268.762 335V331.121C268.762 330.469 268.52 330.143 268.035 330.143C267.793 330.143 267.561 330.24 267.338 330.436C267.119 330.631 266.887 330.896 266.641 331.232V335H265.211V329.047H266.447L266.482 329.926C266.604 329.773 266.729 329.635 266.857 329.51C266.99 329.385 267.133 329.279 267.285 329.193C267.438 329.104 267.602 329.035 267.777 328.988C267.953 328.941 268.15 328.918 268.369 328.918C268.674 328.918 268.939 328.969 269.166 329.07C269.393 329.168 269.582 329.309 269.734 329.492C269.887 329.672 270 329.891 270.074 330.148C270.152 330.402 270.191 330.688 270.191 331.004V335H268.762ZM278.746 335V327.342H280.211V333.764H283.445V335H278.746ZM288.736 335L288.701 334.221C288.576 334.354 288.445 334.477 288.309 334.59C288.172 334.699 288.021 334.795 287.857 334.877C287.693 334.959 287.514 335.021 287.318 335.064C287.127 335.111 286.916 335.135 286.686 335.135C286.381 335.135 286.113 335.09 285.883 335C285.652 334.91 285.459 334.785 285.303 334.625C285.146 334.465 285.027 334.271 284.945 334.045C284.867 333.818 284.828 333.568 284.828 333.295C284.828 333.014 284.887 332.754 285.004 332.516C285.125 332.277 285.307 332.072 285.549 331.9C285.795 331.729 286.1 331.594 286.463 331.496C286.83 331.398 287.26 331.35 287.752 331.35H288.531V330.992C288.531 330.84 288.51 330.703 288.467 330.582C288.424 330.457 288.354 330.352 288.256 330.266C288.162 330.18 288.039 330.113 287.887 330.066C287.734 330.02 287.547 329.996 287.324 329.996C286.973 329.996 286.625 330.037 286.281 330.119C285.941 330.197 285.611 330.309 285.291 330.453V329.311C285.576 329.197 285.904 329.104 286.275 329.029C286.65 328.955 287.039 328.918 287.441 328.918C287.883 328.918 288.262 328.961 288.578 329.047C288.895 329.129 289.154 329.254 289.357 329.422C289.564 329.59 289.717 329.801 289.814 330.055C289.912 330.305 289.961 330.598 289.961 330.934V335H288.736ZM288.531 332.369H287.658C287.416 332.369 287.211 332.393 287.043 332.439C286.875 332.486 286.738 332.551 286.633 332.633C286.527 332.715 286.449 332.811 286.398 332.92C286.352 333.025 286.328 333.139 286.328 333.26C286.328 333.502 286.406 333.688 286.562 333.816C286.719 333.941 286.932 334.004 287.201 334.004C287.4 334.004 287.607 333.932 287.822 333.787C288.037 333.643 288.273 333.436 288.531 333.166V332.369ZM295.182 334.35C294.975 334.865 294.758 335.316 294.531 335.703C294.309 336.094 294.062 336.418 293.793 336.676C293.523 336.938 293.223 337.133 292.891 337.262C292.562 337.395 292.193 337.461 291.783 337.461C291.686 337.461 291.578 337.455 291.461 337.443C291.348 337.436 291.23 337.422 291.109 337.402V336.189C291.156 336.197 291.209 336.205 291.268 336.213C291.33 336.225 291.395 336.232 291.461 336.236C291.527 336.244 291.594 336.25 291.66 336.254C291.73 336.258 291.795 336.26 291.854 336.26C292.018 336.26 292.17 336.229 292.311 336.166C292.451 336.104 292.58 336.016 292.697 335.902C292.818 335.793 292.928 335.66 293.025 335.504C293.123 335.352 293.209 335.184 293.283 335L290.922 329.047H292.516L293.752 332.422L294.121 333.512L294.484 332.469L295.732 329.047H297.268L295.182 334.35ZM303.385 331.566C303.385 331.664 303.381 331.791 303.373 331.947C303.369 332.104 303.361 332.25 303.35 332.387H299.436C299.436 332.648 299.475 332.879 299.553 333.078C299.635 333.277 299.748 333.445 299.893 333.582C300.041 333.715 300.217 333.816 300.42 333.887C300.627 333.957 300.855 333.992 301.105 333.992C301.395 333.992 301.703 333.971 302.031 333.928C302.363 333.881 302.707 333.807 303.062 333.705V334.842C302.91 334.885 302.744 334.924 302.564 334.959C302.385 334.994 302.201 335.025 302.014 335.053C301.826 335.08 301.637 335.1 301.445 335.111C301.254 335.127 301.068 335.135 300.889 335.135C300.436 335.135 300.029 335.07 299.67 334.941C299.311 334.812 299.006 334.623 298.756 334.373C298.506 334.119 298.314 333.807 298.182 333.436C298.049 333.064 297.982 332.635 297.982 332.146C297.982 331.662 298.049 331.223 298.182 330.828C298.314 330.43 298.502 330.09 298.744 329.809C298.986 329.523 299.279 329.305 299.623 329.152C299.971 328.996 300.357 328.918 300.783 328.918C301.205 328.918 301.578 328.984 301.902 329.117C302.227 329.246 302.498 329.428 302.717 329.662C302.936 329.896 303.102 330.176 303.215 330.5C303.328 330.824 303.385 331.18 303.385 331.566ZM301.932 331.361C301.936 331.127 301.906 330.924 301.844 330.752C301.781 330.576 301.695 330.432 301.586 330.318C301.48 330.205 301.355 330.121 301.211 330.066C301.07 330.012 300.918 329.984 300.754 329.984C300.395 329.984 300.1 330.105 299.869 330.348C299.639 330.586 299.502 330.924 299.459 331.361H301.932ZM308.629 331.361C308.637 331.139 308.625 330.949 308.594 330.793C308.566 330.637 308.52 330.508 308.453 330.406C308.391 330.305 308.312 330.23 308.219 330.184C308.125 330.137 308.018 330.113 307.896 330.113C307.686 330.113 307.467 330.201 307.24 330.377C307.018 330.549 306.771 330.834 306.502 331.232V335H305.037V329.047H306.332L306.385 329.914C306.482 329.762 306.592 329.625 306.713 329.504C306.838 329.383 306.975 329.279 307.123 329.193C307.275 329.104 307.443 329.035 307.627 328.988C307.811 328.941 308.012 328.918 308.23 328.918C308.531 328.918 308.797 328.971 309.027 329.076C309.262 329.178 309.457 329.33 309.613 329.533C309.773 329.736 309.891 329.992 309.965 330.301C310.043 330.605 310.076 330.959 310.064 331.361H308.629Z" fill="black"/>
<rect x="191.5" y="352.5" width="126" height="26" rx="2.5" fill="#7DE77B" stroke="black" stroke-width="3"/>
<path d="M220.701 365.074C220.701 365.668 220.627 366.207 220.479 366.691C220.334 367.176 220.105 367.59 219.793 367.934C219.484 368.273 219.088 368.537 218.604 368.725C218.119 368.908 217.539 369 216.863 369H214.918V361.342H217.186C217.771 361.342 218.283 361.416 218.721 361.564C219.162 361.709 219.529 361.934 219.822 362.238C220.115 362.543 220.334 362.93 220.479 363.398C220.627 363.867 220.701 364.426 220.701 365.074ZM219.154 365.168C219.154 364.754 219.121 364.385 219.055 364.061C218.988 363.736 218.875 363.463 218.715 363.24C218.559 363.014 218.348 362.842 218.082 362.725C217.816 362.607 217.486 362.549 217.092 362.549H216.359V367.793H216.992C217.699 367.793 218.236 367.582 218.604 367.16C218.971 366.738 219.154 366.074 219.154 365.168ZM227.188 365.977C227.188 366.445 227.121 366.875 226.988 367.266C226.855 367.652 226.664 367.984 226.414 368.262C226.164 368.539 225.857 368.754 225.494 368.906C225.131 369.059 224.717 369.135 224.252 369.135C223.811 369.135 223.416 369.07 223.068 368.941C222.721 368.812 222.426 368.621 222.184 368.367C221.941 368.109 221.756 367.789 221.627 367.406C221.498 367.02 221.434 366.57 221.434 366.059C221.434 365.586 221.5 365.156 221.633 364.77C221.77 364.383 221.963 364.053 222.213 363.779C222.467 363.506 222.775 363.295 223.139 363.146C223.502 362.994 223.912 362.918 224.369 362.918C224.814 362.918 225.211 362.984 225.559 363.117C225.906 363.246 226.201 363.439 226.443 363.697C226.686 363.955 226.869 364.275 226.994 364.658C227.123 365.037 227.188 365.477 227.188 365.977ZM225.699 366.012C225.699 365.395 225.582 364.932 225.348 364.623C225.117 364.311 224.775 364.154 224.322 364.154C224.072 364.154 223.859 364.203 223.684 364.301C223.508 364.398 223.363 364.533 223.25 364.705C223.137 364.873 223.053 365.07 222.998 365.297C222.947 365.523 222.922 365.766 222.922 366.023C222.922 366.645 223.047 367.113 223.297 367.43C223.547 367.742 223.889 367.898 224.322 367.898C224.561 367.898 224.768 367.852 224.943 367.758C225.119 367.66 225.262 367.527 225.371 367.359C225.48 367.188 225.562 366.986 225.617 366.756C225.672 366.525 225.699 366.277 225.699 366.012ZM232.625 369V364.945C232.625 364.797 232.621 364.668 232.613 364.559C232.605 364.445 232.59 364.352 232.566 364.277C232.543 364.203 232.508 364.148 232.461 364.113C232.418 364.074 232.357 364.055 232.279 364.055C232.158 364.055 232.039 364.137 231.922 364.301C231.805 364.465 231.672 364.744 231.523 365.139V369H230.299V364.945C230.299 364.797 230.295 364.668 230.287 364.559C230.279 364.445 230.264 364.352 230.24 364.277C230.217 364.203 230.182 364.148 230.135 364.113C230.088 364.074 230.025 364.055 229.947 364.055C229.846 364.055 229.732 364.137 229.607 364.301C229.482 364.465 229.344 364.744 229.191 365.139V369H227.955V363.047H229.016L229.039 363.914C229.125 363.738 229.211 363.588 229.297 363.463C229.383 363.338 229.475 363.236 229.572 363.158C229.67 363.076 229.773 363.018 229.883 362.982C229.996 362.947 230.123 362.93 230.264 362.93C230.596 362.93 230.848 363.018 231.02 363.193C231.195 363.365 231.295 363.605 231.318 363.914C231.412 363.738 231.504 363.588 231.594 363.463C231.688 363.338 231.783 363.236 231.881 363.158C231.982 363.076 232.09 363.018 232.203 362.982C232.32 362.947 232.449 362.93 232.59 362.93C233.023 362.93 233.344 363.082 233.551 363.387C233.758 363.688 233.861 364.135 233.861 364.729V369H232.625ZM238.754 369L238.719 368.221C238.594 368.354 238.463 368.477 238.326 368.59C238.189 368.699 238.039 368.795 237.875 368.877C237.711 368.959 237.531 369.021 237.336 369.064C237.145 369.111 236.934 369.135 236.703 369.135C236.398 369.135 236.131 369.09 235.9 369C235.67 368.91 235.477 368.785 235.32 368.625C235.164 368.465 235.045 368.271 234.963 368.045C234.885 367.818 234.846 367.568 234.846 367.295C234.846 367.014 234.904 366.754 235.021 366.516C235.143 366.277 235.324 366.072 235.566 365.9C235.812 365.729 236.117 365.594 236.48 365.496C236.848 365.398 237.277 365.35 237.77 365.35H238.549V364.992C238.549 364.84 238.527 364.703 238.484 364.582C238.441 364.457 238.371 364.352 238.273 364.266C238.18 364.18 238.057 364.113 237.904 364.066C237.752 364.02 237.564 363.996 237.342 363.996C236.99 363.996 236.643 364.037 236.299 364.119C235.959 364.197 235.629 364.309 235.309 364.453V363.311C235.594 363.197 235.922 363.104 236.293 363.029C236.668 362.955 237.057 362.918 237.459 362.918C237.9 362.918 238.279 362.961 238.596 363.047C238.912 363.129 239.172 363.254 239.375 363.422C239.582 363.59 239.734 363.801 239.832 364.055C239.93 364.305 239.979 364.598 239.979 364.934V369H238.754ZM238.549 366.369H237.676C237.434 366.369 237.229 366.393 237.061 366.439C236.893 366.486 236.756 366.551 236.65 366.633C236.545 366.715 236.467 366.811 236.416 366.92C236.369 367.025 236.346 367.139 236.346 367.26C236.346 367.502 236.424 367.688 236.58 367.816C236.736 367.941 236.949 368.004 237.219 368.004C237.418 368.004 237.625 367.932 237.84 367.787C238.055 367.643 238.291 367.436 238.549 367.166V366.369ZM245.123 361.418C245.123 361.547 245.1 361.668 245.053 361.781C245.006 361.895 244.939 361.994 244.854 362.08C244.771 362.162 244.674 362.229 244.561 362.279C244.447 362.326 244.324 362.35 244.191 362.35C244.059 362.35 243.934 362.326 243.816 362.279C243.703 362.229 243.604 362.162 243.518 362.08C243.436 361.994 243.371 361.895 243.324 361.781C243.277 361.668 243.254 361.547 243.254 361.418C243.254 361.289 243.277 361.168 243.324 361.055C243.371 360.941 243.436 360.842 243.518 360.756C243.604 360.67 243.703 360.604 243.816 360.557C243.934 360.506 244.059 360.48 244.191 360.48C244.324 360.48 244.447 360.506 244.561 360.557C244.674 360.604 244.771 360.67 244.854 360.756C244.939 360.842 245.006 360.941 245.053 361.055C245.1 361.168 245.123 361.289 245.123 361.418ZM243.541 364.16H241.859V363.047H245.006V367.887H246.723V369H241.654V367.887H243.541V364.16ZM251.768 369V365.121C251.768 364.469 251.525 364.143 251.041 364.143C250.799 364.143 250.566 364.24 250.344 364.436C250.125 364.631 249.893 364.896 249.646 365.232V369H248.217V363.047H249.453L249.488 363.926C249.609 363.773 249.734 363.635 249.863 363.51C249.996 363.385 250.139 363.279 250.291 363.193C250.443 363.104 250.607 363.035 250.783 362.988C250.959 362.941 251.156 362.918 251.375 362.918C251.68 362.918 251.945 362.969 252.172 363.07C252.398 363.168 252.588 363.309 252.74 363.492C252.893 363.672 253.006 363.891 253.08 364.148C253.158 364.402 253.197 364.688 253.197 365.004V369H251.768ZM261.752 369V361.342H263.217V367.764H266.451V369H261.752ZM271.742 369L271.707 368.221C271.582 368.354 271.451 368.477 271.314 368.59C271.178 368.699 271.027 368.795 270.863 368.877C270.699 368.959 270.52 369.021 270.324 369.064C270.133 369.111 269.922 369.135 269.691 369.135C269.387 369.135 269.119 369.09 268.889 369C268.658 368.91 268.465 368.785 268.309 368.625C268.152 368.465 268.033 368.271 267.951 368.045C267.873 367.818 267.834 367.568 267.834 367.295C267.834 367.014 267.893 366.754 268.01 366.516C268.131 366.277 268.312 366.072 268.555 365.9C268.801 365.729 269.105 365.594 269.469 365.496C269.836 365.398 270.266 365.35 270.758 365.35H271.537V364.992C271.537 364.84 271.516 364.703 271.473 364.582C271.43 364.457 271.359 364.352 271.262 364.266C271.168 364.18 271.045 364.113 270.893 364.066C270.74 364.02 270.553 363.996 270.33 363.996C269.979 363.996 269.631 364.037 269.287 364.119C268.947 364.197 268.617 364.309 268.297 364.453V363.311C268.582 363.197 268.91 363.104 269.281 363.029C269.656 362.955 270.045 362.918 270.447 362.918C270.889 362.918 271.268 362.961 271.584 363.047C271.9 363.129 272.16 363.254 272.363 363.422C272.57 363.59 272.723 363.801 272.82 364.055C272.918 364.305 272.967 364.598 272.967 364.934V369H271.742ZM271.537 366.369H270.664C270.422 366.369 270.217 366.393 270.049 366.439C269.881 366.486 269.744 366.551 269.639 366.633C269.533 366.715 269.455 366.811 269.404 366.92C269.357 367.025 269.334 367.139 269.334 367.26C269.334 367.502 269.412 367.688 269.568 367.816C269.725 367.941 269.938 368.004 270.207 368.004C270.406 368.004 270.613 367.932 270.828 367.787C271.043 367.643 271.279 367.436 271.537 367.166V366.369ZM278.188 368.35C277.98 368.865 277.764 369.316 277.537 369.703C277.314 370.094 277.068 370.418 276.799 370.676C276.529 370.938 276.229 371.133 275.896 371.262C275.568 371.395 275.199 371.461 274.789 371.461C274.691 371.461 274.584 371.455 274.467 371.443C274.354 371.436 274.236 371.422 274.115 371.402V370.189C274.162 370.197 274.215 370.205 274.273 370.213C274.336 370.225 274.4 370.232 274.467 370.236C274.533 370.244 274.6 370.25 274.666 370.254C274.736 370.258 274.801 370.26 274.859 370.26C275.023 370.26 275.176 370.229 275.316 370.166C275.457 370.104 275.586 370.016 275.703 369.902C275.824 369.793 275.934 369.66 276.031 369.504C276.129 369.352 276.215 369.184 276.289 369L273.928 363.047H275.521L276.758 366.422L277.127 367.512L277.49 366.469L278.738 363.047H280.273L278.188 368.35ZM286.391 365.566C286.391 365.664 286.387 365.791 286.379 365.947C286.375 366.104 286.367 366.25 286.355 366.387H282.441C282.441 366.648 282.48 366.879 282.559 367.078C282.641 367.277 282.754 367.445 282.898 367.582C283.047 367.715 283.223 367.816 283.426 367.887C283.633 367.957 283.861 367.992 284.111 367.992C284.4 367.992 284.709 367.971 285.037 367.928C285.369 367.881 285.713 367.807 286.068 367.705V368.842C285.916 368.885 285.75 368.924 285.57 368.959C285.391 368.994 285.207 369.025 285.02 369.053C284.832 369.08 284.643 369.1 284.451 369.111C284.26 369.127 284.074 369.135 283.895 369.135C283.441 369.135 283.035 369.07 282.676 368.941C282.316 368.812 282.012 368.623 281.762 368.373C281.512 368.119 281.32 367.807 281.188 367.436C281.055 367.064 280.988 366.635 280.988 366.146C280.988 365.662 281.055 365.223 281.188 364.828C281.32 364.43 281.508 364.09 281.75 363.809C281.992 363.523 282.285 363.305 282.629 363.152C282.977 362.996 283.363 362.918 283.789 362.918C284.211 362.918 284.584 362.984 284.908 363.117C285.232 363.246 285.504 363.428 285.723 363.662C285.941 363.896 286.107 364.176 286.221 364.5C286.334 364.824 286.391 365.18 286.391 365.566ZM284.938 365.361C284.941 365.127 284.912 364.924 284.85 364.752C284.787 364.576 284.701 364.432 284.592 364.318C284.486 364.205 284.361 364.121 284.217 364.066C284.076 364.012 283.924 363.984 283.76 363.984C283.4 363.984 283.105 364.105 282.875 364.348C282.645 364.586 282.508 364.924 282.465 365.361H284.938ZM291.635 365.361C291.643 365.139 291.631 364.949 291.6 364.793C291.572 364.637 291.525 364.508 291.459 364.406C291.396 364.305 291.318 364.23 291.225 364.184C291.131 364.137 291.023 364.113 290.902 364.113C290.691 364.113 290.473 364.201 290.246 364.377C290.023 364.549 289.777 364.834 289.508 365.232V369H288.043V363.047H289.338L289.391 363.914C289.488 363.762 289.598 363.625 289.719 363.504C289.844 363.383 289.98 363.279 290.129 363.193C290.281 363.104 290.449 363.035 290.633 362.988C290.816 362.941 291.018 362.918 291.236 362.918C291.537 362.918 291.803 362.971 292.033 363.076C292.268 363.178 292.463 363.33 292.619 363.533C292.779 363.736 292.896 363.992 292.971 364.301C293.049 364.605 293.082 364.959 293.07 365.361H291.635Z" fill="black"/>
<rect x="190.5" y="141.5" width="126" height="26" rx="2.5" fill="#7DE77B" stroke="black" stroke-width="3"/>
<path d="M215.096 158L214.674 156.488H212.002L211.568 158H210.139L212.406 150.342H214.422L216.689 158H215.096ZM213.355 151.748L212.348 155.311H214.352L213.355 151.748ZM222.883 154.918C222.883 155.465 222.805 155.938 222.648 156.336C222.496 156.734 222.281 157.066 222.004 157.332C221.73 157.594 221.406 157.789 221.031 157.918C220.656 158.043 220.248 158.105 219.807 158.105C219.658 158.105 219.51 158.096 219.361 158.076C219.213 158.057 219.078 158.031 218.957 158V160.326H217.527V152.047H218.764L218.799 152.926C218.92 152.773 219.045 152.635 219.174 152.51C219.307 152.385 219.449 152.279 219.602 152.193C219.754 152.104 219.918 152.035 220.094 151.988C220.27 151.941 220.467 151.918 220.686 151.918C221.037 151.918 221.35 151.988 221.623 152.129C221.896 152.27 222.125 152.471 222.309 152.732C222.496 152.99 222.639 153.305 222.736 153.676C222.834 154.043 222.883 154.457 222.883 154.918ZM221.383 154.977C221.383 154.648 221.359 154.369 221.312 154.139C221.266 153.908 221.197 153.719 221.107 153.57C221.021 153.422 220.914 153.314 220.785 153.248C220.66 153.178 220.516 153.143 220.352 153.143C220.109 153.143 219.877 153.24 219.654 153.436C219.436 153.631 219.203 153.896 218.957 154.232V156.834C219.07 156.877 219.209 156.912 219.373 156.939C219.541 156.967 219.711 156.98 219.883 156.98C220.109 156.98 220.314 156.934 220.498 156.84C220.686 156.746 220.844 156.613 220.973 156.441C221.105 156.27 221.207 156.061 221.277 155.814C221.348 155.564 221.383 155.285 221.383 154.977ZM229.486 154.977C229.486 155.445 229.42 155.875 229.287 156.266C229.154 156.652 228.963 156.984 228.713 157.262C228.463 157.539 228.156 157.754 227.793 157.906C227.43 158.059 227.016 158.135 226.551 158.135C226.109 158.135 225.715 158.07 225.367 157.941C225.02 157.812 224.725 157.621 224.482 157.367C224.24 157.109 224.055 156.789 223.926 156.406C223.797 156.02 223.732 155.57 223.732 155.059C223.732 154.586 223.799 154.156 223.932 153.77C224.068 153.383 224.262 153.053 224.512 152.779C224.766 152.506 225.074 152.295 225.438 152.146C225.801 151.994 226.211 151.918 226.668 151.918C227.113 151.918 227.51 151.984 227.857 152.117C228.205 152.246 228.5 152.439 228.742 152.697C228.984 152.955 229.168 153.275 229.293 153.658C229.422 154.037 229.486 154.477 229.486 154.977ZM227.998 155.012C227.998 154.395 227.881 153.932 227.646 153.623C227.416 153.311 227.074 153.154 226.621 153.154C226.371 153.154 226.158 153.203 225.982 153.301C225.807 153.398 225.662 153.533 225.549 153.705C225.436 153.873 225.352 154.07 225.297 154.297C225.246 154.523 225.221 154.766 225.221 155.023C225.221 155.645 225.346 156.113 225.596 156.43C225.846 156.742 226.188 156.898 226.621 156.898C226.859 156.898 227.066 156.852 227.242 156.758C227.418 156.66 227.561 156.527 227.67 156.359C227.779 156.188 227.861 155.986 227.916 155.756C227.971 155.525 227.998 155.277 227.998 155.012ZM232.645 150.834H230.963V149.721H234.109V156.887H235.826V158H230.758V156.887H232.645V150.834ZM239.242 150.834H237.561V149.721H240.707V156.887H242.424V158H237.355V156.887H239.242V150.834ZM249.279 154.977C249.279 155.445 249.213 155.875 249.08 156.266C248.947 156.652 248.756 156.984 248.506 157.262C248.256 157.539 247.949 157.754 247.586 157.906C247.223 158.059 246.809 158.135 246.344 158.135C245.902 158.135 245.508 158.07 245.16 157.941C244.812 157.812 244.518 157.621 244.275 157.367C244.033 157.109 243.848 156.789 243.719 156.406C243.59 156.02 243.525 155.57 243.525 155.059C243.525 154.586 243.592 154.156 243.725 153.77C243.861 153.383 244.055 153.053 244.305 152.779C244.559 152.506 244.867 152.295 245.23 152.146C245.594 151.994 246.004 151.918 246.461 151.918C246.906 151.918 247.303 151.984 247.65 152.117C247.998 152.246 248.293 152.439 248.535 152.697C248.777 152.955 248.961 153.275 249.086 153.658C249.215 154.037 249.279 154.477 249.279 154.977ZM247.791 155.012C247.791 154.395 247.674 153.932 247.439 153.623C247.209 153.311 246.867 153.154 246.414 153.154C246.164 153.154 245.951 153.203 245.775 153.301C245.6 153.398 245.455 153.533 245.342 153.705C245.229 153.873 245.145 154.07 245.09 154.297C245.039 154.523 245.014 154.766 245.014 155.023C245.014 155.645 245.139 156.113 245.389 156.43C245.639 156.742 245.98 156.898 246.414 156.898C246.652 156.898 246.859 156.852 247.035 156.758C247.211 156.66 247.354 156.527 247.463 156.359C247.572 156.188 247.654 155.986 247.709 155.756C247.764 155.525 247.791 155.277 247.791 155.012ZM262.182 157.701C261.842 157.838 261.512 157.939 261.191 158.006C260.875 158.072 260.545 158.105 260.201 158.105C259.65 158.105 259.162 158.025 258.736 157.865C258.314 157.701 257.957 157.459 257.664 157.139C257.375 156.818 257.154 156.422 257.002 155.949C256.854 155.473 256.779 154.92 256.779 154.291C256.779 153.646 256.861 153.074 257.025 152.574C257.189 152.07 257.424 151.646 257.729 151.303C258.033 150.955 258.402 150.691 258.836 150.512C259.273 150.328 259.764 150.236 260.307 150.236C260.482 150.236 260.646 150.24 260.799 150.248C260.955 150.256 261.107 150.271 261.256 150.295C261.404 150.314 261.555 150.342 261.707 150.377C261.859 150.412 262.018 150.457 262.182 150.512V151.941C261.85 151.785 261.533 151.674 261.232 151.607C260.932 151.541 260.658 151.508 260.412 151.508C260.049 151.508 259.738 151.574 259.48 151.707C259.223 151.836 259.01 152.02 258.842 152.258C258.678 152.492 258.557 152.773 258.479 153.102C258.4 153.426 258.361 153.783 258.361 154.174C258.361 154.588 258.4 154.959 258.479 155.287C258.561 155.611 258.686 155.887 258.854 156.113C259.021 156.34 259.236 156.514 259.498 156.635C259.76 156.752 260.07 156.811 260.43 156.811C260.559 156.811 260.697 156.799 260.846 156.775C260.998 156.748 261.15 156.715 261.303 156.676C261.459 156.633 261.611 156.584 261.76 156.529C261.912 156.471 262.053 156.412 262.182 156.354V157.701ZM265.633 150.834H263.951V149.721H267.098V156.887H268.814V158H263.746V156.887H265.633V150.834ZM273.812 150.418C273.812 150.547 273.789 150.668 273.742 150.781C273.695 150.895 273.629 150.994 273.543 151.08C273.461 151.162 273.363 151.229 273.25 151.279C273.137 151.326 273.014 151.35 272.881 151.35C272.748 151.35 272.623 151.326 272.506 151.279C272.393 151.229 272.293 151.162 272.207 151.08C272.125 150.994 272.061 150.895 272.014 150.781C271.967 150.668 271.943 150.547 271.943 150.418C271.943 150.289 271.967 150.168 272.014 150.055C272.061 149.941 272.125 149.842 272.207 149.756C272.293 149.67 272.393 149.604 272.506 149.557C272.623 149.506 272.748 149.48 272.881 149.48C273.014 149.48 273.137 149.506 273.25 149.557C273.363 149.604 273.461 149.67 273.543 149.756C273.629 149.842 273.695 149.941 273.742 150.055C273.789 150.168 273.812 150.289 273.812 150.418ZM272.23 153.16H270.549V152.047H273.695V156.887H275.412V158H270.344V156.887H272.23V153.16ZM282.092 154.566C282.092 154.664 282.088 154.791 282.08 154.947C282.076 155.104 282.068 155.25 282.057 155.387H278.143C278.143 155.648 278.182 155.879 278.26 156.078C278.342 156.277 278.455 156.445 278.6 156.582C278.748 156.715 278.924 156.816 279.127 156.887C279.334 156.957 279.562 156.992 279.812 156.992C280.102 156.992 280.41 156.971 280.738 156.928C281.07 156.881 281.414 156.807 281.77 156.705V157.842C281.617 157.885 281.451 157.924 281.271 157.959C281.092 157.994 280.908 158.025 280.721 158.053C280.533 158.08 280.344 158.1 280.152 158.111C279.961 158.127 279.775 158.135 279.596 158.135C279.143 158.135 278.736 158.07 278.377 157.941C278.018 157.812 277.713 157.623 277.463 157.373C277.213 157.119 277.021 156.807 276.889 156.436C276.756 156.064 276.689 155.635 276.689 155.146C276.689 154.662 276.756 154.223 276.889 153.828C277.021 153.43 277.209 153.09 277.451 152.809C277.693 152.523 277.986 152.305 278.33 152.152C278.678 151.996 279.064 151.918 279.49 151.918C279.912 151.918 280.285 151.984 280.609 152.117C280.934 152.246 281.205 152.428 281.424 152.662C281.643 152.896 281.809 153.176 281.922 153.5C282.035 153.824 282.092 154.18 282.092 154.566ZM280.639 154.361C280.643 154.127 280.613 153.924 280.551 153.752C280.488 153.576 280.402 153.432 280.293 153.318C280.188 153.205 280.062 153.121 279.918 153.066C279.777 153.012 279.625 152.984 279.461 152.984C279.102 152.984 278.807 153.105 278.576 153.348C278.346 153.586 278.209 153.924 278.166 154.361H280.639ZM287.055 158V154.121C287.055 153.469 286.812 153.143 286.328 153.143C286.086 153.143 285.854 153.24 285.631 153.436C285.412 153.631 285.18 153.896 284.934 154.232V158H283.504V152.047H284.74L284.775 152.926C284.896 152.773 285.021 152.635 285.15 152.51C285.283 152.385 285.426 152.279 285.578 152.193C285.73 152.104 285.895 152.035 286.07 151.988C286.246 151.941 286.443 151.918 286.662 151.918C286.967 151.918 287.232 151.969 287.459 152.07C287.686 152.168 287.875 152.309 288.027 152.492C288.18 152.672 288.293 152.891 288.367 153.148C288.445 153.402 288.484 153.688 288.484 154.004V158H287.055ZM295.012 157.941C294.754 158 294.494 158.047 294.232 158.082C293.971 158.117 293.723 158.135 293.488 158.135C293.098 158.135 292.76 158.094 292.475 158.012C292.193 157.93 291.959 157.805 291.771 157.637C291.588 157.469 291.451 157.256 291.361 156.998C291.275 156.736 291.232 156.426 291.232 156.066V153.16H289.633V152.047H291.232V150.523L292.697 150.143V152.047H295.012V153.16H292.697V155.961C292.697 156.301 292.775 156.559 292.932 156.734C293.088 156.906 293.35 156.992 293.717 156.992C293.951 156.992 294.18 156.973 294.402 156.934C294.625 156.895 294.828 156.85 295.012 156.799V157.941Z" fill="black"/>
<rect x="188.5" y="271.5" width="128" height="26" rx="2.5" fill="#7DE77B" stroke="black" stroke-width="3"/>
<path d="M217.096 288L216.674 286.488H214.002L213.568 288H212.139L214.406 280.342H216.422L218.689 288H217.096ZM215.355 281.748L214.348 285.311H216.352L215.355 281.748ZM224.883 284.918C224.883 285.465 224.805 285.938 224.648 286.336C224.496 286.734 224.281 287.066 224.004 287.332C223.73 287.594 223.406 287.789 223.031 287.918C222.656 288.043 222.248 288.105 221.807 288.105C221.658 288.105 221.51 288.096 221.361 288.076C221.213 288.057 221.078 288.031 220.957 288V290.326H219.527V282.047H220.764L220.799 282.926C220.92 282.773 221.045 282.635 221.174 282.51C221.307 282.385 221.449 282.279 221.602 282.193C221.754 282.104 221.918 282.035 222.094 281.988C222.27 281.941 222.467 281.918 222.686 281.918C223.037 281.918 223.35 281.988 223.623 282.129C223.896 282.27 224.125 282.471 224.309 282.732C224.496 282.99 224.639 283.305 224.736 283.676C224.834 284.043 224.883 284.457 224.883 284.918ZM223.383 284.977C223.383 284.648 223.359 284.369 223.312 284.139C223.266 283.908 223.197 283.719 223.107 283.57C223.021 283.422 222.914 283.314 222.785 283.248C222.66 283.178 222.516 283.143 222.352 283.143C222.109 283.143 221.877 283.24 221.654 283.436C221.436 283.631 221.203 283.896 220.957 284.232V286.834C221.07 286.877 221.209 286.912 221.373 286.939C221.541 286.967 221.711 286.98 221.883 286.98C222.109 286.98 222.314 286.934 222.498 286.84C222.686 286.746 222.844 286.613 222.973 286.441C223.105 286.27 223.207 286.061 223.277 285.814C223.348 285.564 223.383 285.285 223.383 284.977ZM231.486 284.977C231.486 285.445 231.42 285.875 231.287 286.266C231.154 286.652 230.963 286.984 230.713 287.262C230.463 287.539 230.156 287.754 229.793 287.906C229.43 288.059 229.016 288.135 228.551 288.135C228.109 288.135 227.715 288.07 227.367 287.941C227.02 287.812 226.725 287.621 226.482 287.367C226.24 287.109 226.055 286.789 225.926 286.406C225.797 286.02 225.732 285.57 225.732 285.059C225.732 284.586 225.799 284.156 225.932 283.77C226.068 283.383 226.262 283.053 226.512 282.779C226.766 282.506 227.074 282.295 227.438 282.146C227.801 281.994 228.211 281.918 228.668 281.918C229.113 281.918 229.51 281.984 229.857 282.117C230.205 282.246 230.5 282.439 230.742 282.697C230.984 282.955 231.168 283.275 231.293 283.658C231.422 284.037 231.486 284.477 231.486 284.977ZM229.998 285.012C229.998 284.395 229.881 283.932 229.646 283.623C229.416 283.311 229.074 283.154 228.621 283.154C228.371 283.154 228.158 283.203 227.982 283.301C227.807 283.398 227.662 283.533 227.549 283.705C227.436 283.873 227.352 284.07 227.297 284.297C227.246 284.523 227.221 284.766 227.221 285.023C227.221 285.645 227.346 286.113 227.596 286.43C227.846 286.742 228.188 286.898 228.621 286.898C228.859 286.898 229.066 286.852 229.242 286.758C229.418 286.66 229.561 286.527 229.67 286.359C229.779 286.188 229.861 285.986 229.916 285.756C229.971 285.525 229.998 285.277 229.998 285.012ZM234.645 280.834H232.963V279.721H236.109V286.887H237.826V288H232.758V286.887H234.645V280.834ZM241.242 280.834H239.561V279.721H242.707V286.887H244.424V288H239.355V286.887H241.242V280.834ZM251.279 284.977C251.279 285.445 251.213 285.875 251.08 286.266C250.947 286.652 250.756 286.984 250.506 287.262C250.256 287.539 249.949 287.754 249.586 287.906C249.223 288.059 248.809 288.135 248.344 288.135C247.902 288.135 247.508 288.07 247.16 287.941C246.812 287.812 246.518 287.621 246.275 287.367C246.033 287.109 245.848 286.789 245.719 286.406C245.59 286.02 245.525 285.57 245.525 285.059C245.525 284.586 245.592 284.156 245.725 283.77C245.861 283.383 246.055 283.053 246.305 282.779C246.559 282.506 246.867 282.295 247.23 282.146C247.594 281.994 248.004 281.918 248.461 281.918C248.906 281.918 249.303 281.984 249.65 282.117C249.998 282.246 250.293 282.439 250.535 282.697C250.777 282.955 250.961 283.275 251.086 283.658C251.215 284.037 251.279 284.477 251.279 284.977ZM249.791 285.012C249.791 284.395 249.674 283.932 249.439 283.623C249.209 283.311 248.867 283.154 248.414 283.154C248.164 283.154 247.951 283.203 247.775 283.301C247.6 283.398 247.455 283.533 247.342 283.705C247.229 283.873 247.145 284.07 247.09 284.297C247.039 284.523 247.014 284.766 247.014 285.023C247.014 285.645 247.139 286.113 247.389 286.43C247.639 286.742 247.98 286.898 248.414 286.898C248.652 286.898 248.859 286.852 249.035 286.758C249.211 286.66 249.354 286.527 249.463 286.359C249.572 286.188 249.654 285.986 249.709 285.756C249.764 285.525 249.791 285.277 249.791 285.012ZM264.275 285.686C264.275 286.104 264.197 286.467 264.041 286.775C263.889 287.084 263.674 287.34 263.396 287.543C263.119 287.742 262.789 287.891 262.406 287.988C262.023 288.086 261.605 288.135 261.152 288.135C260.75 288.135 260.361 288.111 259.986 288.064C259.611 288.018 259.24 287.939 258.873 287.83V286.406C259.053 286.469 259.24 286.527 259.436 286.582C259.631 286.637 259.826 286.686 260.021 286.729C260.221 286.768 260.418 286.799 260.613 286.822C260.809 286.846 260.998 286.857 261.182 286.857C261.455 286.857 261.688 286.834 261.879 286.787C262.07 286.74 262.227 286.676 262.348 286.594C262.469 286.512 262.557 286.414 262.611 286.301C262.666 286.188 262.693 286.062 262.693 285.926C262.693 285.738 262.639 285.582 262.529 285.457C262.424 285.328 262.283 285.215 262.107 285.117C261.932 285.02 261.73 284.932 261.504 284.854C261.281 284.775 261.053 284.691 260.818 284.602C260.588 284.512 260.359 284.41 260.133 284.297C259.91 284.184 259.711 284.043 259.535 283.875C259.359 283.707 259.217 283.508 259.107 283.277C259.002 283.043 258.949 282.762 258.949 282.434C258.949 282.133 259.004 281.848 259.113 281.578C259.223 281.309 259.395 281.074 259.629 280.875C259.863 280.672 260.164 280.512 260.531 280.395C260.898 280.273 261.342 280.213 261.861 280.213C262.014 280.213 262.172 280.221 262.336 280.236C262.504 280.248 262.668 280.266 262.828 280.289C262.992 280.309 263.148 280.334 263.297 280.365C263.449 280.393 263.588 280.422 263.713 280.453V281.771C263.588 281.725 263.451 281.682 263.303 281.643C263.154 281.604 263 281.57 262.84 281.543C262.684 281.512 262.525 281.488 262.365 281.473C262.205 281.457 262.053 281.449 261.908 281.449C261.654 281.449 261.439 281.471 261.264 281.514C261.088 281.553 260.943 281.609 260.83 281.684C260.717 281.754 260.635 281.842 260.584 281.947C260.533 282.053 260.508 282.17 260.508 282.299C260.508 282.459 260.561 282.598 260.666 282.715C260.775 282.828 260.918 282.932 261.094 283.025C261.273 283.115 261.475 283.201 261.697 283.283C261.924 283.361 262.154 283.447 262.389 283.541C262.627 283.631 262.857 283.734 263.08 283.852C263.307 283.969 263.508 284.111 263.684 284.279C263.863 284.447 264.006 284.646 264.111 284.877C264.221 285.104 264.275 285.373 264.275 285.686ZM270.896 284.566C270.896 284.664 270.893 284.791 270.885 284.947C270.881 285.104 270.873 285.25 270.861 285.387H266.947C266.947 285.648 266.986 285.879 267.064 286.078C267.146 286.277 267.26 286.445 267.404 286.582C267.553 286.715 267.729 286.816 267.932 286.887C268.139 286.957 268.367 286.992 268.617 286.992C268.906 286.992 269.215 286.971 269.543 286.928C269.875 286.881 270.219 286.807 270.574 286.705V287.842C270.422 287.885 270.256 287.924 270.076 287.959C269.896 287.994 269.713 288.025 269.525 288.053C269.338 288.08 269.148 288.1 268.957 288.111C268.766 288.127 268.58 288.135 268.4 288.135C267.947 288.135 267.541 288.07 267.182 287.941C266.822 287.812 266.518 287.623 266.268 287.373C266.018 287.119 265.826 286.807 265.693 286.436C265.561 286.064 265.494 285.635 265.494 285.146C265.494 284.662 265.561 284.223 265.693 283.828C265.826 283.43 266.014 283.09 266.256 282.809C266.498 282.523 266.791 282.305 267.135 282.152C267.482 281.996 267.869 281.918 268.295 281.918C268.717 281.918 269.09 281.984 269.414 282.117C269.738 282.246 270.01 282.428 270.229 282.662C270.447 282.896 270.613 283.176 270.727 283.5C270.84 283.824 270.896 284.18 270.896 284.566ZM269.443 284.361C269.447 284.127 269.418 283.924 269.355 283.752C269.293 283.576 269.207 283.432 269.098 283.318C268.992 283.205 268.867 283.121 268.723 283.066C268.582 283.012 268.43 282.984 268.266 282.984C267.906 282.984 267.611 283.105 267.381 283.348C267.15 283.586 267.014 283.924 266.971 284.361H269.443ZM276.141 284.361C276.148 284.139 276.137 283.949 276.105 283.793C276.078 283.637 276.031 283.508 275.965 283.406C275.902 283.305 275.824 283.23 275.73 283.184C275.637 283.137 275.529 283.113 275.408 283.113C275.197 283.113 274.979 283.201 274.752 283.377C274.529 283.549 274.283 283.834 274.014 284.232V288H272.549V282.047H273.844L273.896 282.914C273.994 282.762 274.104 282.625 274.225 282.504C274.35 282.383 274.486 282.279 274.635 282.193C274.787 282.104 274.955 282.035 275.139 281.988C275.322 281.941 275.523 281.918 275.742 281.918C276.043 281.918 276.309 281.971 276.539 282.076C276.773 282.178 276.969 282.33 277.125 282.533C277.285 282.736 277.402 282.992 277.477 283.301C277.555 283.605 277.588 283.959 277.576 284.361H276.141ZM282.234 288H280.588L278.227 282.047H279.82L281.057 285.422L281.426 286.512L281.789 285.469L283.037 282.047H284.572L282.234 288ZM290.689 284.566C290.689 284.664 290.686 284.791 290.678 284.947C290.674 285.104 290.666 285.25 290.654 285.387H286.74C286.74 285.648 286.779 285.879 286.857 286.078C286.939 286.277 287.053 286.445 287.197 286.582C287.346 286.715 287.521 286.816 287.725 286.887C287.932 286.957 288.16 286.992 288.41 286.992C288.699 286.992 289.008 286.971 289.336 286.928C289.668 286.881 290.012 286.807 290.367 286.705V287.842C290.215 287.885 290.049 287.924 289.869 287.959C289.689 287.994 289.506 288.025 289.318 288.053C289.131 288.08 288.941 288.1 288.75 288.111C288.559 288.127 288.373 288.135 288.193 288.135C287.74 288.135 287.334 288.07 286.975 287.941C286.615 287.812 286.311 287.623 286.061 287.373C285.811 287.119 285.619 286.807 285.486 286.436C285.354 286.064 285.287 285.635 285.287 285.146C285.287 284.662 285.354 284.223 285.486 283.828C285.619 283.43 285.807 283.09 286.049 282.809C286.291 282.523 286.584 282.305 286.928 282.152C287.275 281.996 287.662 281.918 288.088 281.918C288.51 281.918 288.883 281.984 289.207 282.117C289.531 282.246 289.803 282.428 290.021 282.662C290.24 282.896 290.406 283.176 290.52 283.5C290.633 283.824 290.689 284.18 290.689 284.566ZM289.236 284.361C289.24 284.127 289.211 283.924 289.148 283.752C289.086 283.576 289 283.432 288.891 283.318C288.785 283.205 288.66 283.121 288.516 283.066C288.375 283.012 288.223 282.984 288.059 282.984C287.699 282.984 287.404 283.105 287.174 283.348C286.943 283.586 286.807 283.924 286.764 284.361H289.236ZM295.934 284.361C295.941 284.139 295.93 283.949 295.898 283.793C295.871 283.637 295.824 283.508 295.758 283.406C295.695 283.305 295.617 283.23 295.523 283.184C295.43 283.137 295.322 283.113 295.201 283.113C294.99 283.113 294.771 283.201 294.545 283.377C294.322 283.549 294.076 283.834 293.807 284.232V288H292.342V282.047H293.637L293.689 282.914C293.787 282.762 293.896 282.625 294.018 282.504C294.143 282.383 294.279 282.279 294.428 282.193C294.58 282.104 294.748 282.035 294.932 281.988C295.115 281.941 295.316 281.918 295.535 281.918C295.836 281.918 296.102 281.971 296.332 282.076C296.566 282.178 296.762 282.33 296.918 282.533C297.078 282.736 297.195 282.992 297.27 283.301C297.348 283.605 297.381 283.959 297.369 284.361H295.934Z" fill="black"/>
<rect x="217.5" y="496.1" width="73" height="31.4" fill="#FFFD54" stroke="black" stroke-width="3"/>
<rect x="217.5" y="467.3" width="73" height="31.4" fill="#FFFD54" stroke="black" stroke-width="3"/>
<path d="M290.5 494.6C290.5 495.564 289.879 496.753 288.116 498.069C286.381 499.364 283.774 500.595 280.418 501.655C273.724 503.768 264.384 505.1 254 505.1C243.616 505.1 234.276 503.768 227.582 501.655C224.226 500.595 221.619 499.364 219.884 498.069C218.121 496.753 217.5 495.564 217.5 494.6C217.5 493.635 218.121 492.447 219.884 491.131C221.619 489.835 224.226 488.604 227.582 487.545C234.276 485.431 243.616 484.1 254 484.1C264.384 484.1 273.724 485.431 280.418 487.545C283.774 488.604 286.381 489.835 288.116 491.131C289.879 492.447 290.5 493.635 290.5 494.6Z" fill="#FFFD54" stroke="black" stroke-width="3"/>
<path d="M290.5 465C290.5 465.965 289.879 467.153 288.116 468.469C286.381 469.765 283.774 470.995 280.418 472.055C273.724 474.169 264.384 475.5 254 475.5C243.616 475.5 234.276 474.169 227.582 472.055C224.226 470.995 221.619 469.765 219.884 468.469C218.121 467.153 217.5 465.965 217.5 465C217.5 464.035 218.121 462.847 219.884 461.531C221.619 460.235 224.226 459.005 227.582 457.945C234.276 455.831 243.616 454.5 254 454.5C264.384 454.5 273.724 455.831 280.418 457.945C283.774 459.005 286.381 460.235 288.116 461.531C289.879 462.847 290.5 464.035 290.5 465Z" fill="#FFFD54" stroke="black" stroke-width="3"/>
<path d="M290.5 529C290.5 529.965 289.879 531.153 288.116 532.469C286.381 533.765 283.774 534.995 280.418 536.055C273.724 538.169 264.384 539.5 254 539.5C243.616 539.5 234.276 538.169 227.582 536.055C224.226 534.995 221.619 533.765 219.884 532.469C218.121 531.153 217.5 529.965 217.5 529C217.5 528.035 218.121 526.847 219.884 525.531C221.619 524.235 224.226 523.005 227.582 521.945C234.276 519.831 243.616 518.5 254 518.5C264.384 518.5 273.724 519.831 280.418 521.945C283.774 523.005 286.381 524.235 288.116 525.531C289.879 526.847 290.5 528.035 290.5 529Z" fill="#FFFD54" stroke="black" stroke-width="3"/>
<line x1="254" y1="426" x2="254" y2="453" stroke="black" stroke-width="2"/>
<path d="M253.689 465.074C253.689 465.668 253.615 466.207 253.467 466.691C253.322 467.176 253.094 467.59 252.781 467.934C252.473 468.273 252.076 468.537 251.592 468.725C251.107 468.908 250.527 469 249.852 469H247.906V461.342H250.174C250.76 461.342 251.271 461.416 251.709 461.564C252.15 461.709 252.518 461.934 252.811 462.238C253.104 462.543 253.322 462.93 253.467 463.398C253.615 463.867 253.689 464.426 253.689 465.074ZM252.143 465.168C252.143 464.754 252.109 464.385 252.043 464.061C251.977 463.736 251.863 463.463 251.703 463.24C251.547 463.014 251.336 462.842 251.07 462.725C250.805 462.607 250.475 462.549 250.08 462.549H249.348V467.793H249.98C250.688 467.793 251.225 467.582 251.592 467.16C251.959 466.738 252.143 466.074 252.143 465.168ZM260.17 465.918C260.17 466.465 260.092 466.938 259.936 467.336C259.783 467.734 259.568 468.066 259.291 468.332C259.018 468.594 258.693 468.789 258.318 468.918C257.943 469.043 257.535 469.105 257.094 469.105C256.66 469.105 256.256 469.072 255.881 469.006C255.51 468.943 255.154 468.857 254.814 468.748V460.721H256.244V462.666L256.186 463.838C256.4 463.561 256.65 463.338 256.936 463.17C257.225 463.002 257.57 462.918 257.973 462.918C258.324 462.918 258.637 462.988 258.91 463.129C259.184 463.27 259.412 463.471 259.596 463.732C259.783 463.99 259.926 464.305 260.023 464.676C260.121 465.043 260.17 465.457 260.17 465.918ZM258.67 465.977C258.67 465.648 258.646 465.369 258.6 465.139C258.553 464.908 258.484 464.719 258.395 464.57C258.309 464.422 258.201 464.314 258.072 464.248C257.947 464.178 257.803 464.143 257.639 464.143C257.396 464.143 257.164 464.24 256.941 464.436C256.723 464.631 256.49 464.896 256.244 465.232V467.834C256.357 467.877 256.496 467.912 256.66 467.939C256.828 467.967 256.998 467.98 257.17 467.98C257.396 467.98 257.602 467.934 257.785 467.84C257.973 467.746 258.131 467.613 258.26 467.441C258.393 467.27 258.494 467.061 258.564 466.814C258.635 466.564 258.67 466.285 258.67 465.977Z" fill="black"/>
</svg>
