<svg width="804" height="338" viewBox="0 0 804 338" fill="none" xmlns="http://www.w3.org/2000/svg">
<rect width="804" height="338" fill="white"/>
<rect x="597.5" y="93.5" width="136" height="44" rx="2.5" fill="#7DE77B" stroke="black" stroke-width="3"/>
<rect x="70.5" y="93.5" width="136" height="44" rx="2.5" fill="#7DE77B" stroke="black" stroke-width="3"/>
<rect x="171.5" y="216.5" width="122" height="22" rx="2.5" fill="#FFFD54" stroke="black" stroke-width="3"/>
<path d="M211.742 228.76V227.57H214.467V231.654C214.115 231.818 213.748 231.939 213.365 232.018C212.982 232.096 212.566 232.135 212.117 232.135C211.586 232.135 211.107 232.053 210.682 231.889C210.26 231.725 209.9 231.48 209.604 231.156C209.307 230.832 209.078 230.43 208.918 229.949C208.762 229.469 208.684 228.912 208.684 228.279C208.684 227.643 208.766 227.072 208.93 226.568C209.098 226.064 209.34 225.639 209.656 225.291C209.977 224.939 210.367 224.672 210.828 224.488C211.293 224.305 211.822 224.213 212.416 224.213C212.768 224.213 213.109 224.244 213.441 224.307C213.777 224.365 214.111 224.445 214.443 224.547V225.971C214.154 225.834 213.834 225.723 213.482 225.637C213.135 225.547 212.783 225.502 212.428 225.502C212.068 225.502 211.75 225.564 211.473 225.689C211.199 225.814 210.969 225.992 210.781 226.223C210.598 226.453 210.457 226.736 210.359 227.072C210.266 227.408 210.219 227.787 210.219 228.209C210.219 228.615 210.256 228.982 210.33 229.311C210.404 229.635 210.523 229.912 210.688 230.143C210.855 230.369 211.07 230.543 211.332 230.664C211.594 230.785 211.912 230.846 212.287 230.846C212.377 230.846 212.455 230.844 212.521 230.84C212.588 230.832 212.65 230.822 212.709 230.811C212.768 230.799 212.822 230.785 212.873 230.77C212.928 230.754 212.984 230.736 213.043 230.717V228.76H211.742ZM219.652 228.361C219.66 228.139 219.648 227.949 219.617 227.793C219.59 227.637 219.543 227.508 219.477 227.406C219.414 227.305 219.336 227.23 219.242 227.184C219.148 227.137 219.041 227.113 218.92 227.113C218.709 227.113 218.49 227.201 218.264 227.377C218.041 227.549 217.795 227.834 217.525 228.232V232H216.061V226.047H217.355L217.408 226.914C217.506 226.762 217.615 226.625 217.736 226.504C217.861 226.383 217.998 226.279 218.146 226.193C218.299 226.104 218.467 226.035 218.65 225.988C218.834 225.941 219.035 225.918 219.254 225.918C219.555 225.918 219.82 225.971 220.051 226.076C220.285 226.178 220.48 226.33 220.637 226.533C220.797 226.736 220.914 226.992 220.988 227.301C221.066 227.605 221.1 227.959 221.088 228.361H219.652ZM226.15 232L226.115 231.221C225.99 231.354 225.859 231.477 225.723 231.59C225.586 231.699 225.436 231.795 225.271 231.877C225.107 231.959 224.928 232.021 224.732 232.064C224.541 232.111 224.33 232.135 224.1 232.135C223.795 232.135 223.527 232.09 223.297 232C223.066 231.91 222.873 231.785 222.717 231.625C222.561 231.465 222.441 231.271 222.359 231.045C222.281 230.818 222.242 230.568 222.242 230.295C222.242 230.014 222.301 229.754 222.418 229.516C222.539 229.277 222.721 229.072 222.963 228.9C223.209 228.729 223.514 228.594 223.877 228.496C224.244 228.398 224.674 228.35 225.166 228.35H225.945V227.992C225.945 227.84 225.924 227.703 225.881 227.582C225.838 227.457 225.768 227.352 225.67 227.266C225.576 227.18 225.453 227.113 225.301 227.066C225.148 227.02 224.961 226.996 224.738 226.996C224.387 226.996 224.039 227.037 223.695 227.119C223.355 227.197 223.025 227.309 222.705 227.453V226.311C222.99 226.197 223.318 226.104 223.689 226.029C224.064 225.955 224.453 225.918 224.855 225.918C225.297 225.918 225.676 225.961 225.992 226.047C226.309 226.129 226.568 226.254 226.771 226.422C226.979 226.59 227.131 226.801 227.229 227.055C227.326 227.305 227.375 227.598 227.375 227.934V232H226.15ZM225.945 229.369H225.072C224.83 229.369 224.625 229.393 224.457 229.439C224.289 229.486 224.152 229.551 224.047 229.633C223.941 229.715 223.863 229.811 223.812 229.92C223.766 230.025 223.742 230.139 223.742 230.26C223.742 230.502 223.82 230.688 223.977 230.816C224.133 230.941 224.346 231.004 224.615 231.004C224.814 231.004 225.021 230.932 225.236 230.787C225.451 230.643 225.688 230.436 225.945 230.166V229.369ZM234.371 228.918C234.371 229.465 234.293 229.938 234.137 230.336C233.984 230.734 233.77 231.066 233.492 231.332C233.219 231.594 232.895 231.789 232.52 231.918C232.145 232.043 231.736 232.105 231.295 232.105C231.146 232.105 230.998 232.096 230.85 232.076C230.701 232.057 230.566 232.031 230.445 232V234.326H229.016V226.047H230.252L230.287 226.926C230.408 226.773 230.533 226.635 230.662 226.51C230.795 226.385 230.938 226.279 231.09 226.193C231.242 226.104 231.406 226.035 231.582 225.988C231.758 225.941 231.955 225.918 232.174 225.918C232.525 225.918 232.838 225.988 233.111 226.129C233.385 226.27 233.613 226.471 233.797 226.732C233.984 226.99 234.127 227.305 234.225 227.676C234.322 228.043 234.371 228.457 234.371 228.918ZM232.871 228.977C232.871 228.648 232.848 228.369 232.801 228.139C232.754 227.908 232.686 227.719 232.596 227.57C232.51 227.422 232.402 227.314 232.273 227.248C232.148 227.178 232.004 227.143 231.84 227.143C231.598 227.143 231.365 227.24 231.143 227.436C230.924 227.631 230.691 227.896 230.445 228.232V230.834C230.559 230.877 230.697 230.912 230.861 230.939C231.029 230.967 231.199 230.98 231.371 230.98C231.598 230.98 231.803 230.934 231.986 230.84C232.174 230.746 232.332 230.613 232.461 230.441C232.594 230.27 232.695 230.061 232.766 229.814C232.836 229.564 232.871 229.285 232.871 228.977ZM239.164 232V228.121C239.164 227.469 238.922 227.143 238.438 227.143C238.195 227.143 237.963 227.24 237.74 227.436C237.521 227.631 237.289 227.896 237.043 228.232V232H235.613V223.721H237.043V225.76L236.973 226.838C237.094 226.693 237.217 226.564 237.342 226.451C237.467 226.334 237.602 226.236 237.746 226.158C237.891 226.08 238.047 226.021 238.215 225.982C238.383 225.939 238.568 225.918 238.771 225.918C239.076 225.918 239.342 225.969 239.568 226.07C239.795 226.168 239.984 226.309 240.137 226.492C240.289 226.672 240.402 226.891 240.477 227.148C240.555 227.402 240.594 227.688 240.594 228.004V232H239.164ZM243.951 232.059C243.166 231.914 242.58 231.521 242.193 230.881C241.807 230.24 241.613 229.361 241.613 228.244C241.613 227.553 241.693 226.955 241.854 226.451C242.018 225.943 242.24 225.525 242.521 225.197C242.807 224.865 243.139 224.619 243.518 224.459C243.9 224.295 244.309 224.213 244.742 224.213C245.75 224.213 246.508 224.545 247.016 225.209C247.523 225.873 247.777 226.832 247.777 228.086C247.777 228.684 247.717 229.213 247.596 229.674C247.475 230.135 247.303 230.529 247.08 230.857C246.861 231.186 246.602 231.449 246.301 231.648C246 231.848 245.674 231.984 245.322 232.059C245.354 232.246 245.404 232.4 245.475 232.521C245.549 232.643 245.635 232.738 245.732 232.809C245.834 232.879 245.943 232.928 246.061 232.955C246.178 232.982 246.299 232.996 246.424 232.996C246.592 232.996 246.758 232.961 246.922 232.891C247.09 232.82 247.24 232.723 247.373 232.598L248.035 233.582C247.789 233.789 247.52 233.947 247.227 234.057C246.938 234.166 246.646 234.221 246.354 234.221C245.986 234.221 245.656 234.178 245.363 234.092C245.074 234.006 244.826 233.873 244.619 233.693C244.416 233.518 244.258 233.293 244.145 233.02C244.031 232.75 243.967 232.43 243.951 232.059ZM246.254 228.209C246.254 227.303 246.135 226.627 245.896 226.182C245.658 225.736 245.266 225.514 244.719 225.514C244.441 225.514 244.203 225.572 244.004 225.689C243.805 225.803 243.641 225.973 243.512 226.199C243.383 226.422 243.287 226.697 243.225 227.025C243.166 227.35 243.137 227.721 243.137 228.139C243.137 229.037 243.258 229.711 243.5 230.16C243.746 230.609 244.145 230.834 244.695 230.834C244.973 230.834 245.209 230.777 245.404 230.664C245.604 230.547 245.766 230.377 245.891 230.154C246.016 229.932 246.107 229.658 246.166 229.334C246.225 229.006 246.254 228.631 246.254 228.209ZM249.148 232V224.342H250.613V230.764H253.848V232H249.148Z" fill="black"/>
<rect x="397.5" y="213.5" width="122" height="34" rx="2.5" fill="#FFFD54" stroke="black" stroke-width="3"/>
<rect x="492.5" y="114.5" width="53" height="27" rx="2.5" fill="#FFFD54" stroke="black" stroke-width="3"/>
<rect x="268.5" y="89.5" width="75" height="56" rx="2.5" fill="#FFFD54" stroke="black" stroke-width="3"/>
<rect x="584.5" y="214.5" width="48" height="28" rx="2.5" fill="#FFFD54" stroke="black" stroke-width="3"/>
<path d="M129.586 174.586C128.805 175.367 128.805 176.633 129.586 177.414L142.314 190.142C143.095 190.923 144.361 190.923 145.142 190.142C145.923 189.361 145.923 188.095 145.142 187.314L133.828 176L145.142 164.686C145.923 163.905 145.923 162.639 145.142 161.858C144.361 161.077 143.095 161.077 142.314 161.858L129.586 174.586ZM676.414 177.414C677.195 176.633 677.195 175.367 676.414 174.586L663.686 161.858C662.905 161.077 661.639 161.077 660.858 161.858C660.077 162.639 660.077 163.905 660.858 164.686L672.172 176L660.858 187.314C660.077 188.095 660.077 189.361 660.858 190.142C661.639 190.923 662.905 190.923 663.686 190.142L676.414 177.414ZM131 178H675V174H131V178Z" fill="black"/>
<path d="M621.727 115.852C621.727 116.779 621.617 117.578 621.398 118.25C621.185 118.922 620.888 119.474 620.508 119.906C620.133 120.339 619.69 120.659 619.18 120.867C618.674 121.076 618.133 121.18 617.555 121.18C616.211 121.18 615.201 120.734 614.523 119.844C613.846 118.948 613.508 117.648 613.508 115.945C613.508 115.018 613.615 114.219 613.828 113.547C614.047 112.875 614.344 112.323 614.719 111.891C615.099 111.458 615.542 111.138 616.047 110.93C616.557 110.721 617.102 110.617 617.68 110.617C619.023 110.617 620.034 111.062 620.711 111.953C621.388 112.844 621.727 114.143 621.727 115.852ZM619.695 115.945C619.695 114.737 619.534 113.836 619.211 113.242C618.888 112.648 618.357 112.352 617.617 112.352C617.247 112.352 616.932 112.43 616.672 112.586C616.411 112.737 616.195 112.961 616.023 113.258C615.857 113.555 615.734 113.922 615.656 114.359C615.578 114.792 615.539 115.289 615.539 115.852C615.539 117.06 615.701 117.961 616.023 118.555C616.352 119.148 616.883 119.445 617.617 119.445C617.987 119.445 618.302 119.37 618.562 119.219C618.828 119.062 619.044 118.836 619.211 118.539C619.378 118.242 619.5 117.878 619.578 117.445C619.656 117.008 619.695 116.508 619.695 115.945ZM630.242 116.891C630.242 117.62 630.138 118.25 629.93 118.781C629.727 119.312 629.44 119.755 629.07 120.109C628.706 120.458 628.273 120.719 627.773 120.891C627.273 121.057 626.729 121.141 626.141 121.141C625.943 121.141 625.745 121.128 625.547 121.102C625.349 121.076 625.169 121.042 625.008 121V124.102H623.102V113.062H624.75L624.797 114.234C624.958 114.031 625.125 113.846 625.297 113.68C625.474 113.513 625.664 113.372 625.867 113.258C626.07 113.138 626.289 113.047 626.523 112.984C626.758 112.922 627.021 112.891 627.312 112.891C627.781 112.891 628.198 112.984 628.562 113.172C628.927 113.359 629.232 113.628 629.477 113.977C629.727 114.32 629.917 114.74 630.047 115.234C630.177 115.724 630.242 116.276 630.242 116.891ZM628.242 116.969C628.242 116.531 628.211 116.159 628.148 115.852C628.086 115.544 627.995 115.292 627.875 115.094C627.76 114.896 627.617 114.753 627.445 114.664C627.279 114.57 627.086 114.523 626.867 114.523C626.544 114.523 626.234 114.654 625.938 114.914C625.646 115.174 625.336 115.529 625.008 115.977V119.445C625.159 119.503 625.344 119.549 625.562 119.586C625.786 119.622 626.013 119.641 626.242 119.641C626.544 119.641 626.818 119.578 627.062 119.453C627.312 119.328 627.523 119.151 627.695 118.922C627.872 118.693 628.008 118.414 628.102 118.086C628.195 117.753 628.242 117.38 628.242 116.969ZM638.445 120.922C638.102 121 637.755 121.062 637.406 121.109C637.057 121.156 636.727 121.18 636.414 121.18C635.893 121.18 635.443 121.125 635.062 121.016C634.688 120.906 634.375 120.74 634.125 120.516C633.88 120.292 633.698 120.008 633.578 119.664C633.464 119.315 633.406 118.901 633.406 118.422V114.547H631.273V113.062H633.406V111.031L635.359 110.523V113.062H638.445V114.547H635.359V118.281C635.359 118.734 635.464 119.078 635.672 119.312C635.88 119.542 636.229 119.656 636.719 119.656C637.031 119.656 637.336 119.63 637.633 119.578C637.93 119.526 638.201 119.466 638.445 119.398V120.922ZM645.367 110.891C645.367 111.062 645.336 111.224 645.273 111.375C645.211 111.526 645.122 111.659 645.008 111.773C644.898 111.883 644.768 111.971 644.617 112.039C644.466 112.102 644.302 112.133 644.125 112.133C643.948 112.133 643.781 112.102 643.625 112.039C643.474 111.971 643.341 111.883 643.227 111.773C643.117 111.659 643.031 111.526 642.969 111.375C642.906 111.224 642.875 111.062 642.875 110.891C642.875 110.719 642.906 110.557 642.969 110.406C643.031 110.255 643.117 110.122 643.227 110.008C643.341 109.893 643.474 109.805 643.625 109.742C643.781 109.674 643.948 109.641 644.125 109.641C644.302 109.641 644.466 109.674 644.617 109.742C644.768 109.805 644.898 109.893 645.008 110.008C645.122 110.122 645.211 110.255 645.273 110.406C645.336 110.557 645.367 110.719 645.367 110.891ZM643.258 114.547H641.016V113.062H645.211V119.516H647.5V121H640.742V119.516H643.258V114.547ZM655.094 121V115.594C655.094 115.396 655.089 115.224 655.078 115.078C655.068 114.927 655.047 114.802 655.016 114.703C654.984 114.604 654.938 114.531 654.875 114.484C654.818 114.432 654.737 114.406 654.633 114.406C654.471 114.406 654.312 114.516 654.156 114.734C654 114.953 653.823 115.326 653.625 115.852V121H651.992V115.594C651.992 115.396 651.987 115.224 651.977 115.078C651.966 114.927 651.945 114.802 651.914 114.703C651.883 114.604 651.836 114.531 651.773 114.484C651.711 114.432 651.628 114.406 651.523 114.406C651.388 114.406 651.237 114.516 651.07 114.734C650.904 114.953 650.719 115.326 650.516 115.852V121H648.867V113.062H650.281L650.312 114.219C650.427 113.984 650.542 113.784 650.656 113.617C650.771 113.451 650.893 113.315 651.023 113.211C651.154 113.102 651.292 113.023 651.438 112.977C651.589 112.93 651.758 112.906 651.945 112.906C652.388 112.906 652.724 113.023 652.953 113.258C653.188 113.487 653.32 113.807 653.352 114.219C653.477 113.984 653.599 113.784 653.719 113.617C653.844 113.451 653.971 113.315 654.102 113.211C654.237 113.102 654.38 113.023 654.531 112.977C654.688 112.93 654.859 112.906 655.047 112.906C655.625 112.906 656.052 113.109 656.328 113.516C656.604 113.917 656.742 114.513 656.742 115.305V121H655.094ZM662.961 110.891C662.961 111.062 662.93 111.224 662.867 111.375C662.805 111.526 662.716 111.659 662.602 111.773C662.492 111.883 662.362 111.971 662.211 112.039C662.06 112.102 661.896 112.133 661.719 112.133C661.542 112.133 661.375 112.102 661.219 112.039C661.068 111.971 660.935 111.883 660.82 111.773C660.711 111.659 660.625 111.526 660.562 111.375C660.5 111.224 660.469 111.062 660.469 110.891C660.469 110.719 660.5 110.557 660.562 110.406C660.625 110.255 660.711 110.122 660.82 110.008C660.935 109.893 661.068 109.805 661.219 109.742C661.375 109.674 661.542 109.641 661.719 109.641C661.896 109.641 662.06 109.674 662.211 109.742C662.362 109.805 662.492 109.893 662.602 110.008C662.716 110.122 662.805 110.255 662.867 110.406C662.93 110.557 662.961 110.719 662.961 110.891ZM660.852 114.547H658.609V113.062H662.805V119.516H665.094V121H658.336V119.516H660.852V114.547ZM667.172 121V119.672L671.055 114.695H667.266V113.062H673.57V114.406L669.773 119.32H673.633V121H667.172ZM680.859 121L680.812 119.961C680.646 120.138 680.471 120.302 680.289 120.453C680.107 120.599 679.906 120.727 679.688 120.836C679.469 120.945 679.229 121.029 678.969 121.086C678.714 121.148 678.432 121.18 678.125 121.18C677.719 121.18 677.362 121.12 677.055 121C676.747 120.88 676.49 120.714 676.281 120.5C676.073 120.286 675.914 120.029 675.805 119.727C675.701 119.424 675.648 119.091 675.648 118.727C675.648 118.352 675.727 118.005 675.883 117.688C676.044 117.37 676.286 117.096 676.609 116.867C676.938 116.638 677.344 116.458 677.828 116.328C678.318 116.198 678.891 116.133 679.547 116.133H680.586V115.656C680.586 115.453 680.557 115.271 680.5 115.109C680.443 114.943 680.349 114.802 680.219 114.688C680.094 114.573 679.93 114.484 679.727 114.422C679.523 114.359 679.273 114.328 678.977 114.328C678.508 114.328 678.044 114.383 677.586 114.492C677.133 114.596 676.693 114.745 676.266 114.938V113.414C676.646 113.263 677.083 113.138 677.578 113.039C678.078 112.94 678.596 112.891 679.133 112.891C679.721 112.891 680.227 112.948 680.648 113.062C681.07 113.172 681.417 113.339 681.688 113.562C681.964 113.786 682.167 114.068 682.297 114.406C682.427 114.74 682.492 115.13 682.492 115.578V121H680.859ZM680.586 117.492H679.422C679.099 117.492 678.826 117.523 678.602 117.586C678.378 117.648 678.195 117.734 678.055 117.844C677.914 117.953 677.81 118.081 677.742 118.227C677.68 118.367 677.648 118.518 677.648 118.68C677.648 119.003 677.753 119.25 677.961 119.422C678.169 119.589 678.453 119.672 678.812 119.672C679.078 119.672 679.354 119.576 679.641 119.383C679.927 119.19 680.242 118.914 680.586 118.555V117.492ZM691.227 120.922C690.883 121 690.536 121.062 690.188 121.109C689.839 121.156 689.508 121.18 689.195 121.18C688.674 121.18 688.224 121.125 687.844 121.016C687.469 120.906 687.156 120.74 686.906 120.516C686.661 120.292 686.479 120.008 686.359 119.664C686.245 119.315 686.188 118.901 686.188 118.422V114.547H684.055V113.062H686.188V111.031L688.141 110.523V113.062H691.227V114.547H688.141V118.281C688.141 118.734 688.245 119.078 688.453 119.312C688.661 119.542 689.01 119.656 689.5 119.656C689.812 119.656 690.117 119.63 690.414 119.578C690.711 119.526 690.982 119.466 691.227 119.398V120.922ZM698.148 110.891C698.148 111.062 698.117 111.224 698.055 111.375C697.992 111.526 697.904 111.659 697.789 111.773C697.68 111.883 697.549 111.971 697.398 112.039C697.247 112.102 697.083 112.133 696.906 112.133C696.729 112.133 696.562 112.102 696.406 112.039C696.255 111.971 696.122 111.883 696.008 111.773C695.898 111.659 695.812 111.526 695.75 111.375C695.688 111.224 695.656 111.062 695.656 110.891C695.656 110.719 695.688 110.557 695.75 110.406C695.812 110.255 695.898 110.122 696.008 110.008C696.122 109.893 696.255 109.805 696.406 109.742C696.562 109.674 696.729 109.641 696.906 109.641C697.083 109.641 697.247 109.674 697.398 109.742C697.549 109.805 697.68 109.893 697.789 110.008C697.904 110.122 697.992 110.255 698.055 110.406C698.117 110.557 698.148 110.719 698.148 110.891ZM696.039 114.547H693.797V113.062H697.992V119.516H700.281V121H693.523V119.516H696.039V114.547ZM709.422 116.969C709.422 117.594 709.333 118.167 709.156 118.688C708.979 119.203 708.724 119.646 708.391 120.016C708.057 120.385 707.648 120.672 707.164 120.875C706.68 121.078 706.128 121.18 705.508 121.18C704.919 121.18 704.393 121.094 703.93 120.922C703.466 120.75 703.073 120.495 702.75 120.156C702.427 119.812 702.18 119.385 702.008 118.875C701.836 118.359 701.75 117.76 701.75 117.078C701.75 116.448 701.839 115.875 702.016 115.359C702.198 114.844 702.456 114.404 702.789 114.039C703.128 113.674 703.539 113.393 704.023 113.195C704.508 112.992 705.055 112.891 705.664 112.891C706.258 112.891 706.786 112.979 707.25 113.156C707.714 113.328 708.107 113.586 708.43 113.93C708.753 114.273 708.997 114.701 709.164 115.211C709.336 115.716 709.422 116.302 709.422 116.969ZM707.438 117.016C707.438 116.193 707.281 115.576 706.969 115.164C706.661 114.747 706.206 114.539 705.602 114.539C705.268 114.539 704.984 114.604 704.75 114.734C704.516 114.865 704.323 115.044 704.172 115.273C704.021 115.497 703.909 115.76 703.836 116.062C703.768 116.365 703.734 116.688 703.734 117.031C703.734 117.859 703.901 118.484 704.234 118.906C704.568 119.323 705.023 119.531 705.602 119.531C705.919 119.531 706.195 119.469 706.43 119.344C706.664 119.214 706.854 119.036 707 118.812C707.146 118.583 707.255 118.315 707.328 118.008C707.401 117.701 707.438 117.37 707.438 117.016ZM715.805 121V115.828C715.805 114.958 715.482 114.523 714.836 114.523C714.513 114.523 714.203 114.654 713.906 114.914C713.615 115.174 713.305 115.529 712.977 115.977V121H711.07V113.062H712.719L712.766 114.234C712.927 114.031 713.094 113.846 713.266 113.68C713.443 113.513 713.633 113.372 713.836 113.258C714.039 113.138 714.258 113.047 714.492 112.984C714.727 112.922 714.99 112.891 715.281 112.891C715.688 112.891 716.042 112.958 716.344 113.094C716.646 113.224 716.898 113.411 717.102 113.656C717.305 113.896 717.456 114.188 717.555 114.531C717.659 114.87 717.711 115.25 717.711 115.672V121H715.805Z" fill="black"/>
<path d="M509.922 131L508.844 128.539C508.742 128.305 508.6 128.129 508.416 128.012C508.236 127.891 508.023 127.83 507.777 127.83H507.502V131H506.061V123.342H508.293C508.715 123.342 509.098 123.379 509.441 123.453C509.785 123.523 510.078 123.643 510.32 123.811C510.562 123.979 510.748 124.197 510.877 124.467C511.01 124.736 511.076 125.066 511.076 125.457C511.076 125.738 511.035 125.988 510.953 126.207C510.871 126.426 510.756 126.615 510.607 126.775C510.459 126.932 510.281 127.059 510.074 127.156C509.871 127.254 509.648 127.322 509.406 127.361C509.594 127.4 509.766 127.508 509.922 127.684C510.078 127.855 510.234 128.105 510.391 128.434L511.615 131H509.922ZM509.564 125.598C509.564 125.223 509.445 124.953 509.207 124.789C508.969 124.625 508.611 124.543 508.135 124.543H507.502V126.705H508.088C508.311 126.705 508.512 126.682 508.691 126.635C508.875 126.588 509.031 126.518 509.16 126.424C509.289 126.33 509.389 126.215 509.459 126.078C509.529 125.938 509.564 125.777 509.564 125.598ZM512.98 131V123.342H517.592V124.561H514.445V126.465H517.445V127.654H514.445V129.781H517.592V131H512.98ZM524.477 128.686C524.477 129.104 524.398 129.467 524.242 129.775C524.09 130.084 523.875 130.34 523.598 130.543C523.32 130.742 522.99 130.891 522.607 130.988C522.225 131.086 521.807 131.135 521.354 131.135C520.951 131.135 520.562 131.111 520.188 131.064C519.812 131.018 519.441 130.939 519.074 130.83V129.406C519.254 129.469 519.441 129.527 519.637 129.582C519.832 129.637 520.027 129.686 520.223 129.729C520.422 129.768 520.619 129.799 520.814 129.822C521.01 129.846 521.199 129.857 521.383 129.857C521.656 129.857 521.889 129.834 522.08 129.787C522.271 129.74 522.428 129.676 522.549 129.594C522.67 129.512 522.758 129.414 522.812 129.301C522.867 129.188 522.895 129.062 522.895 128.926C522.895 128.738 522.84 128.582 522.73 128.457C522.625 128.328 522.484 128.215 522.309 128.117C522.133 128.02 521.932 127.932 521.705 127.854C521.482 127.775 521.254 127.691 521.02 127.602C520.789 127.512 520.561 127.41 520.334 127.297C520.111 127.184 519.912 127.043 519.736 126.875C519.561 126.707 519.418 126.508 519.309 126.277C519.203 126.043 519.15 125.762 519.15 125.434C519.15 125.133 519.205 124.848 519.314 124.578C519.424 124.309 519.596 124.074 519.83 123.875C520.064 123.672 520.365 123.512 520.732 123.395C521.1 123.273 521.543 123.213 522.062 123.213C522.215 123.213 522.373 123.221 522.537 123.236C522.705 123.248 522.869 123.266 523.029 123.289C523.193 123.309 523.35 123.334 523.498 123.365C523.65 123.393 523.789 123.422 523.914 123.453V124.771C523.789 124.725 523.652 124.682 523.504 124.643C523.355 124.604 523.201 124.57 523.041 124.543C522.885 124.512 522.727 124.488 522.566 124.473C522.406 124.457 522.254 124.449 522.109 124.449C521.855 124.449 521.641 124.471 521.465 124.514C521.289 124.553 521.145 124.609 521.031 124.684C520.918 124.754 520.836 124.842 520.785 124.947C520.734 125.053 520.709 125.17 520.709 125.299C520.709 125.459 520.762 125.598 520.867 125.715C520.977 125.828 521.119 125.932 521.295 126.025C521.475 126.115 521.676 126.201 521.898 126.283C522.125 126.361 522.355 126.447 522.59 126.541C522.828 126.631 523.059 126.734 523.281 126.852C523.508 126.969 523.709 127.111 523.885 127.279C524.064 127.447 524.207 127.646 524.312 127.877C524.422 128.104 524.477 128.373 524.477 128.686ZM529.135 124.543V131H527.658V124.543H525.561V123.342H531.232V124.543H529.135Z" fill="black"/>
<path d="M437.227 226L436.148 223.539C436.047 223.305 435.904 223.129 435.721 223.012C435.541 222.891 435.328 222.83 435.082 222.83H434.807V226H433.365V218.342H435.598C436.02 218.342 436.402 218.379 436.746 218.453C437.09 218.523 437.383 218.643 437.625 218.811C437.867 218.979 438.053 219.197 438.182 219.467C438.314 219.736 438.381 220.066 438.381 220.457C438.381 220.738 438.34 220.988 438.258 221.207C438.176 221.426 438.061 221.615 437.912 221.775C437.764 221.932 437.586 222.059 437.379 222.156C437.176 222.254 436.953 222.322 436.711 222.361C436.898 222.4 437.07 222.508 437.227 222.684C437.383 222.855 437.539 223.105 437.695 223.434L438.92 226H437.227ZM436.869 220.598C436.869 220.223 436.75 219.953 436.512 219.789C436.273 219.625 435.916 219.543 435.439 219.543H434.807V221.705H435.393C435.615 221.705 435.816 221.682 435.996 221.635C436.18 221.588 436.336 221.518 436.465 221.424C436.594 221.33 436.693 221.215 436.764 221.078C436.834 220.938 436.869 220.777 436.869 220.598ZM445.207 222.566C445.207 222.664 445.203 222.791 445.195 222.947C445.191 223.104 445.184 223.25 445.172 223.387H441.258C441.258 223.648 441.297 223.879 441.375 224.078C441.457 224.277 441.57 224.445 441.715 224.582C441.863 224.715 442.039 224.816 442.242 224.887C442.449 224.957 442.678 224.992 442.928 224.992C443.217 224.992 443.525 224.971 443.854 224.928C444.186 224.881 444.529 224.807 444.885 224.705V225.842C444.732 225.885 444.566 225.924 444.387 225.959C444.207 225.994 444.023 226.025 443.836 226.053C443.648 226.08 443.459 226.1 443.268 226.111C443.076 226.127 442.891 226.135 442.711 226.135C442.258 226.135 441.852 226.07 441.492 225.941C441.133 225.812 440.828 225.623 440.578 225.373C440.328 225.119 440.137 224.807 440.004 224.436C439.871 224.064 439.805 223.635 439.805 223.146C439.805 222.662 439.871 222.223 440.004 221.828C440.137 221.43 440.324 221.09 440.566 220.809C440.809 220.523 441.102 220.305 441.445 220.152C441.793 219.996 442.18 219.918 442.605 219.918C443.027 219.918 443.4 219.984 443.725 220.117C444.049 220.246 444.32 220.428 444.539 220.662C444.758 220.896 444.924 221.176 445.037 221.5C445.15 221.824 445.207 222.18 445.207 222.566ZM443.754 222.361C443.758 222.127 443.729 221.924 443.666 221.752C443.604 221.576 443.518 221.432 443.408 221.318C443.303 221.205 443.178 221.121 443.033 221.066C442.893 221.012 442.74 220.984 442.576 220.984C442.217 220.984 441.922 221.105 441.691 221.348C441.461 221.586 441.324 221.924 441.281 222.361H443.754ZM451.529 224.248C451.529 224.588 451.453 224.879 451.301 225.121C451.152 225.359 450.953 225.555 450.703 225.707C450.457 225.855 450.176 225.963 449.859 226.029C449.547 226.1 449.227 226.135 448.898 226.135C448.461 226.135 448.066 226.113 447.715 226.07C447.363 226.031 447.031 225.973 446.719 225.895V224.605C447.086 224.758 447.451 224.869 447.814 224.939C448.182 225.006 448.527 225.039 448.852 225.039C449.227 225.039 449.506 224.98 449.689 224.863C449.877 224.742 449.971 224.586 449.971 224.395C449.971 224.305 449.951 224.223 449.912 224.148C449.873 224.074 449.799 224.004 449.689 223.938C449.584 223.867 449.434 223.797 449.238 223.727C449.043 223.652 448.787 223.57 448.471 223.48C448.178 223.398 447.92 223.307 447.697 223.205C447.479 223.1 447.297 222.977 447.152 222.836C447.008 222.695 446.898 222.533 446.824 222.35C446.754 222.162 446.719 221.943 446.719 221.693C446.719 221.451 446.773 221.223 446.883 221.008C446.992 220.793 447.154 220.605 447.369 220.445C447.588 220.281 447.859 220.152 448.184 220.059C448.508 219.965 448.887 219.918 449.32 219.918C449.695 219.918 450.027 219.938 450.316 219.977C450.605 220.016 450.861 220.059 451.084 220.105V221.271C450.744 221.162 450.424 221.086 450.123 221.043C449.826 220.996 449.531 220.973 449.238 220.973C448.945 220.973 448.709 221.025 448.529 221.131C448.354 221.236 448.266 221.383 448.266 221.57C448.266 221.66 448.283 221.74 448.318 221.811C448.354 221.881 448.422 221.949 448.523 222.016C448.629 222.082 448.773 222.152 448.957 222.227C449.145 222.297 449.391 222.375 449.695 222.461C450.039 222.559 450.328 222.664 450.562 222.777C450.797 222.887 450.984 223.012 451.125 223.152C451.27 223.293 451.373 223.453 451.436 223.633C451.498 223.812 451.529 224.018 451.529 224.248ZM458.572 222.918C458.572 223.465 458.494 223.938 458.338 224.336C458.186 224.734 457.971 225.066 457.693 225.332C457.42 225.594 457.096 225.789 456.721 225.918C456.346 226.043 455.938 226.105 455.496 226.105C455.348 226.105 455.199 226.096 455.051 226.076C454.902 226.057 454.768 226.031 454.646 226V228.326H453.217V220.047H454.453L454.488 220.926C454.609 220.773 454.734 220.635 454.863 220.51C454.996 220.385 455.139 220.279 455.291 220.193C455.443 220.104 455.607 220.035 455.783 219.988C455.959 219.941 456.156 219.918 456.375 219.918C456.727 219.918 457.039 219.988 457.312 220.129C457.586 220.27 457.814 220.471 457.998 220.732C458.186 220.99 458.328 221.305 458.426 221.676C458.523 222.043 458.572 222.457 458.572 222.918ZM457.072 222.977C457.072 222.648 457.049 222.369 457.002 222.139C456.955 221.908 456.887 221.719 456.797 221.57C456.711 221.422 456.604 221.314 456.475 221.248C456.35 221.178 456.205 221.143 456.041 221.143C455.799 221.143 455.566 221.24 455.344 221.436C455.125 221.631 454.893 221.896 454.646 222.232V224.834C454.76 224.877 454.898 224.912 455.062 224.939C455.23 224.967 455.4 224.98 455.572 224.98C455.799 224.98 456.004 224.934 456.188 224.84C456.375 224.746 456.533 224.613 456.662 224.441C456.795 224.27 456.896 224.061 456.967 223.814C457.037 223.564 457.072 223.285 457.072 222.977ZM465.176 222.977C465.176 223.445 465.109 223.875 464.977 224.266C464.844 224.652 464.652 224.984 464.402 225.262C464.152 225.539 463.846 225.754 463.482 225.906C463.119 226.059 462.705 226.135 462.24 226.135C461.799 226.135 461.404 226.07 461.057 225.941C460.709 225.812 460.414 225.621 460.172 225.367C459.93 225.109 459.744 224.789 459.615 224.406C459.486 224.02 459.422 223.57 459.422 223.059C459.422 222.586 459.488 222.156 459.621 221.77C459.758 221.383 459.951 221.053 460.201 220.779C460.455 220.506 460.764 220.295 461.127 220.146C461.49 219.994 461.9 219.918 462.357 219.918C462.803 219.918 463.199 219.984 463.547 220.117C463.895 220.246 464.189 220.439 464.432 220.697C464.674 220.955 464.857 221.275 464.982 221.658C465.111 222.037 465.176 222.477 465.176 222.977ZM463.688 223.012C463.688 222.395 463.57 221.932 463.336 221.623C463.105 221.311 462.764 221.154 462.311 221.154C462.061 221.154 461.848 221.203 461.672 221.301C461.496 221.398 461.352 221.533 461.238 221.705C461.125 221.873 461.041 222.07 460.986 222.297C460.936 222.523 460.91 222.766 460.91 223.023C460.91 223.645 461.035 224.113 461.285 224.43C461.535 224.742 461.877 224.898 462.311 224.898C462.549 224.898 462.756 224.852 462.932 224.758C463.107 224.66 463.25 224.527 463.359 224.359C463.469 224.188 463.551 223.986 463.605 223.756C463.66 223.525 463.688 223.277 463.688 223.012ZM469.963 226V222.121C469.963 221.469 469.721 221.143 469.236 221.143C468.994 221.143 468.762 221.24 468.539 221.436C468.32 221.631 468.088 221.896 467.842 222.232V226H466.412V220.047H467.648L467.684 220.926C467.805 220.773 467.93 220.635 468.059 220.51C468.191 220.385 468.334 220.279 468.486 220.193C468.639 220.104 468.803 220.035 468.979 219.988C469.154 219.941 469.352 219.918 469.57 219.918C469.875 219.918 470.141 219.969 470.367 220.07C470.594 220.168 470.783 220.309 470.936 220.492C471.088 220.672 471.201 220.891 471.275 221.148C471.354 221.402 471.393 221.688 471.393 222.004V226H469.963ZM477.92 224.248C477.92 224.588 477.844 224.879 477.691 225.121C477.543 225.359 477.344 225.555 477.094 225.707C476.848 225.855 476.566 225.963 476.25 226.029C475.938 226.1 475.617 226.135 475.289 226.135C474.852 226.135 474.457 226.113 474.105 226.07C473.754 226.031 473.422 225.973 473.109 225.895V224.605C473.477 224.758 473.842 224.869 474.205 224.939C474.572 225.006 474.918 225.039 475.242 225.039C475.617 225.039 475.896 224.98 476.08 224.863C476.268 224.742 476.361 224.586 476.361 224.395C476.361 224.305 476.342 224.223 476.303 224.148C476.264 224.074 476.189 224.004 476.08 223.938C475.975 223.867 475.824 223.797 475.629 223.727C475.434 223.652 475.178 223.57 474.861 223.48C474.568 223.398 474.311 223.307 474.088 223.205C473.869 223.1 473.688 222.977 473.543 222.836C473.398 222.695 473.289 222.533 473.215 222.35C473.145 222.162 473.109 221.943 473.109 221.693C473.109 221.451 473.164 221.223 473.273 221.008C473.383 220.793 473.545 220.605 473.76 220.445C473.979 220.281 474.25 220.152 474.574 220.059C474.898 219.965 475.277 219.918 475.711 219.918C476.086 219.918 476.418 219.938 476.707 219.977C476.996 220.016 477.252 220.059 477.475 220.105V221.271C477.135 221.162 476.814 221.086 476.514 221.043C476.217 220.996 475.922 220.973 475.629 220.973C475.336 220.973 475.1 221.025 474.92 221.131C474.744 221.236 474.656 221.383 474.656 221.57C474.656 221.66 474.674 221.74 474.709 221.811C474.744 221.881 474.812 221.949 474.914 222.016C475.02 222.082 475.164 222.152 475.348 222.227C475.535 222.297 475.781 222.375 476.086 222.461C476.43 222.559 476.719 222.664 476.953 222.777C477.188 222.887 477.375 223.012 477.516 223.152C477.66 223.293 477.764 223.453 477.826 223.633C477.889 223.812 477.92 224.018 477.92 224.248ZM484.793 222.566C484.793 222.664 484.789 222.791 484.781 222.947C484.777 223.104 484.77 223.25 484.758 223.387H480.844C480.844 223.648 480.883 223.879 480.961 224.078C481.043 224.277 481.156 224.445 481.301 224.582C481.449 224.715 481.625 224.816 481.828 224.887C482.035 224.957 482.264 224.992 482.514 224.992C482.803 224.992 483.111 224.971 483.439 224.928C483.771 224.881 484.115 224.807 484.471 224.705V225.842C484.318 225.885 484.152 225.924 483.973 225.959C483.793 225.994 483.609 226.025 483.422 226.053C483.234 226.08 483.045 226.1 482.854 226.111C482.662 226.127 482.477 226.135 482.297 226.135C481.844 226.135 481.438 226.07 481.078 225.941C480.719 225.812 480.414 225.623 480.164 225.373C479.914 225.119 479.723 224.807 479.59 224.436C479.457 224.064 479.391 223.635 479.391 223.146C479.391 222.662 479.457 222.223 479.59 221.828C479.723 221.43 479.91 221.09 480.152 220.809C480.395 220.523 480.688 220.305 481.031 220.152C481.379 219.996 481.766 219.918 482.191 219.918C482.613 219.918 482.986 219.984 483.311 220.117C483.635 220.246 483.906 220.428 484.125 220.662C484.344 220.896 484.51 221.176 484.623 221.5C484.736 221.824 484.793 222.18 484.793 222.566ZM483.34 222.361C483.344 222.127 483.314 221.924 483.252 221.752C483.189 221.576 483.104 221.432 482.994 221.318C482.889 221.205 482.764 221.121 482.619 221.066C482.479 221.012 482.326 220.984 482.162 220.984C481.803 220.984 481.508 221.105 481.277 221.348C481.047 221.586 480.91 221.924 480.867 222.361H483.34ZM429.217 232.512C428.807 232.5 428.492 232.547 428.273 232.652C428.055 232.754 427.945 232.928 427.945 233.174C427.945 233.311 427.973 233.42 428.027 233.502C428.082 233.584 428.143 233.664 428.209 233.742C428.275 233.816 428.336 233.9 428.391 233.994C428.445 234.088 428.473 234.213 428.473 234.369C428.473 234.482 428.451 234.592 428.408 234.697C428.369 234.803 428.311 234.896 428.232 234.979C428.158 235.061 428.064 235.127 427.951 235.178C427.842 235.225 427.719 235.248 427.582 235.248C427.41 235.248 427.256 235.211 427.119 235.137C426.986 235.062 426.873 234.963 426.779 234.838C426.686 234.709 426.613 234.561 426.562 234.393C426.516 234.221 426.492 234.041 426.492 233.854C426.492 233.529 426.549 233.23 426.662 232.957C426.775 232.684 426.945 232.447 427.172 232.248C427.398 232.049 427.682 231.893 428.021 231.779C428.361 231.666 428.76 231.609 429.217 231.609V232.512ZM432.287 232.512C431.877 232.5 431.562 232.547 431.344 232.652C431.125 232.754 431.016 232.928 431.016 233.174C431.016 233.311 431.043 233.42 431.098 233.502C431.152 233.584 431.213 233.664 431.279 233.742C431.346 233.816 431.406 233.9 431.461 233.994C431.516 234.088 431.543 234.213 431.543 234.369C431.543 234.482 431.521 234.592 431.479 234.697C431.439 234.803 431.381 234.896 431.303 234.979C431.229 235.061 431.137 235.127 431.027 235.178C430.918 235.225 430.795 235.248 430.658 235.248C430.482 235.248 430.326 235.211 430.189 235.137C430.057 235.062 429.943 234.963 429.85 234.838C429.756 234.709 429.684 234.561 429.633 234.393C429.586 234.221 429.562 234.041 429.562 233.854C429.562 233.529 429.619 233.23 429.732 232.957C429.846 232.684 430.016 232.447 430.242 232.248C430.469 232.049 430.752 231.893 431.092 231.779C431.432 231.666 431.83 231.609 432.287 231.609V232.512ZM438.715 234.779C438.715 235.178 438.648 235.547 438.516 235.887C438.383 236.223 438.186 236.514 437.924 236.76C437.662 237.006 437.336 237.197 436.945 237.334C436.555 237.471 436.102 237.539 435.586 237.539H434.854V240H433.4V232.342H435.645C436.141 232.342 436.578 232.396 436.957 232.506C437.34 232.611 437.66 232.768 437.918 232.975C438.18 233.182 438.377 233.438 438.51 233.742C438.646 234.043 438.715 234.389 438.715 234.779ZM437.203 234.879C437.203 234.676 437.17 234.492 437.104 234.328C437.041 234.16 436.943 234.018 436.811 233.9C436.682 233.783 436.518 233.693 436.318 233.631C436.119 233.568 435.883 233.537 435.609 233.537H434.854V236.344H435.656C435.906 236.344 436.127 236.311 436.318 236.244C436.51 236.174 436.67 236.074 436.799 235.945C436.932 235.816 437.031 235.662 437.098 235.482C437.168 235.303 437.203 235.102 437.203 234.879ZM443.754 240L443.719 239.221C443.594 239.354 443.463 239.477 443.326 239.59C443.189 239.699 443.039 239.795 442.875 239.877C442.711 239.959 442.531 240.021 442.336 240.064C442.145 240.111 441.934 240.135 441.703 240.135C441.398 240.135 441.131 240.09 440.9 240C440.67 239.91 440.477 239.785 440.32 239.625C440.164 239.465 440.045 239.271 439.963 239.045C439.885 238.818 439.846 238.568 439.846 238.295C439.846 238.014 439.904 237.754 440.021 237.516C440.143 237.277 440.324 237.072 440.566 236.9C440.812 236.729 441.117 236.594 441.48 236.496C441.848 236.398 442.277 236.35 442.77 236.35H443.549V235.992C443.549 235.84 443.527 235.703 443.484 235.582C443.441 235.457 443.371 235.352 443.273 235.266C443.18 235.18 443.057 235.113 442.904 235.066C442.752 235.02 442.564 234.996 442.342 234.996C441.99 234.996 441.643 235.037 441.299 235.119C440.959 235.197 440.629 235.309 440.309 235.453V234.311C440.594 234.197 440.922 234.104 441.293 234.029C441.668 233.955 442.057 233.918 442.459 233.918C442.9 233.918 443.279 233.961 443.596 234.047C443.912 234.129 444.172 234.254 444.375 234.422C444.582 234.59 444.734 234.801 444.832 235.055C444.93 235.305 444.979 235.598 444.979 235.934V240H443.754ZM443.549 237.369H442.676C442.434 237.369 442.229 237.393 442.061 237.439C441.893 237.486 441.756 237.551 441.65 237.633C441.545 237.715 441.467 237.811 441.416 237.92C441.369 238.025 441.346 238.139 441.346 238.26C441.346 238.502 441.424 238.688 441.58 238.816C441.736 238.941 441.949 239.004 442.219 239.004C442.418 239.004 442.625 238.932 442.84 238.787C443.055 238.643 443.291 238.436 443.549 238.166V237.369ZM450.451 236.361C450.459 236.139 450.447 235.949 450.416 235.793C450.389 235.637 450.342 235.508 450.275 235.406C450.213 235.305 450.135 235.23 450.041 235.184C449.947 235.137 449.84 235.113 449.719 235.113C449.508 235.113 449.289 235.201 449.062 235.377C448.84 235.549 448.594 235.834 448.324 236.232V240H446.859V234.047H448.154L448.207 234.914C448.305 234.762 448.414 234.625 448.535 234.504C448.66 234.383 448.797 234.279 448.945 234.193C449.098 234.104 449.266 234.035 449.449 233.988C449.633 233.941 449.834 233.918 450.053 233.918C450.354 233.918 450.619 233.971 450.85 234.076C451.084 234.178 451.279 234.33 451.436 234.533C451.596 234.736 451.713 234.992 451.787 235.301C451.865 235.605 451.898 235.959 451.887 236.361H450.451ZM458.127 239.941C457.869 240 457.609 240.047 457.348 240.082C457.086 240.117 456.838 240.135 456.604 240.135C456.213 240.135 455.875 240.094 455.59 240.012C455.309 239.93 455.074 239.805 454.887 239.637C454.703 239.469 454.566 239.256 454.477 238.998C454.391 238.736 454.348 238.426 454.348 238.066V235.16H452.748V234.047H454.348V232.523L455.812 232.143V234.047H458.127V235.16H455.812V237.961C455.812 238.301 455.891 238.559 456.047 238.734C456.203 238.906 456.465 238.992 456.832 238.992C457.066 238.992 457.295 238.973 457.518 238.934C457.74 238.895 457.943 238.85 458.127 238.799V239.941ZM463.318 232.418C463.318 232.547 463.295 232.668 463.248 232.781C463.201 232.895 463.135 232.994 463.049 233.08C462.967 233.162 462.869 233.229 462.756 233.279C462.643 233.326 462.52 233.35 462.387 233.35C462.254 233.35 462.129 233.326 462.012 233.279C461.898 233.229 461.799 233.162 461.713 233.08C461.631 232.994 461.566 232.895 461.52 232.781C461.473 232.668 461.449 232.547 461.449 232.418C461.449 232.289 461.473 232.168 461.52 232.055C461.566 231.941 461.631 231.842 461.713 231.756C461.799 231.67 461.898 231.604 462.012 231.557C462.129 231.506 462.254 231.48 462.387 231.48C462.52 231.48 462.643 231.506 462.756 231.557C462.869 231.604 462.967 231.67 463.049 231.756C463.135 231.842 463.201 231.941 463.248 232.055C463.295 232.168 463.318 232.289 463.318 232.418ZM461.736 235.16H460.055V234.047H463.201V238.887H464.918V240H459.85V238.887H461.736V235.16ZM470.145 240L470.109 239.221C469.984 239.354 469.854 239.477 469.717 239.59C469.58 239.699 469.43 239.795 469.266 239.877C469.102 239.959 468.922 240.021 468.727 240.064C468.535 240.111 468.324 240.135 468.094 240.135C467.789 240.135 467.521 240.09 467.291 240C467.061 239.91 466.867 239.785 466.711 239.625C466.555 239.465 466.436 239.271 466.354 239.045C466.275 238.818 466.236 238.568 466.236 238.295C466.236 238.014 466.295 237.754 466.412 237.516C466.533 237.277 466.715 237.072 466.957 236.9C467.203 236.729 467.508 236.594 467.871 236.496C468.238 236.398 468.668 236.35 469.16 236.35H469.939V235.992C469.939 235.84 469.918 235.703 469.875 235.582C469.832 235.457 469.762 235.352 469.664 235.266C469.57 235.18 469.447 235.113 469.295 235.066C469.143 235.02 468.955 234.996 468.732 234.996C468.381 234.996 468.033 235.037 467.689 235.119C467.35 235.197 467.02 235.309 466.699 235.453V234.311C466.984 234.197 467.312 234.104 467.684 234.029C468.059 233.955 468.447 233.918 468.85 233.918C469.291 233.918 469.67 233.961 469.986 234.047C470.303 234.129 470.562 234.254 470.766 234.422C470.973 234.59 471.125 234.801 471.223 235.055C471.32 235.305 471.369 235.598 471.369 235.934V240H470.145ZM469.939 237.369H469.066C468.824 237.369 468.619 237.393 468.451 237.439C468.283 237.486 468.146 237.551 468.041 237.633C467.936 237.715 467.857 237.811 467.807 237.92C467.76 238.025 467.736 238.139 467.736 238.26C467.736 238.502 467.814 238.688 467.971 238.816C468.127 238.941 468.34 239.004 468.609 239.004C468.809 239.004 469.016 238.932 469.23 238.787C469.445 238.643 469.682 238.436 469.939 238.166V237.369ZM474.932 232.834H473.25V231.721H476.396V238.887H478.113V240H473.045V238.887H474.932V232.834ZM484.518 238.248C484.518 238.588 484.441 238.879 484.289 239.121C484.141 239.359 483.941 239.555 483.691 239.707C483.445 239.855 483.164 239.963 482.848 240.029C482.535 240.1 482.215 240.135 481.887 240.135C481.449 240.135 481.055 240.113 480.703 240.07C480.352 240.031 480.02 239.973 479.707 239.895V238.605C480.074 238.758 480.439 238.869 480.803 238.939C481.17 239.006 481.516 239.039 481.84 239.039C482.215 239.039 482.494 238.98 482.678 238.863C482.865 238.742 482.959 238.586 482.959 238.395C482.959 238.305 482.939 238.223 482.9 238.148C482.861 238.074 482.787 238.004 482.678 237.938C482.572 237.867 482.422 237.797 482.227 237.727C482.031 237.652 481.775 237.57 481.459 237.48C481.166 237.398 480.908 237.307 480.686 237.205C480.467 237.1 480.285 236.977 480.141 236.836C479.996 236.695 479.887 236.533 479.812 236.35C479.742 236.162 479.707 235.943 479.707 235.693C479.707 235.451 479.762 235.223 479.871 235.008C479.98 234.793 480.143 234.605 480.357 234.445C480.576 234.281 480.848 234.152 481.172 234.059C481.496 233.965 481.875 233.918 482.309 233.918C482.684 233.918 483.016 233.938 483.305 233.977C483.594 234.016 483.85 234.059 484.072 234.105V235.271C483.732 235.162 483.412 235.086 483.111 235.043C482.814 234.996 482.52 234.973 482.227 234.973C481.934 234.973 481.697 235.025 481.518 235.131C481.342 235.236 481.254 235.383 481.254 235.57C481.254 235.66 481.271 235.74 481.307 235.811C481.342 235.881 481.41 235.949 481.512 236.016C481.617 236.082 481.762 236.152 481.945 236.227C482.133 236.297 482.379 236.375 482.684 236.461C483.027 236.559 483.316 236.664 483.551 236.777C483.785 236.887 483.973 237.012 484.113 237.152C484.258 237.293 484.361 237.453 484.424 237.633C484.486 237.812 484.518 238.018 484.518 238.248ZM488.789 234.346C489.199 234.357 489.514 234.312 489.732 234.211C489.951 234.109 490.061 233.936 490.061 233.689C490.061 233.553 490.033 233.443 489.979 233.361C489.924 233.275 489.863 233.195 489.797 233.121C489.73 233.043 489.67 232.959 489.615 232.869C489.561 232.775 489.533 232.648 489.533 232.488C489.533 232.375 489.553 232.266 489.592 232.16C489.635 232.055 489.693 231.961 489.768 231.879C489.846 231.797 489.939 231.732 490.049 231.686C490.158 231.635 490.281 231.609 490.418 231.609C490.594 231.609 490.748 231.646 490.881 231.721C491.018 231.795 491.131 231.896 491.221 232.025C491.314 232.15 491.385 232.299 491.432 232.471C491.482 232.639 491.508 232.816 491.508 233.004C491.508 233.328 491.451 233.627 491.338 233.9C491.225 234.174 491.055 234.41 490.828 234.609C490.605 234.809 490.324 234.965 489.984 235.078C489.645 235.191 489.246 235.248 488.789 235.248V234.346ZM485.713 234.346C486.127 234.357 486.441 234.312 486.656 234.211C486.875 234.109 486.984 233.936 486.984 233.689C486.984 233.553 486.957 233.443 486.902 233.361C486.848 233.275 486.787 233.195 486.721 233.121C486.654 233.043 486.594 232.959 486.539 232.869C486.484 232.775 486.457 232.648 486.457 232.488C486.457 232.375 486.477 232.266 486.516 232.16C486.559 232.055 486.617 231.961 486.691 231.879C486.77 231.797 486.863 231.732 486.973 231.686C487.086 231.635 487.211 231.609 487.348 231.609C487.523 231.609 487.678 231.646 487.811 231.721C487.947 231.795 488.061 231.896 488.15 232.025C488.244 232.15 488.314 232.299 488.361 232.471C488.412 232.639 488.438 232.816 488.438 233.004C488.438 233.328 488.381 233.627 488.268 233.9C488.154 234.174 487.984 234.41 487.758 234.609C487.535 234.809 487.252 234.965 486.908 235.078C486.568 235.191 486.17 235.248 485.713 235.248V234.346Z" fill="black"/>
<path d="M288.291 107.701C287.951 107.838 287.621 107.939 287.301 108.006C286.984 108.072 286.654 108.105 286.311 108.105C285.76 108.105 285.271 108.025 284.846 107.865C284.424 107.701 284.066 107.459 283.773 107.139C283.484 106.818 283.264 106.422 283.111 105.949C282.963 105.473 282.889 104.92 282.889 104.291C282.889 103.646 282.971 103.074 283.135 102.574C283.299 102.07 283.533 101.646 283.838 101.303C284.143 100.955 284.512 100.691 284.945 100.512C285.383 100.328 285.873 100.236 286.416 100.236C286.592 100.236 286.756 100.24 286.908 100.248C287.064 100.256 287.217 100.271 287.365 100.295C287.514 100.314 287.664 100.342 287.816 100.377C287.969 100.412 288.127 100.457 288.291 100.512V101.941C287.959 101.785 287.643 101.674 287.342 101.607C287.041 101.541 286.768 101.508 286.521 101.508C286.158 101.508 285.848 101.574 285.59 101.707C285.332 101.836 285.119 102.02 284.951 102.258C284.787 102.492 284.666 102.773 284.588 103.102C284.51 103.426 284.471 103.783 284.471 104.174C284.471 104.588 284.51 104.959 284.588 105.287C284.67 105.611 284.795 105.887 284.963 106.113C285.131 106.34 285.346 106.514 285.607 106.635C285.869 106.752 286.18 106.811 286.539 106.811C286.668 106.811 286.807 106.799 286.955 106.775C287.107 106.748 287.26 106.715 287.412 106.676C287.568 106.633 287.721 106.584 287.869 106.529C288.021 106.471 288.162 106.412 288.291 106.354V107.701ZM295.182 104.977C295.182 105.445 295.115 105.875 294.982 106.266C294.85 106.652 294.658 106.984 294.408 107.262C294.158 107.539 293.852 107.754 293.488 107.906C293.125 108.059 292.711 108.135 292.246 108.135C291.805 108.135 291.41 108.07 291.062 107.941C290.715 107.812 290.42 107.621 290.178 107.367C289.936 107.109 289.75 106.789 289.621 106.406C289.492 106.02 289.428 105.57 289.428 105.059C289.428 104.586 289.494 104.156 289.627 103.77C289.764 103.383 289.957 103.053 290.207 102.779C290.461 102.506 290.77 102.295 291.133 102.146C291.496 101.994 291.906 101.918 292.363 101.918C292.809 101.918 293.205 101.984 293.553 102.117C293.9 102.246 294.195 102.439 294.438 102.697C294.68 102.955 294.863 103.275 294.988 103.658C295.117 104.037 295.182 104.477 295.182 104.977ZM293.693 105.012C293.693 104.395 293.576 103.932 293.342 103.623C293.111 103.311 292.77 103.154 292.316 103.154C292.066 103.154 291.854 103.203 291.678 103.301C291.502 103.398 291.357 103.533 291.244 103.705C291.131 103.873 291.047 104.07 290.992 104.297C290.941 104.523 290.916 104.766 290.916 105.023C290.916 105.645 291.041 106.113 291.291 106.43C291.541 106.742 291.883 106.898 292.316 106.898C292.555 106.898 292.762 106.852 292.938 106.758C293.113 106.66 293.256 106.527 293.365 106.359C293.475 106.188 293.557 105.986 293.611 105.756C293.666 105.525 293.693 105.277 293.693 105.012ZM300.619 108V103.945C300.619 103.797 300.615 103.668 300.607 103.559C300.6 103.445 300.584 103.352 300.561 103.277C300.537 103.203 300.502 103.148 300.455 103.113C300.412 103.074 300.352 103.055 300.273 103.055C300.152 103.055 300.033 103.137 299.916 103.301C299.799 103.465 299.666 103.744 299.518 104.139V108H298.293V103.945C298.293 103.797 298.289 103.668 298.281 103.559C298.273 103.445 298.258 103.352 298.234 103.277C298.211 103.203 298.176 103.148 298.129 103.113C298.082 103.074 298.02 103.055 297.941 103.055C297.84 103.055 297.727 103.137 297.602 103.301C297.477 103.465 297.338 103.744 297.186 104.139V108H295.949V102.047H297.01L297.033 102.914C297.119 102.738 297.205 102.588 297.291 102.463C297.377 102.338 297.469 102.236 297.566 102.158C297.664 102.076 297.768 102.018 297.877 101.982C297.99 101.947 298.117 101.93 298.258 101.93C298.59 101.93 298.842 102.018 299.014 102.193C299.189 102.365 299.289 102.605 299.312 102.914C299.406 102.738 299.498 102.588 299.588 102.463C299.682 102.338 299.777 102.236 299.875 102.158C299.977 102.076 300.084 102.018 300.197 101.982C300.314 101.947 300.443 101.93 300.584 101.93C301.018 101.93 301.338 102.082 301.545 102.387C301.752 102.688 301.855 103.135 301.855 103.729V108H300.619ZM308.371 104.918C308.371 105.465 308.293 105.938 308.137 106.336C307.984 106.734 307.77 107.066 307.492 107.332C307.219 107.594 306.895 107.789 306.52 107.918C306.145 108.043 305.736 108.105 305.295 108.105C305.146 108.105 304.998 108.096 304.85 108.076C304.701 108.057 304.566 108.031 304.445 108V110.326H303.016V102.047H304.252L304.287 102.926C304.408 102.773 304.533 102.635 304.662 102.51C304.795 102.385 304.938 102.279 305.09 102.193C305.242 102.104 305.406 102.035 305.582 101.988C305.758 101.941 305.955 101.918 306.174 101.918C306.525 101.918 306.838 101.988 307.111 102.129C307.385 102.27 307.613 102.471 307.797 102.732C307.984 102.99 308.127 103.305 308.225 103.676C308.322 104.043 308.371 104.457 308.371 104.918ZM306.871 104.977C306.871 104.648 306.848 104.369 306.801 104.139C306.754 103.908 306.686 103.719 306.596 103.57C306.51 103.422 306.402 103.314 306.273 103.248C306.148 103.178 306.004 103.143 305.84 103.143C305.598 103.143 305.365 103.24 305.143 103.436C304.924 103.631 304.691 103.896 304.445 104.232V106.834C304.559 106.877 304.697 106.912 304.861 106.939C305.029 106.967 305.199 106.98 305.371 106.98C305.598 106.98 305.803 106.934 305.986 106.84C306.174 106.746 306.332 106.613 306.461 106.441C306.594 106.27 306.695 106.061 306.766 105.814C306.836 105.564 306.871 105.285 306.871 104.977ZM311.535 100.834H309.854V99.7207H313V106.887H314.717V108H309.648V106.887H311.535V100.834ZM321.396 104.566C321.396 104.664 321.393 104.791 321.385 104.947C321.381 105.104 321.373 105.25 321.361 105.387H317.447C317.447 105.648 317.486 105.879 317.564 106.078C317.646 106.277 317.76 106.445 317.904 106.582C318.053 106.715 318.229 106.816 318.432 106.887C318.639 106.957 318.867 106.992 319.117 106.992C319.406 106.992 319.715 106.971 320.043 106.928C320.375 106.881 320.719 106.807 321.074 106.705V107.842C320.922 107.885 320.756 107.924 320.576 107.959C320.396 107.994 320.213 108.025 320.025 108.053C319.838 108.08 319.648 108.1 319.457 108.111C319.266 108.127 319.08 108.135 318.9 108.135C318.447 108.135 318.041 108.07 317.682 107.941C317.322 107.812 317.018 107.623 316.768 107.373C316.518 107.119 316.326 106.807 316.193 106.436C316.061 106.064 315.994 105.635 315.994 105.146C315.994 104.662 316.061 104.223 316.193 103.828C316.326 103.43 316.514 103.09 316.756 102.809C316.998 102.523 317.291 102.305 317.635 102.152C317.982 101.996 318.369 101.918 318.795 101.918C319.217 101.918 319.59 101.984 319.914 102.117C320.238 102.246 320.51 102.428 320.729 102.662C320.947 102.896 321.113 103.176 321.227 103.5C321.34 103.824 321.396 104.18 321.396 104.566ZM319.943 104.361C319.947 104.127 319.918 103.924 319.855 103.752C319.793 103.576 319.707 103.432 319.598 103.318C319.492 103.205 319.367 103.121 319.223 103.066C319.082 103.012 318.93 102.984 318.766 102.984C318.406 102.984 318.111 103.105 317.881 103.348C317.65 103.586 317.514 103.924 317.471 104.361H319.943ZM326.641 108L325.281 105.996L323.916 108H322.188L324.42 105L322.305 102.047H324.045L325.381 104.004L326.699 102.047H328.305L326.254 104.988L328.416 108H326.641ZM291.549 115.561V117.682H294.443V118.865H291.549V122H290.084V114.342H294.607V115.561H291.549ZM299.922 114.418C299.922 114.547 299.898 114.668 299.852 114.781C299.805 114.895 299.738 114.994 299.652 115.08C299.57 115.162 299.473 115.229 299.359 115.279C299.246 115.326 299.123 115.35 298.99 115.35C298.857 115.35 298.732 115.326 298.615 115.279C298.502 115.229 298.402 115.162 298.316 115.08C298.234 114.994 298.17 114.895 298.123 114.781C298.076 114.668 298.053 114.547 298.053 114.418C298.053 114.289 298.076 114.168 298.123 114.055C298.17 113.941 298.234 113.842 298.316 113.756C298.402 113.67 298.502 113.604 298.615 113.557C298.732 113.506 298.857 113.48 298.99 113.48C299.123 113.48 299.246 113.506 299.359 113.557C299.473 113.604 299.57 113.67 299.652 113.756C299.738 113.842 299.805 113.941 299.852 114.055C299.898 114.168 299.922 114.289 299.922 114.418ZM298.34 117.16H296.658V116.047H299.805V120.887H301.521V122H296.453V120.887H298.34V117.16ZM308.201 118.566C308.201 118.664 308.197 118.791 308.189 118.947C308.186 119.104 308.178 119.25 308.166 119.387H304.252C304.252 119.648 304.291 119.879 304.369 120.078C304.451 120.277 304.564 120.445 304.709 120.582C304.857 120.715 305.033 120.816 305.236 120.887C305.443 120.957 305.672 120.992 305.922 120.992C306.211 120.992 306.52 120.971 306.848 120.928C307.18 120.881 307.523 120.807 307.879 120.705V121.842C307.727 121.885 307.561 121.924 307.381 121.959C307.201 121.994 307.018 122.025 306.83 122.053C306.643 122.08 306.453 122.1 306.262 122.111C306.07 122.127 305.885 122.135 305.705 122.135C305.252 122.135 304.846 122.07 304.486 121.941C304.127 121.812 303.822 121.623 303.572 121.373C303.322 121.119 303.131 120.807 302.998 120.436C302.865 120.064 302.799 119.635 302.799 119.146C302.799 118.662 302.865 118.223 302.998 117.828C303.131 117.43 303.318 117.09 303.561 116.809C303.803 116.523 304.096 116.305 304.439 116.152C304.787 115.996 305.174 115.918 305.6 115.918C306.021 115.918 306.395 115.984 306.719 116.117C307.043 116.246 307.314 116.428 307.533 116.662C307.752 116.896 307.918 117.176 308.031 117.5C308.145 117.824 308.201 118.18 308.201 118.566ZM306.748 118.361C306.752 118.127 306.723 117.924 306.66 117.752C306.598 117.576 306.512 117.432 306.402 117.318C306.297 117.205 306.172 117.121 306.027 117.066C305.887 117.012 305.734 116.984 305.57 116.984C305.211 116.984 304.916 117.105 304.686 117.348C304.455 117.586 304.318 117.924 304.275 118.361H306.748ZM311.535 114.834H309.854V113.721H313V120.887H314.717V122H309.648V120.887H311.535V114.834ZM319.955 122L319.92 121.121C319.795 121.273 319.666 121.412 319.533 121.537C319.4 121.662 319.258 121.77 319.105 121.859C318.953 121.945 318.789 122.012 318.613 122.059C318.441 122.109 318.25 122.135 318.039 122.135C317.688 122.135 317.375 122.064 317.102 121.924C316.828 121.783 316.598 121.584 316.41 121.326C316.227 121.064 316.086 120.748 315.988 120.377C315.891 120.006 315.842 119.592 315.842 119.135C315.842 118.588 315.918 118.115 316.07 117.717C316.227 117.314 316.441 116.982 316.715 116.721C316.988 116.455 317.312 116.26 317.688 116.135C318.062 116.006 318.471 115.941 318.912 115.941C319.061 115.941 319.209 115.951 319.357 115.971C319.51 115.99 319.645 116.016 319.762 116.047V113.721H321.191V122H319.955ZM317.342 119.07C317.342 119.398 317.363 119.68 317.406 119.914C317.453 120.145 317.52 120.334 317.605 120.482C317.695 120.631 317.805 120.74 317.934 120.811C318.062 120.877 318.209 120.91 318.373 120.91C318.615 120.91 318.846 120.812 319.064 120.617C319.283 120.422 319.516 120.154 319.762 119.814V117.213C319.648 117.17 319.508 117.135 319.34 117.107C319.176 117.08 319.01 117.066 318.842 117.066C318.611 117.066 318.404 117.113 318.221 117.207C318.037 117.301 317.879 117.434 317.746 117.605C317.617 117.777 317.518 117.988 317.447 118.238C317.377 118.484 317.342 118.762 317.342 119.07ZM284.951 129.561V131.682H287.846V132.865H284.951V136H283.486V128.342H288.01V129.561H284.951ZM293.324 128.418C293.324 128.547 293.301 128.668 293.254 128.781C293.207 128.895 293.141 128.994 293.055 129.08C292.973 129.162 292.875 129.229 292.762 129.279C292.648 129.326 292.525 129.35 292.393 129.35C292.26 129.35 292.135 129.326 292.018 129.279C291.904 129.229 291.805 129.162 291.719 129.08C291.637 128.994 291.572 128.895 291.525 128.781C291.479 128.668 291.455 128.547 291.455 128.418C291.455 128.289 291.479 128.168 291.525 128.055C291.572 127.941 291.637 127.842 291.719 127.756C291.805 127.67 291.904 127.604 292.018 127.557C292.135 127.506 292.26 127.48 292.393 127.48C292.525 127.48 292.648 127.506 292.762 127.557C292.875 127.604 292.973 127.67 293.055 127.756C293.141 127.842 293.207 127.941 293.254 128.055C293.301 128.168 293.324 128.289 293.324 128.418ZM291.742 131.16H290.061V130.047H293.207V134.887H294.924V136H289.855V134.887H291.742V131.16ZM298.34 128.834H296.658V127.721H299.805V134.887H301.521V136H296.453V134.887H298.34V128.834ZM307.926 135.941C307.668 136 307.408 136.047 307.146 136.082C306.885 136.117 306.637 136.135 306.402 136.135C306.012 136.135 305.674 136.094 305.389 136.012C305.107 135.93 304.873 135.805 304.686 135.637C304.502 135.469 304.365 135.256 304.275 134.998C304.189 134.736 304.146 134.426 304.146 134.066V131.16H302.547V130.047H304.146V128.523L305.611 128.143V130.047H307.926V131.16H305.611V133.961C305.611 134.301 305.689 134.559 305.846 134.734C306.002 134.906 306.264 134.992 306.631 134.992C306.865 134.992 307.094 134.973 307.316 134.934C307.539 134.895 307.742 134.85 307.926 134.799V135.941ZM314.799 132.566C314.799 132.664 314.795 132.791 314.787 132.947C314.783 133.104 314.775 133.25 314.764 133.387H310.85C310.85 133.648 310.889 133.879 310.967 134.078C311.049 134.277 311.162 134.445 311.307 134.582C311.455 134.715 311.631 134.816 311.834 134.887C312.041 134.957 312.27 134.992 312.52 134.992C312.809 134.992 313.117 134.971 313.445 134.928C313.777 134.881 314.121 134.807 314.477 134.705V135.842C314.324 135.885 314.158 135.924 313.979 135.959C313.799 135.994 313.615 136.025 313.428 136.053C313.24 136.08 313.051 136.1 312.859 136.111C312.668 136.127 312.482 136.135 312.303 136.135C311.85 136.135 311.443 136.07 311.084 135.941C310.725 135.812 310.42 135.623 310.17 135.373C309.92 135.119 309.729 134.807 309.596 134.436C309.463 134.064 309.396 133.635 309.396 133.146C309.396 132.662 309.463 132.223 309.596 131.828C309.729 131.43 309.916 131.09 310.158 130.809C310.4 130.523 310.693 130.305 311.037 130.152C311.385 129.996 311.771 129.918 312.197 129.918C312.619 129.918 312.992 129.984 313.316 130.117C313.641 130.246 313.912 130.428 314.131 130.662C314.35 130.896 314.516 131.176 314.629 131.5C314.742 131.824 314.799 132.18 314.799 132.566ZM313.346 132.361C313.35 132.127 313.32 131.924 313.258 131.752C313.195 131.576 313.109 131.432 313 131.318C312.895 131.205 312.77 131.121 312.625 131.066C312.484 131.012 312.332 130.984 312.168 130.984C311.809 130.984 311.514 131.105 311.283 131.348C311.053 131.586 310.916 131.924 310.873 132.361H313.346ZM320.043 132.361C320.051 132.139 320.039 131.949 320.008 131.793C319.98 131.637 319.934 131.508 319.867 131.406C319.805 131.305 319.727 131.23 319.633 131.184C319.539 131.137 319.432 131.113 319.311 131.113C319.1 131.113 318.881 131.201 318.654 131.377C318.432 131.549 318.186 131.834 317.916 132.232V136H316.451V130.047H317.746L317.799 130.914C317.896 130.762 318.006 130.625 318.127 130.504C318.252 130.383 318.389 130.279 318.537 130.193C318.689 130.104 318.857 130.035 319.041 129.988C319.225 129.941 319.426 129.918 319.645 129.918C319.945 129.918 320.211 129.971 320.441 130.076C320.676 130.178 320.871 130.33 321.027 130.533C321.188 130.736 321.305 130.992 321.379 131.301C321.457 131.605 321.49 131.959 321.479 132.361H320.043ZM327.719 134.248C327.719 134.588 327.643 134.879 327.49 135.121C327.342 135.359 327.143 135.555 326.893 135.707C326.646 135.855 326.365 135.963 326.049 136.029C325.736 136.1 325.416 136.135 325.088 136.135C324.65 136.135 324.256 136.113 323.904 136.07C323.553 136.031 323.221 135.973 322.908 135.895V134.605C323.275 134.758 323.641 134.869 324.004 134.939C324.371 135.006 324.717 135.039 325.041 135.039C325.416 135.039 325.695 134.98 325.879 134.863C326.066 134.742 326.16 134.586 326.16 134.395C326.16 134.305 326.141 134.223 326.102 134.148C326.062 134.074 325.988 134.004 325.879 133.938C325.773 133.867 325.623 133.797 325.428 133.727C325.232 133.652 324.977 133.57 324.66 133.48C324.367 133.398 324.109 133.307 323.887 133.205C323.668 133.1 323.486 132.977 323.342 132.836C323.197 132.695 323.088 132.533 323.014 132.35C322.943 132.162 322.908 131.943 322.908 131.693C322.908 131.451 322.963 131.223 323.072 131.008C323.182 130.793 323.344 130.605 323.559 130.445C323.777 130.281 324.049 130.152 324.373 130.059C324.697 129.965 325.076 129.918 325.51 129.918C325.885 129.918 326.217 129.938 326.506 129.977C326.795 130.016 327.051 130.059 327.273 130.105V131.271C326.934 131.162 326.613 131.086 326.312 131.043C326.016 130.996 325.721 130.973 325.428 130.973C325.135 130.973 324.898 131.025 324.719 131.131C324.543 131.236 324.455 131.383 324.455 131.57C324.455 131.66 324.473 131.74 324.508 131.811C324.543 131.881 324.611 131.949 324.713 132.016C324.818 132.082 324.963 132.152 325.146 132.227C325.334 132.297 325.58 132.375 325.885 132.461C326.229 132.559 326.518 132.664 326.752 132.777C326.986 132.887 327.174 133.012 327.314 133.152C327.459 133.293 327.562 133.453 327.625 133.633C327.688 133.812 327.719 134.018 327.719 134.248Z" fill="black"/>
<path d="M603.721 232L602.643 229.539C602.541 229.305 602.398 229.129 602.215 229.012C602.035 228.891 601.822 228.83 601.576 228.83H601.301V232H599.859V224.342H602.092C602.514 224.342 602.896 224.379 603.24 224.453C603.584 224.523 603.877 224.643 604.119 224.811C604.361 224.979 604.547 225.197 604.676 225.467C604.809 225.736 604.875 226.066 604.875 226.457C604.875 226.738 604.834 226.988 604.752 227.207C604.67 227.426 604.555 227.615 604.406 227.775C604.258 227.932 604.08 228.059 603.873 228.156C603.67 228.254 603.447 228.322 603.205 228.361C603.393 228.4 603.564 228.508 603.721 228.684C603.877 228.855 604.033 229.105 604.189 229.434L605.414 232H603.721ZM603.363 226.598C603.363 226.223 603.244 225.953 603.006 225.789C602.768 225.625 602.41 225.543 601.934 225.543H601.301V227.705H601.887C602.109 227.705 602.311 227.682 602.49 227.635C602.674 227.588 602.83 227.518 602.959 227.424C603.088 227.33 603.188 227.215 603.258 227.078C603.328 226.938 603.363 226.777 603.363 226.598ZM611.807 226.779C611.807 227.178 611.74 227.547 611.607 227.887C611.475 228.223 611.277 228.514 611.016 228.76C610.754 229.006 610.428 229.197 610.037 229.334C609.646 229.471 609.193 229.539 608.678 229.539H607.945V232H606.492V224.342H608.736C609.232 224.342 609.67 224.396 610.049 224.506C610.432 224.611 610.752 224.768 611.01 224.975C611.271 225.182 611.469 225.438 611.602 225.742C611.738 226.043 611.807 226.389 611.807 226.779ZM610.295 226.879C610.295 226.676 610.262 226.492 610.195 226.328C610.133 226.16 610.035 226.018 609.902 225.9C609.773 225.783 609.609 225.693 609.41 225.631C609.211 225.568 608.975 225.537 608.701 225.537H607.945V228.344H608.748C608.998 228.344 609.219 228.311 609.41 228.244C609.602 228.174 609.762 228.074 609.891 227.945C610.023 227.816 610.123 227.662 610.189 227.482C610.26 227.303 610.295 227.102 610.295 226.879ZM618.182 231.701C617.842 231.838 617.512 231.939 617.191 232.006C616.875 232.072 616.545 232.105 616.201 232.105C615.65 232.105 615.162 232.025 614.736 231.865C614.314 231.701 613.957 231.459 613.664 231.139C613.375 230.818 613.154 230.422 613.002 229.949C612.854 229.473 612.779 228.92 612.779 228.291C612.779 227.646 612.861 227.074 613.025 226.574C613.189 226.07 613.424 225.646 613.729 225.303C614.033 224.955 614.402 224.691 614.836 224.512C615.273 224.328 615.764 224.236 616.307 224.236C616.482 224.236 616.646 224.24 616.799 224.248C616.955 224.256 617.107 224.271 617.256 224.295C617.404 224.314 617.555 224.342 617.707 224.377C617.859 224.412 618.018 224.457 618.182 224.512V225.941C617.85 225.785 617.533 225.674 617.232 225.607C616.932 225.541 616.658 225.508 616.412 225.508C616.049 225.508 615.738 225.574 615.48 225.707C615.223 225.836 615.01 226.02 614.842 226.258C614.678 226.492 614.557 226.773 614.479 227.102C614.4 227.426 614.361 227.783 614.361 228.174C614.361 228.588 614.4 228.959 614.479 229.287C614.561 229.611 614.686 229.887 614.854 230.113C615.021 230.34 615.236 230.514 615.498 230.635C615.76 230.752 616.07 230.811 616.43 230.811C616.559 230.811 616.697 230.799 616.846 230.775C616.998 230.748 617.15 230.715 617.303 230.676C617.459 230.633 617.611 230.584 617.76 230.529C617.912 230.471 618.053 230.412 618.182 230.354V231.701Z" fill="black"/>
<path d="M89.1641 120.602C88.7109 120.784 88.2708 120.919 87.8438 121.008C87.4219 121.096 86.9818 121.141 86.5234 121.141C85.7891 121.141 85.138 121.034 84.5703 120.82C84.0078 120.602 83.5312 120.279 83.1406 119.852C82.7552 119.424 82.4609 118.896 82.2578 118.266C82.0599 117.63 81.9609 116.893 81.9609 116.055C81.9609 115.195 82.0703 114.432 82.2891 113.766C82.5078 113.094 82.8203 112.529 83.2266 112.07C83.6328 111.607 84.125 111.255 84.7031 111.016C85.2865 110.771 85.9401 110.648 86.6641 110.648C86.8984 110.648 87.1172 110.654 87.3203 110.664C87.5286 110.674 87.7318 110.695 87.9297 110.727C88.1276 110.753 88.3281 110.789 88.5312 110.836C88.7344 110.883 88.9453 110.943 89.1641 111.016V112.922C88.7214 112.714 88.2995 112.565 87.8984 112.477C87.4974 112.388 87.1328 112.344 86.8047 112.344C86.3203 112.344 85.9062 112.432 85.5625 112.609C85.2188 112.781 84.9349 113.026 84.7109 113.344C84.4922 113.656 84.3307 114.031 84.2266 114.469C84.1224 114.901 84.0703 115.378 84.0703 115.898C84.0703 116.451 84.1224 116.945 84.2266 117.383C84.3359 117.815 84.5026 118.182 84.7266 118.484C84.9505 118.786 85.237 119.018 85.5859 119.18C85.9349 119.336 86.349 119.414 86.8281 119.414C87 119.414 87.1849 119.398 87.3828 119.367C87.5859 119.331 87.7891 119.286 87.9922 119.234C88.2005 119.177 88.4036 119.112 88.6016 119.039C88.8047 118.961 88.9922 118.883 89.1641 118.805V120.602ZM93.0938 113.062V118.234C93.0938 118.667 93.1745 118.995 93.3359 119.219C93.4974 119.438 93.7422 119.547 94.0703 119.547C94.388 119.547 94.6927 119.417 94.9844 119.156C95.2812 118.891 95.5938 118.534 95.9219 118.086V113.062H97.8281V121H96.1797L96.1328 119.828C95.9661 120.031 95.7969 120.216 95.625 120.383C95.4531 120.549 95.2656 120.693 95.0625 120.812C94.8646 120.927 94.6458 121.016 94.4062 121.078C94.1719 121.146 93.9115 121.18 93.625 121.18C93.2188 121.18 92.862 121.115 92.5547 120.984C92.2526 120.849 92 120.659 91.7969 120.414C91.5938 120.169 91.4401 119.878 91.3359 119.539C91.237 119.195 91.1875 118.812 91.1875 118.391V113.062H93.0938ZM106.547 118.664C106.547 119.117 106.445 119.505 106.242 119.828C106.044 120.146 105.779 120.406 105.445 120.609C105.117 120.807 104.742 120.951 104.32 121.039C103.904 121.133 103.477 121.18 103.039 121.18C102.456 121.18 101.93 121.151 101.461 121.094C100.992 121.042 100.549 120.964 100.133 120.859V119.141C100.622 119.344 101.109 119.492 101.594 119.586C102.083 119.674 102.544 119.719 102.977 119.719C103.477 119.719 103.849 119.641 104.094 119.484C104.344 119.323 104.469 119.115 104.469 118.859C104.469 118.74 104.443 118.63 104.391 118.531C104.339 118.432 104.24 118.339 104.094 118.25C103.953 118.156 103.753 118.062 103.492 117.969C103.232 117.87 102.891 117.76 102.469 117.641C102.078 117.531 101.734 117.409 101.438 117.273C101.146 117.133 100.904 116.969 100.711 116.781C100.518 116.594 100.372 116.378 100.273 116.133C100.18 115.883 100.133 115.591 100.133 115.258C100.133 114.935 100.206 114.63 100.352 114.344C100.497 114.057 100.714 113.807 101 113.594C101.292 113.375 101.654 113.203 102.086 113.078C102.518 112.953 103.023 112.891 103.602 112.891C104.102 112.891 104.544 112.917 104.93 112.969C105.315 113.021 105.656 113.078 105.953 113.141V114.695C105.5 114.549 105.073 114.448 104.672 114.391C104.276 114.328 103.883 114.297 103.492 114.297C103.102 114.297 102.786 114.367 102.547 114.508C102.312 114.648 102.195 114.844 102.195 115.094C102.195 115.214 102.219 115.32 102.266 115.414C102.312 115.508 102.404 115.599 102.539 115.688C102.68 115.776 102.872 115.87 103.117 115.969C103.367 116.062 103.695 116.167 104.102 116.281C104.56 116.411 104.945 116.552 105.258 116.703C105.57 116.849 105.82 117.016 106.008 117.203C106.201 117.391 106.339 117.604 106.422 117.844C106.505 118.083 106.547 118.357 106.547 118.664ZM115.344 120.922C115 121 114.654 121.062 114.305 121.109C113.956 121.156 113.625 121.18 113.312 121.18C112.792 121.18 112.341 121.125 111.961 121.016C111.586 120.906 111.273 120.74 111.023 120.516C110.779 120.292 110.596 120.008 110.477 119.664C110.362 119.315 110.305 118.901 110.305 118.422V114.547H108.172V113.062H110.305V111.031L112.258 110.523V113.062H115.344V114.547H112.258V118.281C112.258 118.734 112.362 119.078 112.57 119.312C112.779 119.542 113.128 119.656 113.617 119.656C113.93 119.656 114.234 119.63 114.531 119.578C114.828 119.526 115.099 119.466 115.344 119.398V120.922ZM124.742 116.969C124.742 117.594 124.654 118.167 124.477 118.688C124.299 119.203 124.044 119.646 123.711 120.016C123.378 120.385 122.969 120.672 122.484 120.875C122 121.078 121.448 121.18 120.828 121.18C120.24 121.18 119.714 121.094 119.25 120.922C118.786 120.75 118.393 120.495 118.07 120.156C117.747 119.812 117.5 119.385 117.328 118.875C117.156 118.359 117.07 117.76 117.07 117.078C117.07 116.448 117.159 115.875 117.336 115.359C117.518 114.844 117.776 114.404 118.109 114.039C118.448 113.674 118.859 113.393 119.344 113.195C119.828 112.992 120.375 112.891 120.984 112.891C121.578 112.891 122.107 112.979 122.57 113.156C123.034 113.328 123.427 113.586 123.75 113.93C124.073 114.273 124.318 114.701 124.484 115.211C124.656 115.716 124.742 116.302 124.742 116.969ZM122.758 117.016C122.758 116.193 122.602 115.576 122.289 115.164C121.982 114.747 121.526 114.539 120.922 114.539C120.589 114.539 120.305 114.604 120.07 114.734C119.836 114.865 119.643 115.044 119.492 115.273C119.341 115.497 119.229 115.76 119.156 116.062C119.089 116.365 119.055 116.688 119.055 117.031C119.055 117.859 119.221 118.484 119.555 118.906C119.888 119.323 120.344 119.531 120.922 119.531C121.24 119.531 121.516 119.469 121.75 119.344C121.984 119.214 122.174 119.036 122.32 118.812C122.466 118.583 122.576 118.315 122.648 118.008C122.721 117.701 122.758 117.37 122.758 117.016ZM131.992 121V115.594C131.992 115.396 131.987 115.224 131.977 115.078C131.966 114.927 131.945 114.802 131.914 114.703C131.883 114.604 131.836 114.531 131.773 114.484C131.716 114.432 131.635 114.406 131.531 114.406C131.37 114.406 131.211 114.516 131.055 114.734C130.898 114.953 130.721 115.326 130.523 115.852V121H128.891V115.594C128.891 115.396 128.885 115.224 128.875 115.078C128.865 114.927 128.844 114.802 128.812 114.703C128.781 114.604 128.734 114.531 128.672 114.484C128.609 114.432 128.526 114.406 128.422 114.406C128.286 114.406 128.135 114.516 127.969 114.734C127.802 114.953 127.617 115.326 127.414 115.852V121H125.766V113.062H127.18L127.211 114.219C127.326 113.984 127.44 113.784 127.555 113.617C127.669 113.451 127.792 113.315 127.922 113.211C128.052 113.102 128.19 113.023 128.336 112.977C128.487 112.93 128.656 112.906 128.844 112.906C129.286 112.906 129.622 113.023 129.852 113.258C130.086 113.487 130.219 113.807 130.25 114.219C130.375 113.984 130.497 113.784 130.617 113.617C130.742 113.451 130.87 113.315 131 113.211C131.135 113.102 131.279 113.023 131.43 112.977C131.586 112.93 131.758 112.906 131.945 112.906C132.523 112.906 132.951 113.109 133.227 113.516C133.503 113.917 133.641 114.513 133.641 115.305V121H131.992ZM139.859 110.891C139.859 111.062 139.828 111.224 139.766 111.375C139.703 111.526 139.615 111.659 139.5 111.773C139.391 111.883 139.26 111.971 139.109 112.039C138.958 112.102 138.794 112.133 138.617 112.133C138.44 112.133 138.273 112.102 138.117 112.039C137.966 111.971 137.833 111.883 137.719 111.773C137.609 111.659 137.523 111.526 137.461 111.375C137.398 111.224 137.367 111.062 137.367 110.891C137.367 110.719 137.398 110.557 137.461 110.406C137.523 110.255 137.609 110.122 137.719 110.008C137.833 109.893 137.966 109.805 138.117 109.742C138.273 109.674 138.44 109.641 138.617 109.641C138.794 109.641 138.958 109.674 139.109 109.742C139.26 109.805 139.391 109.893 139.5 110.008C139.615 110.122 139.703 110.255 139.766 110.406C139.828 110.557 139.859 110.719 139.859 110.891ZM137.75 114.547H135.508V113.062H139.703V119.516H141.992V121H135.234V119.516H137.75V114.547ZM144.07 121V119.672L147.953 114.695H144.164V113.062H150.469V114.406L146.672 119.32H150.531V121H144.07ZM157.758 121L157.711 119.961C157.544 120.138 157.37 120.302 157.188 120.453C157.005 120.599 156.805 120.727 156.586 120.836C156.367 120.945 156.128 121.029 155.867 121.086C155.612 121.148 155.331 121.18 155.023 121.18C154.617 121.18 154.26 121.12 153.953 121C153.646 120.88 153.388 120.714 153.18 120.5C152.971 120.286 152.812 120.029 152.703 119.727C152.599 119.424 152.547 119.091 152.547 118.727C152.547 118.352 152.625 118.005 152.781 117.688C152.943 117.37 153.185 117.096 153.508 116.867C153.836 116.638 154.242 116.458 154.727 116.328C155.216 116.198 155.789 116.133 156.445 116.133H157.484V115.656C157.484 115.453 157.456 115.271 157.398 115.109C157.341 114.943 157.247 114.802 157.117 114.688C156.992 114.573 156.828 114.484 156.625 114.422C156.422 114.359 156.172 114.328 155.875 114.328C155.406 114.328 154.943 114.383 154.484 114.492C154.031 114.596 153.591 114.745 153.164 114.938V113.414C153.544 113.263 153.982 113.138 154.477 113.039C154.977 112.94 155.495 112.891 156.031 112.891C156.62 112.891 157.125 112.948 157.547 113.062C157.969 113.172 158.315 113.339 158.586 113.562C158.862 113.786 159.065 114.068 159.195 114.406C159.326 114.74 159.391 115.13 159.391 115.578V121H157.758ZM157.484 117.492H156.32C155.997 117.492 155.724 117.523 155.5 117.586C155.276 117.648 155.094 117.734 154.953 117.844C154.812 117.953 154.708 118.081 154.641 118.227C154.578 118.367 154.547 118.518 154.547 118.68C154.547 119.003 154.651 119.25 154.859 119.422C155.068 119.589 155.352 119.672 155.711 119.672C155.977 119.672 156.253 119.576 156.539 119.383C156.826 119.19 157.141 118.914 157.484 118.555V117.492ZM168.125 120.922C167.781 121 167.435 121.062 167.086 121.109C166.737 121.156 166.406 121.18 166.094 121.18C165.573 121.18 165.122 121.125 164.742 121.016C164.367 120.906 164.055 120.74 163.805 120.516C163.56 120.292 163.378 120.008 163.258 119.664C163.143 119.315 163.086 118.901 163.086 118.422V114.547H160.953V113.062H163.086V111.031L165.039 110.523V113.062H168.125V114.547H165.039V118.281C165.039 118.734 165.143 119.078 165.352 119.312C165.56 119.542 165.909 119.656 166.398 119.656C166.711 119.656 167.016 119.63 167.312 119.578C167.609 119.526 167.88 119.466 168.125 119.398V120.922ZM175.047 110.891C175.047 111.062 175.016 111.224 174.953 111.375C174.891 111.526 174.802 111.659 174.688 111.773C174.578 111.883 174.448 111.971 174.297 112.039C174.146 112.102 173.982 112.133 173.805 112.133C173.628 112.133 173.461 112.102 173.305 112.039C173.154 111.971 173.021 111.883 172.906 111.773C172.797 111.659 172.711 111.526 172.648 111.375C172.586 111.224 172.555 111.062 172.555 110.891C172.555 110.719 172.586 110.557 172.648 110.406C172.711 110.255 172.797 110.122 172.906 110.008C173.021 109.893 173.154 109.805 173.305 109.742C173.461 109.674 173.628 109.641 173.805 109.641C173.982 109.641 174.146 109.674 174.297 109.742C174.448 109.805 174.578 109.893 174.688 110.008C174.802 110.122 174.891 110.255 174.953 110.406C175.016 110.557 175.047 110.719 175.047 110.891ZM172.938 114.547H170.695V113.062H174.891V119.516H177.18V121H170.422V119.516H172.938V114.547ZM186.32 116.969C186.32 117.594 186.232 118.167 186.055 118.688C185.878 119.203 185.622 119.646 185.289 120.016C184.956 120.385 184.547 120.672 184.062 120.875C183.578 121.078 183.026 121.18 182.406 121.18C181.818 121.18 181.292 121.094 180.828 120.922C180.365 120.75 179.971 120.495 179.648 120.156C179.326 119.812 179.078 119.385 178.906 118.875C178.734 118.359 178.648 117.76 178.648 117.078C178.648 116.448 178.737 115.875 178.914 115.359C179.096 114.844 179.354 114.404 179.688 114.039C180.026 113.674 180.438 113.393 180.922 113.195C181.406 112.992 181.953 112.891 182.562 112.891C183.156 112.891 183.685 112.979 184.148 113.156C184.612 113.328 185.005 113.586 185.328 113.93C185.651 114.273 185.896 114.701 186.062 115.211C186.234 115.716 186.32 116.302 186.32 116.969ZM184.336 117.016C184.336 116.193 184.18 115.576 183.867 115.164C183.56 114.747 183.104 114.539 182.5 114.539C182.167 114.539 181.883 114.604 181.648 114.734C181.414 114.865 181.221 115.044 181.07 115.273C180.919 115.497 180.807 115.76 180.734 116.062C180.667 116.365 180.633 116.688 180.633 117.031C180.633 117.859 180.799 118.484 181.133 118.906C181.466 119.323 181.922 119.531 182.5 119.531C182.818 119.531 183.094 119.469 183.328 119.344C183.562 119.214 183.753 119.036 183.898 118.812C184.044 118.583 184.154 118.315 184.227 118.008C184.299 117.701 184.336 117.37 184.336 117.016ZM192.703 121V115.828C192.703 114.958 192.38 114.523 191.734 114.523C191.411 114.523 191.102 114.654 190.805 114.914C190.513 115.174 190.203 115.529 189.875 115.977V121H187.969V113.062H189.617L189.664 114.234C189.826 114.031 189.992 113.846 190.164 113.68C190.341 113.513 190.531 113.372 190.734 113.258C190.938 113.138 191.156 113.047 191.391 112.984C191.625 112.922 191.888 112.891 192.18 112.891C192.586 112.891 192.94 112.958 193.242 113.094C193.544 113.224 193.797 113.411 194 113.656C194.203 113.896 194.354 114.188 194.453 114.531C194.557 114.87 194.609 115.25 194.609 115.672V121H192.703Z" fill="black"/>
<line x1="373.5" y1="122" x2="373.5" y2="231" stroke="black"/>
<line x1="233.5" y1="175" x2="233.5" y2="202" stroke="black"/>
<line x1="306.5" y1="148" x2="306.5" y2="175" stroke="black"/>
<line x1="519.5" y1="150" x2="519.5" y2="177" stroke="black"/>
<line x1="609.5" y1="178" x2="609.5" y2="205" stroke="black"/>
<line x1="459.5" y1="178" x2="459.5" y2="205" stroke="black"/>
</svg>
