<svg width="321" height="310" viewBox="0 0 321 310" fill="none" xmlns="http://www.w3.org/2000/svg">
<mask id="path-1-inside-1" fill="white">
<rect width="321" height="310" rx="4"/>
</mask>
<rect width="321" height="310" rx="4" fill="#7DE77B" stroke="black" stroke-width="10" mask="url(#path-1-inside-1)"/>
<mask id="path-2-inside-2" fill="white">
<rect x="23" y="23" width="98" height="81" rx="4"/>
</mask>
<rect x="23" y="23" width="98" height="81" rx="4" fill="#D1F562" stroke="black" stroke-width="10" mask="url(#path-2-inside-2)"/>
<mask id="path-3-inside-3" fill="white">
<rect x="141" y="23" width="155" height="81" rx="4"/>
</mask>
<rect x="141" y="23" width="155" height="81" rx="4" fill="#D1F562" stroke="black" stroke-width="10" mask="url(#path-3-inside-3)"/>
<mask id="path-4-inside-4" fill="white">
<rect x="242" y="115" width="54" height="81" rx="4"/>
</mask>
<rect x="242" y="115" width="54" height="81" rx="4" fill="#D1F562" stroke="black" stroke-width="10" mask="url(#path-4-inside-4)"/>
<mask id="path-5-inside-5" fill="white">
<rect x="23" y="115" width="208" height="81" rx="4"/>
</mask>
<rect x="23" y="115" width="208" height="81" rx="4" fill="#D1F562" stroke="black" stroke-width="10" mask="url(#path-5-inside-5)"/>
<mask id="path-6-inside-6" fill="white">
<rect x="23" y="207" width="152" height="81" rx="4"/>
</mask>
<rect x="23" y="207" width="152" height="81" rx="4" fill="#D1F562" stroke="black" stroke-width="10" mask="url(#path-6-inside-6)"/>
<mask id="path-7-inside-7" fill="white">
<rect x="49" y="92" width="49" height="46" rx="4"/>
</mask>
<rect x="49" y="92" width="49" height="46" rx="4" fill="#FFFD54" stroke="black" stroke-width="10" mask="url(#path-7-inside-7)"/>
<mask id="path-8-inside-8" fill="white">
<rect x="165" y="92" width="49" height="46" rx="4"/>
</mask>
<rect x="165" y="92" width="49" height="46" rx="4" fill="#FFFD54" stroke="black" stroke-width="10" mask="url(#path-8-inside-8)"/>
<mask id="path-9-inside-9" fill="white">
<rect x="220" y="132" width="49" height="46" rx="4"/>
</mask>
<rect x="220" y="132" width="49" height="46" rx="4" fill="#FFFD54" stroke="black" stroke-width="10" mask="url(#path-9-inside-9)"/>
<mask id="path-10-inside-10" fill="white">
<rect x="190" y="207" width="106" height="81" rx="4"/>
</mask>
<rect x="190" y="207" width="106" height="81" rx="4" fill="#D1F562" stroke="black" stroke-width="10" mask="url(#path-10-inside-10)"/>
<mask id="path-11-inside-11" fill="white">
<rect x="161" y="234" width="49" height="46" rx="4"/>
</mask>
<rect x="161" y="234" width="49" height="46" rx="4" fill="#FFFD54" stroke="black" stroke-width="10" mask="url(#path-11-inside-11)"/>
<mask id="path-12-inside-12" fill="white">
<rect x="108" y="178" width="49" height="46" rx="4"/>
</mask>
<rect x="108" y="178" width="49" height="46" rx="4" fill="#FFFD54" stroke="black" stroke-width="10" mask="url(#path-12-inside-12)"/>
<path d="M75.1436 72L74.2295 68.7246H68.4404L67.501 72H64.4033L69.3164 55.4072H73.6836L78.5967 72H75.1436ZM71.373 58.4541L69.1895 66.1729H73.5312L71.373 58.4541Z" fill="black"/>
<path d="M215.99 69V52.4072H221.348C223.235 52.4072 224.648 52.7373 225.588 53.3975C226.536 54.0576 227.01 55.0563 227.01 56.3936C227.01 56.8083 226.959 57.2145 226.857 57.6123C226.764 58.0016 226.616 58.3613 226.413 58.6914C226.21 59.0215 225.956 59.3135 225.651 59.5674C225.347 59.8213 224.987 60.0202 224.572 60.1641C224.987 60.2318 225.381 60.3672 225.753 60.5703C226.134 60.765 226.464 61.0231 226.743 61.3447C227.031 61.6579 227.255 62.0303 227.416 62.4619C227.585 62.8936 227.67 63.376 227.67 63.9092C227.67 65.6019 227.103 66.8757 225.969 67.7305C224.835 68.5768 223.197 69 221.056 69H215.99ZM223.76 56.9395C223.76 56.6263 223.709 56.3428 223.607 56.0889C223.506 55.835 223.341 55.6191 223.112 55.4414C222.892 55.2637 222.604 55.1283 222.249 55.0352C221.902 54.9336 221.479 54.8828 220.979 54.8828H219.088V59.2754H220.979C221.487 59.2754 221.915 59.2161 222.262 59.0977C222.617 58.9707 222.905 58.8014 223.125 58.5898C223.354 58.3698 223.514 58.1201 223.607 57.8408C223.709 57.5615 223.76 57.2611 223.76 56.9395ZM221.271 66.4482C221.771 66.4482 222.207 66.3848 222.579 66.2578C222.96 66.1309 223.277 65.9574 223.531 65.7373C223.785 65.5088 223.976 65.2422 224.103 64.9375C224.238 64.6328 224.306 64.307 224.306 63.96C224.306 63.2406 224.035 62.6777 223.493 62.2715C222.96 61.8652 222.139 61.6621 221.03 61.6621H219.088V66.4482H221.271Z" fill="black"/>
<path d="M139.099 158.353C138.362 158.649 137.647 158.869 136.953 159.013C136.268 159.157 135.552 159.229 134.808 159.229C133.614 159.229 132.556 159.055 131.634 158.708C130.72 158.353 129.945 157.828 129.311 157.134C128.684 156.44 128.206 155.581 127.876 154.557C127.554 153.524 127.394 152.326 127.394 150.964C127.394 149.567 127.571 148.327 127.927 147.244C128.282 146.152 128.79 145.234 129.45 144.489C130.11 143.736 130.91 143.165 131.85 142.775C132.798 142.378 133.86 142.179 135.036 142.179C135.417 142.179 135.772 142.187 136.103 142.204C136.441 142.221 136.771 142.255 137.093 142.306C137.414 142.348 137.74 142.407 138.07 142.483C138.4 142.56 138.743 142.657 139.099 142.775V145.873C138.379 145.535 137.694 145.293 137.042 145.149C136.39 145.006 135.798 144.934 135.265 144.934C134.478 144.934 133.805 145.077 133.246 145.365C132.688 145.645 132.226 146.042 131.862 146.559C131.507 147.066 131.244 147.676 131.075 148.387C130.906 149.089 130.821 149.864 130.821 150.71C130.821 151.607 130.906 152.411 131.075 153.122C131.253 153.825 131.524 154.421 131.888 154.912C132.252 155.403 132.717 155.78 133.284 156.042C133.851 156.296 134.524 156.423 135.303 156.423C135.582 156.423 135.882 156.397 136.204 156.347C136.534 156.287 136.864 156.215 137.194 156.131C137.533 156.038 137.863 155.932 138.185 155.813C138.515 155.687 138.819 155.56 139.099 155.433V158.353Z" fill="black"/>
<path d="M285.975 152.494C285.975 153.781 285.814 154.949 285.492 155.998C285.179 157.048 284.684 157.945 284.007 158.689C283.338 159.426 282.479 159.997 281.43 160.403C280.38 160.801 279.123 161 277.659 161H273.444V144.407H278.357C279.627 144.407 280.736 144.568 281.684 144.89C282.64 145.203 283.436 145.689 284.07 146.35C284.705 147.01 285.179 147.848 285.492 148.863C285.814 149.879 285.975 151.089 285.975 152.494ZM282.623 152.697C282.623 151.8 282.551 151 282.407 150.298C282.263 149.595 282.018 149.003 281.671 148.521C281.332 148.03 280.875 147.657 280.3 147.403C279.724 147.149 279.009 147.022 278.154 147.022H276.567V158.385H277.938C279.47 158.385 280.634 157.928 281.43 157.014C282.225 156.1 282.623 154.661 282.623 152.697Z" fill="black"/>
<path d="M92.6885 257V240.407H102.68V243.048H95.8623V247.174H102.362V249.751H95.8623V254.359H102.68V257H92.6885Z" fill="black"/>
<path d="M240.862 243.048V247.644H247.134V250.208H240.862V257H237.688V240.407H247.489V243.048H240.862Z" fill="black"/>
</svg>
