<svg width="570" height="310" viewBox="0 0 570 310" fill="none" xmlns="http://www.w3.org/2000/svg">
<mask id="path-1-inside-1" fill="white">
<rect width="321" height="310" rx="4"/>
</mask>
<rect width="321" height="310" rx="4" fill="#7DE77B" stroke="black" stroke-width="10" mask="url(#path-1-inside-1)"/>
<mask id="path-2-inside-2" fill="white">
<rect x="372" y="38" width="198" height="155" rx="4"/>
</mask>
<rect x="372" y="38" width="198" height="155" rx="4" fill="#7DE77B" stroke="black" stroke-width="10" mask="url(#path-2-inside-2)"/>
<mask id="path-3-inside-3" fill="white">
<rect x="23" y="23" width="98" height="81" rx="4"/>
</mask>
<rect x="23" y="23" width="98" height="81" rx="4" fill="#D1F562" stroke="black" stroke-width="10" mask="url(#path-3-inside-3)"/>
<mask id="path-4-inside-4" fill="white">
<rect x="393" y="74" width="155" height="81" rx="4"/>
</mask>
<rect x="393" y="74" width="155" height="81" rx="4" fill="#D1F562" stroke="black" stroke-width="10" mask="url(#path-4-inside-4)"/>
<mask id="path-5-inside-5" fill="white">
<rect x="242" y="115" width="54" height="81" rx="4"/>
</mask>
<rect x="242" y="115" width="54" height="81" rx="4" fill="#D1F562" stroke="black" stroke-width="10" mask="url(#path-5-inside-5)"/>
<mask id="path-6-inside-6" fill="white">
<rect x="23" y="115" width="208" height="81" rx="4"/>
</mask>
<rect x="23" y="115" width="208" height="81" rx="4" fill="#D1F562" stroke="black" stroke-width="10" mask="url(#path-6-inside-6)"/>
<mask id="path-7-inside-7" fill="white">
<rect x="23" y="207" width="152" height="81" rx="4"/>
</mask>
<rect x="23" y="207" width="152" height="81" rx="4" fill="#D1F562" stroke="black" stroke-width="10" mask="url(#path-7-inside-7)"/>
<mask id="path-8-inside-8" fill="white">
<rect x="49" y="92" width="49" height="46" rx="4"/>
</mask>
<rect x="49" y="92" width="49" height="46" rx="4" fill="#FFFD54" stroke="black" stroke-width="10" mask="url(#path-8-inside-8)"/>
<mask id="path-9-inside-9" fill="white">
<rect x="220" y="132" width="49" height="46" rx="4"/>
</mask>
<rect x="220" y="132" width="49" height="46" rx="4" fill="#FFFD54" stroke="black" stroke-width="10" mask="url(#path-9-inside-9)"/>
<mask id="path-10-inside-10" fill="white">
<rect x="190" y="207" width="106" height="81" rx="4"/>
</mask>
<rect x="190" y="207" width="106" height="81" rx="4" fill="#D1F562" stroke="black" stroke-width="10" mask="url(#path-10-inside-10)"/>
<mask id="path-11-inside-11" fill="white">
<rect x="161" y="234" width="49" height="46" rx="4"/>
</mask>
<rect x="161" y="234" width="49" height="46" rx="4" fill="#FFFD54" stroke="black" stroke-width="10" mask="url(#path-11-inside-11)"/>
<mask id="path-12-inside-12" fill="white">
<rect x="108" y="178" width="49" height="46" rx="4"/>
</mask>
<rect x="108" y="178" width="49" height="46" rx="4" fill="#FFFD54" stroke="black" stroke-width="10" mask="url(#path-12-inside-12)"/>
<line x1="321" y1="71.5" x2="377" y2="71.5" stroke="black" stroke-width="5"/>
<line x1="187.124" y1="111.658" x2="302.124" y2="68.6583" stroke="black" stroke-width="5"/>
<mask id="path-15-inside-13" fill="white">
<rect x="296" y="48" width="49" height="46" rx="4"/>
</mask>
<rect x="296" y="48" width="49" height="46" rx="4" fill="#FFFD54" stroke="black" stroke-width="10" mask="url(#path-15-inside-13)"/>
<mask id="path-16-inside-14" fill="white">
<rect x="163" y="91" width="49" height="46" rx="4"/>
</mask>
<rect x="163" y="91" width="49" height="46" rx="4" fill="#FFFD54" stroke="black" stroke-width="10" mask="url(#path-16-inside-14)"/>
<path d="M464.99 121V104.407H470.348C472.235 104.407 473.648 104.737 474.588 105.397C475.536 106.058 476.01 107.056 476.01 108.394C476.01 108.808 475.959 109.215 475.857 109.612C475.764 110.002 475.616 110.361 475.413 110.691C475.21 111.021 474.956 111.313 474.651 111.567C474.347 111.821 473.987 112.02 473.572 112.164C473.987 112.232 474.381 112.367 474.753 112.57C475.134 112.765 475.464 113.023 475.743 113.345C476.031 113.658 476.255 114.03 476.416 114.462C476.585 114.894 476.67 115.376 476.67 115.909C476.67 117.602 476.103 118.876 474.969 119.73C473.835 120.577 472.197 121 470.056 121H464.99ZM472.76 108.939C472.76 108.626 472.709 108.343 472.607 108.089C472.506 107.835 472.341 107.619 472.112 107.441C471.892 107.264 471.604 107.128 471.249 107.035C470.902 106.934 470.479 106.883 469.979 106.883H468.088V111.275H469.979C470.487 111.275 470.915 111.216 471.262 111.098C471.617 110.971 471.905 110.801 472.125 110.59C472.354 110.37 472.514 110.12 472.607 109.841C472.709 109.562 472.76 109.261 472.76 108.939ZM470.271 118.448C470.771 118.448 471.207 118.385 471.579 118.258C471.96 118.131 472.277 117.957 472.531 117.737C472.785 117.509 472.976 117.242 473.103 116.938C473.238 116.633 473.306 116.307 473.306 115.96C473.306 115.241 473.035 114.678 472.493 114.271C471.96 113.865 471.139 113.662 470.03 113.662H468.088V118.448H470.271Z" fill="black"/>
<path d="M74.1436 74L73.2295 70.7246H67.4404L66.501 74H63.4033L68.3164 57.4072H72.6836L77.5967 74H74.1436ZM70.373 60.4541L68.1895 68.1729H72.5312L70.373 60.4541Z" fill="black"/>
<path d="M138.099 160.353C137.362 160.649 136.647 160.869 135.953 161.013C135.268 161.157 134.552 161.229 133.808 161.229C132.614 161.229 131.556 161.055 130.634 160.708C129.72 160.353 128.945 159.828 128.311 159.134C127.684 158.44 127.206 157.581 126.876 156.557C126.554 155.524 126.394 154.326 126.394 152.964C126.394 151.567 126.571 150.327 126.927 149.244C127.282 148.152 127.79 147.234 128.45 146.489C129.11 145.736 129.91 145.165 130.85 144.775C131.798 144.378 132.86 144.179 134.036 144.179C134.417 144.179 134.772 144.187 135.103 144.204C135.441 144.221 135.771 144.255 136.093 144.306C136.414 144.348 136.74 144.407 137.07 144.483C137.4 144.56 137.743 144.657 138.099 144.775V147.873C137.379 147.535 136.694 147.293 136.042 147.149C135.39 147.006 134.798 146.934 134.265 146.934C133.478 146.934 132.805 147.077 132.246 147.365C131.688 147.645 131.226 148.042 130.862 148.559C130.507 149.066 130.244 149.676 130.075 150.387C129.906 151.089 129.821 151.864 129.821 152.71C129.821 153.607 129.906 154.411 130.075 155.122C130.253 155.825 130.524 156.421 130.888 156.912C131.252 157.403 131.717 157.78 132.284 158.042C132.851 158.296 133.524 158.423 134.303 158.423C134.582 158.423 134.882 158.397 135.204 158.347C135.534 158.287 135.864 158.215 136.194 158.131C136.533 158.038 136.863 157.932 137.185 157.813C137.515 157.687 137.819 157.56 138.099 157.433V160.353Z" fill="black"/>
<path d="M284.975 154.494C284.975 155.781 284.814 156.949 284.492 157.998C284.179 159.048 283.684 159.945 283.007 160.689C282.338 161.426 281.479 161.997 280.43 162.403C279.38 162.801 278.123 163 276.659 163H272.444V146.407H277.357C278.627 146.407 279.736 146.568 280.684 146.89C281.64 147.203 282.436 147.689 283.07 148.35C283.705 149.01 284.179 149.848 284.492 150.863C284.814 151.879 284.975 153.089 284.975 154.494ZM281.623 154.697C281.623 153.8 281.551 153 281.407 152.298C281.263 151.595 281.018 151.003 280.671 150.521C280.332 150.03 279.875 149.657 279.3 149.403C278.724 149.149 278.009 149.022 277.154 149.022H275.567V160.385H276.938C278.47 160.385 279.634 159.928 280.43 159.014C281.225 158.1 281.623 156.661 281.623 154.697Z" fill="black"/>
<path d="M91.6885 259V242.407H101.68V245.048H94.8623V249.174H101.362V251.751H94.8623V256.359H101.68V259H91.6885Z" fill="black"/>
<path d="M242.862 243.048V247.644H249.134V250.208H242.862V257H239.688V240.407H249.489V243.048H242.862Z" fill="black"/>
</svg>
