<svg width="840" height="405" viewBox="0 0 840 405" fill="none" xmlns="http://www.w3.org/2000/svg">
<line x1="367.5" y1="310" x2="367.5" y2="47" stroke="black" stroke-width="3"/>
<path d="M234.586 45.5858C233.805 46.3668 233.805 47.6332 234.586 48.4142L247.314 61.1421C248.095 61.9232 249.361 61.9232 250.142 61.1421C250.923 60.3611 250.923 59.0947 250.142 58.3137L238.828 47L250.142 35.6863C250.923 34.9052 250.923 33.6389 250.142 32.8579C249.361 32.0768 248.095 32.0768 247.314 32.8579L234.586 45.5858ZM369 45L236 45L236 49L369 49L369 45Z" fill="black"/>
<path d="M234.586 166.586C233.805 167.367 233.805 168.633 234.586 169.414L247.314 182.142C248.095 182.923 249.361 182.923 250.142 182.142C250.923 181.361 250.923 180.095 250.142 179.314L238.828 168L250.142 156.686C250.923 155.905 250.923 154.639 250.142 153.858C249.361 153.077 248.095 153.077 247.314 153.858L234.586 166.586ZM369 166L236 166L236 170L369 170L369 166Z" fill="black"/>
<rect x="243.5" y="329.5" width="213" height="52" rx="2.5" fill="#7DE77B" stroke="black" stroke-width="3"/>
<path d="M303.858 358.182C303.858 358.67 303.791 359.1 303.658 359.471C303.53 359.838 303.342 360.145 303.096 360.391C302.854 360.637 302.557 360.822 302.205 360.947C301.854 361.072 301.459 361.135 301.022 361.135C300.53 361.135 300.108 361.072 299.756 360.947C299.405 360.822 299.119 360.643 298.901 360.408C298.682 360.174 298.524 359.889 298.426 359.553C298.328 359.217 298.28 358.84 298.28 358.422V353.342H299.721V358.334C299.721 358.592 299.742 358.82 299.785 359.02C299.832 359.219 299.91 359.389 300.02 359.529C300.133 359.666 300.274 359.77 300.442 359.84C300.61 359.91 300.821 359.945 301.074 359.945C301.313 359.945 301.514 359.916 301.678 359.857C301.842 359.795 301.979 359.697 302.088 359.564C302.198 359.428 302.28 359.254 302.334 359.043C302.389 358.832 302.416 358.576 302.416 358.275V353.342H303.858V358.182ZM310.092 359.248C310.092 359.588 310.016 359.879 309.864 360.121C309.715 360.359 309.516 360.555 309.266 360.707C309.02 360.855 308.739 360.963 308.422 361.029C308.11 361.1 307.789 361.135 307.461 361.135C307.024 361.135 306.629 361.113 306.278 361.07C305.926 361.031 305.594 360.973 305.282 360.895V359.605C305.649 359.758 306.014 359.869 306.377 359.939C306.744 360.006 307.09 360.039 307.414 360.039C307.789 360.039 308.069 359.98 308.252 359.863C308.44 359.742 308.533 359.586 308.533 359.395C308.533 359.305 308.514 359.223 308.475 359.148C308.436 359.074 308.362 359.004 308.252 358.938C308.147 358.867 307.996 358.797 307.801 358.727C307.606 358.652 307.35 358.57 307.033 358.48C306.741 358.398 306.483 358.307 306.26 358.205C306.041 358.1 305.86 357.977 305.715 357.836C305.571 357.695 305.461 357.533 305.387 357.35C305.317 357.162 305.282 356.943 305.282 356.693C305.282 356.451 305.336 356.223 305.446 356.008C305.555 355.793 305.717 355.605 305.932 355.445C306.151 355.281 306.422 355.152 306.746 355.059C307.071 354.965 307.449 354.918 307.883 354.918C308.258 354.918 308.59 354.938 308.879 354.977C309.168 355.016 309.424 355.059 309.647 355.105V356.271C309.307 356.162 308.987 356.086 308.686 356.043C308.389 355.996 308.094 355.973 307.801 355.973C307.508 355.973 307.272 356.025 307.092 356.131C306.916 356.236 306.828 356.383 306.828 356.57C306.828 356.66 306.846 356.74 306.881 356.811C306.916 356.881 306.985 356.949 307.086 357.016C307.192 357.082 307.336 357.152 307.52 357.227C307.707 357.297 307.953 357.375 308.258 357.461C308.602 357.559 308.891 357.664 309.125 357.777C309.36 357.887 309.547 358.012 309.688 358.152C309.832 358.293 309.936 358.453 309.998 358.633C310.061 358.812 310.092 359.018 310.092 359.248ZM316.965 357.566C316.965 357.664 316.961 357.791 316.953 357.947C316.949 358.104 316.942 358.25 316.93 358.387H313.016C313.016 358.648 313.055 358.879 313.133 359.078C313.215 359.277 313.328 359.445 313.473 359.582C313.621 359.715 313.797 359.816 314 359.887C314.207 359.957 314.436 359.992 314.686 359.992C314.975 359.992 315.283 359.971 315.612 359.928C315.944 359.881 316.287 359.807 316.643 359.705V360.842C316.491 360.885 316.324 360.924 316.145 360.959C315.965 360.994 315.782 361.025 315.594 361.053C315.407 361.08 315.217 361.1 315.026 361.111C314.834 361.127 314.649 361.135 314.469 361.135C314.016 361.135 313.61 361.07 313.25 360.941C312.891 360.812 312.586 360.623 312.336 360.373C312.086 360.119 311.895 359.807 311.762 359.436C311.629 359.064 311.563 358.635 311.563 358.146C311.563 357.662 311.629 357.223 311.762 356.828C311.895 356.43 312.082 356.09 312.324 355.809C312.567 355.523 312.86 355.305 313.203 355.152C313.551 354.996 313.938 354.918 314.364 354.918C314.785 354.918 315.158 354.984 315.483 355.117C315.807 355.246 316.078 355.428 316.297 355.662C316.516 355.896 316.682 356.176 316.795 356.5C316.908 356.824 316.965 357.18 316.965 357.566ZM315.512 357.361C315.516 357.127 315.487 356.924 315.424 356.752C315.362 356.576 315.276 356.432 315.166 356.318C315.061 356.205 314.936 356.121 314.791 356.066C314.651 356.012 314.498 355.984 314.334 355.984C313.975 355.984 313.68 356.105 313.449 356.348C313.219 356.586 313.082 356.924 313.039 357.361H315.512ZM322.209 357.361C322.217 357.139 322.205 356.949 322.174 356.793C322.147 356.637 322.1 356.508 322.033 356.406C321.971 356.305 321.893 356.23 321.799 356.184C321.705 356.137 321.598 356.113 321.477 356.113C321.266 356.113 321.047 356.201 320.821 356.377C320.598 356.549 320.352 356.834 320.082 357.232V361H318.617V355.047H319.912L319.965 355.914C320.063 355.762 320.172 355.625 320.293 355.504C320.418 355.383 320.555 355.279 320.703 355.193C320.856 355.104 321.024 355.035 321.207 354.988C321.391 354.941 321.592 354.918 321.811 354.918C322.112 354.918 322.377 354.971 322.608 355.076C322.842 355.178 323.037 355.33 323.194 355.533C323.354 355.736 323.471 355.992 323.545 356.301C323.623 356.605 323.657 356.959 323.645 357.361H322.209ZM330.043 360.701C329.703 360.838 329.373 360.939 329.053 361.006C328.737 361.072 328.407 361.105 328.063 361.105C327.512 361.105 327.024 361.025 326.598 360.865C326.176 360.701 325.819 360.459 325.526 360.139C325.237 359.818 325.016 359.422 324.864 358.949C324.715 358.473 324.641 357.92 324.641 357.291C324.641 356.646 324.723 356.074 324.887 355.574C325.051 355.07 325.285 354.646 325.59 354.303C325.895 353.955 326.264 353.691 326.698 353.512C327.135 353.328 327.625 353.236 328.168 353.236C328.344 353.236 328.508 353.24 328.66 353.248C328.817 353.256 328.969 353.271 329.117 353.295C329.266 353.314 329.416 353.342 329.569 353.377C329.721 353.412 329.879 353.457 330.043 353.512V354.941C329.711 354.785 329.395 354.674 329.094 354.607C328.793 354.541 328.52 354.508 328.274 354.508C327.91 354.508 327.6 354.574 327.342 354.707C327.084 354.836 326.871 355.02 326.703 355.258C326.539 355.492 326.418 355.773 326.34 356.102C326.262 356.426 326.223 356.783 326.223 357.174C326.223 357.588 326.262 357.959 326.34 358.287C326.422 358.611 326.547 358.887 326.715 359.113C326.883 359.34 327.098 359.514 327.36 359.635C327.621 359.752 327.932 359.811 328.291 359.811C328.42 359.811 328.559 359.799 328.707 359.775C328.86 359.748 329.012 359.715 329.164 359.676C329.321 359.633 329.473 359.584 329.621 359.529C329.774 359.471 329.914 359.412 330.043 359.354V360.701ZM335.405 357.361C335.412 357.139 335.401 356.949 335.369 356.793C335.342 356.637 335.295 356.508 335.229 356.406C335.166 356.305 335.088 356.23 334.994 356.184C334.901 356.137 334.793 356.113 334.672 356.113C334.461 356.113 334.242 356.201 334.016 356.377C333.793 356.549 333.547 356.834 333.278 357.232V361H331.813V355.047H333.108L333.16 355.914C333.258 355.762 333.367 355.625 333.489 355.504C333.614 355.383 333.75 355.279 333.899 355.193C334.051 355.104 334.219 355.035 334.403 354.988C334.586 354.941 334.787 354.918 335.006 354.918C335.307 354.918 335.573 354.971 335.803 355.076C336.037 355.178 336.233 355.33 336.389 355.533C336.549 355.736 336.666 355.992 336.741 356.301C336.819 356.605 336.852 356.959 336.84 357.361H335.405ZM343.356 357.566C343.356 357.664 343.352 357.791 343.344 357.947C343.34 358.104 343.332 358.25 343.321 358.387H339.407C339.407 358.648 339.446 358.879 339.524 359.078C339.606 359.277 339.719 359.445 339.864 359.582C340.012 359.715 340.188 359.816 340.391 359.887C340.598 359.957 340.826 359.992 341.076 359.992C341.366 359.992 341.674 359.971 342.002 359.928C342.334 359.881 342.678 359.807 343.033 359.705V360.842C342.881 360.885 342.715 360.924 342.535 360.959C342.356 360.994 342.172 361.025 341.985 361.053C341.797 361.08 341.608 361.1 341.416 361.111C341.225 361.127 341.039 361.135 340.86 361.135C340.407 361.135 340 361.07 339.641 360.941C339.282 360.812 338.977 360.623 338.727 360.373C338.477 360.119 338.285 359.807 338.153 359.436C338.02 359.064 337.953 358.635 337.953 358.146C337.953 357.662 338.02 357.223 338.153 356.828C338.285 356.43 338.473 356.09 338.715 355.809C338.957 355.523 339.25 355.305 339.594 355.152C339.942 354.996 340.328 354.918 340.754 354.918C341.176 354.918 341.549 354.984 341.873 355.117C342.198 355.246 342.469 355.428 342.688 355.662C342.907 355.896 343.073 356.176 343.186 356.5C343.299 356.824 343.356 357.18 343.356 357.566ZM341.903 357.361C341.907 357.127 341.877 356.924 341.815 356.752C341.752 356.576 341.666 356.432 341.557 356.318C341.451 356.205 341.326 356.121 341.182 356.066C341.041 356.012 340.889 355.984 340.725 355.984C340.366 355.984 340.071 356.105 339.84 356.348C339.61 356.586 339.473 356.924 339.43 357.361H341.903ZM348.5 361L348.465 360.221C348.34 360.354 348.209 360.477 348.073 360.59C347.936 360.699 347.785 360.795 347.621 360.877C347.457 360.959 347.278 361.021 347.082 361.064C346.891 361.111 346.68 361.135 346.449 361.135C346.145 361.135 345.877 361.09 345.647 361C345.416 360.91 345.223 360.785 345.067 360.625C344.91 360.465 344.791 360.271 344.709 360.045C344.631 359.818 344.592 359.568 344.592 359.295C344.592 359.014 344.651 358.754 344.768 358.516C344.889 358.277 345.071 358.072 345.313 357.9C345.559 357.729 345.864 357.594 346.227 357.496C346.594 357.398 347.024 357.35 347.516 357.35H348.295V356.992C348.295 356.84 348.274 356.703 348.231 356.582C348.188 356.457 348.117 356.352 348.02 356.266C347.926 356.18 347.803 356.113 347.651 356.066C347.498 356.02 347.311 355.996 347.088 355.996C346.737 355.996 346.389 356.037 346.045 356.119C345.705 356.197 345.375 356.309 345.055 356.453V355.311C345.34 355.197 345.668 355.104 346.039 355.029C346.414 354.955 346.803 354.918 347.205 354.918C347.647 354.918 348.026 354.961 348.342 355.047C348.658 355.129 348.918 355.254 349.121 355.422C349.328 355.59 349.481 355.801 349.578 356.055C349.676 356.305 349.725 356.598 349.725 356.934V361H348.5ZM348.295 358.369H347.422C347.18 358.369 346.975 358.393 346.807 358.439C346.639 358.486 346.502 358.551 346.397 358.633C346.291 358.715 346.213 358.811 346.162 358.92C346.116 359.025 346.092 359.139 346.092 359.26C346.092 359.502 346.17 359.688 346.326 359.816C346.483 359.941 346.696 360.004 346.965 360.004C347.164 360.004 347.371 359.932 347.586 359.787C347.801 359.643 348.037 359.436 348.295 359.166V358.369ZM356.276 360.941C356.018 361 355.758 361.047 355.496 361.082C355.235 361.117 354.987 361.135 354.752 361.135C354.362 361.135 354.024 361.094 353.739 361.012C353.457 360.93 353.223 360.805 353.035 360.637C352.852 360.469 352.715 360.256 352.625 359.998C352.539 359.736 352.496 359.426 352.496 359.066V356.16H350.897V355.047H352.496V353.523L353.961 353.143V355.047H356.276V356.16H353.961V358.961C353.961 359.301 354.039 359.559 354.196 359.734C354.352 359.906 354.614 359.992 354.981 359.992C355.215 359.992 355.444 359.973 355.666 359.934C355.889 359.895 356.092 359.85 356.276 359.799V360.941ZM363.149 357.566C363.149 357.664 363.145 357.791 363.137 357.947C363.133 358.104 363.125 358.25 363.114 358.387H359.199C359.199 358.648 359.239 358.879 359.317 359.078C359.399 359.277 359.512 359.445 359.657 359.582C359.805 359.715 359.981 359.816 360.184 359.887C360.391 359.957 360.619 359.992 360.869 359.992C361.158 359.992 361.467 359.971 361.795 359.928C362.127 359.881 362.471 359.807 362.826 359.705V360.842C362.674 360.885 362.508 360.924 362.328 360.959C362.149 360.994 361.965 361.025 361.778 361.053C361.59 361.08 361.401 361.1 361.209 361.111C361.018 361.127 360.832 361.135 360.653 361.135C360.199 361.135 359.793 361.07 359.434 360.941C359.074 360.812 358.77 360.623 358.52 360.373C358.27 360.119 358.078 359.807 357.946 359.436C357.813 359.064 357.746 358.635 357.746 358.146C357.746 357.662 357.813 357.223 357.946 356.828C358.078 356.43 358.266 356.09 358.508 355.809C358.75 355.523 359.043 355.305 359.387 355.152C359.735 354.996 360.121 354.918 360.547 354.918C360.969 354.918 361.342 354.984 361.666 355.117C361.991 355.246 362.262 355.428 362.481 355.662C362.699 355.896 362.866 356.176 362.979 356.5C363.092 356.824 363.149 357.18 363.149 357.566ZM361.696 357.361C361.699 357.127 361.67 356.924 361.608 356.752C361.545 356.576 361.459 356.432 361.35 356.318C361.244 356.205 361.119 356.121 360.975 356.066C360.834 356.012 360.682 355.984 360.518 355.984C360.158 355.984 359.864 356.105 359.633 356.348C359.403 356.586 359.266 356.924 359.223 357.361H361.696ZM368.305 361L368.27 360.121C368.145 360.273 368.016 360.412 367.883 360.537C367.75 360.662 367.608 360.77 367.455 360.859C367.303 360.945 367.139 361.012 366.963 361.059C366.791 361.109 366.6 361.135 366.389 361.135C366.037 361.135 365.725 361.064 365.451 360.924C365.178 360.783 364.948 360.584 364.76 360.326C364.576 360.064 364.436 359.748 364.338 359.377C364.241 359.006 364.192 358.592 364.192 358.135C364.192 357.588 364.268 357.115 364.42 356.717C364.576 356.314 364.791 355.982 365.065 355.721C365.338 355.455 365.662 355.26 366.037 355.135C366.412 355.006 366.821 354.941 367.262 354.941C367.41 354.941 367.559 354.951 367.707 354.971C367.86 354.99 367.994 355.016 368.112 355.047V352.721H369.541V361H368.305ZM365.692 358.07C365.692 358.398 365.713 358.68 365.756 358.914C365.803 359.145 365.869 359.334 365.955 359.482C366.045 359.631 366.155 359.74 366.283 359.811C366.412 359.877 366.559 359.91 366.723 359.91C366.965 359.91 367.196 359.812 367.414 359.617C367.633 359.422 367.866 359.154 368.112 358.814V356.213C367.998 356.17 367.858 356.135 367.69 356.107C367.526 356.08 367.36 356.066 367.192 356.066C366.961 356.066 366.754 356.113 366.571 356.207C366.387 356.301 366.229 356.434 366.096 356.605C365.967 356.777 365.867 356.988 365.797 357.238C365.727 357.484 365.692 357.762 365.692 358.07ZM371.422 361V353.342H376.033V354.561H372.887V356.465H375.887V357.654H372.887V359.781H376.033V361H371.422ZM381.084 361H379.438L377.076 355.047H378.67L379.907 358.422L380.276 359.512L380.639 358.469L381.887 355.047H383.422L381.084 361ZM389.539 357.566C389.539 357.664 389.535 357.791 389.528 357.947C389.524 358.104 389.516 358.25 389.504 358.387H385.59C385.59 358.648 385.629 358.879 385.707 359.078C385.789 359.277 385.903 359.445 386.047 359.582C386.196 359.715 386.371 359.816 386.574 359.887C386.782 359.957 387.01 359.992 387.26 359.992C387.549 359.992 387.858 359.971 388.186 359.928C388.518 359.881 388.862 359.807 389.217 359.705V360.842C389.065 360.885 388.899 360.924 388.719 360.959C388.539 360.994 388.356 361.025 388.168 361.053C387.981 361.08 387.791 361.1 387.6 361.111C387.408 361.127 387.223 361.135 387.043 361.135C386.59 361.135 386.184 361.07 385.824 360.941C385.465 360.812 385.16 360.623 384.91 360.373C384.66 360.119 384.469 359.807 384.336 359.436C384.203 359.064 384.137 358.635 384.137 358.146C384.137 357.662 384.203 357.223 384.336 356.828C384.469 356.43 384.657 356.09 384.899 355.809C385.141 355.523 385.434 355.305 385.778 355.152C386.125 354.996 386.512 354.918 386.938 354.918C387.36 354.918 387.733 354.984 388.057 355.117C388.381 355.246 388.653 355.428 388.871 355.662C389.09 355.896 389.256 356.176 389.369 356.5C389.483 356.824 389.539 357.18 389.539 357.566ZM388.086 357.361C388.09 357.127 388.061 356.924 387.998 356.752C387.936 356.576 387.85 356.432 387.741 356.318C387.635 356.205 387.51 356.121 387.366 356.066C387.225 356.012 387.073 355.984 386.908 355.984C386.549 355.984 386.254 356.105 386.024 356.348C385.793 356.586 385.657 356.924 385.614 357.361H388.086ZM394.502 361V357.121C394.502 356.469 394.26 356.143 393.776 356.143C393.533 356.143 393.301 356.24 393.078 356.436C392.86 356.631 392.627 356.896 392.381 357.232V361H390.951V355.047H392.188L392.223 355.926C392.344 355.773 392.469 355.635 392.598 355.51C392.731 355.385 392.873 355.279 393.026 355.193C393.178 355.104 393.342 355.035 393.518 354.988C393.694 354.941 393.891 354.918 394.11 354.918C394.414 354.918 394.68 354.969 394.907 355.07C395.133 355.168 395.323 355.309 395.475 355.492C395.627 355.672 395.741 355.891 395.815 356.148C395.893 356.402 395.932 356.688 395.932 357.004V361H394.502ZM402.459 360.941C402.201 361 401.942 361.047 401.68 361.082C401.418 361.117 401.17 361.135 400.936 361.135C400.545 361.135 400.207 361.094 399.922 361.012C399.641 360.93 399.407 360.805 399.219 360.637C399.035 360.469 398.899 360.256 398.809 359.998C398.723 359.736 398.68 359.426 398.68 359.066V356.16H397.08V355.047H398.68V353.523L400.145 353.143V355.047H402.459V356.16H400.145V358.961C400.145 359.301 400.223 359.559 400.379 359.734C400.535 359.906 400.797 359.992 401.164 359.992C401.399 359.992 401.627 359.973 401.85 359.934C402.073 359.895 402.276 359.85 402.459 359.799V360.941Z" fill="black"/>
<path d="M527.695 319.766C527.695 320.557 527.596 321.276 527.398 321.922C527.206 322.568 526.901 323.12 526.484 323.578C526.073 324.031 525.544 324.383 524.898 324.633C524.253 324.878 523.479 325 522.578 325H519.984V314.789H523.008C523.789 314.789 524.471 314.888 525.055 315.086C525.643 315.279 526.133 315.578 526.523 315.984C526.914 316.391 527.206 316.906 527.398 317.531C527.596 318.156 527.695 318.901 527.695 319.766ZM525.633 319.891C525.633 319.339 525.589 318.846 525.5 318.414C525.411 317.982 525.26 317.617 525.047 317.32C524.839 317.018 524.557 316.789 524.203 316.633C523.849 316.477 523.409 316.398 522.883 316.398H521.906V323.391H522.75C523.693 323.391 524.409 323.109 524.898 322.547C525.388 321.984 525.633 321.099 525.633 319.891ZM533.867 314.891C533.867 315.062 533.836 315.224 533.773 315.375C533.711 315.526 533.622 315.659 533.508 315.773C533.398 315.883 533.268 315.971 533.117 316.039C532.966 316.102 532.802 316.133 532.625 316.133C532.448 316.133 532.281 316.102 532.125 316.039C531.974 315.971 531.841 315.883 531.727 315.773C531.617 315.659 531.531 315.526 531.469 315.375C531.406 315.224 531.375 315.062 531.375 314.891C531.375 314.719 531.406 314.557 531.469 314.406C531.531 314.255 531.617 314.122 531.727 314.008C531.841 313.893 531.974 313.805 532.125 313.742C532.281 313.674 532.448 313.641 532.625 313.641C532.802 313.641 532.966 313.674 533.117 313.742C533.268 313.805 533.398 313.893 533.508 314.008C533.622 314.122 533.711 314.255 533.773 314.406C533.836 314.557 533.867 314.719 533.867 314.891ZM531.758 318.547H529.516V317.062H533.711V323.516H536V325H529.242V323.516H531.758V318.547ZM544.539 322.664C544.539 323.117 544.438 323.505 544.234 323.828C544.036 324.146 543.771 324.406 543.438 324.609C543.109 324.807 542.734 324.951 542.312 325.039C541.896 325.133 541.469 325.18 541.031 325.18C540.448 325.18 539.922 325.151 539.453 325.094C538.984 325.042 538.542 324.964 538.125 324.859V323.141C538.615 323.344 539.102 323.492 539.586 323.586C540.076 323.674 540.536 323.719 540.969 323.719C541.469 323.719 541.841 323.641 542.086 323.484C542.336 323.323 542.461 323.115 542.461 322.859C542.461 322.74 542.435 322.63 542.383 322.531C542.331 322.432 542.232 322.339 542.086 322.25C541.945 322.156 541.745 322.062 541.484 321.969C541.224 321.87 540.883 321.76 540.461 321.641C540.07 321.531 539.727 321.409 539.43 321.273C539.138 321.133 538.896 320.969 538.703 320.781C538.51 320.594 538.365 320.378 538.266 320.133C538.172 319.883 538.125 319.591 538.125 319.258C538.125 318.935 538.198 318.63 538.344 318.344C538.49 318.057 538.706 317.807 538.992 317.594C539.284 317.375 539.646 317.203 540.078 317.078C540.51 316.953 541.016 316.891 541.594 316.891C542.094 316.891 542.536 316.917 542.922 316.969C543.307 317.021 543.648 317.078 543.945 317.141V318.695C543.492 318.549 543.065 318.448 542.664 318.391C542.268 318.328 541.875 318.297 541.484 318.297C541.094 318.297 540.779 318.367 540.539 318.508C540.305 318.648 540.188 318.844 540.188 319.094C540.188 319.214 540.211 319.32 540.258 319.414C540.305 319.508 540.396 319.599 540.531 319.688C540.672 319.776 540.865 319.87 541.109 319.969C541.359 320.062 541.688 320.167 542.094 320.281C542.552 320.411 542.938 320.552 543.25 320.703C543.562 320.849 543.812 321.016 544 321.203C544.193 321.391 544.331 321.604 544.414 321.844C544.497 322.083 544.539 322.357 544.539 322.664ZM553.93 320.891C553.93 321.62 553.826 322.25 553.617 322.781C553.414 323.312 553.128 323.755 552.758 324.109C552.393 324.458 551.961 324.719 551.461 324.891C550.961 325.057 550.417 325.141 549.828 325.141C549.63 325.141 549.432 325.128 549.234 325.102C549.036 325.076 548.857 325.042 548.695 325V328.102H546.789V317.062H548.438L548.484 318.234C548.646 318.031 548.812 317.846 548.984 317.68C549.161 317.513 549.352 317.372 549.555 317.258C549.758 317.138 549.977 317.047 550.211 316.984C550.445 316.922 550.708 316.891 551 316.891C551.469 316.891 551.885 316.984 552.25 317.172C552.615 317.359 552.919 317.628 553.164 317.977C553.414 318.32 553.604 318.74 553.734 319.234C553.865 319.724 553.93 320.276 553.93 320.891ZM551.93 320.969C551.93 320.531 551.898 320.159 551.836 319.852C551.773 319.544 551.682 319.292 551.562 319.094C551.448 318.896 551.305 318.753 551.133 318.664C550.966 318.57 550.773 318.523 550.555 318.523C550.232 318.523 549.922 318.654 549.625 318.914C549.333 319.174 549.023 319.529 548.695 319.977V323.445C548.846 323.503 549.031 323.549 549.25 323.586C549.474 323.622 549.701 323.641 549.93 323.641C550.232 323.641 550.505 323.578 550.75 323.453C551 323.328 551.211 323.151 551.383 322.922C551.56 322.693 551.695 322.414 551.789 322.086C551.883 321.753 551.93 321.38 551.93 320.969ZM560.562 325L560.516 323.961C560.349 324.138 560.174 324.302 559.992 324.453C559.81 324.599 559.609 324.727 559.391 324.836C559.172 324.945 558.932 325.029 558.672 325.086C558.417 325.148 558.135 325.18 557.828 325.18C557.422 325.18 557.065 325.12 556.758 325C556.451 324.88 556.193 324.714 555.984 324.5C555.776 324.286 555.617 324.029 555.508 323.727C555.404 323.424 555.352 323.091 555.352 322.727C555.352 322.352 555.43 322.005 555.586 321.688C555.747 321.37 555.99 321.096 556.312 320.867C556.641 320.638 557.047 320.458 557.531 320.328C558.021 320.198 558.594 320.133 559.25 320.133H560.289V319.656C560.289 319.453 560.26 319.271 560.203 319.109C560.146 318.943 560.052 318.802 559.922 318.688C559.797 318.573 559.633 318.484 559.43 318.422C559.227 318.359 558.977 318.328 558.68 318.328C558.211 318.328 557.747 318.383 557.289 318.492C556.836 318.596 556.396 318.745 555.969 318.938V317.414C556.349 317.263 556.786 317.138 557.281 317.039C557.781 316.94 558.299 316.891 558.836 316.891C559.424 316.891 559.93 316.948 560.352 317.062C560.773 317.172 561.12 317.339 561.391 317.562C561.667 317.786 561.87 318.068 562 318.406C562.13 318.74 562.195 319.13 562.195 319.578V325H560.562ZM560.289 321.492H559.125C558.802 321.492 558.529 321.523 558.305 321.586C558.081 321.648 557.898 321.734 557.758 321.844C557.617 321.953 557.513 322.081 557.445 322.227C557.383 322.367 557.352 322.518 557.352 322.68C557.352 323.003 557.456 323.25 557.664 323.422C557.872 323.589 558.156 323.672 558.516 323.672C558.781 323.672 559.057 323.576 559.344 323.383C559.63 323.19 559.945 322.914 560.289 322.555V321.492ZM570.93 324.922C570.586 325 570.24 325.062 569.891 325.109C569.542 325.156 569.211 325.18 568.898 325.18C568.378 325.18 567.927 325.125 567.547 325.016C567.172 324.906 566.859 324.74 566.609 324.516C566.365 324.292 566.182 324.008 566.062 323.664C565.948 323.315 565.891 322.901 565.891 322.422V318.547H563.758V317.062H565.891V315.031L567.844 314.523V317.062H570.93V318.547H567.844V322.281C567.844 322.734 567.948 323.078 568.156 323.312C568.365 323.542 568.714 323.656 569.203 323.656C569.516 323.656 569.82 323.63 570.117 323.578C570.414 323.526 570.685 323.466 570.93 323.398V324.922ZM579.602 324.695C579.227 324.846 578.839 324.958 578.438 325.031C578.036 325.104 577.617 325.141 577.18 325.141C576.549 325.141 575.984 325.055 575.484 324.883C574.984 324.711 574.56 324.456 574.211 324.117C573.862 323.779 573.594 323.359 573.406 322.859C573.224 322.359 573.133 321.781 573.133 321.125C573.133 320.49 573.232 319.914 573.43 319.398C573.633 318.883 573.917 318.443 574.281 318.078C574.646 317.714 575.083 317.432 575.594 317.234C576.109 317.036 576.682 316.938 577.312 316.938C577.828 316.938 578.26 316.966 578.609 317.023C578.964 317.076 579.281 317.143 579.562 317.227V319.078C579.24 318.917 578.888 318.792 578.508 318.703C578.133 318.615 577.776 318.57 577.438 318.57C577.083 318.57 576.766 318.63 576.484 318.75C576.203 318.87 575.966 319.036 575.773 319.25C575.581 319.464 575.432 319.724 575.328 320.031C575.229 320.333 575.18 320.667 575.18 321.031C575.18 321.411 575.234 321.753 575.344 322.055C575.453 322.357 575.607 322.615 575.805 322.828C576.008 323.036 576.25 323.198 576.531 323.312C576.812 323.422 577.125 323.477 577.469 323.477C577.635 323.477 577.81 323.466 577.992 323.445C578.18 323.419 578.365 323.385 578.547 323.344C578.734 323.297 578.917 323.245 579.094 323.188C579.276 323.13 579.445 323.068 579.602 323V324.695ZM586.711 325V319.828C586.711 318.958 586.388 318.523 585.742 318.523C585.419 318.523 585.109 318.654 584.812 318.914C584.521 319.174 584.211 319.529 583.883 319.977V325H581.977V313.961H583.883V316.68L583.789 318.117C583.951 317.924 584.115 317.753 584.281 317.602C584.448 317.445 584.628 317.315 584.82 317.211C585.013 317.107 585.221 317.029 585.445 316.977C585.669 316.919 585.917 316.891 586.188 316.891C586.594 316.891 586.948 316.958 587.25 317.094C587.552 317.224 587.805 317.411 588.008 317.656C588.211 317.896 588.362 318.188 588.461 318.531C588.565 318.87 588.617 319.25 588.617 319.672V325H586.711Z" fill="black"/>
<path d="M404.875 138V127.789H411.023V129.414H406.828V131.953H410.828V133.539H406.828V136.375H411.023V138H404.875ZM417.758 138H415.562L412.414 130.062H414.539L416.188 134.562L416.68 136.016L417.164 134.625L418.828 130.062H420.875L417.758 138ZM429.031 133.422C429.031 133.552 429.026 133.721 429.016 133.93C429.01 134.138 429 134.333 428.984 134.516H423.766C423.766 134.865 423.818 135.172 423.922 135.438C424.031 135.703 424.182 135.927 424.375 136.109C424.573 136.286 424.807 136.422 425.078 136.516C425.354 136.609 425.659 136.656 425.992 136.656C426.378 136.656 426.789 136.628 427.227 136.57C427.669 136.508 428.128 136.409 428.602 136.273V137.789C428.398 137.846 428.177 137.898 427.938 137.945C427.698 137.992 427.453 138.034 427.203 138.07C426.953 138.107 426.701 138.133 426.445 138.148C426.19 138.169 425.943 138.18 425.703 138.18C425.099 138.18 424.557 138.094 424.078 137.922C423.599 137.75 423.193 137.497 422.859 137.164C422.526 136.826 422.271 136.409 422.094 135.914C421.917 135.419 421.828 134.846 421.828 134.195C421.828 133.549 421.917 132.964 422.094 132.438C422.271 131.906 422.521 131.453 422.844 131.078C423.167 130.698 423.557 130.406 424.016 130.203C424.479 129.995 424.995 129.891 425.562 129.891C426.125 129.891 426.622 129.979 427.055 130.156C427.487 130.328 427.849 130.57 428.141 130.883C428.432 131.195 428.654 131.568 428.805 132C428.956 132.432 429.031 132.906 429.031 133.422ZM427.094 133.148C427.099 132.836 427.06 132.565 426.977 132.336C426.893 132.102 426.779 131.909 426.633 131.758C426.492 131.607 426.326 131.495 426.133 131.422C425.945 131.349 425.742 131.312 425.523 131.312C425.044 131.312 424.651 131.474 424.344 131.797C424.036 132.115 423.854 132.565 423.797 133.148H427.094ZM435.648 138V132.828C435.648 131.958 435.326 131.523 434.68 131.523C434.357 131.523 434.047 131.654 433.75 131.914C433.458 132.174 433.148 132.529 432.82 132.977V138H430.914V130.062H432.562L432.609 131.234C432.771 131.031 432.938 130.846 433.109 130.68C433.286 130.513 433.477 130.372 433.68 130.258C433.883 130.138 434.102 130.047 434.336 129.984C434.57 129.922 434.833 129.891 435.125 129.891C435.531 129.891 435.885 129.958 436.188 130.094C436.49 130.224 436.742 130.411 436.945 130.656C437.148 130.896 437.299 131.188 437.398 131.531C437.503 131.87 437.555 132.25 437.555 132.672V138H435.648ZM446.258 137.922C445.914 138 445.568 138.062 445.219 138.109C444.87 138.156 444.539 138.18 444.227 138.18C443.706 138.18 443.255 138.125 442.875 138.016C442.5 137.906 442.188 137.74 441.938 137.516C441.693 137.292 441.51 137.008 441.391 136.664C441.276 136.315 441.219 135.901 441.219 135.422V131.547H439.086V130.062H441.219V128.031L443.172 127.523V130.062H446.258V131.547H443.172V135.281C443.172 135.734 443.276 136.078 443.484 136.312C443.693 136.542 444.042 136.656 444.531 136.656C444.844 136.656 445.148 136.63 445.445 136.578C445.742 136.526 446.013 136.466 446.258 136.398V137.922ZM463.82 138H461.703L460.859 135.484L460.602 134.609L460.344 135.508L459.531 138H457.406L456.281 130.062H458.094L458.664 134.547L458.797 135.773L459.117 134.672L459.914 132.258H461.367L462.219 134.656L462.586 135.789L462.734 134.531L463.211 130.062H464.938L463.82 138ZM473.016 133.422C473.016 133.552 473.01 133.721 473 133.93C472.995 134.138 472.984 134.333 472.969 134.516H467.75C467.75 134.865 467.802 135.172 467.906 135.438C468.016 135.703 468.167 135.927 468.359 136.109C468.557 136.286 468.792 136.422 469.062 136.516C469.339 136.609 469.643 136.656 469.977 136.656C470.362 136.656 470.773 136.628 471.211 136.57C471.654 136.508 472.112 136.409 472.586 136.273V137.789C472.383 137.846 472.161 137.898 471.922 137.945C471.682 137.992 471.438 138.034 471.188 138.07C470.938 138.107 470.685 138.133 470.43 138.148C470.174 138.169 469.927 138.18 469.688 138.18C469.083 138.18 468.542 138.094 468.062 137.922C467.583 137.75 467.177 137.497 466.844 137.164C466.51 136.826 466.255 136.409 466.078 135.914C465.901 135.419 465.812 134.846 465.812 134.195C465.812 133.549 465.901 132.964 466.078 132.438C466.255 131.906 466.505 131.453 466.828 131.078C467.151 130.698 467.542 130.406 468 130.203C468.464 129.995 468.979 129.891 469.547 129.891C470.109 129.891 470.607 129.979 471.039 130.156C471.471 130.328 471.833 130.57 472.125 130.883C472.417 131.195 472.638 131.568 472.789 132C472.94 132.432 473.016 132.906 473.016 133.422ZM471.078 133.148C471.083 132.836 471.044 132.565 470.961 132.336C470.878 132.102 470.763 131.909 470.617 131.758C470.477 131.607 470.31 131.495 470.117 131.422C469.93 131.349 469.727 131.312 469.508 131.312C469.029 131.312 468.635 131.474 468.328 131.797C468.021 132.115 467.839 132.565 467.781 133.148H471.078ZM475.461 131.234C475.773 131.245 476.065 131.227 476.336 131.18C476.607 131.133 476.841 131.06 477.039 130.961C477.242 130.862 477.401 130.734 477.516 130.578C477.63 130.422 477.688 130.234 477.688 130.016C477.688 129.865 477.664 129.737 477.617 129.633C477.576 129.523 477.521 129.427 477.453 129.344C477.385 129.255 477.312 129.172 477.234 129.094C477.161 129.01 477.091 128.924 477.023 128.836C476.956 128.742 476.898 128.638 476.852 128.523C476.81 128.404 476.789 128.26 476.789 128.094C476.789 127.932 476.818 127.776 476.875 127.625C476.932 127.469 477.016 127.331 477.125 127.211C477.234 127.091 477.367 126.995 477.523 126.922C477.685 126.849 477.867 126.812 478.07 126.812C478.326 126.812 478.555 126.872 478.758 126.992C478.961 127.112 479.133 127.271 479.273 127.469C479.414 127.667 479.521 127.896 479.594 128.156C479.667 128.411 479.703 128.68 479.703 128.961C479.703 129.445 479.615 129.901 479.438 130.328C479.26 130.755 478.995 131.128 478.641 131.445C478.286 131.763 477.844 132.016 477.312 132.203C476.786 132.385 476.169 132.477 475.461 132.477V131.234ZM488.805 133.148C488.815 132.852 488.799 132.599 488.758 132.391C488.721 132.182 488.659 132.01 488.57 131.875C488.487 131.74 488.383 131.641 488.258 131.578C488.133 131.516 487.99 131.484 487.828 131.484C487.547 131.484 487.255 131.602 486.953 131.836C486.656 132.065 486.328 132.445 485.969 132.977V138H484.016V130.062H485.742L485.812 131.219C485.943 131.016 486.089 130.833 486.25 130.672C486.417 130.51 486.599 130.372 486.797 130.258C487 130.138 487.224 130.047 487.469 129.984C487.714 129.922 487.982 129.891 488.273 129.891C488.674 129.891 489.029 129.961 489.336 130.102C489.648 130.237 489.909 130.44 490.117 130.711C490.331 130.982 490.487 131.323 490.586 131.734C490.69 132.141 490.734 132.612 490.719 133.148H488.805ZM499.406 133.422C499.406 133.552 499.401 133.721 499.391 133.93C499.385 134.138 499.375 134.333 499.359 134.516H494.141C494.141 134.865 494.193 135.172 494.297 135.438C494.406 135.703 494.557 135.927 494.75 136.109C494.948 136.286 495.182 136.422 495.453 136.516C495.729 136.609 496.034 136.656 496.367 136.656C496.753 136.656 497.164 136.628 497.602 136.57C498.044 136.508 498.503 136.409 498.977 136.273V137.789C498.773 137.846 498.552 137.898 498.312 137.945C498.073 137.992 497.828 138.034 497.578 138.07C497.328 138.107 497.076 138.133 496.82 138.148C496.565 138.169 496.318 138.18 496.078 138.18C495.474 138.18 494.932 138.094 494.453 137.922C493.974 137.75 493.568 137.497 493.234 137.164C492.901 136.826 492.646 136.409 492.469 135.914C492.292 135.419 492.203 134.846 492.203 134.195C492.203 133.549 492.292 132.964 492.469 132.438C492.646 131.906 492.896 131.453 493.219 131.078C493.542 130.698 493.932 130.406 494.391 130.203C494.854 129.995 495.37 129.891 495.938 129.891C496.5 129.891 496.997 129.979 497.43 130.156C497.862 130.328 498.224 130.57 498.516 130.883C498.807 131.195 499.029 131.568 499.18 132C499.331 132.432 499.406 132.906 499.406 133.422ZM497.469 133.148C497.474 132.836 497.435 132.565 497.352 132.336C497.268 132.102 497.154 131.909 497.008 131.758C496.867 131.607 496.701 131.495 496.508 131.422C496.32 131.349 496.117 131.312 495.898 131.312C495.419 131.312 495.026 131.474 494.719 131.797C494.411 132.115 494.229 132.565 494.172 133.148H497.469ZM514.758 127.891C514.758 128.062 514.727 128.224 514.664 128.375C514.602 128.526 514.513 128.659 514.398 128.773C514.289 128.883 514.159 128.971 514.008 129.039C513.857 129.102 513.693 129.133 513.516 129.133C513.339 129.133 513.172 129.102 513.016 129.039C512.865 128.971 512.732 128.883 512.617 128.773C512.508 128.659 512.422 128.526 512.359 128.375C512.297 128.224 512.266 128.062 512.266 127.891C512.266 127.719 512.297 127.557 512.359 127.406C512.422 127.255 512.508 127.122 512.617 127.008C512.732 126.893 512.865 126.805 513.016 126.742C513.172 126.674 513.339 126.641 513.516 126.641C513.693 126.641 513.857 126.674 514.008 126.742C514.159 126.805 514.289 126.893 514.398 127.008C514.513 127.122 514.602 127.255 514.664 127.406C514.727 127.557 514.758 127.719 514.758 127.891ZM512.648 131.547H510.406V130.062H514.602V136.516H516.891V138H510.133V136.516H512.648V131.547ZM523.617 138V132.828C523.617 131.958 523.294 131.523 522.648 131.523C522.326 131.523 522.016 131.654 521.719 131.914C521.427 132.174 521.117 132.529 520.789 132.977V138H518.883V130.062H520.531L520.578 131.234C520.74 131.031 520.906 130.846 521.078 130.68C521.255 130.513 521.445 130.372 521.648 130.258C521.852 130.138 522.07 130.047 522.305 129.984C522.539 129.922 522.802 129.891 523.094 129.891C523.5 129.891 523.854 129.958 524.156 130.094C524.458 130.224 524.711 130.411 524.914 130.656C525.117 130.896 525.268 131.188 525.367 131.531C525.471 131.87 525.523 132.25 525.523 132.672V138H523.617ZM534.227 137.922C533.883 138 533.536 138.062 533.188 138.109C532.839 138.156 532.508 138.18 532.195 138.18C531.674 138.18 531.224 138.125 530.844 138.016C530.469 137.906 530.156 137.74 529.906 137.516C529.661 137.292 529.479 137.008 529.359 136.664C529.245 136.315 529.188 135.901 529.188 135.422V131.547H527.055V130.062H529.188V128.031L531.141 127.523V130.062H534.227V131.547H531.141V135.281C531.141 135.734 531.245 136.078 531.453 136.312C531.661 136.542 532.01 136.656 532.5 136.656C532.812 136.656 533.117 136.63 533.414 136.578C533.711 136.526 533.982 136.466 534.227 136.398V137.922ZM543.391 133.422C543.391 133.552 543.385 133.721 543.375 133.93C543.37 134.138 543.359 134.333 543.344 134.516H538.125C538.125 134.865 538.177 135.172 538.281 135.438C538.391 135.703 538.542 135.927 538.734 136.109C538.932 136.286 539.167 136.422 539.438 136.516C539.714 136.609 540.018 136.656 540.352 136.656C540.737 136.656 541.148 136.628 541.586 136.57C542.029 136.508 542.487 136.409 542.961 136.273V137.789C542.758 137.846 542.536 137.898 542.297 137.945C542.057 137.992 541.812 138.034 541.562 138.07C541.312 138.107 541.06 138.133 540.805 138.148C540.549 138.169 540.302 138.18 540.062 138.18C539.458 138.18 538.917 138.094 538.438 137.922C537.958 137.75 537.552 137.497 537.219 137.164C536.885 136.826 536.63 136.409 536.453 135.914C536.276 135.419 536.188 134.846 536.188 134.195C536.188 133.549 536.276 132.964 536.453 132.438C536.63 131.906 536.88 131.453 537.203 131.078C537.526 130.698 537.917 130.406 538.375 130.203C538.839 129.995 539.354 129.891 539.922 129.891C540.484 129.891 540.982 129.979 541.414 130.156C541.846 130.328 542.208 130.57 542.5 130.883C542.792 131.195 543.013 131.568 543.164 132C543.315 132.432 543.391 132.906 543.391 133.422ZM541.453 133.148C541.458 132.836 541.419 132.565 541.336 132.336C541.253 132.102 541.138 131.909 540.992 131.758C540.852 131.607 540.685 131.495 540.492 131.422C540.305 131.349 540.102 131.312 539.883 131.312C539.404 131.312 539.01 131.474 538.703 131.797C538.396 132.115 538.214 132.565 538.156 133.148H541.453ZM550.383 133.148C550.393 132.852 550.378 132.599 550.336 132.391C550.299 132.182 550.237 132.01 550.148 131.875C550.065 131.74 549.961 131.641 549.836 131.578C549.711 131.516 549.568 131.484 549.406 131.484C549.125 131.484 548.833 131.602 548.531 131.836C548.234 132.065 547.906 132.445 547.547 132.977V138H545.594V130.062H547.32L547.391 131.219C547.521 131.016 547.667 130.833 547.828 130.672C547.995 130.51 548.177 130.372 548.375 130.258C548.578 130.138 548.802 130.047 549.047 129.984C549.292 129.922 549.56 129.891 549.852 129.891C550.253 129.891 550.607 129.961 550.914 130.102C551.227 130.237 551.487 130.44 551.695 130.711C551.909 130.982 552.065 131.323 552.164 131.734C552.268 132.141 552.312 132.612 552.297 133.148H550.383ZM560.984 133.422C560.984 133.552 560.979 133.721 560.969 133.93C560.964 134.138 560.953 134.333 560.938 134.516H555.719C555.719 134.865 555.771 135.172 555.875 135.438C555.984 135.703 556.135 135.927 556.328 136.109C556.526 136.286 556.76 136.422 557.031 136.516C557.307 136.609 557.612 136.656 557.945 136.656C558.331 136.656 558.742 136.628 559.18 136.57C559.622 136.508 560.081 136.409 560.555 136.273V137.789C560.352 137.846 560.13 137.898 559.891 137.945C559.651 137.992 559.406 138.034 559.156 138.07C558.906 138.107 558.654 138.133 558.398 138.148C558.143 138.169 557.896 138.18 557.656 138.18C557.052 138.18 556.51 138.094 556.031 137.922C555.552 137.75 555.146 137.497 554.812 137.164C554.479 136.826 554.224 136.409 554.047 135.914C553.87 135.419 553.781 134.846 553.781 134.195C553.781 133.549 553.87 132.964 554.047 132.438C554.224 131.906 554.474 131.453 554.797 131.078C555.12 130.698 555.51 130.406 555.969 130.203C556.432 129.995 556.948 129.891 557.516 129.891C558.078 129.891 558.576 129.979 559.008 130.156C559.44 130.328 559.802 130.57 560.094 130.883C560.385 131.195 560.607 131.568 560.758 132C560.909 132.432 560.984 132.906 560.984 133.422ZM559.047 133.148C559.052 132.836 559.013 132.565 558.93 132.336C558.846 132.102 558.732 131.909 558.586 131.758C558.445 131.607 558.279 131.495 558.086 131.422C557.898 131.349 557.695 131.312 557.477 131.312C556.997 131.312 556.604 131.474 556.297 131.797C555.99 132.115 555.807 132.565 555.75 133.148H559.047ZM569.414 135.664C569.414 136.117 569.312 136.505 569.109 136.828C568.911 137.146 568.646 137.406 568.312 137.609C567.984 137.807 567.609 137.951 567.188 138.039C566.771 138.133 566.344 138.18 565.906 138.18C565.323 138.18 564.797 138.151 564.328 138.094C563.859 138.042 563.417 137.964 563 137.859V136.141C563.49 136.344 563.977 136.492 564.461 136.586C564.951 136.674 565.411 136.719 565.844 136.719C566.344 136.719 566.716 136.641 566.961 136.484C567.211 136.323 567.336 136.115 567.336 135.859C567.336 135.74 567.31 135.63 567.258 135.531C567.206 135.432 567.107 135.339 566.961 135.25C566.82 135.156 566.62 135.062 566.359 134.969C566.099 134.87 565.758 134.76 565.336 134.641C564.945 134.531 564.602 134.409 564.305 134.273C564.013 134.133 563.771 133.969 563.578 133.781C563.385 133.594 563.24 133.378 563.141 133.133C563.047 132.883 563 132.591 563 132.258C563 131.935 563.073 131.63 563.219 131.344C563.365 131.057 563.581 130.807 563.867 130.594C564.159 130.375 564.521 130.203 564.953 130.078C565.385 129.953 565.891 129.891 566.469 129.891C566.969 129.891 567.411 129.917 567.797 129.969C568.182 130.021 568.523 130.078 568.82 130.141V131.695C568.367 131.549 567.94 131.448 567.539 131.391C567.143 131.328 566.75 131.297 566.359 131.297C565.969 131.297 565.654 131.367 565.414 131.508C565.18 131.648 565.062 131.844 565.062 132.094C565.062 132.214 565.086 132.32 565.133 132.414C565.18 132.508 565.271 132.599 565.406 132.688C565.547 132.776 565.74 132.87 565.984 132.969C566.234 133.062 566.562 133.167 566.969 133.281C567.427 133.411 567.812 133.552 568.125 133.703C568.438 133.849 568.688 134.016 568.875 134.203C569.068 134.391 569.206 134.604 569.289 134.844C569.372 135.083 569.414 135.357 569.414 135.664ZM578.211 137.922C577.867 138 577.521 138.062 577.172 138.109C576.823 138.156 576.492 138.18 576.18 138.18C575.659 138.18 575.208 138.125 574.828 138.016C574.453 137.906 574.141 137.74 573.891 137.516C573.646 137.292 573.464 137.008 573.344 136.664C573.229 136.315 573.172 135.901 573.172 135.422V131.547H571.039V130.062H573.172V128.031L575.125 127.523V130.062H578.211V131.547H575.125V135.281C575.125 135.734 575.229 136.078 575.438 136.312C575.646 136.542 575.995 136.656 576.484 136.656C576.797 136.656 577.102 136.63 577.398 136.578C577.695 136.526 577.966 136.466 578.211 136.398V137.922ZM587.375 133.422C587.375 133.552 587.37 133.721 587.359 133.93C587.354 134.138 587.344 134.333 587.328 134.516H582.109C582.109 134.865 582.161 135.172 582.266 135.438C582.375 135.703 582.526 135.927 582.719 136.109C582.917 136.286 583.151 136.422 583.422 136.516C583.698 136.609 584.003 136.656 584.336 136.656C584.721 136.656 585.133 136.628 585.57 136.57C586.013 136.508 586.471 136.409 586.945 136.273V137.789C586.742 137.846 586.521 137.898 586.281 137.945C586.042 137.992 585.797 138.034 585.547 138.07C585.297 138.107 585.044 138.133 584.789 138.148C584.534 138.169 584.286 138.18 584.047 138.18C583.443 138.18 582.901 138.094 582.422 137.922C581.943 137.75 581.536 137.497 581.203 137.164C580.87 136.826 580.615 136.409 580.438 135.914C580.26 135.419 580.172 134.846 580.172 134.195C580.172 133.549 580.26 132.964 580.438 132.438C580.615 131.906 580.865 131.453 581.188 131.078C581.51 130.698 581.901 130.406 582.359 130.203C582.823 129.995 583.339 129.891 583.906 129.891C584.469 129.891 584.966 129.979 585.398 130.156C585.831 130.328 586.193 130.57 586.484 130.883C586.776 131.195 586.997 131.568 587.148 132C587.299 132.432 587.375 132.906 587.375 133.422ZM585.438 133.148C585.443 132.836 585.404 132.565 585.32 132.336C585.237 132.102 585.122 131.909 584.977 131.758C584.836 131.607 584.669 131.495 584.477 131.422C584.289 131.349 584.086 131.312 583.867 131.312C583.388 131.312 582.995 131.474 582.688 131.797C582.38 132.115 582.198 132.565 582.141 133.148H585.438ZM594.25 138L594.203 136.828C594.036 137.031 593.865 137.216 593.688 137.383C593.51 137.549 593.32 137.693 593.117 137.812C592.914 137.927 592.695 138.016 592.461 138.078C592.232 138.146 591.977 138.18 591.695 138.18C591.227 138.18 590.81 138.086 590.445 137.898C590.081 137.711 589.773 137.445 589.523 137.102C589.279 136.753 589.091 136.331 588.961 135.836C588.831 135.341 588.766 134.789 588.766 134.18C588.766 133.451 588.867 132.82 589.07 132.289C589.279 131.753 589.565 131.31 589.93 130.961C590.294 130.607 590.727 130.346 591.227 130.18C591.727 130.008 592.271 129.922 592.859 129.922C593.057 129.922 593.255 129.935 593.453 129.961C593.656 129.987 593.836 130.021 593.992 130.062V126.961H595.898V138H594.25ZM590.766 134.094C590.766 134.531 590.794 134.906 590.852 135.219C590.914 135.526 591.003 135.779 591.117 135.977C591.237 136.174 591.383 136.32 591.555 136.414C591.727 136.503 591.922 136.547 592.141 136.547C592.464 136.547 592.771 136.417 593.062 136.156C593.354 135.896 593.664 135.539 593.992 135.086V131.617C593.841 131.56 593.654 131.513 593.43 131.477C593.211 131.44 592.99 131.422 592.766 131.422C592.458 131.422 592.182 131.484 591.938 131.609C591.693 131.734 591.482 131.911 591.305 132.141C591.133 132.37 591 132.651 590.906 132.984C590.812 133.312 590.766 133.682 590.766 134.094ZM602.727 127.891C602.727 128.062 602.695 128.224 602.633 128.375C602.57 128.526 602.482 128.659 602.367 128.773C602.258 128.883 602.128 128.971 601.977 129.039C601.826 129.102 601.661 129.133 601.484 129.133C601.307 129.133 601.141 129.102 600.984 129.039C600.833 128.971 600.701 128.883 600.586 128.773C600.477 128.659 600.391 128.526 600.328 128.375C600.266 128.224 600.234 128.062 600.234 127.891C600.234 127.719 600.266 127.557 600.328 127.406C600.391 127.255 600.477 127.122 600.586 127.008C600.701 126.893 600.833 126.805 600.984 126.742C601.141 126.674 601.307 126.641 601.484 126.641C601.661 126.641 601.826 126.674 601.977 126.742C602.128 126.805 602.258 126.893 602.367 127.008C602.482 127.122 602.57 127.255 602.633 127.406C602.695 127.557 602.727 127.719 602.727 127.891ZM600.617 131.547H598.375V130.062H602.57V136.516H604.859V138H598.102V136.516H600.617V131.547ZM611.586 138V132.828C611.586 131.958 611.263 131.523 610.617 131.523C610.294 131.523 609.984 131.654 609.688 131.914C609.396 132.174 609.086 132.529 608.758 132.977V138H606.852V130.062H608.5L608.547 131.234C608.708 131.031 608.875 130.846 609.047 130.68C609.224 130.513 609.414 130.372 609.617 130.258C609.82 130.138 610.039 130.047 610.273 129.984C610.508 129.922 610.771 129.891 611.062 129.891C611.469 129.891 611.823 129.958 612.125 130.094C612.427 130.224 612.68 130.411 612.883 130.656C613.086 130.896 613.237 131.188 613.336 131.531C613.44 131.87 613.492 132.25 613.492 132.672V138H611.586Z" fill="black"/>
<path d="M281.133 148L282.172 142.828C282.255 142.396 282.242 142.065 282.133 141.836C282.029 141.602 281.844 141.484 281.578 141.484C281.422 141.484 281.255 141.529 281.078 141.617C280.901 141.706 280.724 141.828 280.547 141.984C280.375 142.135 280.206 142.315 280.039 142.523C279.878 142.727 279.729 142.945 279.594 143.18C279.458 143.409 279.341 143.646 279.242 143.891C279.143 144.135 279.07 144.375 279.023 144.609L278.352 148H276.445L277.297 143.758C277.328 143.596 277.357 143.419 277.383 143.227C277.414 143.034 277.445 142.799 277.477 142.523C277.513 142.242 277.552 141.904 277.594 141.508C277.635 141.112 277.685 140.63 277.742 140.062H279.297L279.227 141.508C279.346 141.326 279.497 141.141 279.68 140.953C279.867 140.76 280.081 140.586 280.32 140.43C280.565 140.273 280.833 140.146 281.125 140.047C281.422 139.943 281.74 139.891 282.078 139.891C282.5 139.891 282.857 139.961 283.148 140.102C283.445 140.237 283.677 140.435 283.844 140.695C284.01 140.951 284.115 141.263 284.156 141.633C284.198 141.997 284.172 142.409 284.078 142.867L283.039 148H281.133ZM288.555 148.18C288.06 148.18 287.615 148.12 287.219 148C286.823 147.875 286.484 147.69 286.203 147.445C285.927 147.195 285.714 146.883 285.562 146.508C285.411 146.128 285.336 145.682 285.336 145.172C285.336 144.724 285.383 144.284 285.477 143.852C285.576 143.414 285.716 143 285.898 142.609C286.086 142.214 286.312 141.852 286.578 141.523C286.849 141.19 287.159 140.904 287.508 140.664C287.862 140.419 288.25 140.229 288.672 140.094C289.099 139.958 289.56 139.891 290.055 139.891C290.544 139.891 290.987 139.953 291.383 140.078C291.784 140.198 292.122 140.383 292.398 140.633C292.68 140.878 292.896 141.19 293.047 141.57C293.198 141.945 293.273 142.388 293.273 142.898C293.273 143.346 293.224 143.789 293.125 144.227C293.031 144.659 292.893 145.07 292.711 145.461C292.529 145.852 292.302 146.214 292.031 146.547C291.76 146.88 291.451 147.169 291.102 147.414C290.753 147.654 290.365 147.841 289.938 147.977C289.51 148.112 289.049 148.18 288.555 148.18ZM291.273 143.086C291.273 142.57 291.146 142.185 290.891 141.93C290.641 141.669 290.279 141.539 289.805 141.539C289.523 141.539 289.268 141.594 289.039 141.703C288.81 141.807 288.602 141.948 288.414 142.125C288.232 142.302 288.073 142.508 287.938 142.742C287.802 142.977 287.69 143.221 287.602 143.477C287.513 143.732 287.445 143.99 287.398 144.25C287.357 144.505 287.336 144.747 287.336 144.977C287.336 145.492 287.464 145.88 287.719 146.141C287.974 146.401 288.339 146.531 288.812 146.531C289.094 146.531 289.349 146.479 289.578 146.375C289.807 146.266 290.013 146.122 290.195 145.945C290.378 145.763 290.536 145.557 290.672 145.328C290.807 145.094 290.919 144.849 291.008 144.594C291.096 144.339 291.161 144.081 291.203 143.82C291.25 143.56 291.273 143.315 291.273 143.086ZM300.711 147.891C300.352 147.979 299.992 148.049 299.633 148.102C299.279 148.154 298.945 148.18 298.633 148.18C298.112 148.18 297.664 148.122 297.289 148.008C296.919 147.893 296.625 147.711 296.406 147.461C296.188 147.211 296.049 146.885 295.992 146.484C295.94 146.083 295.971 145.596 296.086 145.023L296.789 141.547H294.664L294.953 140.062H297.078L297.492 138.031L299.547 137.523L299.031 140.062H302.117L301.828 141.547H298.742L298.039 145.039C297.987 145.305 297.961 145.539 297.961 145.742C297.966 145.94 298.005 146.102 298.078 146.227C298.156 146.352 298.271 146.451 298.422 146.523C298.573 146.591 298.771 146.625 299.016 146.625C299.307 146.625 299.596 146.599 299.883 146.547C300.169 146.495 300.445 146.438 300.711 146.375V147.891ZM307.617 145.344C307.523 145.839 307.526 146.188 307.625 146.391C307.724 146.589 307.919 146.688 308.211 146.688C308.456 146.688 308.727 146.635 309.023 146.531C309.32 146.422 309.659 146.276 310.039 146.094V147.555C309.701 147.737 309.336 147.885 308.945 148C308.56 148.12 308.167 148.18 307.766 148.18C306.875 148.18 306.255 147.951 305.906 147.492C305.557 147.029 305.484 146.292 305.688 145.281L306.195 142.719C306.294 142.224 306.292 141.878 306.188 141.68C306.083 141.477 305.888 141.375 305.602 141.375C305.362 141.375 305.091 141.43 304.789 141.539C304.492 141.643 304.156 141.786 303.781 141.969V140.508C304.12 140.32 304.482 140.169 304.867 140.055C305.253 139.94 305.648 139.883 306.055 139.883C306.94 139.883 307.557 140.115 307.906 140.578C308.255 141.042 308.331 141.776 308.133 142.781L307.617 145.344ZM309.188 137.82C309.188 138.008 309.151 138.182 309.078 138.344C309.005 138.505 308.906 138.646 308.781 138.766C308.661 138.88 308.521 138.971 308.359 139.039C308.203 139.102 308.036 139.133 307.859 139.133C307.677 139.133 307.51 139.102 307.359 139.039C307.208 138.971 307.078 138.885 306.969 138.781C306.859 138.672 306.773 138.547 306.711 138.406C306.654 138.26 306.625 138.109 306.625 137.953C306.625 137.766 306.661 137.594 306.734 137.438C306.807 137.276 306.906 137.138 307.031 137.023C307.156 136.904 307.299 136.81 307.461 136.742C307.622 136.674 307.792 136.641 307.969 136.641C308.156 136.641 308.323 136.674 308.469 136.742C308.62 136.805 308.747 136.891 308.852 137C308.961 137.109 309.044 137.234 309.102 137.375C309.159 137.516 309.188 137.664 309.188 137.82ZM310.688 149.727C310.943 149.758 311.211 149.773 311.492 149.773C311.716 149.773 311.93 149.742 312.133 149.68C312.336 149.622 312.521 149.529 312.688 149.398C312.859 149.273 313.005 149.109 313.125 148.906C313.245 148.703 313.333 148.461 313.391 148.18L314.484 142.688H312.18L312.484 141.203H314.781L315.008 140.062C315.232 138.953 315.669 138.135 316.32 137.609C316.977 137.078 317.872 136.812 319.008 136.812C319.336 136.812 319.667 136.836 320 136.883C320.339 136.924 320.638 136.977 320.898 137.039L320.594 138.531C320.328 138.464 320.047 138.411 319.75 138.375C319.458 138.339 319.164 138.32 318.867 138.32C318.289 138.32 317.849 138.474 317.547 138.781C317.25 139.083 317.044 139.51 316.93 140.062L316.703 141.203H319.828L319.523 142.688H316.398L315.328 148.094C315.214 148.688 315.036 149.188 314.797 149.594C314.562 150 314.276 150.328 313.938 150.578C313.599 150.828 313.214 151.008 312.781 151.117C312.349 151.227 311.88 151.281 311.375 151.281C311.156 151.281 310.969 151.276 310.812 151.266C310.651 151.26 310.503 151.25 310.367 151.234L310.688 149.727ZM328.719 140.062C328.677 140.401 328.625 140.732 328.562 141.055C328.5 141.378 328.419 141.703 328.32 142.031C328.221 142.359 328.099 142.695 327.953 143.039C327.812 143.383 327.641 143.747 327.438 144.133C327.234 144.513 326.997 144.919 326.727 145.352C326.461 145.784 326.154 146.25 325.805 146.75C325.357 147.391 324.943 147.948 324.562 148.422C324.182 148.896 323.826 149.299 323.492 149.633C323.159 149.966 322.846 150.24 322.555 150.453C322.263 150.672 321.979 150.841 321.703 150.961C321.427 151.081 321.156 151.164 320.891 151.211C320.63 151.258 320.365 151.281 320.094 151.281C319.901 151.281 319.732 151.273 319.586 151.258C319.44 151.247 319.31 151.234 319.195 151.219V149.602C319.346 149.628 319.505 149.646 319.672 149.656C319.833 149.672 319.995 149.68 320.156 149.68C320.375 149.68 320.576 149.654 320.758 149.602C320.945 149.549 321.133 149.458 321.32 149.328C321.513 149.198 321.714 149.023 321.922 148.805C322.13 148.591 322.365 148.323 322.625 148L321.055 140.062H323.039L324.156 146.195C324.469 145.732 324.745 145.305 324.984 144.914C325.229 144.523 325.44 144.159 325.617 143.82C325.794 143.477 325.945 143.151 326.07 142.844C326.195 142.531 326.297 142.227 326.375 141.93C326.458 141.628 326.523 141.326 326.57 141.023C326.622 140.716 326.661 140.396 326.688 140.062H328.719Z" fill="black"/>
<path d="M287.133 28L288.172 22.8281C288.255 22.3958 288.242 22.0651 288.133 21.8359C288.029 21.6016 287.844 21.4844 287.578 21.4844C287.422 21.4844 287.255 21.5286 287.078 21.6172C286.901 21.7057 286.724 21.8281 286.547 21.9844C286.375 22.1354 286.206 22.3151 286.039 22.5234C285.878 22.7266 285.729 22.9453 285.594 23.1797C285.458 23.4089 285.341 23.6458 285.242 23.8906C285.143 24.1354 285.07 24.375 285.023 24.6094L284.352 28H282.445L283.297 23.7578C283.328 23.5964 283.357 23.4193 283.383 23.2266C283.414 23.0339 283.445 22.7995 283.477 22.5234C283.513 22.2422 283.552 21.9036 283.594 21.5078C283.635 21.112 283.685 20.6302 283.742 20.0625H285.297L285.227 21.5078C285.346 21.3255 285.497 21.1406 285.68 20.9531C285.867 20.7604 286.081 20.5859 286.32 20.4297C286.565 20.2734 286.833 20.1458 287.125 20.0469C287.422 19.9427 287.74 19.8906 288.078 19.8906C288.5 19.8906 288.857 19.9609 289.148 20.1016C289.445 20.237 289.677 20.4349 289.844 20.6953C290.01 20.9505 290.115 21.263 290.156 21.6328C290.198 21.9974 290.172 22.4089 290.078 22.8672L289.039 28H287.133ZM294.555 28.1797C294.06 28.1797 293.615 28.1198 293.219 28C292.823 27.875 292.484 27.6901 292.203 27.4453C291.927 27.1953 291.714 26.8828 291.562 26.5078C291.411 26.1276 291.336 25.6823 291.336 25.1719C291.336 24.724 291.383 24.2839 291.477 23.8516C291.576 23.4141 291.716 23 291.898 22.6094C292.086 22.2135 292.312 21.8516 292.578 21.5234C292.849 21.1901 293.159 20.9036 293.508 20.6641C293.862 20.4193 294.25 20.2292 294.672 20.0938C295.099 19.9583 295.56 19.8906 296.055 19.8906C296.544 19.8906 296.987 19.9531 297.383 20.0781C297.784 20.1979 298.122 20.3828 298.398 20.6328C298.68 20.8776 298.896 21.1901 299.047 21.5703C299.198 21.9453 299.273 22.388 299.273 22.8984C299.273 23.3464 299.224 23.7891 299.125 24.2266C299.031 24.6589 298.893 25.0703 298.711 25.4609C298.529 25.8516 298.302 26.2135 298.031 26.5469C297.76 26.8802 297.451 27.1693 297.102 27.4141C296.753 27.6536 296.365 27.8411 295.938 27.9766C295.51 28.112 295.049 28.1797 294.555 28.1797ZM297.273 23.0859C297.273 22.5703 297.146 22.1849 296.891 21.9297C296.641 21.6693 296.279 21.5391 295.805 21.5391C295.523 21.5391 295.268 21.5938 295.039 21.7031C294.81 21.8073 294.602 21.9479 294.414 22.125C294.232 22.3021 294.073 22.5078 293.938 22.7422C293.802 22.9766 293.69 23.2214 293.602 23.4766C293.513 23.7318 293.445 23.9896 293.398 24.25C293.357 24.5052 293.336 24.7474 293.336 24.9766C293.336 25.4922 293.464 25.8802 293.719 26.1406C293.974 26.401 294.339 26.5312 294.812 26.5312C295.094 26.5312 295.349 26.4792 295.578 26.375C295.807 26.2656 296.013 26.1224 296.195 25.9453C296.378 25.763 296.536 25.5573 296.672 25.3281C296.807 25.0938 296.919 24.849 297.008 24.5938C297.096 24.3385 297.161 24.0807 297.203 23.8203C297.25 23.5599 297.273 23.3151 297.273 23.0859ZM306.711 27.8906C306.352 27.9792 305.992 28.0495 305.633 28.1016C305.279 28.1536 304.945 28.1797 304.633 28.1797C304.112 28.1797 303.664 28.1224 303.289 28.0078C302.919 27.8932 302.625 27.7109 302.406 27.4609C302.188 27.2109 302.049 26.8854 301.992 26.4844C301.94 26.0833 301.971 25.5964 302.086 25.0234L302.789 21.5469H300.664L300.953 20.0625H303.078L303.492 18.0312L305.547 17.5234L305.031 20.0625H308.117L307.828 21.5469H304.742L304.039 25.0391C303.987 25.3047 303.961 25.5391 303.961 25.7422C303.966 25.9401 304.005 26.1016 304.078 26.2266C304.156 26.3516 304.271 26.4505 304.422 26.5234C304.573 26.5911 304.771 26.625 305.016 26.625C305.307 26.625 305.596 26.599 305.883 26.5469C306.169 26.4948 306.445 26.4375 306.711 26.375V27.8906ZM313.617 25.3438C313.523 25.8385 313.526 26.1875 313.625 26.3906C313.724 26.5885 313.919 26.6875 314.211 26.6875C314.456 26.6875 314.727 26.6354 315.023 26.5312C315.32 26.4219 315.659 26.276 316.039 26.0938V27.5547C315.701 27.737 315.336 27.8854 314.945 28C314.56 28.1198 314.167 28.1797 313.766 28.1797C312.875 28.1797 312.255 27.9505 311.906 27.4922C311.557 27.0286 311.484 26.2917 311.688 25.2812L312.195 22.7188C312.294 22.224 312.292 21.8776 312.188 21.6797C312.083 21.4766 311.888 21.375 311.602 21.375C311.362 21.375 311.091 21.4297 310.789 21.5391C310.492 21.6432 310.156 21.7865 309.781 21.9688V20.5078C310.12 20.3203 310.482 20.1693 310.867 20.0547C311.253 19.9401 311.648 19.8828 312.055 19.8828C312.94 19.8828 313.557 20.1146 313.906 20.5781C314.255 21.0417 314.331 21.776 314.133 22.7812L313.617 25.3438ZM315.188 17.8203C315.188 18.0078 315.151 18.1823 315.078 18.3438C315.005 18.5052 314.906 18.6458 314.781 18.7656C314.661 18.8802 314.521 18.9714 314.359 19.0391C314.203 19.1016 314.036 19.1328 313.859 19.1328C313.677 19.1328 313.51 19.1016 313.359 19.0391C313.208 18.9714 313.078 18.8854 312.969 18.7812C312.859 18.6719 312.773 18.5469 312.711 18.4062C312.654 18.2604 312.625 18.1094 312.625 17.9531C312.625 17.7656 312.661 17.5938 312.734 17.4375C312.807 17.276 312.906 17.138 313.031 17.0234C313.156 16.9036 313.299 16.8099 313.461 16.7422C313.622 16.6745 313.792 16.6406 313.969 16.6406C314.156 16.6406 314.323 16.6745 314.469 16.7422C314.62 16.8047 314.747 16.8906 314.852 17C314.961 17.1094 315.044 17.2344 315.102 17.375C315.159 17.5156 315.188 17.6641 315.188 17.8203ZM316.688 29.7266C316.943 29.7578 317.211 29.7734 317.492 29.7734C317.716 29.7734 317.93 29.7422 318.133 29.6797C318.336 29.6224 318.521 29.5286 318.688 29.3984C318.859 29.2734 319.005 29.1094 319.125 28.9062C319.245 28.7031 319.333 28.4609 319.391 28.1797L320.484 22.6875H318.18L318.484 21.2031H320.781L321.008 20.0625C321.232 18.9531 321.669 18.1354 322.32 17.6094C322.977 17.0781 323.872 16.8125 325.008 16.8125C325.336 16.8125 325.667 16.8359 326 16.8828C326.339 16.9245 326.638 16.9766 326.898 17.0391L326.594 18.5312C326.328 18.4635 326.047 18.4115 325.75 18.375C325.458 18.3385 325.164 18.3203 324.867 18.3203C324.289 18.3203 323.849 18.474 323.547 18.7812C323.25 19.0833 323.044 19.5104 322.93 20.0625L322.703 21.2031H325.828L325.523 22.6875H322.398L321.328 28.0938C321.214 28.6875 321.036 29.1875 320.797 29.5938C320.562 30 320.276 30.3281 319.938 30.5781C319.599 30.8281 319.214 31.0078 318.781 31.1172C318.349 31.2266 317.88 31.2812 317.375 31.2812C317.156 31.2812 316.969 31.276 316.812 31.2656C316.651 31.2604 316.503 31.25 316.367 31.2344L316.688 29.7266ZM334.719 20.0625C334.677 20.401 334.625 20.7318 334.562 21.0547C334.5 21.3776 334.419 21.7031 334.32 22.0312C334.221 22.3594 334.099 22.6953 333.953 23.0391C333.812 23.3828 333.641 23.7474 333.438 24.1328C333.234 24.513 332.997 24.9193 332.727 25.3516C332.461 25.7839 332.154 26.25 331.805 26.75C331.357 27.3906 330.943 27.9479 330.562 28.4219C330.182 28.8958 329.826 29.2995 329.492 29.6328C329.159 29.9661 328.846 30.2396 328.555 30.4531C328.263 30.6719 327.979 30.8411 327.703 30.9609C327.427 31.0807 327.156 31.1641 326.891 31.2109C326.63 31.2578 326.365 31.2812 326.094 31.2812C325.901 31.2812 325.732 31.2734 325.586 31.2578C325.44 31.2474 325.31 31.2344 325.195 31.2188V29.6016C325.346 29.6276 325.505 29.6458 325.672 29.6562C325.833 29.6719 325.995 29.6797 326.156 29.6797C326.375 29.6797 326.576 29.6536 326.758 29.6016C326.945 29.5495 327.133 29.4583 327.32 29.3281C327.513 29.1979 327.714 29.0234 327.922 28.8047C328.13 28.5911 328.365 28.3229 328.625 28L327.055 20.0625H329.039L330.156 26.1953C330.469 25.7318 330.745 25.3047 330.984 24.9141C331.229 24.5234 331.44 24.1589 331.617 23.8203C331.794 23.4766 331.945 23.151 332.07 22.8438C332.195 22.5312 332.297 22.2266 332.375 21.9297C332.458 21.6276 332.523 21.3255 332.57 21.0234C332.622 20.7161 332.661 20.3958 332.688 20.0625H334.719Z" fill="black"/>
<path d="M497.939 352.939C497.354 353.525 497.354 354.475 497.939 355.061L507.485 364.607C508.071 365.192 509.021 365.192 509.607 364.607C510.192 364.021 510.192 363.071 509.607 362.485L501.121 354L509.607 345.515C510.192 344.929 510.192 343.979 509.607 343.393C509.021 342.808 508.071 342.808 507.485 343.393L497.939 352.939ZM604 352.5L499 352.5L499 355.5L604 355.5L604 352.5Z" fill="black"/>
<rect x="39.3828" y="111.5" width="184.117" height="92" rx="2.5" fill="#7DE77B" stroke="black" stroke-width="3"/>
<path d="M99.1782 160L98.9907 154.227L98.9204 151.922L98.4282 153.484L97.2954 156.961H96.0923L95.0689 153.484L94.6392 151.922L94.5845 154.18L94.4126 160H92.7798L93.2798 149.789H95.4517L96.3501 152.688L96.7798 154.32L97.2095 152.781L98.1548 149.789H100.366L100.874 160H99.1782ZM107.288 160L107.241 158.961C107.074 159.138 106.9 159.302 106.717 159.453C106.535 159.599 106.334 159.727 106.116 159.836C105.897 159.945 105.657 160.029 105.397 160.086C105.142 160.148 104.861 160.18 104.553 160.18C104.147 160.18 103.79 160.12 103.483 160C103.176 159.88 102.918 159.714 102.709 159.5C102.501 159.286 102.342 159.029 102.233 158.727C102.129 158.424 102.077 158.091 102.077 157.727C102.077 157.352 102.155 157.005 102.311 156.688C102.473 156.37 102.715 156.096 103.038 155.867C103.366 155.638 103.772 155.458 104.256 155.328C104.746 155.198 105.319 155.133 105.975 155.133H107.014V154.656C107.014 154.453 106.986 154.271 106.928 154.109C106.871 153.943 106.777 153.802 106.647 153.688C106.522 153.573 106.358 153.484 106.155 153.422C105.952 153.359 105.702 153.328 105.405 153.328C104.936 153.328 104.473 153.383 104.014 153.492C103.561 153.596 103.121 153.745 102.694 153.938V152.414C103.074 152.263 103.512 152.138 104.006 152.039C104.506 151.94 105.025 151.891 105.561 151.891C106.15 151.891 106.655 151.948 107.077 152.062C107.499 152.172 107.845 152.339 108.116 152.562C108.392 152.786 108.595 153.068 108.725 153.406C108.855 153.74 108.92 154.13 108.92 154.578V160H107.288ZM107.014 156.492H105.85C105.527 156.492 105.254 156.523 105.03 156.586C104.806 156.648 104.624 156.734 104.483 156.844C104.342 156.953 104.238 157.081 104.17 157.227C104.108 157.367 104.077 157.518 104.077 157.68C104.077 158.003 104.181 158.25 104.389 158.422C104.598 158.589 104.881 158.672 105.241 158.672C105.506 158.672 105.782 158.576 106.069 158.383C106.355 158.19 106.67 157.914 107.014 157.555V156.492ZM116.217 155.148C116.228 154.852 116.212 154.599 116.17 154.391C116.134 154.182 116.071 154.01 115.983 153.875C115.9 153.74 115.795 153.641 115.67 153.578C115.545 153.516 115.402 153.484 115.241 153.484C114.959 153.484 114.668 153.602 114.366 153.836C114.069 154.065 113.741 154.445 113.381 154.977V160H111.428V152.062H113.155L113.225 153.219C113.355 153.016 113.501 152.833 113.663 152.672C113.829 152.51 114.012 152.372 114.209 152.258C114.413 152.138 114.637 152.047 114.881 151.984C115.126 151.922 115.394 151.891 115.686 151.891C116.087 151.891 116.441 151.961 116.749 152.102C117.061 152.237 117.321 152.44 117.53 152.711C117.743 152.982 117.9 153.323 117.999 153.734C118.103 154.141 118.147 154.612 118.131 155.148H116.217ZM124.819 160L121.889 156.031V160H119.983V148.961H121.889V155.422L124.663 152.062H127.045L123.827 155.68L127.311 160H124.819ZM135.616 155.422C135.616 155.552 135.611 155.721 135.6 155.93C135.595 156.138 135.584 156.333 135.569 156.516H130.35C130.35 156.865 130.402 157.172 130.506 157.438C130.616 157.703 130.767 157.927 130.959 158.109C131.157 158.286 131.392 158.422 131.663 158.516C131.939 158.609 132.243 158.656 132.577 158.656C132.962 158.656 133.374 158.628 133.811 158.57C134.254 158.508 134.712 158.409 135.186 158.273V159.789C134.983 159.846 134.762 159.898 134.522 159.945C134.282 159.992 134.038 160.034 133.788 160.07C133.538 160.107 133.285 160.133 133.03 160.148C132.775 160.169 132.527 160.18 132.288 160.18C131.683 160.18 131.142 160.094 130.663 159.922C130.183 159.75 129.777 159.497 129.444 159.164C129.111 158.826 128.855 158.409 128.678 157.914C128.501 157.419 128.413 156.846 128.413 156.195C128.413 155.549 128.501 154.964 128.678 154.438C128.855 153.906 129.105 153.453 129.428 153.078C129.751 152.698 130.142 152.406 130.6 152.203C131.064 151.995 131.579 151.891 132.147 151.891C132.709 151.891 133.207 151.979 133.639 152.156C134.071 152.328 134.433 152.57 134.725 152.883C135.017 153.195 135.238 153.568 135.389 154C135.54 154.432 135.616 154.906 135.616 155.422ZM133.678 155.148C133.683 154.836 133.644 154.565 133.561 154.336C133.478 154.102 133.363 153.909 133.217 153.758C133.077 153.607 132.91 153.495 132.717 153.422C132.53 153.349 132.327 153.312 132.108 153.312C131.629 153.312 131.236 153.474 130.928 153.797C130.621 154.115 130.439 154.565 130.381 155.148H133.678ZM144.045 159.922C143.702 160 143.355 160.062 143.006 160.109C142.657 160.156 142.327 160.18 142.014 160.18C141.493 160.18 141.043 160.125 140.663 160.016C140.288 159.906 139.975 159.74 139.725 159.516C139.48 159.292 139.298 159.008 139.178 158.664C139.064 158.315 139.006 157.901 139.006 157.422V153.547H136.874V152.062H139.006V150.031L140.96 149.523V152.062H144.045V153.547H140.96V157.281C140.96 157.734 141.064 158.078 141.272 158.312C141.48 158.542 141.829 158.656 142.319 158.656C142.631 158.656 142.936 158.63 143.233 158.578C143.53 158.526 143.801 158.466 144.045 158.398V159.922ZM150.967 149.891C150.967 150.062 150.936 150.224 150.874 150.375C150.811 150.526 150.723 150.659 150.608 150.773C150.499 150.883 150.368 150.971 150.217 151.039C150.066 151.102 149.902 151.133 149.725 151.133C149.548 151.133 149.381 151.102 149.225 151.039C149.074 150.971 148.941 150.883 148.827 150.773C148.717 150.659 148.631 150.526 148.569 150.375C148.506 150.224 148.475 150.062 148.475 149.891C148.475 149.719 148.506 149.557 148.569 149.406C148.631 149.255 148.717 149.122 148.827 149.008C148.941 148.893 149.074 148.805 149.225 148.742C149.381 148.674 149.548 148.641 149.725 148.641C149.902 148.641 150.066 148.674 150.217 148.742C150.368 148.805 150.499 148.893 150.608 149.008C150.723 149.122 150.811 149.255 150.874 149.406C150.936 149.557 150.967 149.719 150.967 149.891ZM148.858 153.547H146.616V152.062H150.811V158.516H153.1V160H146.342V158.516H148.858V153.547ZM159.827 160V154.828C159.827 153.958 159.504 153.523 158.858 153.523C158.535 153.523 158.225 153.654 157.928 153.914C157.637 154.174 157.327 154.529 156.999 154.977V160H155.092V152.062H156.741L156.788 153.234C156.949 153.031 157.116 152.846 157.288 152.68C157.465 152.513 157.655 152.372 157.858 152.258C158.061 152.138 158.28 152.047 158.514 151.984C158.749 151.922 159.012 151.891 159.303 151.891C159.71 151.891 160.064 151.958 160.366 152.094C160.668 152.224 160.92 152.411 161.124 152.656C161.327 152.896 161.478 153.188 161.577 153.531C161.681 153.87 161.733 154.25 161.733 154.672V160H159.827ZM169.842 153.453C169.988 153.635 170.09 153.828 170.147 154.031C170.21 154.229 170.241 154.432 170.241 154.641C170.241 155.083 170.163 155.474 170.006 155.812C169.855 156.151 169.639 156.435 169.358 156.664C169.082 156.893 168.749 157.068 168.358 157.188C167.973 157.302 167.545 157.359 167.077 157.359C166.801 157.359 166.545 157.333 166.311 157.281C166.077 157.224 165.9 157.159 165.78 157.086C165.691 157.174 165.616 157.273 165.553 157.383C165.491 157.487 165.46 157.607 165.46 157.742C165.46 157.826 165.48 157.909 165.522 157.992C165.564 158.076 165.624 158.151 165.702 158.219C165.785 158.281 165.881 158.333 165.991 158.375C166.105 158.417 166.233 158.44 166.374 158.445L168.256 158.516C168.678 158.526 169.058 158.581 169.397 158.68C169.741 158.773 170.035 158.909 170.28 159.086C170.525 159.263 170.712 159.479 170.842 159.734C170.978 159.984 171.045 160.271 171.045 160.594C171.045 160.964 170.962 161.312 170.795 161.641C170.629 161.969 170.376 162.253 170.038 162.492C169.704 162.737 169.288 162.93 168.788 163.07C168.288 163.211 167.707 163.281 167.045 163.281C166.405 163.281 165.853 163.229 165.389 163.125C164.931 163.026 164.553 162.885 164.256 162.703C163.965 162.521 163.749 162.302 163.608 162.047C163.467 161.797 163.397 161.521 163.397 161.219C163.397 161.036 163.42 160.867 163.467 160.711C163.514 160.555 163.585 160.404 163.678 160.258C163.772 160.117 163.889 159.979 164.03 159.844C164.17 159.708 164.337 159.573 164.53 159.438C164.275 159.292 164.079 159.104 163.944 158.875C163.814 158.646 163.749 158.401 163.749 158.141C163.749 157.964 163.772 157.799 163.819 157.648C163.866 157.492 163.926 157.344 163.999 157.203C164.077 157.062 164.165 156.927 164.264 156.797C164.363 156.667 164.467 156.539 164.577 156.414C164.384 156.221 164.223 155.99 164.092 155.719C163.967 155.443 163.905 155.099 163.905 154.688C163.905 154.245 163.983 153.852 164.139 153.508C164.301 153.159 164.522 152.867 164.803 152.633C165.085 152.393 165.418 152.214 165.803 152.094C166.194 151.969 166.618 151.906 167.077 151.906C167.311 151.906 167.535 151.919 167.749 151.945C167.967 151.966 168.165 152.005 168.342 152.062H171.092V153.453H169.842ZM165.35 161.055C165.35 161.362 165.504 161.589 165.811 161.734C166.124 161.88 166.561 161.953 167.124 161.953C167.483 161.953 167.785 161.919 168.03 161.852C168.28 161.784 168.483 161.695 168.639 161.586C168.795 161.477 168.907 161.349 168.975 161.203C169.043 161.057 169.077 160.906 169.077 160.75C169.077 160.609 169.043 160.49 168.975 160.391C168.913 160.297 168.821 160.216 168.702 160.148C168.587 160.086 168.449 160.036 168.288 160C168.131 159.969 167.957 159.948 167.764 159.938L166.085 159.906C165.933 160.01 165.808 160.109 165.71 160.203C165.616 160.297 165.54 160.388 165.483 160.477C165.431 160.57 165.394 160.664 165.374 160.758C165.358 160.852 165.35 160.951 165.35 161.055ZM165.67 154.688C165.67 155.109 165.793 155.445 166.038 155.695C166.288 155.94 166.634 156.062 167.077 156.062C167.311 156.062 167.514 156.023 167.686 155.945C167.863 155.867 168.009 155.763 168.124 155.633C168.238 155.503 168.324 155.352 168.381 155.18C168.439 155.008 168.467 154.828 168.467 154.641C168.467 154.198 168.342 153.854 168.092 153.609C167.848 153.359 167.504 153.234 167.061 153.234C166.827 153.234 166.621 153.273 166.444 153.352C166.272 153.43 166.129 153.536 166.014 153.672C165.9 153.802 165.814 153.956 165.756 154.133C165.699 154.31 165.67 154.495 165.67 154.688Z" fill="black"/>
<rect x="1.5" y="164.5" width="71.6173" height="22" rx="2.5" fill="#FFFD54" stroke="black" stroke-width="3"/>
<rect x="1.5" y="126.5" width="71.6173" height="23" rx="2.5" fill="#FFFD54" stroke="black" stroke-width="3"/>
<rect x="654.383" y="311.5" width="184.117" height="92" rx="2.5" fill="#7DE77B" stroke="black" stroke-width="3"/>
<path d="M733.139 356.242C733.139 356.893 733.051 357.466 732.874 357.961C732.702 358.451 732.452 358.859 732.124 359.188C731.801 359.516 731.405 359.763 730.936 359.93C730.467 360.096 729.941 360.18 729.358 360.18C728.702 360.18 728.139 360.096 727.67 359.93C727.202 359.763 726.821 359.523 726.53 359.211C726.238 358.898 726.027 358.518 725.897 358.07C725.767 357.622 725.702 357.12 725.702 356.562V349.789H727.624V356.445C727.624 356.789 727.652 357.094 727.709 357.359C727.772 357.625 727.876 357.852 728.022 358.039C728.173 358.221 728.361 358.359 728.584 358.453C728.808 358.547 729.09 358.594 729.428 358.594C729.746 358.594 730.014 358.555 730.233 358.477C730.452 358.393 730.634 358.263 730.78 358.086C730.926 357.904 731.035 357.672 731.108 357.391C731.181 357.109 731.217 356.768 731.217 356.367V349.789H733.139V356.242ZM741.452 357.664C741.452 358.117 741.35 358.505 741.147 358.828C740.949 359.146 740.683 359.406 740.35 359.609C740.022 359.807 739.647 359.951 739.225 360.039C738.808 360.133 738.381 360.18 737.944 360.18C737.361 360.18 736.834 360.151 736.366 360.094C735.897 360.042 735.454 359.964 735.038 359.859V358.141C735.527 358.344 736.014 358.492 736.499 358.586C736.988 358.674 737.449 358.719 737.881 358.719C738.381 358.719 738.754 358.641 738.999 358.484C739.249 358.323 739.374 358.115 739.374 357.859C739.374 357.74 739.348 357.63 739.295 357.531C739.243 357.432 739.144 357.339 738.999 357.25C738.858 357.156 738.657 357.062 738.397 356.969C738.137 356.87 737.795 356.76 737.374 356.641C736.983 356.531 736.639 356.409 736.342 356.273C736.051 356.133 735.808 355.969 735.616 355.781C735.423 355.594 735.277 355.378 735.178 355.133C735.084 354.883 735.038 354.591 735.038 354.258C735.038 353.935 735.111 353.63 735.256 353.344C735.402 353.057 735.618 352.807 735.905 352.594C736.196 352.375 736.558 352.203 736.991 352.078C737.423 351.953 737.928 351.891 738.506 351.891C739.006 351.891 739.449 351.917 739.834 351.969C740.22 352.021 740.561 352.078 740.858 352.141V353.695C740.405 353.549 739.978 353.448 739.577 353.391C739.181 353.328 738.788 353.297 738.397 353.297C738.006 353.297 737.691 353.367 737.452 353.508C737.217 353.648 737.1 353.844 737.1 354.094C737.1 354.214 737.124 354.32 737.17 354.414C737.217 354.508 737.308 354.599 737.444 354.688C737.584 354.776 737.777 354.87 738.022 354.969C738.272 355.062 738.6 355.167 739.006 355.281C739.465 355.411 739.85 355.552 740.163 355.703C740.475 355.849 740.725 356.016 740.913 356.203C741.105 356.391 741.243 356.604 741.327 356.844C741.41 357.083 741.452 357.357 741.452 357.664ZM750.616 355.422C750.616 355.552 750.611 355.721 750.6 355.93C750.595 356.138 750.584 356.333 750.569 356.516H745.35C745.35 356.865 745.402 357.172 745.506 357.438C745.616 357.703 745.767 357.927 745.959 358.109C746.157 358.286 746.392 358.422 746.663 358.516C746.939 358.609 747.243 358.656 747.577 358.656C747.962 358.656 748.374 358.628 748.811 358.57C749.254 358.508 749.712 358.409 750.186 358.273V359.789C749.983 359.846 749.762 359.898 749.522 359.945C749.282 359.992 749.038 360.034 748.788 360.07C748.538 360.107 748.285 360.133 748.03 360.148C747.775 360.169 747.527 360.18 747.288 360.18C746.683 360.18 746.142 360.094 745.663 359.922C745.183 359.75 744.777 359.497 744.444 359.164C744.111 358.826 743.855 358.409 743.678 357.914C743.501 357.419 743.413 356.846 743.413 356.195C743.413 355.549 743.501 354.964 743.678 354.438C743.855 353.906 744.105 353.453 744.428 353.078C744.751 352.698 745.142 352.406 745.6 352.203C746.064 351.995 746.579 351.891 747.147 351.891C747.709 351.891 748.207 351.979 748.639 352.156C749.071 352.328 749.433 352.57 749.725 352.883C750.017 353.195 750.238 353.568 750.389 354C750.54 354.432 750.616 354.906 750.616 355.422ZM748.678 355.148C748.683 354.836 748.644 354.565 748.561 354.336C748.478 354.102 748.363 353.909 748.217 353.758C748.077 353.607 747.91 353.495 747.717 353.422C747.53 353.349 747.327 353.312 747.108 353.312C746.629 353.312 746.236 353.474 745.928 353.797C745.621 354.115 745.439 354.565 745.381 355.148H748.678ZM757.608 355.148C757.618 354.852 757.603 354.599 757.561 354.391C757.525 354.182 757.462 354.01 757.374 353.875C757.29 353.74 757.186 353.641 757.061 353.578C756.936 353.516 756.793 353.484 756.631 353.484C756.35 353.484 756.058 353.602 755.756 353.836C755.46 354.065 755.131 354.445 754.772 354.977V360H752.819V352.062H754.545L754.616 353.219C754.746 353.016 754.892 352.833 755.053 352.672C755.22 352.51 755.402 352.372 755.6 352.258C755.803 352.138 756.027 352.047 756.272 351.984C756.517 351.922 756.785 351.891 757.077 351.891C757.478 351.891 757.832 351.961 758.139 352.102C758.452 352.237 758.712 352.44 758.92 352.711C759.134 352.982 759.29 353.323 759.389 353.734C759.493 354.141 759.538 354.612 759.522 355.148H757.608ZM767.842 357.664C767.842 358.117 767.741 358.505 767.538 358.828C767.34 359.146 767.074 359.406 766.741 359.609C766.413 359.807 766.038 359.951 765.616 360.039C765.199 360.133 764.772 360.18 764.335 360.18C763.751 360.18 763.225 360.151 762.756 360.094C762.288 360.042 761.845 359.964 761.428 359.859V358.141C761.918 358.344 762.405 358.492 762.889 358.586C763.379 358.674 763.84 358.719 764.272 358.719C764.772 358.719 765.144 358.641 765.389 358.484C765.639 358.323 765.764 358.115 765.764 357.859C765.764 357.74 765.738 357.63 765.686 357.531C765.634 357.432 765.535 357.339 765.389 357.25C765.249 357.156 765.048 357.062 764.788 356.969C764.527 356.87 764.186 356.76 763.764 356.641C763.374 356.531 763.03 356.409 762.733 356.273C762.441 356.133 762.199 355.969 762.006 355.781C761.814 355.594 761.668 355.378 761.569 355.133C761.475 354.883 761.428 354.591 761.428 354.258C761.428 353.935 761.501 353.63 761.647 353.344C761.793 353.057 762.009 352.807 762.295 352.594C762.587 352.375 762.949 352.203 763.381 352.078C763.814 351.953 764.319 351.891 764.897 351.891C765.397 351.891 765.84 351.917 766.225 351.969C766.611 352.021 766.952 352.078 767.249 352.141V353.695C766.795 353.549 766.368 353.448 765.967 353.391C765.571 353.328 765.178 353.297 764.788 353.297C764.397 353.297 764.082 353.367 763.842 353.508C763.608 353.648 763.491 353.844 763.491 354.094C763.491 354.214 763.514 354.32 763.561 354.414C763.608 354.508 763.699 354.599 763.835 354.688C763.975 354.776 764.168 354.87 764.413 354.969C764.663 355.062 764.991 355.167 765.397 355.281C765.855 355.411 766.241 355.552 766.553 355.703C766.866 355.849 767.116 356.016 767.303 356.203C767.496 356.391 767.634 356.604 767.717 356.844C767.801 357.083 767.842 357.357 767.842 357.664Z" fill="black"/>
<rect x="616.5" y="364.5" width="71.6173" height="22" rx="2.5" fill="#FFFD54" stroke="black" stroke-width="3"/>
<rect x="616.5" y="326.5" width="71.6173" height="23" rx="2.5" fill="#FFFD54" stroke="black" stroke-width="3"/>
<rect x="39.3828" y="1.5" width="184.117" height="92" rx="2.5" fill="#7DE77B" stroke="black" stroke-width="3"/>
<path d="M80.6157 50L77.8814 43.9062L77.3189 42.5938V46.8281V50H75.5689V39.7891H77.9282L80.7173 45.9219L81.2095 47.1172V42.6094V39.7891H82.9595V50H80.6157ZM91.8657 45.9688C91.8657 46.5938 91.7772 47.1667 91.6001 47.6875C91.423 48.2031 91.1678 48.6458 90.8345 49.0156C90.5012 49.3854 90.0923 49.6719 89.6079 49.875C89.1236 50.0781 88.5715 50.1797 87.9517 50.1797C87.3631 50.1797 86.8371 50.0938 86.3736 49.9219C85.91 49.75 85.5168 49.4948 85.1939 49.1562C84.871 48.8125 84.6236 48.3854 84.4517 47.875C84.2798 47.3594 84.1939 46.7604 84.1939 46.0781C84.1939 45.4479 84.2824 44.875 84.4595 44.3594C84.6418 43.8438 84.8996 43.4036 85.2329 43.0391C85.5715 42.6745 85.9829 42.3932 86.4673 42.1953C86.9517 41.9922 87.4986 41.8906 88.1079 41.8906C88.7017 41.8906 89.2303 41.9792 89.6939 42.1562C90.1574 42.3281 90.5506 42.5859 90.8736 42.9297C91.1965 43.2734 91.4413 43.7005 91.6079 44.2109C91.7798 44.7161 91.8657 45.3021 91.8657 45.9688ZM89.8814 46.0156C89.8814 45.1927 89.7251 44.5755 89.4126 44.1641C89.1053 43.7474 88.6496 43.5391 88.0454 43.5391C87.7121 43.5391 87.4282 43.6042 87.1939 43.7344C86.9595 43.8646 86.7668 44.0443 86.6157 44.2734C86.4647 44.4974 86.3527 44.7604 86.2798 45.0625C86.2121 45.3646 86.1782 45.6875 86.1782 46.0312C86.1782 46.8594 86.3449 47.4844 86.6782 47.9062C87.0116 48.3229 87.4673 48.5312 88.0454 48.5312C88.3631 48.5312 88.6392 48.4688 88.8736 48.3438C89.1079 48.2135 89.298 48.0365 89.4439 47.8125C89.5897 47.5833 89.6991 47.3151 89.772 47.0078C89.8449 46.7005 89.8814 46.3698 89.8814 46.0156ZM100.061 49.9219C99.7173 50 99.371 50.0625 99.022 50.1094C98.673 50.1562 98.3423 50.1797 98.0298 50.1797C97.509 50.1797 97.0585 50.125 96.6782 50.0156C96.3032 49.9062 95.9907 49.7396 95.7407 49.5156C95.496 49.2917 95.3137 49.0078 95.1939 48.6641C95.0793 48.3151 95.022 47.901 95.022 47.4219V43.5469H92.8892V42.0625H95.022V40.0312L96.9751 39.5234V42.0625H100.061V43.5469H96.9751V47.2812C96.9751 47.7344 97.0793 48.0781 97.2876 48.3125C97.496 48.5417 97.8449 48.6562 98.3345 48.6562C98.647 48.6562 98.9517 48.6302 99.2486 48.5781C99.5454 48.526 99.8163 48.4661 100.061 48.3984V49.9219ZM106.983 39.8906C106.983 40.0625 106.952 40.224 106.889 40.375C106.827 40.526 106.738 40.6589 106.624 40.7734C106.514 40.8828 106.384 40.9714 106.233 41.0391C106.082 41.1016 105.918 41.1328 105.741 41.1328C105.564 41.1328 105.397 41.1016 105.241 41.0391C105.09 40.9714 104.957 40.8828 104.842 40.7734C104.733 40.6589 104.647 40.526 104.584 40.375C104.522 40.224 104.491 40.0625 104.491 39.8906C104.491 39.7188 104.522 39.5573 104.584 39.4062C104.647 39.2552 104.733 39.1224 104.842 39.0078C104.957 38.8932 105.09 38.8047 105.241 38.7422C105.397 38.6745 105.564 38.6406 105.741 38.6406C105.918 38.6406 106.082 38.6745 106.233 38.7422C106.384 38.8047 106.514 38.8932 106.624 39.0078C106.738 39.1224 106.827 39.2552 106.889 39.4062C106.952 39.5573 106.983 39.7188 106.983 39.8906ZM104.874 43.5469H102.631V42.0625H106.827V48.5156H109.116V50H102.358V48.5156H104.874V43.5469ZM118.233 40.5781C118.004 40.5052 117.73 40.4453 117.413 40.3984C117.1 40.3464 116.78 40.3203 116.452 40.3203C116.228 40.3203 116.019 40.3516 115.827 40.4141C115.634 40.4714 115.467 40.5651 115.327 40.6953C115.186 40.8255 115.074 40.9922 114.991 41.1953C114.913 41.3932 114.874 41.6354 114.874 41.9219V43.2031H117.991V44.6875H114.874V50H112.952V44.6875H110.647V43.2031H112.952V42C112.952 41.4375 113.032 40.9557 113.194 40.5547C113.361 40.1484 113.592 39.8177 113.889 39.5625C114.191 39.3021 114.553 39.112 114.975 38.9922C115.397 38.8724 115.868 38.8125 116.389 38.8125C116.733 38.8125 117.058 38.8359 117.366 38.8828C117.678 38.9245 117.967 38.9766 118.233 39.0391V40.5781ZM124.577 39.8906C124.577 40.0625 124.545 40.224 124.483 40.375C124.42 40.526 124.332 40.6589 124.217 40.7734C124.108 40.8828 123.978 40.9714 123.827 41.0391C123.676 41.1016 123.512 41.1328 123.334 41.1328C123.157 41.1328 122.991 41.1016 122.834 41.0391C122.683 40.9714 122.551 40.8828 122.436 40.7734C122.327 40.6589 122.241 40.526 122.178 40.375C122.116 40.224 122.084 40.0625 122.084 39.8906C122.084 39.7188 122.116 39.5573 122.178 39.4062C122.241 39.2552 122.327 39.1224 122.436 39.0078C122.551 38.8932 122.683 38.8047 122.834 38.7422C122.991 38.6745 123.157 38.6406 123.334 38.6406C123.512 38.6406 123.676 38.6745 123.827 38.7422C123.978 38.8047 124.108 38.8932 124.217 39.0078C124.332 39.1224 124.42 39.2552 124.483 39.4062C124.545 39.5573 124.577 39.7188 124.577 39.8906ZM122.467 43.5469H120.225V42.0625H124.42V48.5156H126.709V50H119.952V48.5156H122.467V43.5469ZM135.124 49.6953C134.749 49.8464 134.361 49.9583 133.959 50.0312C133.558 50.1042 133.139 50.1406 132.702 50.1406C132.071 50.1406 131.506 50.0547 131.006 49.8828C130.506 49.7109 130.082 49.4557 129.733 49.1172C129.384 48.7786 129.116 48.3594 128.928 47.8594C128.746 47.3594 128.655 46.7812 128.655 46.125C128.655 45.4896 128.754 44.9141 128.952 44.3984C129.155 43.8828 129.439 43.4427 129.803 43.0781C130.168 42.7135 130.605 42.4323 131.116 42.2344C131.631 42.0365 132.204 41.9375 132.834 41.9375C133.35 41.9375 133.782 41.9661 134.131 42.0234C134.486 42.0755 134.803 42.1432 135.084 42.2266V44.0781C134.762 43.9167 134.41 43.7917 134.03 43.7031C133.655 43.6146 133.298 43.5703 132.959 43.5703C132.605 43.5703 132.288 43.6302 132.006 43.75C131.725 43.8698 131.488 44.0365 131.295 44.25C131.103 44.4635 130.954 44.724 130.85 45.0312C130.751 45.3333 130.702 45.6667 130.702 46.0312C130.702 46.4115 130.756 46.7526 130.866 47.0547C130.975 47.3568 131.129 47.6146 131.327 47.8281C131.53 48.0365 131.772 48.1979 132.053 48.3125C132.334 48.4219 132.647 48.4766 132.991 48.4766C133.157 48.4766 133.332 48.4661 133.514 48.4453C133.702 48.4193 133.887 48.3854 134.069 48.3438C134.256 48.2969 134.439 48.2448 134.616 48.1875C134.798 48.1302 134.967 48.0677 135.124 48V49.6953ZM142.475 50L142.428 48.9609C142.262 49.138 142.087 49.3021 141.905 49.4531C141.723 49.599 141.522 49.7266 141.303 49.8359C141.085 49.9453 140.845 50.0286 140.585 50.0859C140.329 50.1484 140.048 50.1797 139.741 50.1797C139.335 50.1797 138.978 50.1198 138.67 50C138.363 49.8802 138.105 49.7135 137.897 49.5C137.689 49.2865 137.53 49.0286 137.42 48.7266C137.316 48.4245 137.264 48.0911 137.264 47.7266C137.264 47.3516 137.342 47.0052 137.499 46.6875C137.66 46.3698 137.902 46.0964 138.225 45.8672C138.553 45.638 138.96 45.4583 139.444 45.3281C139.933 45.1979 140.506 45.1328 141.163 45.1328H142.202V44.6562C142.202 44.4531 142.173 44.2708 142.116 44.1094C142.058 43.9427 141.965 43.8021 141.835 43.6875C141.71 43.5729 141.545 43.4844 141.342 43.4219C141.139 43.3594 140.889 43.3281 140.592 43.3281C140.124 43.3281 139.66 43.3828 139.202 43.4922C138.749 43.5964 138.308 43.7448 137.881 43.9375V42.4141C138.262 42.263 138.699 42.138 139.194 42.0391C139.694 41.9401 140.212 41.8906 140.749 41.8906C141.337 41.8906 141.842 41.9479 142.264 42.0625C142.686 42.1719 143.032 42.3385 143.303 42.5625C143.579 42.7865 143.782 43.0677 143.913 43.4062C144.043 43.7396 144.108 44.1302 144.108 44.5781V50H142.475ZM142.202 46.4922H141.038C140.715 46.4922 140.441 46.5234 140.217 46.5859C139.993 46.6484 139.811 46.7344 139.67 46.8438C139.53 46.9531 139.426 47.0807 139.358 47.2266C139.295 47.3672 139.264 47.5182 139.264 47.6797C139.264 48.0026 139.368 48.25 139.577 48.4219C139.785 48.5885 140.069 48.6719 140.428 48.6719C140.694 48.6719 140.97 48.5755 141.256 48.3828C141.543 48.1901 141.858 47.9141 142.202 47.5547V46.4922ZM152.842 49.9219C152.499 50 152.152 50.0625 151.803 50.1094C151.454 50.1562 151.124 50.1797 150.811 50.1797C150.29 50.1797 149.84 50.125 149.46 50.0156C149.085 49.9062 148.772 49.7396 148.522 49.5156C148.277 49.2917 148.095 49.0078 147.975 48.6641C147.861 48.3151 147.803 47.901 147.803 47.4219V43.5469H145.67V42.0625H147.803V40.0312L149.756 39.5234V42.0625H152.842V43.5469H149.756V47.2812C149.756 47.7344 149.861 48.0781 150.069 48.3125C150.277 48.5417 150.626 48.6562 151.116 48.6562C151.428 48.6562 151.733 48.6302 152.03 48.5781C152.327 48.526 152.598 48.4661 152.842 48.3984V49.9219ZM159.764 39.8906C159.764 40.0625 159.733 40.224 159.67 40.375C159.608 40.526 159.519 40.6589 159.405 40.7734C159.295 40.8828 159.165 40.9714 159.014 41.0391C158.863 41.1016 158.699 41.1328 158.522 41.1328C158.345 41.1328 158.178 41.1016 158.022 41.0391C157.871 40.9714 157.738 40.8828 157.624 40.7734C157.514 40.6589 157.428 40.526 157.366 40.375C157.303 40.224 157.272 40.0625 157.272 39.8906C157.272 39.7188 157.303 39.5573 157.366 39.4062C157.428 39.2552 157.514 39.1224 157.624 39.0078C157.738 38.8932 157.871 38.8047 158.022 38.7422C158.178 38.6745 158.345 38.6406 158.522 38.6406C158.699 38.6406 158.863 38.6745 159.014 38.7422C159.165 38.8047 159.295 38.8932 159.405 39.0078C159.519 39.1224 159.608 39.2552 159.67 39.4062C159.733 39.5573 159.764 39.7188 159.764 39.8906ZM157.655 43.5469H155.413V42.0625H159.608V48.5156H161.897V50H155.139V48.5156H157.655V43.5469ZM171.038 45.9688C171.038 46.5938 170.949 47.1667 170.772 47.6875C170.595 48.2031 170.34 48.6458 170.006 49.0156C169.673 49.3854 169.264 49.6719 168.78 49.875C168.295 50.0781 167.743 50.1797 167.124 50.1797C166.535 50.1797 166.009 50.0938 165.545 49.9219C165.082 49.75 164.689 49.4948 164.366 49.1562C164.043 48.8125 163.795 48.3854 163.624 47.875C163.452 47.3594 163.366 46.7604 163.366 46.0781C163.366 45.4479 163.454 44.875 163.631 44.3594C163.814 43.8438 164.071 43.4036 164.405 43.0391C164.743 42.6745 165.155 42.3932 165.639 42.1953C166.124 41.9922 166.67 41.8906 167.28 41.8906C167.874 41.8906 168.402 41.9792 168.866 42.1562C169.329 42.3281 169.723 42.5859 170.045 42.9297C170.368 43.2734 170.613 43.7005 170.78 44.2109C170.952 44.7161 171.038 45.3021 171.038 45.9688ZM169.053 46.0156C169.053 45.1927 168.897 44.5755 168.585 44.1641C168.277 43.7474 167.821 43.5391 167.217 43.5391C166.884 43.5391 166.6 43.6042 166.366 43.7344C166.131 43.8646 165.939 44.0443 165.788 44.2734C165.637 44.4974 165.525 44.7604 165.452 45.0625C165.384 45.3646 165.35 45.6875 165.35 46.0312C165.35 46.8594 165.517 47.4844 165.85 47.9062C166.183 48.3229 166.639 48.5312 167.217 48.5312C167.535 48.5312 167.811 48.4688 168.045 48.3438C168.28 48.2135 168.47 48.0365 168.616 47.8125C168.762 47.5833 168.871 47.3151 168.944 47.0078C169.017 46.7005 169.053 46.3698 169.053 46.0156ZM177.42 50V44.8281C177.42 43.9583 177.098 43.5234 176.452 43.5234C176.129 43.5234 175.819 43.6536 175.522 43.9141C175.23 44.1745 174.92 44.5286 174.592 44.9766V50H172.686V42.0625H174.335L174.381 43.2344C174.543 43.0312 174.71 42.8464 174.881 42.6797C175.058 42.513 175.249 42.3724 175.452 42.2578C175.655 42.138 175.874 42.0469 176.108 41.9844C176.342 41.9219 176.605 41.8906 176.897 41.8906C177.303 41.8906 177.657 41.9583 177.96 42.0938C178.262 42.224 178.514 42.4115 178.717 42.6562C178.92 42.8958 179.071 43.1875 179.17 43.5312C179.275 43.8698 179.327 44.25 179.327 44.6719V50H177.42ZM188.03 47.6641C188.03 48.1172 187.928 48.5052 187.725 48.8281C187.527 49.1458 187.262 49.4062 186.928 49.6094C186.6 49.8073 186.225 49.9505 185.803 50.0391C185.387 50.1328 184.96 50.1797 184.522 50.1797C183.939 50.1797 183.413 50.151 182.944 50.0938C182.475 50.0417 182.032 49.9635 181.616 49.8594V48.1406C182.105 48.3438 182.592 48.4922 183.077 48.5859C183.566 48.6745 184.027 48.7188 184.46 48.7188C184.96 48.7188 185.332 48.6406 185.577 48.4844C185.827 48.3229 185.952 48.1146 185.952 47.8594C185.952 47.7396 185.926 47.6302 185.874 47.5312C185.821 47.4323 185.723 47.3385 185.577 47.25C185.436 47.1562 185.236 47.0625 184.975 46.9688C184.715 46.8698 184.374 46.7604 183.952 46.6406C183.561 46.5312 183.217 46.4089 182.92 46.2734C182.629 46.1328 182.387 45.9688 182.194 45.7812C182.001 45.5938 181.855 45.3776 181.756 45.1328C181.663 44.8828 181.616 44.5911 181.616 44.2578C181.616 43.9349 181.689 43.6302 181.835 43.3438C181.98 43.0573 182.196 42.8073 182.483 42.5938C182.775 42.375 183.137 42.2031 183.569 42.0781C184.001 41.9531 184.506 41.8906 185.085 41.8906C185.585 41.8906 186.027 41.9167 186.413 41.9688C186.798 42.0208 187.139 42.0781 187.436 42.1406V43.6953C186.983 43.5495 186.556 43.4479 186.155 43.3906C185.759 43.3281 185.366 43.2969 184.975 43.2969C184.585 43.2969 184.269 43.3672 184.03 43.5078C183.795 43.6484 183.678 43.8438 183.678 44.0938C183.678 44.2135 183.702 44.3203 183.749 44.4141C183.795 44.5078 183.887 44.599 184.022 44.6875C184.163 44.776 184.355 44.8698 184.6 44.9688C184.85 45.0625 185.178 45.1667 185.585 45.2812C186.043 45.4115 186.428 45.5521 186.741 45.7031C187.053 45.849 187.303 46.0156 187.491 46.2031C187.683 46.3906 187.821 46.6042 187.905 46.8438C187.988 47.0833 188.03 47.3568 188.03 47.6641Z" fill="black"/>
<rect x="1.5" y="54.5" width="71.6173" height="22" rx="2.5" fill="#FFFD54" stroke="black" stroke-width="3"/>
<rect x="1.5" y="16.5" width="71.6173" height="23" rx="2.5" fill="#FFFD54" stroke="black" stroke-width="3"/>
</svg>
