<svg width="712" height="153" viewBox="0 0 712 153" fill="none" xmlns="http://www.w3.org/2000/svg">
<path d="M707.782 11.178C491.18 26.242 446.452 37.3639 441.844 75.571" stroke="#7DE77B" stroke-width="3"/>
<path d="M148.936 141.367C387.515 124.472 436.804 112.3 441.978 70.8713" stroke="#7DE77B" stroke-width="3"/>
<rect x="230.5" y="50.3713" width="160" height="39" rx="2.5" fill="#7DE77B" stroke="black" stroke-width="3"/>
<path d="M282.106 69.5908V68.4131H286.946V69.5908H285.258V74.8818H286.946V76.0713H282.106V74.8818H283.793V69.5908H282.106ZM293.912 73.2529C293.912 73.7412 293.846 74.1709 293.713 74.542C293.584 74.9092 293.397 75.2158 293.151 75.4619C292.909 75.708 292.612 75.8936 292.26 76.0186C291.909 76.1436 291.514 76.2061 291.077 76.2061C290.584 76.2061 290.162 76.1436 289.811 76.0186C289.459 75.8936 289.174 75.7139 288.955 75.4795C288.737 75.2451 288.578 74.96 288.481 74.624C288.383 74.2881 288.334 73.9111 288.334 73.4932V68.4131H289.776V73.4053C289.776 73.6631 289.797 73.8916 289.84 74.0908C289.887 74.29 289.965 74.46 290.075 74.6006C290.188 74.7373 290.328 74.8408 290.496 74.9111C290.664 74.9814 290.875 75.0166 291.129 75.0166C291.368 75.0166 291.569 74.9873 291.733 74.9287C291.897 74.8662 292.034 74.7686 292.143 74.6357C292.252 74.499 292.334 74.3252 292.389 74.1143C292.444 73.9033 292.471 73.6475 292.471 73.3467V68.4131H293.912V73.2529ZM300.147 74.3193C300.147 74.6592 300.071 74.9502 299.918 75.1924C299.77 75.4307 299.571 75.626 299.321 75.7783C299.075 75.9268 298.793 76.0342 298.477 76.1006C298.164 76.1709 297.844 76.2061 297.516 76.2061C297.078 76.2061 296.684 76.1846 296.332 76.1416C295.981 76.1025 295.649 76.0439 295.336 75.9658V74.6768C295.703 74.8291 296.069 74.9404 296.432 75.0107C296.799 75.0771 297.145 75.1104 297.469 75.1104C297.844 75.1104 298.123 75.0518 298.307 74.9346C298.494 74.8135 298.588 74.6572 298.588 74.4658C298.588 74.376 298.569 74.2939 298.53 74.2197C298.491 74.1455 298.416 74.0752 298.307 74.0088C298.202 73.9385 298.051 73.8682 297.856 73.7979C297.661 73.7236 297.405 73.6416 297.088 73.5518C296.795 73.4697 296.537 73.3779 296.315 73.2764C296.096 73.1709 295.914 73.0479 295.77 72.9072C295.625 72.7666 295.516 72.6045 295.442 72.4209C295.371 72.2334 295.336 72.0146 295.336 71.7646C295.336 71.5225 295.391 71.2939 295.5 71.0791C295.61 70.8643 295.772 70.6768 295.987 70.5166C296.205 70.3525 296.477 70.2236 296.801 70.1299C297.125 70.0361 297.504 69.9893 297.938 69.9893C298.313 69.9893 298.645 70.0088 298.934 70.0479C299.223 70.0869 299.479 70.1299 299.702 70.1768V71.3428C299.362 71.2334 299.041 71.1572 298.741 71.1143C298.444 71.0674 298.149 71.0439 297.856 71.0439C297.563 71.0439 297.327 71.0967 297.147 71.2021C296.971 71.3076 296.883 71.4541 296.883 71.6416C296.883 71.7314 296.901 71.8115 296.936 71.8818C296.971 71.9521 297.039 72.0205 297.141 72.0869C297.246 72.1533 297.391 72.2236 297.575 72.2979C297.762 72.3682 298.008 72.4463 298.313 72.5322C298.657 72.6299 298.946 72.7354 299.18 72.8486C299.414 72.958 299.602 73.083 299.743 73.2236C299.887 73.3643 299.991 73.5244 300.053 73.7041C300.116 73.8838 300.147 74.0889 300.147 74.3193ZM307.02 72.6377C307.02 72.7354 307.016 72.8623 307.008 73.0186C307.004 73.1748 306.996 73.3213 306.985 73.458H303.071C303.071 73.7197 303.11 73.9502 303.188 74.1494C303.27 74.3486 303.383 74.5166 303.528 74.6533C303.676 74.7861 303.852 74.8877 304.055 74.958C304.262 75.0283 304.491 75.0635 304.741 75.0635C305.03 75.0635 305.338 75.042 305.666 74.999C305.998 74.9521 306.342 74.8779 306.698 74.7764V75.9131C306.545 75.9561 306.379 75.9951 306.2 76.0303C306.02 76.0654 305.836 76.0967 305.649 76.124C305.461 76.1514 305.272 76.1709 305.08 76.1826C304.889 76.1982 304.703 76.2061 304.524 76.2061C304.071 76.2061 303.664 76.1416 303.305 76.0127C302.946 75.8838 302.641 75.6943 302.391 75.4443C302.141 75.1904 301.95 74.8779 301.817 74.5068C301.684 74.1357 301.618 73.7061 301.618 73.2178C301.618 72.7334 301.684 72.2939 301.817 71.8994C301.95 71.501 302.137 71.1611 302.379 70.8799C302.621 70.5947 302.914 70.376 303.258 70.2236C303.606 70.0674 303.993 69.9893 304.418 69.9893C304.84 69.9893 305.213 70.0557 305.537 70.1885C305.862 70.3174 306.133 70.499 306.352 70.7334C306.571 70.9678 306.737 71.2471 306.85 71.5713C306.963 71.8955 307.02 72.251 307.02 72.6377ZM305.567 72.4326C305.571 72.1982 305.541 71.9951 305.479 71.8232C305.416 71.6475 305.33 71.5029 305.221 71.3896C305.116 71.2764 304.991 71.1924 304.846 71.1377C304.705 71.083 304.553 71.0557 304.389 71.0557C304.03 71.0557 303.735 71.1768 303.504 71.4189C303.274 71.6572 303.137 71.9951 303.094 72.4326H305.567ZM312.264 72.4326C312.272 72.21 312.26 72.0205 312.229 71.8643C312.202 71.708 312.155 71.5791 312.088 71.4775C312.026 71.376 311.948 71.3018 311.854 71.2549C311.76 71.208 311.653 71.1846 311.532 71.1846C311.321 71.1846 311.102 71.2725 310.875 71.4482C310.653 71.6201 310.407 71.9053 310.137 72.3037V76.0713H308.672V70.1182H309.967L310.02 70.9854C310.118 70.833 310.227 70.6963 310.348 70.5752C310.473 70.4541 310.61 70.3506 310.758 70.2646C310.911 70.1748 311.078 70.1064 311.262 70.0596C311.446 70.0127 311.647 69.9893 311.866 69.9893C312.166 69.9893 312.432 70.042 312.662 70.1475C312.897 70.249 313.092 70.4014 313.248 70.6045C313.409 70.8076 313.526 71.0635 313.6 71.3721C313.678 71.6768 313.711 72.0303 313.7 72.4326H312.264ZM318.832 76.0713L317.754 73.6104C317.653 73.376 317.51 73.2002 317.327 73.083C317.147 72.9619 316.934 72.9014 316.688 72.9014H316.412V76.0713H314.971V68.4131H317.203C317.625 68.4131 318.008 68.4502 318.352 68.5244C318.696 68.5947 318.989 68.7139 319.231 68.8818C319.473 69.0498 319.659 69.2686 319.787 69.5381C319.92 69.8076 319.987 70.1377 319.987 70.5283C319.987 70.8096 319.946 71.0596 319.864 71.2783C319.782 71.4971 319.666 71.6865 319.518 71.8467C319.369 72.0029 319.192 72.1299 318.985 72.2275C318.782 72.3252 318.559 72.3936 318.317 72.4326C318.504 72.4717 318.676 72.5791 318.832 72.7549C318.989 72.9268 319.145 73.1768 319.301 73.5049L320.526 76.0713H318.832ZM318.475 70.6689C318.475 70.2939 318.356 70.0244 318.118 69.8604C317.879 69.6963 317.522 69.6143 317.045 69.6143H316.412V71.7764H316.998C317.221 71.7764 317.422 71.7529 317.602 71.7061C317.786 71.6592 317.942 71.5889 318.071 71.4951C318.2 71.4014 318.299 71.2861 318.369 71.1494C318.44 71.0088 318.475 70.8486 318.475 70.6689ZM326.813 72.6377C326.813 72.7354 326.809 72.8623 326.801 73.0186C326.797 73.1748 326.789 73.3213 326.778 73.458H322.864C322.864 73.7197 322.903 73.9502 322.981 74.1494C323.063 74.3486 323.176 74.5166 323.321 74.6533C323.469 74.7861 323.645 74.8877 323.848 74.958C324.055 75.0283 324.284 75.0635 324.534 75.0635C324.823 75.0635 325.131 75.042 325.459 74.999C325.791 74.9521 326.135 74.8779 326.491 74.7764V75.9131C326.338 75.9561 326.172 75.9951 325.993 76.0303C325.813 76.0654 325.629 76.0967 325.442 76.124C325.254 76.1514 325.065 76.1709 324.873 76.1826C324.682 76.1982 324.496 76.2061 324.317 76.2061C323.864 76.2061 323.457 76.1416 323.098 76.0127C322.739 75.8838 322.434 75.6943 322.184 75.4443C321.934 75.1904 321.743 74.8779 321.61 74.5068C321.477 74.1357 321.411 73.7061 321.411 73.2178C321.411 72.7334 321.477 72.2939 321.61 71.8994C321.743 71.501 321.93 71.1611 322.172 70.8799C322.414 70.5947 322.707 70.376 323.051 70.2236C323.399 70.0674 323.786 69.9893 324.211 69.9893C324.633 69.9893 325.006 70.0557 325.33 70.1885C325.655 70.3174 325.926 70.499 326.145 70.7334C326.364 70.9678 326.53 71.2471 326.643 71.5713C326.756 71.8955 326.813 72.251 326.813 72.6377ZM325.36 72.4326C325.364 72.1982 325.334 71.9951 325.272 71.8232C325.209 71.6475 325.123 71.5029 325.014 71.3896C324.909 71.2764 324.784 71.1924 324.639 71.1377C324.498 71.083 324.346 71.0557 324.182 71.0557C323.823 71.0557 323.528 71.1768 323.297 71.4189C323.067 71.6572 322.93 71.9951 322.887 72.4326H325.36ZM333.58 72.9893C333.58 73.5361 333.502 74.0088 333.346 74.4072C333.194 74.8057 332.979 75.1377 332.702 75.4033C332.428 75.665 332.104 75.8604 331.729 75.9893C331.354 76.1143 330.946 76.1768 330.504 76.1768C330.356 76.1768 330.207 76.167 330.059 76.1475C329.911 76.1279 329.776 76.1025 329.655 76.0713V78.3975H328.225V70.1182H329.461L329.496 70.9971C329.618 70.8447 329.743 70.7061 329.871 70.5811C330.004 70.4561 330.147 70.3506 330.299 70.2646C330.452 70.1748 330.616 70.1064 330.791 70.0596C330.967 70.0127 331.164 69.9893 331.383 69.9893C331.735 69.9893 332.047 70.0596 332.321 70.2002C332.594 70.3408 332.823 70.542 333.006 70.8037C333.194 71.0615 333.336 71.376 333.434 71.7471C333.532 72.1143 333.58 72.5283 333.58 72.9893ZM332.08 73.0479C332.08 72.7197 332.057 72.4404 332.01 72.21C331.963 71.9795 331.895 71.79 331.805 71.6416C331.719 71.4932 331.612 71.3857 331.483 71.3193C331.358 71.249 331.213 71.2139 331.049 71.2139C330.807 71.2139 330.575 71.3115 330.352 71.5068C330.133 71.7021 329.901 71.9678 329.655 72.3037V74.9053C329.768 74.9482 329.907 74.9834 330.071 75.0107C330.239 75.0381 330.409 75.0518 330.58 75.0518C330.807 75.0518 331.012 75.0049 331.196 74.9111C331.383 74.8174 331.541 74.6846 331.67 74.5127C331.803 74.3408 331.905 74.1318 331.975 73.8857C332.045 73.6357 332.08 73.3564 332.08 73.0479ZM340.184 73.0479C340.184 73.5166 340.118 73.9463 339.985 74.3369C339.852 74.7236 339.661 75.0557 339.411 75.333C339.161 75.6104 338.854 75.8252 338.491 75.9775C338.127 76.1299 337.713 76.2061 337.248 76.2061C336.807 76.2061 336.412 76.1416 336.065 76.0127C335.717 75.8838 335.422 75.6924 335.18 75.4385C334.938 75.1807 334.752 74.8604 334.623 74.4775C334.494 74.0908 334.43 73.6416 334.43 73.1299C334.43 72.6572 334.496 72.2275 334.629 71.8408C334.766 71.4541 334.959 71.124 335.209 70.8506C335.463 70.5771 335.772 70.3662 336.135 70.2178C336.498 70.0654 336.909 69.9893 337.366 69.9893C337.811 69.9893 338.207 70.0557 338.555 70.1885C338.903 70.3174 339.198 70.5107 339.44 70.7686C339.682 71.0264 339.866 71.3467 339.991 71.7295C340.119 72.1084 340.184 72.5479 340.184 73.0479ZM338.696 73.083C338.696 72.4658 338.578 72.0029 338.344 71.6943C338.114 71.3818 337.772 71.2256 337.319 71.2256C337.069 71.2256 336.856 71.2744 336.68 71.3721C336.504 71.4697 336.36 71.6045 336.246 71.7764C336.133 71.9443 336.049 72.1416 335.994 72.3682C335.944 72.5947 335.918 72.8369 335.918 73.0947C335.918 73.7158 336.043 74.1846 336.293 74.501C336.543 74.8135 336.885 74.9697 337.319 74.9697C337.557 74.9697 337.764 74.9229 337.94 74.8291C338.116 74.7314 338.258 74.5986 338.368 74.4307C338.477 74.2588 338.559 74.0576 338.614 73.8271C338.668 73.5967 338.696 73.3486 338.696 73.083Z" fill="black"/>
<rect x="-8.9407e-08" y="2.0135" width="25.616" height="25.616" rx="1.5" transform="matrix(0.741306 0.671167 -0.741306 0.671167 364.707 29.5334)" fill="#FFFD54" stroke="black" stroke-width="3"/>
<path d="M360.295 46.0699V44.8922H365.135V46.0699H363.447V51.361H365.135V52.5504H360.295V51.361H361.982V46.0699H360.295Z" fill="black"/>
<path d="M410.75 67.9383L428 57.979C428.333 57.7866 428.75 58.0271 428.75 58.412L428.75 78.3306C428.75 78.7155 428.333 78.9561 428 78.7636L410.75 68.8043C410.417 68.6119 410.417 68.1308 410.75 67.9383Z" fill="#FFFD54" stroke="black" stroke-width="3"/>
<line x1="478" y1="68.3713" x2="428" y2="68.3713" stroke="black" stroke-width="3"/>
<rect x="1.5" y="51.3713" width="147" height="37" rx="2.5" fill="#7DE77B" stroke="black" stroke-width="3"/>
<path d="M48.2758 66.7449C47.936 66.8816 47.6059 66.9832 47.2856 67.0496C46.9692 67.116 46.6391 67.1492 46.2953 67.1492C45.7445 67.1492 45.2563 67.0691 44.8305 66.9089C44.4086 66.7449 44.0512 66.5027 43.7582 66.1824C43.4692 65.8621 43.2485 65.4656 43.0961 64.9929C42.9477 64.5164 42.8735 63.9636 42.8735 63.3347C42.8735 62.6902 42.9555 62.1179 43.1195 61.6179C43.2836 61.114 43.518 60.6902 43.8227 60.3464C44.1274 59.9988 44.4965 59.7351 44.9301 59.5554C45.3676 59.3718 45.8578 59.28 46.4008 59.28C46.5766 59.28 46.7406 59.2839 46.893 59.2917C47.0492 59.2996 47.2016 59.3152 47.35 59.3386C47.4985 59.3582 47.6488 59.3855 47.8012 59.4207C47.9535 59.4558 48.1117 59.5007 48.2758 59.5554V60.9851C47.9438 60.8289 47.6274 60.7175 47.3266 60.6511C47.0258 60.5847 46.7524 60.5515 46.5063 60.5515C46.143 60.5515 45.8324 60.6179 45.5746 60.7507C45.3168 60.8796 45.1039 61.0632 44.936 61.3015C44.7719 61.5359 44.6508 61.8171 44.5727 62.1453C44.4945 62.4695 44.4555 62.8269 44.4555 63.2175C44.4555 63.6316 44.4945 64.0027 44.5727 64.3308C44.6547 64.655 44.7797 64.9304 44.9477 65.157C45.1156 65.3835 45.3305 65.5574 45.5922 65.6785C45.8539 65.7957 46.1645 65.8542 46.5238 65.8542C46.6528 65.8542 46.7914 65.8425 46.9399 65.8191C47.0922 65.7917 47.2445 65.7585 47.3969 65.7195C47.5531 65.6765 47.7055 65.6277 47.8539 65.573C48.0063 65.5144 48.1469 65.4558 48.2758 65.3972V66.7449ZM53.6371 63.405C53.6449 63.1824 53.6332 62.9929 53.602 62.8367C53.5746 62.6804 53.5278 62.5515 53.4613 62.45C53.3988 62.3484 53.3207 62.2742 53.227 62.2273C53.1332 62.1804 53.0258 62.157 52.9047 62.157C52.6938 62.157 52.475 62.2449 52.2485 62.4207C52.0258 62.5925 51.7797 62.8777 51.5102 63.2761V67.0437H50.0453V61.0906H51.3403L51.393 61.9578C51.4906 61.8054 51.6 61.6687 51.7211 61.5476C51.8461 61.4265 51.9828 61.323 52.1313 61.2371C52.2836 61.1472 52.4516 61.0789 52.6352 61.032C52.8188 60.9851 53.0199 60.9617 53.2387 60.9617C53.5395 60.9617 53.8051 61.0144 54.0356 61.1199C54.2699 61.2214 54.4653 61.3738 54.6215 61.5769C54.7817 61.78 54.8988 62.0359 54.9731 62.3445C55.0512 62.6492 55.0844 63.0027 55.0727 63.405H53.6371ZM61.5883 63.6101C61.5883 63.7078 61.5844 63.8347 61.5766 63.991C61.5727 64.1472 61.5649 64.2937 61.5531 64.4304H57.6391C57.6391 64.6921 57.6781 64.9226 57.7563 65.1218C57.8383 65.321 57.9516 65.489 58.0961 65.6257C58.2445 65.7585 58.4203 65.8601 58.6235 65.9304C58.8305 66.0007 59.059 66.0359 59.309 66.0359C59.5981 66.0359 59.9067 66.0144 60.2348 65.9714C60.5668 65.9246 60.9106 65.8503 61.266 65.7488V66.8855C61.1137 66.9285 60.9477 66.9675 60.768 67.0027C60.5883 67.0378 60.4047 67.0691 60.2172 67.0964C60.0297 67.1238 59.8403 67.1433 59.6488 67.155C59.4574 67.1707 59.2719 67.1785 59.0922 67.1785C58.6391 67.1785 58.2328 67.114 57.8735 66.9851C57.5141 66.8562 57.2094 66.6667 56.9594 66.4167C56.7094 66.1628 56.518 65.8503 56.3852 65.4792C56.2524 65.1082 56.186 64.6785 56.186 64.1902C56.186 63.7058 56.2524 63.2664 56.3852 62.8718C56.518 62.4734 56.7055 62.1335 56.9477 61.8523C57.1899 61.5671 57.4828 61.3484 57.8266 61.196C58.1742 61.0398 58.561 60.9617 58.9867 60.9617C59.4086 60.9617 59.7817 61.0281 60.1059 61.1609C60.4301 61.2898 60.7016 61.4714 60.9203 61.7058C61.1391 61.9402 61.3051 62.2195 61.4184 62.5437C61.5317 62.8679 61.5883 63.2234 61.5883 63.6101ZM60.1352 63.405C60.1391 63.1707 60.1098 62.9675 60.0473 62.7957C59.9848 62.6199 59.8988 62.4753 59.7895 62.3621C59.684 62.2488 59.559 62.1648 59.4145 62.1101C59.2738 62.0554 59.1215 62.0281 58.9574 62.0281C58.5981 62.0281 58.3031 62.1492 58.0727 62.3914C57.8422 62.6296 57.7055 62.9675 57.6625 63.405H60.1352ZM66.7328 67.0437L66.6977 66.2644C66.5727 66.3972 66.4418 66.5203 66.3051 66.6335C66.1684 66.7429 66.018 66.8386 65.8539 66.9207C65.6899 67.0027 65.5102 67.0652 65.3149 67.1082C65.1235 67.155 64.9125 67.1785 64.682 67.1785C64.3774 67.1785 64.1098 67.1335 63.8793 67.0437C63.6488 66.9539 63.4555 66.8289 63.2992 66.6687C63.143 66.5085 63.0238 66.3152 62.9418 66.0886C62.8637 65.8621 62.8246 65.6121 62.8246 65.3386C62.8246 65.0574 62.8832 64.7976 63.0004 64.5593C63.1215 64.321 63.3031 64.116 63.5453 63.9441C63.7914 63.7722 64.0961 63.6375 64.4594 63.5398C64.8266 63.4421 65.2563 63.3933 65.7485 63.3933H66.5278V63.0359C66.5278 62.8835 66.5063 62.7468 66.4633 62.6257C66.4203 62.5007 66.35 62.3953 66.2524 62.3093C66.1586 62.2234 66.0356 62.157 65.8832 62.1101C65.7309 62.0632 65.5434 62.0398 65.3207 62.0398C64.9692 62.0398 64.6215 62.0808 64.2778 62.1628C63.9379 62.241 63.6078 62.3523 63.2875 62.4968V61.3542C63.5727 61.241 63.9008 61.1472 64.2719 61.073C64.6469 60.9988 65.0356 60.9617 65.4379 60.9617C65.8793 60.9617 66.2582 61.0046 66.5746 61.0906C66.891 61.1726 67.1508 61.2976 67.3539 61.4656C67.561 61.6335 67.7133 61.8445 67.811 62.0984C67.9086 62.3484 67.9574 62.6414 67.9574 62.9773V67.0437H66.7328ZM66.5278 64.4128H65.6547C65.4125 64.4128 65.2074 64.4363 65.0395 64.4832C64.8715 64.53 64.7348 64.5945 64.6293 64.6765C64.5238 64.7585 64.4457 64.8542 64.3949 64.9636C64.3481 65.0691 64.3246 65.1824 64.3246 65.3035C64.3246 65.5457 64.4028 65.7312 64.559 65.8601C64.7153 65.9851 64.9281 66.0476 65.1977 66.0476C65.3969 66.0476 65.6039 65.9753 65.8188 65.8308C66.0336 65.6863 66.2699 65.4792 66.5278 65.2097V64.4128ZM74.5082 66.9851C74.2504 67.0437 73.9906 67.0906 73.7289 67.1257C73.4672 67.1609 73.2192 67.1785 72.9848 67.1785C72.5942 67.1785 72.2563 67.1375 71.9711 67.0554C71.6899 66.9734 71.4555 66.8484 71.268 66.6804C71.0844 66.5125 70.9477 66.2996 70.8578 66.0417C70.7719 65.78 70.7289 65.4695 70.7289 65.1101V62.2039H69.1293V61.0906H70.7289V59.5671L72.1938 59.1863V61.0906H74.5082V62.2039H72.1938V65.0046C72.1938 65.3445 72.2719 65.6023 72.4281 65.7781C72.5844 65.95 72.8461 66.0359 73.2133 66.0359C73.4477 66.0359 73.6762 66.0164 73.8988 65.9773C74.1215 65.9382 74.3246 65.8933 74.5082 65.8425V66.9851ZM81.3813 63.6101C81.3813 63.7078 81.3774 63.8347 81.3695 63.991C81.3656 64.1472 81.3578 64.2937 81.3461 64.4304H77.432C77.432 64.6921 77.4711 64.9226 77.5492 65.1218C77.6313 65.321 77.7445 65.489 77.8891 65.6257C78.0375 65.7585 78.2133 65.8601 78.4164 65.9304C78.6235 66.0007 78.852 66.0359 79.102 66.0359C79.391 66.0359 79.6996 66.0144 80.0278 65.9714C80.3598 65.9246 80.7035 65.8503 81.059 65.7488V66.8855C80.9067 66.9285 80.7406 66.9675 80.561 67.0027C80.3813 67.0378 80.1977 67.0691 80.0102 67.0964C79.8227 67.1238 79.6332 67.1433 79.4418 67.155C79.2504 67.1707 79.0649 67.1785 78.8852 67.1785C78.432 67.1785 78.0258 67.114 77.6664 66.9851C77.307 66.8562 77.0024 66.6667 76.7524 66.4167C76.5024 66.1628 76.311 65.8503 76.1781 65.4792C76.0453 65.1082 75.9789 64.6785 75.9789 64.1902C75.9789 63.7058 76.0453 63.2664 76.1781 62.8718C76.311 62.4734 76.4985 62.1335 76.7406 61.8523C76.9828 61.5671 77.2758 61.3484 77.6195 61.196C77.9672 61.0398 78.3539 60.9617 78.7797 60.9617C79.2016 60.9617 79.5746 61.0281 79.8988 61.1609C80.2231 61.2898 80.4945 61.4714 80.7133 61.7058C80.932 61.9402 81.0981 62.2195 81.2113 62.5437C81.3246 62.8679 81.3813 63.2234 81.3813 63.6101ZM79.9281 63.405C79.932 63.1707 79.9028 62.9675 79.8403 62.7957C79.7778 62.6199 79.6918 62.4753 79.5824 62.3621C79.477 62.2488 79.352 62.1648 79.2074 62.1101C79.0668 62.0554 78.9145 62.0281 78.7504 62.0281C78.391 62.0281 78.0961 62.1492 77.8656 62.3914C77.6352 62.6296 77.4985 62.9675 77.4555 63.405H79.9281ZM88.0668 64.2253C88.0668 64.7136 88.0004 65.1433 87.8676 65.5144C87.7387 65.8816 87.5512 66.1882 87.3051 66.4343C87.0629 66.6804 86.766 66.866 86.4145 66.991C86.0629 67.116 85.6684 67.1785 85.2309 67.1785C84.7387 67.1785 84.3168 67.116 83.9653 66.991C83.6137 66.866 83.3285 66.6863 83.1098 66.4519C82.891 66.2175 82.7328 65.9324 82.6352 65.5964C82.5375 65.2605 82.4887 64.8835 82.4887 64.4656V59.3855H83.9301V64.3777C83.9301 64.6355 83.9516 64.864 83.9945 65.0632C84.0414 65.2625 84.1195 65.4324 84.2289 65.573C84.3422 65.7097 84.4828 65.8132 84.6508 65.8835C84.8188 65.9539 85.0297 65.989 85.2836 65.989C85.5219 65.989 85.7231 65.9597 85.8871 65.9011C86.0512 65.8386 86.1879 65.741 86.2973 65.6082C86.4067 65.4714 86.4887 65.2976 86.5434 65.0867C86.5981 64.8757 86.6254 64.6199 86.6254 64.3191V59.3855H88.0668V64.2253ZM94.3012 65.2917C94.3012 65.6316 94.225 65.9226 94.0727 66.1648C93.9242 66.4031 93.725 66.5984 93.475 66.7507C93.2289 66.8992 92.9477 67.0066 92.6313 67.073C92.3188 67.1433 91.9985 67.1785 91.6703 67.1785C91.2328 67.1785 90.8383 67.157 90.4867 67.114C90.1352 67.075 89.8031 67.0164 89.4906 66.9382V65.6492C89.8578 65.8015 90.2231 65.9128 90.5863 65.9832C90.9535 66.0496 91.2992 66.0828 91.6235 66.0828C91.9985 66.0828 92.2778 66.0242 92.4613 65.907C92.6488 65.7859 92.7426 65.6296 92.7426 65.4382C92.7426 65.3484 92.7231 65.2664 92.684 65.1921C92.6449 65.1179 92.5707 65.0476 92.4613 64.9812C92.3559 64.9109 92.2055 64.8406 92.0102 64.7703C91.8149 64.696 91.559 64.614 91.2426 64.5242C90.9496 64.4421 90.6918 64.3503 90.4692 64.2488C90.2504 64.1433 90.0688 64.0203 89.9242 63.8796C89.7797 63.739 89.6703 63.5769 89.5961 63.3933C89.5258 63.2058 89.4906 62.9871 89.4906 62.7371C89.4906 62.4949 89.5453 62.2664 89.6547 62.0515C89.7641 61.8367 89.9262 61.6492 90.141 61.489C90.3598 61.325 90.6313 61.196 90.9555 61.1023C91.2797 61.0085 91.6586 60.9617 92.0922 60.9617C92.4672 60.9617 92.7992 60.9812 93.0883 61.0203C93.3774 61.0593 93.6332 61.1023 93.8559 61.1492V62.3152C93.516 62.2058 93.1957 62.1296 92.8949 62.0867C92.5981 62.0398 92.3031 62.0164 92.0102 62.0164C91.7172 62.0164 91.4809 62.0691 91.3012 62.1746C91.1254 62.28 91.0375 62.4265 91.0375 62.614C91.0375 62.7039 91.0551 62.7839 91.0903 62.8542C91.1254 62.9246 91.1938 62.9929 91.2953 63.0593C91.4008 63.1257 91.5453 63.196 91.7289 63.2703C91.9164 63.3406 92.1625 63.4187 92.4672 63.5046C92.811 63.6023 93.1 63.7078 93.3344 63.821C93.5688 63.9304 93.7563 64.0554 93.8969 64.196C94.0414 64.3367 94.1449 64.4968 94.2074 64.6765C94.2699 64.8562 94.3012 65.0613 94.3012 65.2917ZM101.174 63.6101C101.174 63.7078 101.17 63.8347 101.163 63.991C101.159 64.1472 101.151 64.2937 101.139 64.4304H97.225C97.225 64.6921 97.2641 64.9226 97.3422 65.1218C97.4242 65.321 97.5375 65.489 97.6821 65.6257C97.8305 65.7585 98.0063 65.8601 98.2094 65.9304C98.4164 66.0007 98.6449 66.0359 98.8949 66.0359C99.184 66.0359 99.4926 66.0144 99.8207 65.9714C100.153 65.9246 100.497 65.8503 100.852 65.7488V66.8855C100.7 66.9285 100.534 66.9675 100.354 67.0027C100.174 67.0378 99.9906 67.0691 99.8031 67.0964C99.6156 67.1238 99.4262 67.1433 99.2348 67.155C99.0434 67.1707 98.8578 67.1785 98.6781 67.1785C98.225 67.1785 97.8188 67.114 97.4594 66.9851C97.1 66.8562 96.7953 66.6667 96.5453 66.4167C96.2953 66.1628 96.1039 65.8503 95.9711 65.4792C95.8383 65.1082 95.7719 64.6785 95.7719 64.1902C95.7719 63.7058 95.8383 63.2664 95.9711 62.8718C96.1039 62.4734 96.2914 62.1335 96.5336 61.8523C96.7758 61.5671 97.0688 61.3484 97.4125 61.196C97.7602 61.0398 98.1469 60.9617 98.5727 60.9617C98.9946 60.9617 99.3676 61.0281 99.6918 61.1609C100.016 61.2898 100.288 61.4714 100.506 61.7058C100.725 61.9402 100.891 62.2195 101.004 62.5437C101.118 62.8679 101.174 63.2234 101.174 63.6101ZM99.7211 63.405C99.725 63.1707 99.6957 62.9675 99.6332 62.7957C99.5707 62.6199 99.4848 62.4753 99.3754 62.3621C99.2699 62.2488 99.1449 62.1648 99.0004 62.1101C98.8598 62.0554 98.7074 62.0281 98.5434 62.0281C98.184 62.0281 97.8891 62.1492 97.6586 62.3914C97.4281 62.6296 97.2914 62.9675 97.2485 63.405H99.7211ZM106.418 63.405C106.426 63.1824 106.414 62.9929 106.383 62.8367C106.356 62.6804 106.309 62.5515 106.243 62.45C106.18 62.3484 106.102 62.2742 106.008 62.2273C105.914 62.1804 105.807 62.157 105.686 62.157C105.475 62.157 105.256 62.2449 105.03 62.4207C104.807 62.5925 104.561 62.8777 104.291 63.2761V67.0437H102.827V61.0906H104.122L104.174 61.9578C104.272 61.8054 104.381 61.6687 104.502 61.5476C104.627 61.4265 104.764 61.323 104.913 61.2371C105.065 61.1472 105.233 61.0789 105.416 61.032C105.6 60.9851 105.801 60.9617 106.02 60.9617C106.321 60.9617 106.586 61.0144 106.817 61.1199C107.051 61.2214 107.247 61.3738 107.403 61.5769C107.563 61.78 107.68 62.0359 107.754 62.3445C107.832 62.6492 107.866 63.0027 107.854 63.405H106.418ZM58.3774 78.2253C58.3774 78.7136 58.311 79.1433 58.1781 79.5144C58.0492 79.8816 57.8617 80.1882 57.6156 80.4343C57.3735 80.6804 57.0766 80.866 56.725 80.991C56.3735 81.116 55.9789 81.1785 55.5414 81.1785C55.0492 81.1785 54.6274 81.116 54.2758 80.991C53.9242 80.866 53.6391 80.6863 53.4203 80.4519C53.2016 80.2175 53.0434 79.9324 52.9457 79.5964C52.8481 79.2605 52.7992 78.8835 52.7992 78.4656V73.3855H54.2406V78.3777C54.2406 78.6355 54.2621 78.864 54.3051 79.0632C54.352 79.2625 54.4301 79.4324 54.5395 79.573C54.6528 79.7097 54.7934 79.8132 54.9613 79.8835C55.1293 79.9539 55.3403 79.989 55.5942 79.989C55.8324 79.989 56.0336 79.9597 56.1977 79.9011C56.3617 79.8386 56.4985 79.741 56.6078 79.6082C56.7172 79.4714 56.7992 79.2976 56.8539 79.0867C56.9086 78.8757 56.936 78.6199 56.936 78.3191V73.3855H58.3774V78.2253ZM64.6117 79.2917C64.6117 79.6316 64.5356 79.9226 64.3832 80.1648C64.2348 80.4031 64.0356 80.5984 63.7856 80.7507C63.5395 80.8992 63.2582 81.0066 62.9418 81.073C62.6293 81.1433 62.309 81.1785 61.9809 81.1785C61.5434 81.1785 61.1488 81.157 60.7973 81.114C60.4457 81.075 60.1137 81.0164 59.8012 80.9382V79.6492C60.1684 79.8015 60.5336 79.9128 60.8969 79.9832C61.2641 80.0496 61.6098 80.0828 61.934 80.0828C62.309 80.0828 62.5883 80.0242 62.7719 79.907C62.9594 79.7859 63.0531 79.6296 63.0531 79.4382C63.0531 79.3484 63.0336 79.2664 62.9945 79.1921C62.9555 79.1179 62.8813 79.0476 62.7719 78.9812C62.6664 78.9109 62.516 78.8406 62.3207 78.7703C62.1254 78.696 61.8695 78.614 61.5531 78.5242C61.2602 78.4421 61.0024 78.3503 60.7797 78.2488C60.561 78.1433 60.3793 78.0203 60.2348 77.8796C60.0903 77.739 59.9809 77.5769 59.9067 77.3933C59.8363 77.2058 59.8012 76.9871 59.8012 76.7371C59.8012 76.4949 59.8559 76.2664 59.9653 76.0515C60.0746 75.8367 60.2367 75.6492 60.4516 75.489C60.6703 75.325 60.9418 75.196 61.266 75.1023C61.5903 75.0085 61.9692 74.9617 62.4028 74.9617C62.7778 74.9617 63.1098 74.9812 63.3988 75.0203C63.6879 75.0593 63.9438 75.1023 64.1664 75.1492V76.3152C63.8266 76.2058 63.5063 76.1296 63.2055 76.0867C62.9086 76.0398 62.6137 76.0164 62.3207 76.0164C62.0278 76.0164 61.7914 76.0691 61.6117 76.1746C61.436 76.28 61.3481 76.4265 61.3481 76.614C61.3481 76.7039 61.3656 76.7839 61.4008 76.8542C61.436 76.9246 61.5043 76.9929 61.6059 77.0593C61.7113 77.1257 61.8559 77.196 62.0395 77.2703C62.227 77.3406 62.4731 77.4187 62.7778 77.5046C63.1215 77.6023 63.4106 77.7078 63.6449 77.821C63.8793 77.9304 64.0668 78.0554 64.2074 78.196C64.352 78.3367 64.4555 78.4968 64.518 78.6765C64.5805 78.8562 64.6117 79.0613 64.6117 79.2917ZM71.4848 77.6101C71.4848 77.7078 71.4809 77.8347 71.4731 77.991C71.4692 78.1472 71.4613 78.2937 71.4496 78.4304H67.5356C67.5356 78.6921 67.5746 78.9226 67.6528 79.1218C67.7348 79.321 67.8481 79.489 67.9926 79.6257C68.141 79.7585 68.3168 79.8601 68.5199 79.9304C68.727 80.0007 68.9555 80.0359 69.2055 80.0359C69.4945 80.0359 69.8031 80.0144 70.1313 79.9714C70.4633 79.9246 70.807 79.8503 71.1625 79.7488V80.8855C71.0102 80.9285 70.8442 80.9675 70.6645 81.0027C70.4848 81.0378 70.3012 81.0691 70.1137 81.0964C69.9262 81.1238 69.7367 81.1433 69.5453 81.155C69.3539 81.1707 69.1684 81.1785 68.9887 81.1785C68.5356 81.1785 68.1293 81.114 67.7699 80.9851C67.4106 80.8562 67.1059 80.6667 66.8559 80.4167C66.6059 80.1628 66.4145 79.8503 66.2817 79.4792C66.1488 79.1082 66.0824 78.6785 66.0824 78.1902C66.0824 77.7058 66.1488 77.2664 66.2817 76.8718C66.4145 76.4734 66.602 76.1335 66.8442 75.8523C67.0863 75.5671 67.3793 75.3484 67.7231 75.196C68.0707 75.0398 68.4574 74.9617 68.8832 74.9617C69.3051 74.9617 69.6781 75.0281 70.0024 75.1609C70.3266 75.2898 70.5981 75.4714 70.8168 75.7058C71.0356 75.9402 71.2016 76.2195 71.3149 76.5437C71.4281 76.8679 71.4848 77.2234 71.4848 77.6101ZM70.0317 77.405C70.0356 77.1707 70.0063 76.9675 69.9438 76.7957C69.8813 76.6199 69.7953 76.4753 69.686 76.3621C69.5805 76.2488 69.4555 76.1648 69.311 76.1101C69.1703 76.0554 69.018 76.0281 68.8539 76.0281C68.4945 76.0281 68.1996 76.1492 67.9692 76.3914C67.7387 76.6296 67.602 76.9675 67.559 77.405H70.0317ZM77.9653 80.7449C77.6254 80.8816 77.2953 80.9832 76.975 81.0496C76.6586 81.116 76.3285 81.1492 75.9848 81.1492C75.434 81.1492 74.9457 81.0691 74.5199 80.9089C74.0981 80.7449 73.7406 80.5027 73.4477 80.1824C73.1586 79.8621 72.9379 79.4656 72.7856 78.9929C72.6371 78.5164 72.5629 77.9636 72.5629 77.3347C72.5629 76.6902 72.6449 76.1179 72.809 75.6179C72.9731 75.114 73.2074 74.6902 73.5121 74.3464C73.8168 73.9988 74.186 73.7351 74.6195 73.5554C75.057 73.3718 75.5473 73.28 76.0903 73.28C76.266 73.28 76.4301 73.2839 76.5824 73.2917C76.7387 73.2996 76.891 73.3152 77.0395 73.3386C77.1879 73.3582 77.3383 73.3855 77.4906 73.4207C77.643 73.4558 77.8012 73.5007 77.9653 73.5554V74.9851C77.6332 74.8289 77.3168 74.7175 77.016 74.6511C76.7153 74.5847 76.4418 74.5515 76.1957 74.5515C75.8324 74.5515 75.5219 74.6179 75.2641 74.7507C75.0063 74.8796 74.7934 75.0632 74.6254 75.3015C74.4613 75.5359 74.3403 75.8171 74.2621 76.1453C74.184 76.4695 74.1449 76.8269 74.1449 77.2175C74.1449 77.6316 74.184 78.0027 74.2621 78.3308C74.3442 78.655 74.4692 78.9304 74.6371 79.157C74.8051 79.3835 75.0199 79.5574 75.2817 79.6785C75.5434 79.7957 75.8539 79.8542 76.2133 79.8542C76.3422 79.8542 76.4809 79.8425 76.6293 79.8191C76.7817 79.7917 76.934 79.7585 77.0863 79.7195C77.2426 79.6765 77.3949 79.6277 77.5434 79.573C77.6957 79.5144 77.8363 79.4558 77.9653 79.3972V80.7449ZM83.227 81.0437L83.1918 80.2644C83.0668 80.3972 82.936 80.5203 82.7992 80.6335C82.6625 80.7429 82.5121 80.8386 82.3481 80.9207C82.184 81.0027 82.0043 81.0652 81.809 81.1082C81.6176 81.155 81.4067 81.1785 81.1762 81.1785C80.8715 81.1785 80.6039 81.1335 80.3735 81.0437C80.143 80.9539 79.9496 80.8289 79.7934 80.6687C79.6371 80.5085 79.518 80.3152 79.436 80.0886C79.3578 79.8621 79.3188 79.6121 79.3188 79.3386C79.3188 79.0574 79.3774 78.7976 79.4945 78.5593C79.6156 78.321 79.7973 78.116 80.0395 77.9441C80.2856 77.7722 80.5903 77.6375 80.9535 77.5398C81.3207 77.4421 81.7504 77.3933 82.2426 77.3933H83.0219V77.0359C83.0219 76.8835 83.0004 76.7468 82.9574 76.6257C82.9145 76.5007 82.8442 76.3953 82.7465 76.3093C82.6528 76.2234 82.5297 76.157 82.3774 76.1101C82.225 76.0632 82.0375 76.0398 81.8149 76.0398C81.4633 76.0398 81.1156 76.0808 80.7719 76.1628C80.432 76.241 80.102 76.3523 79.7817 76.4968V75.3542C80.0668 75.241 80.3949 75.1472 80.766 75.073C81.141 74.9988 81.5297 74.9617 81.932 74.9617C82.3735 74.9617 82.7524 75.0046 83.0688 75.0906C83.3852 75.1726 83.6449 75.2976 83.8481 75.4656C84.0551 75.6335 84.2074 75.8445 84.3051 76.0984C84.4028 76.3484 84.4516 76.6414 84.4516 76.9773V81.0437H83.227ZM83.0219 78.4128H82.1488C81.9067 78.4128 81.7016 78.4363 81.5336 78.4832C81.3656 78.53 81.2289 78.5945 81.1235 78.6765C81.018 78.7585 80.9399 78.8542 80.8891 78.9636C80.8422 79.0691 80.8188 79.1824 80.8188 79.3035C80.8188 79.5457 80.8969 79.7312 81.0531 79.8601C81.2094 79.9851 81.4223 80.0476 81.6918 80.0476C81.891 80.0476 82.0981 79.9753 82.3129 79.8308C82.5278 79.6863 82.7641 79.4792 83.0219 79.2097V78.4128ZM91.0024 79.2917C91.0024 79.6316 90.9262 79.9226 90.7738 80.1648C90.6254 80.4031 90.4262 80.5984 90.1762 80.7507C89.9301 80.8992 89.6488 81.0066 89.3324 81.073C89.0199 81.1433 88.6996 81.1785 88.3715 81.1785C87.934 81.1785 87.5395 81.157 87.1879 81.114C86.8363 81.075 86.5043 81.0164 86.1918 80.9382V79.6492C86.559 79.8015 86.9242 79.9128 87.2875 79.9832C87.6547 80.0496 88.0004 80.0828 88.3246 80.0828C88.6996 80.0828 88.9789 80.0242 89.1625 79.907C89.35 79.7859 89.4438 79.6296 89.4438 79.4382C89.4438 79.3484 89.4242 79.2664 89.3852 79.1921C89.3461 79.1179 89.2719 79.0476 89.1625 78.9812C89.057 78.9109 88.9067 78.8406 88.7113 78.7703C88.516 78.696 88.2602 78.614 87.9438 78.5242C87.6508 78.4421 87.393 78.3503 87.1703 78.2488C86.9516 78.1433 86.7699 78.0203 86.6254 77.8796C86.4809 77.739 86.3715 77.5769 86.2973 77.3933C86.227 77.2058 86.1918 76.9871 86.1918 76.7371C86.1918 76.4949 86.2465 76.2664 86.3559 76.0515C86.4653 75.8367 86.6274 75.6492 86.8422 75.489C87.061 75.325 87.3324 75.196 87.6567 75.1023C87.9809 75.0085 88.3598 74.9617 88.7934 74.9617C89.1684 74.9617 89.5004 74.9812 89.7895 75.0203C90.0785 75.0593 90.3344 75.1023 90.557 75.1492V76.3152C90.2172 76.2058 89.8969 76.1296 89.5961 76.0867C89.2992 76.0398 89.0043 76.0164 88.7113 76.0164C88.4184 76.0164 88.182 76.0691 88.0024 76.1746C87.8266 76.28 87.7387 76.4265 87.7387 76.614C87.7387 76.7039 87.7563 76.7839 87.7914 76.8542C87.8266 76.9246 87.8949 76.9929 87.9965 77.0593C88.102 77.1257 88.2465 77.196 88.4301 77.2703C88.6176 77.3406 88.8637 77.4187 89.1684 77.5046C89.5121 77.6023 89.8012 77.7078 90.0356 77.821C90.2699 77.9304 90.4574 78.0554 90.5981 78.196C90.7426 78.3367 90.8461 78.4968 90.9086 78.6765C90.9711 78.8562 91.0024 79.0613 91.0024 79.2917ZM97.8754 77.6101C97.8754 77.7078 97.8715 77.8347 97.8637 77.991C97.8598 78.1472 97.852 78.2937 97.8403 78.4304H93.9262C93.9262 78.6921 93.9653 78.9226 94.0434 79.1218C94.1254 79.321 94.2387 79.489 94.3832 79.6257C94.5317 79.7585 94.7074 79.8601 94.9106 79.9304C95.1176 80.0007 95.3461 80.0359 95.5961 80.0359C95.8852 80.0359 96.1938 80.0144 96.5219 79.9714C96.8539 79.9246 97.1977 79.8503 97.5531 79.7488V80.8855C97.4008 80.9285 97.2348 80.9675 97.0551 81.0027C96.8754 81.0378 96.6918 81.0691 96.5043 81.0964C96.3168 81.1238 96.1274 81.1433 95.936 81.155C95.7446 81.1707 95.559 81.1785 95.3793 81.1785C94.9262 81.1785 94.5199 81.114 94.1606 80.9851C93.8012 80.8562 93.4965 80.6667 93.2465 80.4167C92.9965 80.1628 92.8051 79.8503 92.6723 79.4792C92.5395 79.1082 92.4731 78.6785 92.4731 78.1902C92.4731 77.7058 92.5395 77.2664 92.6723 76.8718C92.8051 76.4734 92.9926 76.1335 93.2348 75.8523C93.477 75.5671 93.7699 75.3484 94.1137 75.196C94.4613 75.0398 94.8481 74.9617 95.2738 74.9617C95.6957 74.9617 96.0688 75.0281 96.393 75.1609C96.7172 75.2898 96.9887 75.4714 97.2074 75.7058C97.4262 75.9402 97.5922 76.2195 97.7055 76.5437C97.8188 76.8679 97.8754 77.2234 97.8754 77.6101ZM96.4223 77.405C96.4262 77.1707 96.3969 76.9675 96.3344 76.7957C96.2719 76.6199 96.186 76.4753 96.0766 76.3621C95.9711 76.2488 95.8461 76.1648 95.7016 76.1101C95.561 76.0554 95.4086 76.0281 95.2446 76.0281C94.8852 76.0281 94.5903 76.1492 94.3598 76.3914C94.1293 76.6296 93.9926 76.9675 93.9496 77.405H96.4223Z" fill="black"/>
<path d="M212.061 71.932C212.646 71.3462 212.646 70.3965 212.061 69.8107L202.515 60.2647C201.929 59.6789 200.979 59.6789 200.393 60.2647C199.808 60.8505 199.808 61.8003 200.393 62.3861L208.879 70.8713L200.393 79.3566C199.808 79.9424 199.808 80.8922 200.393 81.4779C200.979 82.0637 201.929 82.0637 202.515 81.4779L212.061 71.932ZM150 72.3713H211V69.3713H150V72.3713Z" fill="black"/>
<rect x="479.5" y="50.3713" width="115" height="37" rx="2.5" fill="#7DE77B" stroke="black" stroke-width="3"/>
<path d="M517 70.3862C517 70.8745 516.933 71.3042 516.8 71.6753C516.672 72.0425 516.484 72.3491 516.238 72.5952C515.996 72.8413 515.699 73.0269 515.347 73.1519C514.996 73.2769 514.601 73.3394 514.164 73.3394C513.672 73.3394 513.25 73.2769 512.898 73.1519C512.547 73.0269 512.261 72.8472 512.043 72.6128C511.824 72.3784 511.666 72.0933 511.568 71.7573C511.47 71.4214 511.422 71.0444 511.422 70.6265V65.5464H512.863V70.5386C512.863 70.7964 512.884 71.0249 512.927 71.2241C512.974 71.4233 513.052 71.5933 513.162 71.7339C513.275 71.8706 513.416 71.9741 513.584 72.0444C513.752 72.1147 513.963 72.1499 514.216 72.1499C514.455 72.1499 514.656 72.1206 514.82 72.062C514.984 71.9995 515.121 71.9019 515.23 71.769C515.339 71.6323 515.422 71.4585 515.476 71.2476C515.531 71.0366 515.558 70.7808 515.558 70.48V65.5464H517V70.3862ZM523.234 71.4526C523.234 71.7925 523.158 72.0835 523.006 72.3257C522.857 72.564 522.658 72.7593 522.408 72.9116C522.162 73.0601 521.881 73.1675 521.564 73.2339C521.252 73.3042 520.931 73.3394 520.603 73.3394C520.166 73.3394 519.771 73.3179 519.42 73.2749C519.068 73.2358 518.736 73.1772 518.423 73.0991V71.8101C518.791 71.9624 519.156 72.0737 519.519 72.144C519.886 72.2104 520.232 72.2437 520.556 72.2437C520.931 72.2437 521.211 72.1851 521.394 72.0679C521.582 71.9468 521.675 71.7905 521.675 71.5991C521.675 71.5093 521.656 71.4272 521.617 71.353C521.578 71.2788 521.504 71.2085 521.394 71.1421C521.289 71.0718 521.138 71.0015 520.943 70.9312C520.748 70.8569 520.492 70.7749 520.175 70.6851C519.882 70.603 519.625 70.5112 519.402 70.4097C519.183 70.3042 519.002 70.1812 518.857 70.0405C518.713 69.8999 518.603 69.7378 518.529 69.5542C518.459 69.3667 518.423 69.1479 518.423 68.8979C518.423 68.6558 518.478 68.4272 518.588 68.2124C518.697 67.9976 518.859 67.8101 519.074 67.6499C519.293 67.4858 519.564 67.3569 519.888 67.2632C520.213 67.1694 520.591 67.1226 521.025 67.1226C521.4 67.1226 521.732 67.1421 522.021 67.1812C522.31 67.2202 522.566 67.2632 522.789 67.3101V68.4761C522.449 68.3667 522.129 68.2905 521.828 68.2476C521.531 68.2007 521.236 68.1772 520.943 68.1772C520.65 68.1772 520.414 68.23 520.234 68.3354C520.058 68.4409 519.97 68.5874 519.97 68.7749C519.97 68.8647 519.988 68.9448 520.023 69.0151C520.058 69.0854 520.127 69.1538 520.228 69.2202C520.334 69.2866 520.478 69.3569 520.662 69.4312C520.849 69.5015 521.095 69.5796 521.4 69.6655C521.744 69.7632 522.033 69.8687 522.267 69.9819C522.502 70.0913 522.689 70.2163 522.83 70.3569C522.974 70.4976 523.078 70.6577 523.14 70.8374C523.203 71.0171 523.234 71.2222 523.234 71.4526ZM530.107 69.771C530.107 69.8687 530.103 69.9956 530.095 70.1519C530.091 70.3081 530.084 70.4546 530.072 70.5913H526.158C526.158 70.853 526.197 71.0835 526.275 71.2827C526.357 71.4819 526.47 71.6499 526.615 71.7866C526.763 71.9194 526.939 72.021 527.142 72.0913C527.349 72.1616 527.578 72.1968 527.828 72.1968C528.117 72.1968 528.425 72.1753 528.754 72.1323C529.086 72.0854 529.429 72.0112 529.785 71.9097V73.0464C529.632 73.0894 529.466 73.1284 529.287 73.1636C529.107 73.1987 528.923 73.23 528.736 73.2573C528.548 73.2847 528.359 73.3042 528.168 73.3159C527.976 73.3315 527.791 73.3394 527.611 73.3394C527.158 73.3394 526.752 73.2749 526.392 73.146C526.033 73.0171 525.728 72.8276 525.478 72.5776C525.228 72.3237 525.037 72.0112 524.904 71.6401C524.771 71.269 524.705 70.8394 524.705 70.3511C524.705 69.8667 524.771 69.4272 524.904 69.0327C525.037 68.6343 525.224 68.2944 525.466 68.0132C525.709 67.728 526.002 67.5093 526.345 67.3569C526.693 67.2007 527.08 67.1226 527.506 67.1226C527.927 67.1226 528.3 67.189 528.625 67.3218C528.949 67.4507 529.22 67.6323 529.439 67.8667C529.658 68.1011 529.824 68.3804 529.937 68.7046C530.05 69.0288 530.107 69.3843 530.107 69.771ZM528.654 69.5659C528.658 69.3315 528.629 69.1284 528.566 68.9565C528.504 68.7808 528.418 68.6362 528.308 68.5229C528.203 68.4097 528.078 68.3257 527.933 68.271C527.793 68.2163 527.64 68.189 527.476 68.189C527.117 68.189 526.822 68.3101 526.591 68.5522C526.361 68.7905 526.224 69.1284 526.181 69.5659H528.654ZM535.351 69.5659C535.359 69.3433 535.347 69.1538 535.316 68.9976C535.289 68.8413 535.242 68.7124 535.175 68.6108C535.113 68.5093 535.035 68.4351 534.941 68.3882C534.847 68.3413 534.74 68.3179 534.619 68.3179C534.408 68.3179 534.189 68.4058 533.963 68.5815C533.74 68.7534 533.494 69.0386 533.224 69.437V73.2046H531.759V67.2515H533.054L533.107 68.1187C533.205 67.9663 533.314 67.8296 533.435 67.7085C533.56 67.5874 533.697 67.4839 533.845 67.3979C533.998 67.3081 534.166 67.2397 534.349 67.1929C534.533 67.146 534.734 67.1226 534.953 67.1226C535.254 67.1226 535.519 67.1753 535.75 67.2808C535.984 67.3823 536.179 67.5347 536.336 67.7378C536.496 67.9409 536.613 68.1968 536.687 68.5054C536.765 68.8101 536.798 69.1636 536.787 69.5659H535.351ZM541.92 73.2046L540.841 70.7437C540.74 70.5093 540.597 70.3335 540.414 70.2163C540.234 70.0952 540.021 70.0347 539.775 70.0347H539.5V73.2046H538.058V65.5464H540.291C540.713 65.5464 541.095 65.5835 541.439 65.6577C541.783 65.728 542.076 65.8472 542.318 66.0151C542.56 66.1831 542.746 66.4019 542.875 66.6714C543.007 66.9409 543.074 67.271 543.074 67.6616C543.074 67.9429 543.033 68.1929 542.951 68.4116C542.869 68.6304 542.754 68.8198 542.605 68.98C542.457 69.1362 542.279 69.2632 542.072 69.3608C541.869 69.4585 541.646 69.5269 541.404 69.5659C541.591 69.605 541.763 69.7124 541.92 69.8882C542.076 70.0601 542.232 70.3101 542.388 70.6382L543.613 73.2046H541.92ZM541.562 67.8022C541.562 67.4272 541.443 67.1577 541.205 66.9937C540.966 66.8296 540.609 66.7476 540.132 66.7476H539.5V68.9097H540.086C540.308 68.9097 540.509 68.8862 540.689 68.8394C540.873 68.7925 541.029 68.7222 541.158 68.6284C541.287 68.5347 541.386 68.4194 541.457 68.2827C541.527 68.1421 541.562 67.9819 541.562 67.8022ZM549.9 69.771C549.9 69.8687 549.896 69.9956 549.888 70.1519C549.884 70.3081 549.877 70.4546 549.865 70.5913H545.951C545.951 70.853 545.99 71.0835 546.068 71.2827C546.15 71.4819 546.263 71.6499 546.408 71.7866C546.556 71.9194 546.732 72.021 546.935 72.0913C547.142 72.1616 547.371 72.1968 547.621 72.1968C547.91 72.1968 548.218 72.1753 548.547 72.1323C548.879 72.0854 549.222 72.0112 549.578 71.9097V73.0464C549.425 73.0894 549.259 73.1284 549.08 73.1636C548.9 73.1987 548.716 73.23 548.529 73.2573C548.341 73.2847 548.152 73.3042 547.961 73.3159C547.769 73.3315 547.584 73.3394 547.404 73.3394C546.951 73.3394 546.545 73.2749 546.185 73.146C545.826 73.0171 545.521 72.8276 545.271 72.5776C545.021 72.3237 544.83 72.0112 544.697 71.6401C544.564 71.269 544.498 70.8394 544.498 70.3511C544.498 69.8667 544.564 69.4272 544.697 69.0327C544.83 68.6343 545.017 68.2944 545.259 68.0132C545.502 67.728 545.795 67.5093 546.138 67.3569C546.486 67.2007 546.873 67.1226 547.298 67.1226C547.72 67.1226 548.093 67.189 548.418 67.3218C548.742 67.4507 549.013 67.6323 549.232 67.8667C549.451 68.1011 549.617 68.3804 549.73 68.7046C549.843 69.0288 549.9 69.3843 549.9 69.771ZM548.447 69.5659C548.451 69.3315 548.422 69.1284 548.359 68.9565C548.297 68.7808 548.211 68.6362 548.101 68.5229C547.996 68.4097 547.871 68.3257 547.726 68.271C547.586 68.2163 547.433 68.189 547.269 68.189C546.91 68.189 546.615 68.3101 546.384 68.5522C546.154 68.7905 546.017 69.1284 545.974 69.5659H548.447ZM556.668 70.1226C556.668 70.6694 556.589 71.1421 556.433 71.5405C556.281 71.939 556.066 72.271 555.789 72.5366C555.515 72.7983 555.191 72.9937 554.816 73.1226C554.441 73.2476 554.033 73.3101 553.591 73.3101C553.443 73.3101 553.295 73.3003 553.146 73.2808C552.998 73.2612 552.863 73.2358 552.742 73.2046V75.5308H551.312V67.2515H552.548L552.584 68.1304C552.705 67.978 552.83 67.8394 552.959 67.7144C553.091 67.5894 553.234 67.4839 553.386 67.3979C553.539 67.3081 553.703 67.2397 553.879 67.1929C554.054 67.146 554.252 67.1226 554.47 67.1226C554.822 67.1226 555.134 67.1929 555.408 67.3335C555.681 67.4741 555.91 67.6753 556.093 67.937C556.281 68.1948 556.423 68.5093 556.521 68.8804C556.619 69.2476 556.668 69.6616 556.668 70.1226ZM555.168 70.1812C555.168 69.853 555.144 69.5737 555.097 69.3433C555.05 69.1128 554.982 68.9233 554.892 68.7749C554.806 68.6265 554.699 68.519 554.57 68.4526C554.445 68.3823 554.3 68.3472 554.136 68.3472C553.894 68.3472 553.662 68.4448 553.439 68.6401C553.22 68.8354 552.988 69.1011 552.742 69.437V72.0386C552.855 72.0815 552.994 72.1167 553.158 72.144C553.326 72.1714 553.496 72.1851 553.668 72.1851C553.894 72.1851 554.099 72.1382 554.283 72.0444C554.47 71.9507 554.629 71.8179 554.757 71.646C554.89 71.4741 554.992 71.2651 555.062 71.019C555.132 70.769 555.168 70.4897 555.168 70.1812ZM563.271 70.1812C563.271 70.6499 563.205 71.0796 563.072 71.4702C562.939 71.8569 562.748 72.189 562.498 72.4663C562.248 72.7437 561.941 72.9585 561.578 73.1108C561.214 73.2632 560.8 73.3394 560.336 73.3394C559.894 73.3394 559.5 73.2749 559.152 73.146C558.804 73.0171 558.509 72.8257 558.267 72.5718C558.025 72.314 557.839 71.9937 557.711 71.6108C557.582 71.2241 557.517 70.7749 557.517 70.2632C557.517 69.7905 557.584 69.3608 557.716 68.9741C557.853 68.5874 558.047 68.2573 558.297 67.9839C558.55 67.7104 558.859 67.4995 559.222 67.3511C559.586 67.1987 559.996 67.1226 560.453 67.1226C560.898 67.1226 561.295 67.189 561.642 67.3218C561.99 67.4507 562.285 67.644 562.527 67.9019C562.769 68.1597 562.953 68.48 563.078 68.8628C563.207 69.2417 563.271 69.6812 563.271 70.1812ZM561.783 70.2163C561.783 69.5991 561.666 69.1362 561.431 68.8276C561.201 68.5151 560.859 68.3589 560.406 68.3589C560.156 68.3589 559.943 68.4077 559.767 68.5054C559.591 68.603 559.447 68.7378 559.334 68.9097C559.22 69.0776 559.136 69.2749 559.082 69.5015C559.031 69.728 559.006 69.9702 559.006 70.228C559.006 70.8491 559.131 71.3179 559.381 71.6343C559.631 71.9468 559.972 72.103 560.406 72.103C560.644 72.103 560.851 72.0562 561.027 71.9624C561.203 71.8647 561.345 71.7319 561.455 71.564C561.564 71.3921 561.646 71.1909 561.701 70.9604C561.756 70.73 561.783 70.4819 561.783 70.2163Z" fill="black"/>
</svg>
