<svg width="355" height="41" viewBox="0 0 355 41" fill="none" xmlns="http://www.w3.org/2000/svg">
<rect x="1.5" y="2.37134" width="147" height="37" rx="2.5" fill="#7DE77B" stroke="black" stroke-width="3"/>
<path d="M35.2856 22.2254C35.2856 22.7137 35.2192 23.1434 35.0863 23.5145C34.9574 23.8817 34.7699 24.1883 34.5238 24.4344C34.2817 24.6805 33.9848 24.866 33.6332 24.991C33.2817 25.116 32.8871 25.1785 32.4496 25.1785C31.9574 25.1785 31.5356 25.116 31.184 24.991C30.8324 24.866 30.5473 24.6863 30.3285 24.452C30.1098 24.2176 29.9516 23.9324 29.8539 23.5965C29.7563 23.2606 29.7074 22.8836 29.7074 22.4656V17.3856H31.1488V22.3777C31.1488 22.6356 31.1703 22.8641 31.2133 23.0633C31.2602 23.2625 31.3383 23.4324 31.4477 23.5731C31.561 23.7098 31.7016 23.8133 31.8695 23.8836C32.0375 23.9539 32.2485 23.9891 32.5024 23.9891C32.7406 23.9891 32.9418 23.9598 33.1059 23.9012C33.2699 23.8387 33.4067 23.741 33.516 23.6082C33.6254 23.4715 33.7074 23.2977 33.7621 23.0867C33.8168 22.8758 33.8442 22.6199 33.8442 22.3192V17.3856H35.2856V22.2254ZM41.5199 23.2918C41.5199 23.6317 41.4438 23.9227 41.2914 24.1649C41.143 24.4031 40.9438 24.5984 40.6938 24.7508C40.4477 24.8992 40.1664 25.0067 39.85 25.0731C39.5375 25.1434 39.2172 25.1785 38.8891 25.1785C38.4516 25.1785 38.057 25.157 37.7055 25.1141C37.3539 25.075 37.0219 25.0164 36.7094 24.9383V23.6492C37.0766 23.8016 37.4418 23.9129 37.8051 23.9832C38.1723 24.0496 38.518 24.0828 38.8422 24.0828C39.2172 24.0828 39.4965 24.0242 39.6801 23.907C39.8676 23.7859 39.9613 23.6297 39.9613 23.4383C39.9613 23.3484 39.9418 23.2664 39.9028 23.1922C39.8637 23.118 39.7895 23.0477 39.6801 22.9813C39.5746 22.9109 39.4242 22.8406 39.2289 22.7703C39.0336 22.6961 38.7778 22.6141 38.4613 22.5242C38.1684 22.4422 37.9106 22.3504 37.6879 22.2488C37.4692 22.1434 37.2875 22.0203 37.143 21.8797C36.9985 21.7391 36.8891 21.577 36.8149 21.3934C36.7445 21.2059 36.7094 20.9871 36.7094 20.7371C36.7094 20.4949 36.7641 20.2664 36.8735 20.0516C36.9828 19.8367 37.1449 19.6492 37.3598 19.4891C37.5785 19.325 37.85 19.1961 38.1742 19.1024C38.4985 19.0086 38.8774 18.9617 39.311 18.9617C39.686 18.9617 40.018 18.9813 40.307 19.0203C40.5961 19.0594 40.852 19.1024 41.0746 19.1492V20.3152C40.7348 20.2059 40.4145 20.1297 40.1137 20.0867C39.8168 20.0399 39.5219 20.0164 39.2289 20.0164C38.936 20.0164 38.6996 20.0692 38.5199 20.1746C38.3442 20.2801 38.2563 20.4266 38.2563 20.6141C38.2563 20.7039 38.2738 20.784 38.309 20.8543C38.3442 20.9246 38.4125 20.993 38.5141 21.0594C38.6195 21.1258 38.7641 21.1961 38.9477 21.2703C39.1352 21.3406 39.3813 21.4188 39.686 21.5047C40.0297 21.6024 40.3188 21.7078 40.5531 21.8211C40.7875 21.9305 40.975 22.0555 41.1156 22.1961C41.2602 22.3367 41.3637 22.4969 41.4262 22.6766C41.4887 22.8563 41.5199 23.0613 41.5199 23.2918ZM48.393 21.6102C48.393 21.7078 48.3891 21.8348 48.3813 21.991C48.3774 22.1473 48.3695 22.2938 48.3578 22.4305H44.4438C44.4438 22.6922 44.4828 22.9227 44.561 23.1219C44.643 23.3211 44.7563 23.4891 44.9008 23.6258C45.0492 23.7586 45.225 23.8602 45.4281 23.9305C45.6352 24.0008 45.8637 24.0359 46.1137 24.0359C46.4028 24.0359 46.7113 24.0145 47.0395 23.9715C47.3715 23.9246 47.7153 23.8504 48.0707 23.7488V24.8856C47.9184 24.9285 47.7524 24.9676 47.5727 25.0027C47.393 25.0379 47.2094 25.0692 47.0219 25.0965C46.8344 25.1238 46.6449 25.1434 46.4535 25.1551C46.2621 25.1707 46.0766 25.1785 45.8969 25.1785C45.4438 25.1785 45.0375 25.1141 44.6781 24.9852C44.3188 24.8563 44.0141 24.6668 43.7641 24.4168C43.5141 24.1629 43.3227 23.8504 43.1899 23.4793C43.057 23.1082 42.9906 22.6785 42.9906 22.1902C42.9906 21.7059 43.057 21.2664 43.1899 20.8719C43.3227 20.4734 43.5102 20.1336 43.7524 19.8524C43.9945 19.5672 44.2875 19.3484 44.6313 19.1961C44.9789 19.0399 45.3656 18.9617 45.7914 18.9617C46.2133 18.9617 46.5863 19.0281 46.9106 19.1609C47.2348 19.2899 47.5063 19.4715 47.725 19.7059C47.9438 19.9402 48.1098 20.2195 48.2231 20.5438C48.3363 20.868 48.393 21.2234 48.393 21.6102ZM46.9399 21.4051C46.9438 21.1707 46.9145 20.9676 46.852 20.7957C46.7895 20.6199 46.7035 20.4754 46.5942 20.3621C46.4887 20.2488 46.3637 20.1649 46.2192 20.1102C46.0785 20.0555 45.9262 20.0281 45.7621 20.0281C45.4028 20.0281 45.1078 20.1492 44.8774 20.3914C44.6469 20.6297 44.5102 20.9676 44.4672 21.4051H46.9399ZM53.6371 21.4051C53.6449 21.1824 53.6332 20.993 53.602 20.8367C53.5746 20.6805 53.5278 20.5516 53.4613 20.45C53.3988 20.3484 53.3207 20.2742 53.227 20.2274C53.1332 20.1805 53.0258 20.157 52.9047 20.157C52.6938 20.157 52.475 20.2449 52.2485 20.4207C52.0258 20.5926 51.7797 20.8777 51.5102 21.2762V25.0438H50.0453V19.0906H51.3403L51.393 19.9578C51.4906 19.8055 51.6 19.6688 51.7211 19.5477C51.8461 19.4266 51.9828 19.3231 52.1313 19.2371C52.2836 19.1473 52.4516 19.0789 52.6352 19.032C52.8188 18.9852 53.0199 18.9617 53.2387 18.9617C53.5395 18.9617 53.8051 19.0145 54.0356 19.1199C54.2699 19.2215 54.4653 19.3738 54.6215 19.577C54.7817 19.7801 54.8988 20.0359 54.9731 20.3445C55.0512 20.6492 55.0844 21.0027 55.0727 21.4051H53.6371ZM61.4711 24.7449C61.1313 24.8817 60.8012 24.9832 60.4809 25.0496C60.1645 25.116 59.8344 25.1492 59.4906 25.1492C58.9399 25.1492 58.4516 25.0692 58.0258 24.909C57.6039 24.7449 57.2465 24.5027 56.9535 24.1824C56.6645 23.8621 56.4438 23.4656 56.2914 22.993C56.143 22.5164 56.0688 21.9637 56.0688 21.3348C56.0688 20.6902 56.1508 20.118 56.3149 19.618C56.4789 19.1141 56.7133 18.6902 57.018 18.3465C57.3227 17.9988 57.6918 17.7352 58.1254 17.5555C58.5629 17.3719 59.0531 17.2801 59.5961 17.2801C59.7719 17.2801 59.936 17.284 60.0883 17.2918C60.2445 17.2996 60.3969 17.3152 60.5453 17.3387C60.6938 17.3582 60.8442 17.3856 60.9965 17.4207C61.1488 17.4559 61.307 17.5008 61.4711 17.5555V18.9852C61.1391 18.8289 60.8227 18.7176 60.5219 18.6512C60.2211 18.5848 59.9477 18.5516 59.7016 18.5516C59.3383 18.5516 59.0278 18.618 58.7699 18.7508C58.5121 18.8797 58.2992 19.0633 58.1313 19.3016C57.9672 19.5359 57.8461 19.8172 57.768 20.1453C57.6899 20.4695 57.6508 20.827 57.6508 21.2176C57.6508 21.6317 57.6899 22.0027 57.768 22.3309C57.85 22.6551 57.975 22.9305 58.143 23.157C58.311 23.3836 58.5258 23.5574 58.7875 23.6785C59.0492 23.7957 59.3598 23.8543 59.7192 23.8543C59.8481 23.8543 59.9867 23.8426 60.1352 23.8192C60.2875 23.7918 60.4399 23.7586 60.5922 23.7195C60.7485 23.6766 60.9008 23.6277 61.0492 23.5731C61.2016 23.5145 61.3422 23.4559 61.4711 23.3973V24.7449ZM68.3617 22.0203C68.3617 22.4891 68.2953 22.9188 68.1625 23.3094C68.0297 23.6961 67.8383 24.0281 67.5883 24.3055C67.3383 24.5828 67.0317 24.7977 66.6684 24.95C66.3051 25.1024 65.891 25.1785 65.4262 25.1785C64.9848 25.1785 64.5903 25.1141 64.2426 24.9852C63.8949 24.8563 63.6 24.6649 63.3578 24.4109C63.1156 24.1531 62.9301 23.8328 62.8012 23.45C62.6723 23.0633 62.6078 22.6141 62.6078 22.1024C62.6078 21.6297 62.6742 21.2 62.807 20.8133C62.9438 20.4266 63.1371 20.0965 63.3871 19.8231C63.641 19.5496 63.9496 19.3387 64.3129 19.1902C64.6762 19.0379 65.0863 18.9617 65.5434 18.9617C65.9887 18.9617 66.3852 19.0281 66.7328 19.1609C67.0805 19.2899 67.3754 19.4832 67.6176 19.741C67.8598 19.9988 68.0434 20.3192 68.1684 20.702C68.2973 21.0809 68.3617 21.5203 68.3617 22.0203ZM66.8735 22.0555C66.8735 21.4383 66.7563 20.9754 66.5219 20.6668C66.2914 20.3543 65.9496 20.1981 65.4965 20.1981C65.2465 20.1981 65.0336 20.2469 64.8578 20.3445C64.682 20.4422 64.5375 20.577 64.4242 20.7488C64.311 20.9168 64.227 21.1141 64.1723 21.3406C64.1215 21.5672 64.0961 21.8094 64.0961 22.0672C64.0961 22.6883 64.2211 23.157 64.4711 23.4734C64.7211 23.7859 65.0629 23.9422 65.4965 23.9422C65.7348 23.9422 65.9418 23.8953 66.1176 23.8016C66.2934 23.7039 66.436 23.5711 66.5453 23.4031C66.6547 23.2313 66.7367 23.0301 66.7914 22.7996C66.8461 22.5692 66.8735 22.3211 66.8735 22.0555ZM73.1488 25.0438V21.1649C73.1488 20.5125 72.9067 20.1863 72.4223 20.1863C72.1801 20.1863 71.9477 20.284 71.725 20.4793C71.5063 20.6746 71.2738 20.9402 71.0278 21.2762V25.0438H69.5981V19.0906H70.8344L70.8695 19.9695C70.9906 19.8172 71.1156 19.6785 71.2445 19.5535C71.3774 19.4285 71.5199 19.3231 71.6723 19.2371C71.8246 19.1473 71.9887 19.0789 72.1645 19.032C72.3403 18.9852 72.5375 18.9617 72.7563 18.9617C73.061 18.9617 73.3266 19.0125 73.5531 19.1141C73.7797 19.2117 73.9692 19.3524 74.1215 19.5359C74.2738 19.7156 74.3871 19.9344 74.4613 20.1922C74.5395 20.4461 74.5785 20.7313 74.5785 21.0477V25.0438H73.1488ZM81.1059 24.9852C80.8481 25.0438 80.5883 25.0906 80.3266 25.1258C80.0649 25.1609 79.8168 25.1785 79.5824 25.1785C79.1918 25.1785 78.8539 25.1375 78.5688 25.0555C78.2875 24.9734 78.0531 24.8484 77.8656 24.6805C77.682 24.5125 77.5453 24.2996 77.4555 24.0418C77.3695 23.7801 77.3266 23.4695 77.3266 23.1102V20.2039H75.727V19.0906H77.3266V17.5672L78.7914 17.1863V19.0906H81.1059V20.2039H78.7914V23.0047C78.7914 23.3445 78.8695 23.6024 79.0258 23.7781C79.182 23.95 79.4438 24.0359 79.811 24.0359C80.0453 24.0359 80.2738 24.0164 80.4965 23.9774C80.7192 23.9383 80.9223 23.8934 81.1059 23.8426V24.9852ZM86.6254 21.4051C86.6332 21.1824 86.6215 20.993 86.5903 20.8367C86.5629 20.6805 86.516 20.5516 86.4496 20.45C86.3871 20.3484 86.309 20.2742 86.2153 20.2274C86.1215 20.1805 86.0141 20.157 85.893 20.157C85.682 20.157 85.4633 20.2449 85.2367 20.4207C85.0141 20.5926 84.768 20.8777 84.4985 21.2762V25.0438H83.0336V19.0906H84.3285L84.3813 19.9578C84.4789 19.8055 84.5883 19.6688 84.7094 19.5477C84.8344 19.4266 84.9711 19.3231 85.1195 19.2371C85.2719 19.1473 85.4399 19.0789 85.6235 19.032C85.807 18.9852 86.0082 18.9617 86.227 18.9617C86.5278 18.9617 86.7934 19.0145 87.0238 19.1199C87.2582 19.2215 87.4535 19.3738 87.6098 19.577C87.7699 19.7801 87.8871 20.0359 87.9613 20.3445C88.0395 20.6492 88.0727 21.0027 88.061 21.4051H86.6254ZM94.7524 22.0203C94.7524 22.4891 94.686 22.9188 94.5531 23.3094C94.4203 23.6961 94.2289 24.0281 93.9789 24.3055C93.7289 24.5828 93.4223 24.7977 93.059 24.95C92.6957 25.1024 92.2817 25.1785 91.8168 25.1785C91.3754 25.1785 90.9809 25.1141 90.6332 24.9852C90.2856 24.8563 89.9906 24.6649 89.7485 24.4109C89.5063 24.1531 89.3207 23.8328 89.1918 23.45C89.0629 23.0633 88.9985 22.6141 88.9985 22.1024C88.9985 21.6297 89.0649 21.2 89.1977 20.8133C89.3344 20.4266 89.5278 20.0965 89.7778 19.8231C90.0317 19.5496 90.3403 19.3387 90.7035 19.1902C91.0668 19.0379 91.477 18.9617 91.934 18.9617C92.3793 18.9617 92.7758 19.0281 93.1235 19.1609C93.4711 19.2899 93.766 19.4832 94.0082 19.741C94.2504 19.9988 94.434 20.3192 94.559 20.702C94.6879 21.0809 94.7524 21.5203 94.7524 22.0203ZM93.2641 22.0555C93.2641 21.4383 93.1469 20.9754 92.9125 20.6668C92.682 20.3543 92.3403 20.1981 91.8871 20.1981C91.6371 20.1981 91.4242 20.2469 91.2485 20.3445C91.0727 20.4422 90.9281 20.577 90.8149 20.7488C90.7016 20.9168 90.6176 21.1141 90.5629 21.3406C90.5121 21.5672 90.4867 21.8094 90.4867 22.0672C90.4867 22.6883 90.6117 23.157 90.8617 23.4734C91.1117 23.7859 91.4535 23.9422 91.8871 23.9422C92.1254 23.9422 92.3324 23.8953 92.5082 23.8016C92.684 23.7039 92.8266 23.5711 92.936 23.4031C93.0453 23.2313 93.1274 23.0301 93.182 22.7996C93.2367 22.5692 93.2641 22.3211 93.2641 22.0555ZM97.9106 17.8777H96.2289V16.7645H99.3754V23.9305H101.092V25.0438H96.0238V23.9305H97.9106V17.8777ZM104.508 17.8777H102.827V16.7645H105.973V23.9305H107.69V25.0438H102.622V23.9305H104.508V17.8777ZM114.37 21.6102C114.37 21.7078 114.366 21.8348 114.358 21.991C114.354 22.1473 114.346 22.2938 114.334 22.4305H110.42C110.42 22.6922 110.459 22.9227 110.538 23.1219C110.62 23.3211 110.733 23.4891 110.877 23.6258C111.026 23.7586 111.202 23.8602 111.405 23.9305C111.612 24.0008 111.84 24.0359 112.09 24.0359C112.379 24.0359 112.688 24.0145 113.016 23.9715C113.348 23.9246 113.692 23.8504 114.047 23.7488V24.8856C113.895 24.9285 113.729 24.9676 113.549 25.0027C113.37 25.0379 113.186 25.0692 112.998 25.0965C112.811 25.1238 112.622 25.1434 112.43 25.1551C112.239 25.1707 112.053 25.1785 111.873 25.1785C111.42 25.1785 111.014 25.1141 110.655 24.9852C110.295 24.8563 109.991 24.6668 109.741 24.4168C109.491 24.1629 109.299 23.8504 109.166 23.4793C109.034 23.1082 108.967 22.6785 108.967 22.1902C108.967 21.7059 109.034 21.2664 109.166 20.8719C109.299 20.4734 109.487 20.1336 109.729 19.8524C109.971 19.5672 110.264 19.3484 110.608 19.1961C110.955 19.0399 111.342 18.9617 111.768 18.9617C112.19 18.9617 112.563 19.0281 112.887 19.1609C113.211 19.2899 113.483 19.4715 113.702 19.7059C113.92 19.9402 114.086 20.2195 114.2 20.5438C114.313 20.868 114.37 21.2234 114.37 21.6102ZM112.916 21.4051C112.92 21.1707 112.891 20.9676 112.829 20.7957C112.766 20.6199 112.68 20.4754 112.571 20.3621C112.465 20.2488 112.34 20.1649 112.196 20.1102C112.055 20.0555 111.903 20.0281 111.739 20.0281C111.379 20.0281 111.084 20.1492 110.854 20.3914C110.623 20.6297 110.487 20.9676 110.444 21.4051H112.916ZM119.614 21.4051C119.622 21.1824 119.61 20.993 119.579 20.8367C119.551 20.6805 119.504 20.5516 119.438 20.45C119.375 20.3484 119.297 20.2742 119.204 20.2274C119.11 20.1805 119.002 20.157 118.881 20.157C118.67 20.157 118.452 20.2449 118.225 20.4207C118.002 20.5926 117.756 20.8777 117.487 21.2762V25.0438H116.022V19.0906H117.317L117.37 19.9578C117.467 19.8055 117.577 19.6688 117.698 19.5477C117.823 19.4266 117.959 19.3231 118.108 19.2371C118.26 19.1473 118.428 19.0789 118.612 19.032C118.795 18.9852 118.997 18.9617 119.215 18.9617C119.516 18.9617 119.782 19.0145 120.012 19.1199C120.247 19.2215 120.442 19.3738 120.598 19.577C120.758 19.7801 120.875 20.0359 120.95 20.3445C121.028 20.6492 121.061 21.0027 121.049 21.4051H119.614Z" fill="black"/>
<path d="M212.061 22.932C212.646 22.3462 212.646 21.3965 212.061 20.8107L202.515 11.2647C201.929 10.6789 200.979 10.6789 200.393 11.2647C199.808 11.8505 199.808 12.8003 200.393 13.3861L208.879 21.8713L200.393 30.3566C199.808 30.9424 199.808 31.8922 200.393 32.4779C200.979 33.0637 201.929 33.0637 202.515 32.4779L212.061 22.932ZM150 23.3713H211V20.3713H150V23.3713Z" fill="black"/>
<rect x="238.5" y="2.5" width="115" height="37" rx="2.5" fill="#7DE77B" stroke="black" stroke-width="3"/>
<path d="M276 22.515C276 23.0032 275.933 23.4329 275.8 23.804C275.672 24.1712 275.484 24.4778 275.238 24.7239C274.996 24.97 274.699 25.1556 274.347 25.2806C273.996 25.4056 273.601 25.4681 273.164 25.4681C272.672 25.4681 272.25 25.4056 271.898 25.2806C271.547 25.1556 271.261 24.9759 271.043 24.7415C270.824 24.5071 270.666 24.222 270.568 23.886C270.47 23.5501 270.422 23.1732 270.422 22.7552V17.6751H271.863V22.6673C271.863 22.9251 271.884 23.1536 271.927 23.3528C271.974 23.5521 272.052 23.722 272.162 23.8626C272.275 23.9993 272.416 24.1028 272.584 24.1732C272.752 24.2435 272.963 24.2786 273.216 24.2786C273.455 24.2786 273.656 24.2493 273.82 24.1907C273.984 24.1282 274.121 24.0306 274.23 23.8978C274.339 23.761 274.422 23.5872 274.476 23.3763C274.531 23.1653 274.558 22.9095 274.558 22.6087V17.6751H276V22.515ZM282.234 23.5814C282.234 23.9212 282.158 24.2122 282.006 24.4544C281.857 24.6927 281.658 24.888 281.408 25.0403C281.162 25.1888 280.881 25.2962 280.564 25.3626C280.252 25.4329 279.931 25.4681 279.603 25.4681C279.166 25.4681 278.771 25.4466 278.42 25.4036C278.068 25.3646 277.736 25.306 277.423 25.2278V23.9388C277.791 24.0911 278.156 24.2025 278.519 24.2728C278.886 24.3392 279.232 24.3724 279.556 24.3724C279.931 24.3724 280.211 24.3138 280.394 24.1966C280.582 24.0755 280.675 23.9193 280.675 23.7278C280.675 23.638 280.656 23.556 280.617 23.4818C280.578 23.4075 280.504 23.3372 280.394 23.2708C280.289 23.2005 280.138 23.1302 279.943 23.0599C279.748 22.9857 279.492 22.9036 279.175 22.8138C278.882 22.7318 278.625 22.64 278.402 22.5384C278.183 22.4329 278.002 22.3099 277.857 22.1693C277.713 22.0286 277.603 21.8665 277.529 21.6829C277.459 21.4954 277.423 21.2767 277.423 21.0267C277.423 20.7845 277.478 20.556 277.588 20.3411C277.697 20.1263 277.859 19.9388 278.074 19.7786C278.293 19.6146 278.564 19.4857 278.888 19.3919C279.213 19.2982 279.591 19.2513 280.025 19.2513C280.4 19.2513 280.732 19.2708 281.021 19.3099C281.31 19.3489 281.566 19.3919 281.789 19.4388V20.6048C281.449 20.4954 281.129 20.4193 280.828 20.3763C280.531 20.3294 280.236 20.306 279.943 20.306C279.65 20.306 279.414 20.3587 279.234 20.4642C279.058 20.5696 278.97 20.7161 278.97 20.9036C278.97 20.9935 278.988 21.0735 279.023 21.1439C279.058 21.2142 279.127 21.2825 279.228 21.3489C279.334 21.4153 279.478 21.4857 279.662 21.5599C279.849 21.6302 280.095 21.7083 280.4 21.7943C280.744 21.8919 281.033 21.9974 281.267 22.1107C281.502 22.22 281.689 22.345 281.83 22.4857C281.974 22.6263 282.078 22.7864 282.14 22.9661C282.203 23.1458 282.234 23.3509 282.234 23.5814ZM289.107 21.8997C289.107 21.9974 289.103 22.1243 289.095 22.2806C289.091 22.4368 289.084 22.5833 289.072 22.72H285.158C285.158 22.9818 285.197 23.2122 285.275 23.4114C285.357 23.6107 285.47 23.7786 285.615 23.9153C285.763 24.0482 285.939 24.1497 286.142 24.22C286.349 24.2903 286.578 24.3255 286.828 24.3255C287.117 24.3255 287.425 24.304 287.754 24.261C288.086 24.2142 288.429 24.14 288.785 24.0384V25.1751C288.632 25.2181 288.466 25.2571 288.287 25.2923C288.107 25.3275 287.923 25.3587 287.736 25.386C287.548 25.4134 287.359 25.4329 287.168 25.4446C286.976 25.4603 286.791 25.4681 286.611 25.4681C286.158 25.4681 285.752 25.4036 285.392 25.2747C285.033 25.1458 284.728 24.9564 284.478 24.7064C284.228 24.4525 284.037 24.14 283.904 23.7689C283.771 23.3978 283.705 22.9681 283.705 22.4798C283.705 21.9954 283.771 21.556 283.904 21.1614C284.037 20.763 284.224 20.4232 284.466 20.1419C284.709 19.8568 285.002 19.638 285.345 19.4857C285.693 19.3294 286.08 19.2513 286.506 19.2513C286.927 19.2513 287.3 19.3177 287.625 19.4505C287.949 19.5794 288.22 19.761 288.439 19.9954C288.658 20.2298 288.824 20.5091 288.937 20.8333C289.05 21.1575 289.107 21.513 289.107 21.8997ZM287.654 21.6946C287.658 21.4603 287.629 21.2571 287.566 21.0853C287.504 20.9095 287.418 20.765 287.308 20.6517C287.203 20.5384 287.078 20.4544 286.933 20.3997C286.793 20.345 286.64 20.3177 286.476 20.3177C286.117 20.3177 285.822 20.4388 285.591 20.681C285.361 20.9193 285.224 21.2571 285.181 21.6946H287.654ZM294.351 21.6946C294.359 21.472 294.347 21.2825 294.316 21.1263C294.289 20.97 294.242 20.8411 294.175 20.7396C294.113 20.638 294.035 20.5638 293.941 20.5169C293.847 20.47 293.74 20.4466 293.619 20.4466C293.408 20.4466 293.189 20.5345 292.963 20.7103C292.74 20.8821 292.494 21.1673 292.224 21.5657V25.3333H290.759V19.3802H292.054L292.107 20.2474C292.205 20.095 292.314 19.9583 292.435 19.8372C292.56 19.7161 292.697 19.6126 292.845 19.5267C292.998 19.4368 293.166 19.3685 293.349 19.3216C293.533 19.2747 293.734 19.2513 293.953 19.2513C294.254 19.2513 294.519 19.304 294.75 19.4095C294.984 19.511 295.179 19.6634 295.336 19.8665C295.496 20.0696 295.613 20.3255 295.687 20.6341C295.765 20.9388 295.798 21.2923 295.787 21.6946H294.351ZM300.92 25.3333L299.841 22.8724C299.74 22.638 299.597 22.4622 299.414 22.345C299.234 22.2239 299.021 22.1634 298.775 22.1634H298.5V25.3333H297.058V17.6751H299.291C299.713 17.6751 300.095 17.7122 300.439 17.7864C300.783 17.8568 301.076 17.9759 301.318 18.1439C301.56 18.3118 301.746 18.5306 301.875 18.8001C302.007 19.0696 302.074 19.3997 302.074 19.7903C302.074 20.0716 302.033 20.3216 301.951 20.5403C301.869 20.7591 301.754 20.9485 301.605 21.1087C301.457 21.265 301.279 21.3919 301.072 21.4896C300.869 21.5872 300.646 21.6556 300.404 21.6946C300.591 21.7337 300.763 21.8411 300.92 22.0169C301.076 22.1888 301.232 22.4388 301.388 22.7669L302.613 25.3333H300.92ZM300.562 19.931C300.562 19.556 300.443 19.2864 300.205 19.1224C299.966 18.9583 299.609 18.8763 299.132 18.8763H298.5V21.0384H299.086C299.308 21.0384 299.509 21.015 299.689 20.9681C299.873 20.9212 300.029 20.8509 300.158 20.7571C300.287 20.6634 300.386 20.5482 300.457 20.4114C300.527 20.2708 300.562 20.1107 300.562 19.931ZM308.9 21.8997C308.9 21.9974 308.896 22.1243 308.888 22.2806C308.884 22.4368 308.877 22.5833 308.865 22.72H304.951C304.951 22.9818 304.99 23.2122 305.068 23.4114C305.15 23.6107 305.263 23.7786 305.408 23.9153C305.556 24.0482 305.732 24.1497 305.935 24.22C306.142 24.2903 306.371 24.3255 306.621 24.3255C306.91 24.3255 307.218 24.304 307.547 24.261C307.879 24.2142 308.222 24.14 308.578 24.0384V25.1751C308.425 25.2181 308.259 25.2571 308.08 25.2923C307.9 25.3275 307.716 25.3587 307.529 25.386C307.341 25.4134 307.152 25.4329 306.961 25.4446C306.769 25.4603 306.584 25.4681 306.404 25.4681C305.951 25.4681 305.545 25.4036 305.185 25.2747C304.826 25.1458 304.521 24.9564 304.271 24.7064C304.021 24.4525 303.83 24.14 303.697 23.7689C303.564 23.3978 303.498 22.9681 303.498 22.4798C303.498 21.9954 303.564 21.556 303.697 21.1614C303.83 20.763 304.017 20.4232 304.259 20.1419C304.502 19.8568 304.795 19.638 305.138 19.4857C305.486 19.3294 305.873 19.2513 306.298 19.2513C306.72 19.2513 307.093 19.3177 307.418 19.4505C307.742 19.5794 308.013 19.761 308.232 19.9954C308.451 20.2298 308.617 20.5091 308.73 20.8333C308.843 21.1575 308.9 21.513 308.9 21.8997ZM307.447 21.6946C307.451 21.4603 307.422 21.2571 307.359 21.0853C307.297 20.9095 307.211 20.765 307.101 20.6517C306.996 20.5384 306.871 20.4544 306.726 20.3997C306.586 20.345 306.433 20.3177 306.269 20.3177C305.91 20.3177 305.615 20.4388 305.384 20.681C305.154 20.9193 305.017 21.2571 304.974 21.6946H307.447ZM315.668 22.2513C315.668 22.7982 315.589 23.2708 315.433 23.6693C315.281 24.0677 315.066 24.3997 314.789 24.6653C314.515 24.9271 314.191 25.1224 313.816 25.2513C313.441 25.3763 313.033 25.4388 312.591 25.4388C312.443 25.4388 312.295 25.429 312.146 25.4095C311.998 25.39 311.863 25.3646 311.742 25.3333V27.6595H310.312V19.3802H311.548L311.584 20.2591C311.705 20.1068 311.83 19.9681 311.959 19.8431C312.091 19.7181 312.234 19.6126 312.386 19.5267C312.539 19.4368 312.703 19.3685 312.879 19.3216C313.054 19.2747 313.252 19.2513 313.47 19.2513C313.822 19.2513 314.134 19.3216 314.408 19.4622C314.681 19.6028 314.91 19.804 315.093 20.0657C315.281 20.3235 315.423 20.638 315.521 21.0091C315.619 21.3763 315.668 21.7903 315.668 22.2513ZM314.168 22.3099C314.168 21.9818 314.144 21.7025 314.097 21.472C314.05 21.2415 313.982 21.0521 313.892 20.9036C313.806 20.7552 313.699 20.6478 313.57 20.5814C313.445 20.511 313.3 20.4759 313.136 20.4759C312.894 20.4759 312.662 20.5735 312.439 20.7689C312.22 20.9642 311.988 21.2298 311.742 21.5657V24.1673C311.855 24.2103 311.994 24.2454 312.158 24.2728C312.326 24.3001 312.496 24.3138 312.668 24.3138C312.894 24.3138 313.099 24.2669 313.283 24.1732C313.47 24.0794 313.629 23.9466 313.757 23.7747C313.89 23.6028 313.992 23.3939 314.062 23.1478C314.132 22.8978 314.168 22.6185 314.168 22.3099ZM322.271 22.3099C322.271 22.7786 322.205 23.2083 322.072 23.5989C321.939 23.9857 321.748 24.3177 321.498 24.595C321.248 24.8724 320.941 25.0872 320.578 25.2396C320.214 25.3919 319.8 25.4681 319.336 25.4681C318.894 25.4681 318.5 25.4036 318.152 25.2747C317.804 25.1458 317.509 24.9544 317.267 24.7005C317.025 24.4427 316.839 24.1224 316.711 23.7396C316.582 23.3528 316.517 22.9036 316.517 22.3919C316.517 21.9193 316.584 21.4896 316.716 21.1028C316.853 20.7161 317.047 20.386 317.297 20.1126C317.55 19.8392 317.859 19.6282 318.222 19.4798C318.586 19.3275 318.996 19.2513 319.453 19.2513C319.898 19.2513 320.295 19.3177 320.642 19.4505C320.99 19.5794 321.285 19.7728 321.527 20.0306C321.769 20.2884 321.953 20.6087 322.078 20.9915C322.207 21.3704 322.271 21.8099 322.271 22.3099ZM320.783 22.345C320.783 21.7278 320.666 21.265 320.431 20.9564C320.201 20.6439 319.859 20.4876 319.406 20.4876C319.156 20.4876 318.943 20.5364 318.767 20.6341C318.591 20.7318 318.447 20.8665 318.334 21.0384C318.22 21.2064 318.136 21.4036 318.082 21.6302C318.031 21.8568 318.006 22.0989 318.006 22.3568C318.006 22.9778 318.131 23.4466 318.381 23.763C318.631 24.0755 318.972 24.2318 319.406 24.2318C319.644 24.2318 319.851 24.1849 320.027 24.0911C320.203 23.9935 320.345 23.8607 320.455 23.6927C320.564 23.5208 320.646 23.3196 320.701 23.0892C320.756 22.8587 320.783 22.6107 320.783 22.345Z" fill="black"/>
</svg>
